<svg width="200" height="60" viewBox="0 0 200 60" fill="none" xmlns="http://www.w3.org/2000/svg">
<g clip-path="url(#clip0_2054_481)">
<path fill-rule="evenodd" clip-rule="evenodd" d="M23.5439 5.33057C36.5456 5.33057 47.0878 16.1128 47.0878 29.4129C47.0878 42.7129 36.5456 53.4952 23.5439 53.4952C10.5423 53.4952 0 42.7129 0 29.4129C0 16.1128 10.5423 5.33057 23.5439 5.33057Z" fill="white"/>
<path fill-rule="evenodd" clip-rule="evenodd" d="M22.4938 42.4146C21.0562 43.8189 19.9534 43.2802 21.1901 44.4906C21.6235 44.9144 21.4544 45.5968 22.6383 45.1515C23.0928 44.9791 23.4099 45.191 23.9244 42.6157C24.1181 41.646 23.8222 41.3191 24.3472 40.7265C24.3542 40.7157 24.252 39.0348 23.9561 39.4047C23.2408 40.3027 23.2408 41.6855 22.4973 42.4182L22.4938 42.4146Z" fill="url(#paint0_radial_2054_481)"/>
<path fill-rule="evenodd" clip-rule="evenodd" d="M21.4087 31.7077C21.7223 31.442 23.8646 28.9745 23.9597 28.8021C23.9949 28.741 24.0337 28.6799 24.0725 28.6225C23.8258 28.6117 23.5122 28.6189 23.1105 28.6404C22.279 28.6871 22.2367 28.3351 22.9062 28.0191C22.7864 28.0227 22.6525 28.0298 22.5116 28.037C21.2783 28.1089 21.828 27.272 23.8998 27.0349C25.9082 26.8051 25.2986 22.5202 27.7263 22.2005C28.0223 22.161 28.3535 22.3442 28.6953 22.6603C29.9179 22.9117 31.5704 26.1586 32.4654 27.1714C32.6275 27.3582 33.0961 29.2367 33.8501 30.2675C34.2377 30.3142 34.6711 30.0627 35.1468 29.3336C35.7035 28.486 33.8008 27.9544 34.2835 27.0314C34.9283 25.803 34.2377 25.8066 35.6577 24.2586C35.8338 24.0682 36.1122 21.827 37.9585 23.2457C38.2968 23.2744 38.7302 23.4828 39.2798 23.9784C39.9528 24.5854 41.1825 26.9523 41.1825 28.1556C41.1825 29.2079 37.9585 29.9586 41.1296 31.0469C41.563 31.1941 41.7004 31.4563 41.7251 31.7616C41.7427 31.9628 41.711 32.1818 41.6864 32.4045C42.1092 30.4542 46.214 33.0941 45.6855 30.465C45.6009 30.034 44.4276 28.9206 44.9738 27.9796C44.9984 27.9401 45.0231 27.9005 45.0513 27.861C44.2691 27.1032 44.1281 28.213 43.6736 28.6404C43.5397 28.7661 43.3142 27.9113 43.1451 27.1607C42.9337 27.3798 42.7822 27.8072 42.539 28.037C42.3135 28.2489 41.8097 25.5767 41.8097 25.5552C41.785 24.7614 42.5073 23.5582 42.2607 22.6926C41.8202 21.141 42.2431 18.6268 41.8661 17.6139L40.5025 13.9612L38.2756 11.3428C37.5498 10.6784 36.7852 10.0606 35.9818 9.49311L31.7642 7.14055C30.45 6.58025 29.0723 6.14206 27.6453 5.84036C26.9441 6.16002 26.0773 6.52997 25.9857 6.52997C25.7708 6.52997 23.5439 5.47042 24.1887 6.24981C26.3451 8.84661 21.7082 9.27402 22.0852 7.39557C22.2121 6.75624 21.9866 5.9984 21.6166 5.43091C20.3728 5.53507 19.1114 5.75057 17.9275 6.0415C15.9861 7.74755 14.0376 9.84869 12.3216 12.2084C12.674 12.5101 9.40419 13.8714 9.12936 14.2773C7.86091 16.1521 7.23373 15.089 6.02165 17.2727C5.56712 18.0916 3.8547 18.9249 3.81595 19.4206C3.77366 19.9952 1.99783 21.8162 1.00421 22.4986C0.768132 24.4597 1.98726 29.7179 4.40084 31.1367C4.37266 31.8011 4.49598 32.796 4.72853 33.421C4.19648 31.9879 4.43256 29.0032 5.41208 31.9053C6.2401 34.3548 7.41342 34.8074 7.80453 35.7987C8.15335 36.6894 10.8841 40.1734 9.88691 40.1841C9.17517 40.1913 9.63322 41.9477 10.3731 43.1724C10.6726 43.6717 11.8213 45.0473 11.8882 45.2879C11.9552 45.5358 11.772 45.5609 11.476 45.4639C12.3463 45.7584 14.7634 45.8842 16.6767 45.2412L16.6626 45.173C16.6555 44.9431 16.8881 44.3361 16.8387 43.607C16.7648 42.5116 16.8951 43 17.0043 42.2996C17.0713 41.8758 17.7936 40.942 18.1283 40.6151C18.9458 39.825 18.7238 39.2323 19.6681 38.8013C19.5236 38.7151 19.3298 38.3811 19.1854 37.9501C19.1748 37.9429 19.1678 37.9393 19.1572 37.9321C18.752 37.6843 17.931 35.4467 19.0515 34.556C19.2136 34.4267 20.2671 32.6847 21.4087 31.7149V31.7077ZM13.1884 17.3302C11.8283 15.599 12.5612 15.2039 13.1461 15.3691C14.3124 15.696 14.4991 16.382 16.0495 16.9064C19.4778 18.0593 18.8366 19.241 17.6632 19.5032C14.1292 20.3005 17.6174 21.4211 15.1721 22.161C12.8572 22.8614 14.1257 18.519 13.1884 17.3302Z" fill="url(#paint1_radial_2054_481)"/>
<path fill-rule="evenodd" clip-rule="evenodd" d="M22.5502 42.8241C21.472 43.9663 20.7039 43.5281 21.546 44.5086C21.842 44.8534 21.694 45.4065 22.5573 45.0438C22.8885 44.9037 23.1104 45.0761 23.565 42.9857C23.7376 42.1991 23.5368 41.9334 23.9314 41.4521C23.9385 41.4449 23.9244 40.0765 23.6989 40.3782C23.1563 41.1073 23.1069 42.2315 22.5502 42.8241Z" fill="#020016"/>
<path fill-rule="evenodd" clip-rule="evenodd" d="M24.4246 51.8645C23.7903 51.2827 21.6164 52.2524 20.7919 52.0369C19.9674 51.8214 18.6038 51.6418 17.9132 51.0097C17.811 50.9163 17.8956 50.6757 17.6912 50.6541C17.656 50.6505 14.5024 50.8517 15.9154 51.3689C16.1655 51.4587 18.9667 51.6957 18.4628 52.1447C18.3571 52.2381 18.0999 52.5003 18.1528 52.6798C18.5791 52.7876 18.3994 52.8558 19.0583 52.8235C19.4107 52.8055 20.6368 53.2186 22.2858 53.3012C24.1955 53.3946 25.383 53.2653 26.9721 52.9744C26.9791 52.9744 29.3504 52.6655 28.4167 52.2776C27.4266 51.8681 25.383 52.7373 24.4281 51.8645H24.4246ZM37.4192 41.6246C36.3727 41.9694 36.0133 45.0403 36.792 44.7099C37.4791 44.4153 38.2578 43.2552 38.2719 42.2531C38.2789 41.7934 37.6975 41.5348 37.4192 41.6282V41.6246ZM45.6818 30.4652C46.2068 33.0907 42.1054 30.4544 41.6826 32.4047C41.6192 32.9327 41.5875 33.4679 42.3098 33.748C43.5113 34.2113 43.1977 34.3335 44.142 34.3837C45.2167 34.4448 45.6923 33.7911 45.7029 33.9204C45.8615 35.569 43.6839 43.9053 37.909 48.4955C44.2371 43.5138 46.9255 36.158 47.0735 30.106C47.0806 29.8474 47.0876 29.5852 47.0876 29.323C47.0876 28.3712 47.0348 27.4338 46.9291 26.5143C46.5873 26.4317 46.39 26.3563 46.4217 25.9217C46.5662 23.9175 45.2906 24.1654 45.5937 24.7472C45.7945 25.128 46.3865 29.1578 45.0511 27.8648C44.3252 28.8274 45.5937 30.0198 45.6853 30.4688L45.6818 30.4652ZM40.4987 13.9542L41.8623 17.6069C42.2393 18.6198 41.8165 21.134 42.2569 22.6856C42.5036 23.5512 41.7813 24.7544 41.8059 25.5482C41.8059 25.5697 42.3098 28.2419 42.5353 28.03C42.7784 27.8002 42.9299 27.3728 43.1413 27.1537C43.0145 26.597 42.9229 26.0941 42.9229 26.0833C42.8982 25.268 43.6381 24.0325 43.3844 23.1417C42.9334 21.547 43.3668 18.9682 42.9792 17.9266L41.5804 14.1733L39.2937 11.4831C38.5502 10.8007 37.7645 10.165 36.9365 9.5831L32.6061 7.16948C31.0945 6.52657 29.5019 6.0381 27.8494 5.72921C27.7825 5.76154 27.712 5.79027 27.6415 5.8226C29.0685 6.1243 30.4462 6.56248 31.7605 7.12279L35.9781 9.47535C36.7814 10.0428 37.5496 10.6606 38.2719 11.3251L40.4987 13.9434V13.9542ZM35.143 29.3302C34.6638 30.0593 34.2304 30.3072 33.8464 30.2641C34.4277 31.0614 35.1747 31.3524 36.0838 29.9696C36.6581 29.0968 34.7026 28.5508 35.1959 27.6062C35.8583 26.3455 35.1501 26.3491 36.6088 24.758C36.7497 24.6036 36.9576 23.1525 37.9583 23.2423C36.112 21.8236 35.8301 24.0612 35.6574 24.2552C34.2375 25.8068 34.9281 25.7996 34.2833 27.028C33.8006 27.9474 35.7033 28.4826 35.1465 29.3302H35.143ZM26.137 28.8346C26.4929 28.6945 26.7184 28.9064 26.9368 28.6155C27.0848 28.4215 27.6521 28.4934 27.7684 28.7161C27.8036 28.7843 28.8254 29.0429 28.4026 29.3266C28.3321 29.3733 27.7613 29.4344 27.557 29.535C27.4618 29.5817 26.8205 29.6679 26.6831 29.5673C26.5034 29.438 25.7635 29.1866 26.137 28.8346ZM24.858 27.8469C26.9192 27.6098 25.9714 22.9693 28.4625 22.6425C28.5365 22.6317 28.614 22.6353 28.6915 22.6533C28.3497 22.3408 28.0185 22.1576 27.7226 22.1935C25.2949 22.5096 25.9044 26.7945 23.8961 27.028C21.8242 27.265 21.2711 28.1019 22.5078 28.03C22.6523 28.0229 22.7826 28.0157 22.9024 28.0121C23.2548 27.8469 24.1251 27.9295 24.8544 27.8433L24.858 27.8469ZM22.2682 32.6202C22.5888 32.3473 24.7804 29.6032 24.8791 29.4236C25.0905 29.0501 25.235 28.6658 24.0722 28.6191C24.0335 28.6801 23.9947 28.7376 23.9595 28.7987C23.8608 28.9711 21.7185 31.4386 21.4085 31.7043C20.2669 32.6777 19.2133 34.4161 19.0513 34.5454C17.9308 35.4397 18.7518 37.6737 19.157 37.9216C19.1675 37.9287 19.1746 37.9323 19.1852 37.9395C18.9068 37.117 19.0759 36.1975 19.83 35.5977C19.9956 35.4648 21.1019 33.6115 22.2717 32.6166L22.2682 32.6202ZM12.5117 16.2313C12.938 15.4555 14.1642 16.4863 15.1014 17.0251C15.8308 17.4453 18.3078 17.9194 18.6038 18.6773C18.5756 18.0092 17.589 17.4202 16.0528 16.903C14.5024 16.3822 14.3122 15.6962 13.1494 15.3657C12.9697 15.3154 12.1417 15.1969 12.5152 16.2277L12.5117 16.2313ZM9.35463 44.1532C7.68802 42.483 6.94809 39.5845 6.1236 37.3792C5.78887 36.4849 5.03836 34.1287 4.78115 33.5505C4.50984 32.9435 4.36538 31.8444 4.39709 31.1261C1.9835 29.7074 0.764379 24.4491 1.00045 22.4881C0.369749 24.6538 0.0314941 26.9453 0.0314941 29.3195C0.0314941 30.8603 0.172433 32.3652 0.447265 33.8234C0.450789 33.8306 1.04273 35.8815 1.71572 36.7004C2.76219 37.9683 3.72763 42.4615 6.51118 43.1187C7.18064 43.2768 7.3392 45.0834 9.12208 45.8484C10.2954 46.3513 10.2707 47.4862 12.2192 47.4144C12.5892 47.4 13.8929 47.8275 14.9076 47.4C16.162 46.8721 18.1986 47.2672 18.4276 44.6847C18.4347 44.6129 18.4382 44.5339 18.4417 44.4584C18.5086 42.8386 18.9843 41.6426 20.1929 40.8739C20.5311 40.6584 21.264 39.7641 19.6679 38.7943C18.7236 39.2218 18.9456 39.8144 18.1281 40.6082C17.7934 40.9314 17.0711 41.8688 17.0041 42.2927C16.8949 42.9966 16.7645 42.5046 16.8385 43.6C16.8878 44.3291 16.6553 44.9361 16.6623 45.166L16.6764 45.2343C14.7632 45.8772 12.3461 45.7515 11.4758 45.4569C10.8415 45.2486 9.68232 44.48 9.35463 44.1532ZM2.54021 18.5156C2.8679 18.1601 3.44575 18.1493 3.63954 17.6213C3.93904 16.806 4.74944 16.7701 4.68954 15.179C4.68954 15.143 4.72478 15.0425 4.74592 14.9096C3.87562 16.0661 3.17444 17.3376 2.54374 18.5156H2.54021ZM12.3144 12.1979C14.0409 9.8417 15.94 7.76929 17.9202 6.03091C14.0162 7.00785 10.4927 8.98329 7.62813 11.6735C7.19474 12.0901 6.67679 12.8803 6.67679 13.2394C6.67679 14.2308 7.02913 13.6489 7.09256 13.5663C7.51185 13.0275 11.4687 11.9824 12.3108 12.2014L12.3144 12.1979ZM5.57041 32.3437C5.76068 31.5499 5.82058 31.2985 5.98618 30.5334C6.49356 28.1414 7.53652 25.9074 8.35044 23.7882C8.76621 23.1705 9.61889 22.3659 10.1333 21.8092C12.1206 19.6578 11.7048 18.0308 12.0219 16.4109C12.1417 16.217 12.2721 16.005 12.4165 15.7788C12.4976 15.6531 12.5821 15.5202 12.6667 15.3837C12.6667 15.3801 12.6702 15.3801 12.6702 15.3765C13.7343 13.7207 15.3234 11.4041 17.057 9.03716C17.7088 8.7606 18.7729 8.31164 19.0935 8.21826C20.813 7.7226 21.5142 7.28082 22.092 6.70615C22.1202 6.68101 22.1449 6.65228 22.1731 6.62354C22.5924 6.19254 23.0152 5.73639 22.7192 5.34131C22.1061 5.36286 21.5001 5.40955 20.8976 5.47779C20.8236 5.48498 20.7531 5.49575 20.6791 5.50293C20.6756 5.50653 20.6685 5.51012 20.6615 5.51371C19.2944 6.51579 17.966 7.70824 16.6764 9.08026L16.5284 9.2383C16.5249 9.24189 16.5214 9.24548 16.5179 9.24907C14.6152 11.3071 12.8041 13.7531 11.1023 16.5474C11.0494 16.8132 11.0212 17.061 11.0036 17.2981C10.9931 17.7183 10.9966 18.2283 10.8415 18.8317C10.683 19.5321 10.3201 20.3043 9.36873 21.3351L9.3652 21.3387C8.84725 21.899 8.02276 22.5743 7.60699 23.192C6.79658 25.3111 6.12007 27.5703 5.61269 29.9624C5.49642 30.5155 5.39071 31.065 5.2991 31.6074C5.33081 31.6936 5.36605 31.7905 5.40128 31.8911C5.45414 32.0491 5.50699 32.1964 5.56336 32.3365L5.57041 32.3437Z" fill="#00060D"/>
<path fill-rule="evenodd" clip-rule="evenodd" d="M19.0233 58.4481C11.2082 58.4481 1.89562 47.5904 5.62346 29.9696C6.13085 27.5775 6.80736 25.3183 7.61776 23.1992C8.03353 22.5815 8.85802 21.9062 9.37598 21.3459C11.3632 19.1945 10.7959 18.1709 11.1131 16.551C16.7471 7.29881 23.5686 1.83944 31.0313 1.83944C38.4905 1.83944 42.8808 7.23057 44.5368 15.3119C44.5474 15.3693 44.5615 15.4232 44.5721 15.4807C44.794 16.4469 46.0237 21.0406 46.443 22.2941C46.8518 9.46101 41.7956 0.000488281 31.4224 0.000488281C24.1323 0.000488281 15.5914 6.20334 9.89393 15.8901C9.3196 16.8671 8.92497 17.51 8.06172 18.5408C7.1597 19.6147 7.06809 21.504 6.55014 22.858C5.7045 25.0777 5.00685 27.4123 4.49595 29.8367C1.21558 45.3384 7.22313 57.2952 15.7288 59.5328C25.4184 62.0793 33.7409 53.646 37.6519 48.3914C36.9226 48.8691 35.6224 49.2821 34.8296 49.8029C34.6147 50.0436 34.3962 50.2806 34.1778 50.5141C29.7629 55.2012 26.8419 58.4481 19.0268 58.4481H19.0233Z" fill="url(#paint2_radial_2054_481)"/>
<path fill-rule="evenodd" clip-rule="evenodd" d="M61.6223 25.4871V36.5855C61.6223 36.7291 61.5765 36.8584 61.4849 36.9734C61.3898 37.0883 61.2594 37.1565 61.122 37.2068C60.9634 37.2571 60.7908 37.2858 60.6322 37.3038C60.3962 37.3325 60.153 37.3397 59.917 37.3397C59.6809 37.3397 59.4378 37.3325 59.2017 37.3038C59.0396 37.2858 58.8705 37.2571 58.7119 37.2068C58.5745 37.1601 58.4442 37.0883 58.349 36.9734C58.2574 36.8584 58.2116 36.7255 58.2116 36.5855V25.4871H55.0369C54.8995 25.4871 54.7692 25.4404 54.6635 25.3471C54.5683 25.2644 54.5014 25.1495 54.452 25.0274C54.3992 24.8873 54.371 24.7437 54.3534 24.6C54.3287 24.4096 54.3252 24.2121 54.3252 24.0181C54.3252 23.8206 54.3287 23.623 54.3534 23.4255C54.371 23.2818 54.3992 23.1274 54.452 22.9873C54.5014 22.8652 54.5683 22.7539 54.667 22.6677C54.7762 22.5815 54.9031 22.5419 55.0334 22.5419H64.797C64.9238 22.5419 65.0436 22.5815 65.1458 22.6605C65.255 22.7431 65.329 22.858 65.3784 22.9837C65.4347 23.1202 65.4594 23.2782 65.477 23.4255C65.5017 23.6195 65.5052 23.8206 65.5052 24.0181C65.5052 24.2121 65.5017 24.406 65.477 24.6C65.4594 24.7437 65.4312 24.8981 65.3784 25.0346C65.3255 25.1639 65.255 25.2824 65.1529 25.3542C65.0613 25.4368 64.9309 25.4871 64.797 25.4871H61.6223ZM74.402 30.4473C74.4372 30.4724 74.469 30.4975 74.5007 30.5227C74.7121 30.6915 74.8988 30.8926 75.0644 31.1081C75.2476 31.3452 75.4062 31.5966 75.5471 31.8624C75.7092 32.1641 75.8502 32.4766 75.977 32.7926L77.1503 35.587C77.2314 35.7953 77.323 36.0216 77.3723 36.2299C77.4075 36.3484 77.4393 36.4813 77.4393 36.6106C77.4393 36.7291 77.4146 36.8477 77.3617 36.9518C77.2842 37.0991 77.1468 37.1781 76.9918 37.232C76.8156 37.2858 76.6289 37.3074 76.4527 37.3218C76.1673 37.3433 75.8748 37.3433 75.5859 37.3433C75.3393 37.3433 75.0891 37.3397 74.846 37.3218C74.6804 37.3074 74.4971 37.2823 74.3386 37.2212C74.2012 37.1673 74.0743 37.0883 73.9827 36.959C73.9228 36.8656 73.877 36.7686 73.8453 36.6717L72.598 33.5182C72.4676 33.2057 72.3267 32.8932 72.1716 32.5879C72.0554 32.3616 71.9144 32.1425 71.7418 31.9594C71.5973 31.8049 71.4247 31.69 71.2309 31.6074C71.0159 31.5176 70.7763 31.4889 70.5473 31.4889H69.9589V36.5926C69.9589 36.7363 69.9096 36.8728 69.8215 36.977C69.7299 37.0919 69.5995 37.1637 69.4586 37.214C69.3 37.2643 69.1344 37.293 68.9758 37.311C68.7398 37.3397 68.4966 37.3469 68.2606 37.3469C68.0245 37.3469 67.7814 37.3397 67.5453 37.311C67.3832 37.293 67.2176 37.2643 67.0591 37.214C66.9181 37.1637 66.7807 37.0883 66.6926 36.9662C66.6116 36.8584 66.5693 36.7291 66.5693 36.5926V23.7559C66.5693 23.4147 66.6503 23.0699 66.9111 22.8365C67.1331 22.6425 67.4008 22.5527 67.6933 22.5527H71.2837C71.5903 22.5527 71.8968 22.5563 72.1998 22.5743C72.4183 22.5886 72.6367 22.6066 72.8587 22.6281C73.4049 22.7108 73.9404 22.8472 74.4408 23.0663C74.8988 23.2675 75.3181 23.5368 75.6705 23.896C76.0158 24.248 76.273 24.6575 76.4492 25.1208C76.6429 25.6308 76.7134 26.1767 76.7134 26.7191C76.7134 27.1824 76.6606 27.6529 76.5231 28.0983C76.3963 28.5113 76.2096 28.8921 75.9523 29.2333C75.6987 29.5745 75.3886 29.8618 75.0362 30.0953C74.8319 30.2318 74.6169 30.3503 74.3914 30.4544L74.402 30.4473ZM90.8074 31.7079C90.8074 32.5304 90.6946 33.3601 90.4127 34.1359C90.1555 34.8399 89.7715 35.4649 89.2394 35.9821C88.6933 36.5136 88.0449 36.8836 87.3332 37.1278C86.5122 37.4116 85.6384 37.5157 84.7752 37.5157C83.9577 37.5157 83.1262 37.4223 82.3439 37.1709C81.6498 36.9482 81.0121 36.5998 80.473 36.097C79.9409 35.5978 79.5569 34.9836 79.3032 34.2976C79.0107 33.5146 78.905 32.6633 78.905 31.8301V23.2351C78.905 23.0987 78.9473 22.9694 79.0283 22.8616C79.1164 22.7395 79.2574 22.6641 79.3983 22.6138C79.5533 22.5599 79.7295 22.5348 79.8916 22.5168C80.1277 22.4881 80.3743 22.4809 80.6104 22.4809C80.8429 22.4809 81.0825 22.4881 81.3151 22.5168C81.4772 22.5384 81.6498 22.5635 81.8013 22.6174C81.9352 22.6641 82.0621 22.7359 82.1607 22.8472C82.2523 22.9622 82.2981 23.0951 82.2981 23.2351V31.5858C82.2981 32.042 82.3439 32.5161 82.4884 32.9543C82.5976 33.2919 82.7632 33.608 83.0064 33.863C83.2319 34.1036 83.4996 34.2832 83.8097 34.3981C84.155 34.5274 84.525 34.5813 84.8914 34.5813C85.2579 34.5813 85.6314 34.5274 85.9731 34.3909C86.2726 34.2724 86.5369 34.1 86.7589 33.863C86.9879 33.6115 87.15 33.3098 87.2592 32.983C87.3931 32.5879 87.4424 32.1641 87.4424 31.7475V23.2316C87.4424 23.0951 87.4847 22.9658 87.5658 22.858C87.6538 22.7359 87.7913 22.6605 87.9287 22.6138C88.0837 22.5599 88.2599 22.5348 88.4255 22.5132C88.6616 22.4845 88.9047 22.4773 89.1407 22.4773C89.3733 22.4773 89.6129 22.4845 89.8454 22.5132C90.004 22.5348 90.1766 22.5599 90.3282 22.6138C90.4656 22.6605 90.603 22.7395 90.6911 22.858C90.7721 22.9658 90.8144 23.0951 90.8144 23.2316V31.7079H90.8074ZM96.6387 25.3973V28.2491H100.515C100.645 28.2491 100.768 28.2887 100.867 28.3677C100.969 28.4431 101.04 28.5508 101.092 28.6694C101.149 28.7987 101.177 28.9495 101.195 29.0896C101.219 29.2728 101.223 29.4595 101.223 29.6427C101.223 29.8295 101.219 30.0234 101.195 30.2066C101.177 30.3467 101.149 30.4904 101.092 30.6197C101.036 30.7454 100.959 30.8603 100.849 30.925C100.758 30.9932 100.638 31.0291 100.515 31.0291H96.6387V34.4161H101.328C101.459 34.4161 101.582 34.4556 101.681 34.5346C101.787 34.6136 101.857 34.725 101.91 34.8507C101.966 34.98 101.994 35.1308 102.012 35.2709C102.037 35.4577 102.04 35.6516 102.04 35.842C102.04 36.0323 102.037 36.2263 102.012 36.4131C101.994 36.5531 101.966 36.704 101.91 36.8333C101.857 36.959 101.787 37.0703 101.681 37.1494C101.582 37.2284 101.459 37.2679 101.328 37.2679H94.3731C94.0807 37.2679 93.8129 37.1781 93.5909 36.9841C93.3302 36.7543 93.2491 36.4059 93.2491 36.0647V23.7416C93.2491 23.4004 93.3302 23.0556 93.5909 22.8221C93.8129 22.6281 94.0807 22.5384 94.3731 22.5384H101.297C101.42 22.5384 101.536 22.5779 101.642 22.6533C101.748 22.7359 101.818 22.8508 101.868 22.9729C101.917 23.113 101.949 23.2531 101.966 23.3932C101.991 23.5835 101.994 23.7811 101.994 23.975C101.994 24.1618 101.991 24.3522 101.966 24.5353C101.949 24.6754 101.92 24.8263 101.864 24.9556C101.818 25.0705 101.751 25.1782 101.653 25.2644C101.547 25.3506 101.424 25.3902 101.297 25.3902H96.6422L96.6387 25.3973ZM69.9624 25.3291V28.7376H71.1076C71.4282 28.7376 71.7594 28.7017 72.0695 28.6011C72.3055 28.5221 72.531 28.4108 72.7213 28.2456C72.8869 28.1019 73.0102 27.9259 73.0913 27.7212C73.1829 27.4949 73.2181 27.2507 73.2181 27.0064C73.2181 26.6508 73.1512 26.2917 72.9574 25.9936C72.7601 25.6919 72.4394 25.5302 72.1047 25.4368C71.9602 25.3973 71.8087 25.3758 71.6607 25.3578C71.4247 25.3291 71.1745 25.3255 70.9384 25.3255H69.9659L69.9624 25.3291Z" fill="#017F01"/>
<path fill-rule="evenodd" clip-rule="evenodd" d="M120.394 26.7406L116.934 36.668C116.892 36.8009 116.821 36.923 116.719 37.0236C116.613 37.1277 116.483 37.1924 116.342 37.2391C116.184 37.2858 116.014 37.3109 115.852 37.3217C115.641 37.3361 115.426 37.3361 115.211 37.3361C114.996 37.3361 114.774 37.3325 114.559 37.3073C114.394 37.2894 114.221 37.2606 114.066 37.2032C113.943 37.1565 113.819 37.0954 113.71 37.002C113.604 36.9015 113.534 36.7865 113.499 36.6608L110.18 26.7944V36.5818C110.18 36.7147 110.144 36.8404 110.067 36.9517C109.975 37.0775 109.841 37.1529 109.7 37.2032C109.545 37.2499 109.387 37.2786 109.232 37.3001C109.006 37.3289 108.774 37.3361 108.548 37.3361C108.323 37.3361 108.09 37.3289 107.865 37.3001C107.71 37.2786 107.547 37.2499 107.396 37.1996C107.255 37.1493 107.125 37.0739 107.037 36.9482C106.959 36.8368 106.924 36.7111 106.924 36.5782V23.9821C106.924 23.5871 107.019 23.2027 107.297 22.919C107.565 22.646 107.907 22.5383 108.28 22.5383H110.123C110.426 22.5383 110.743 22.5598 111.039 22.6281C111.296 22.6891 111.543 22.7897 111.758 22.9513C111.969 23.1094 112.142 23.3177 112.269 23.5511C112.41 23.8133 112.516 24.1007 112.59 24.3772L115.327 32.0886L118.164 24.388C118.245 24.115 118.35 23.8313 118.488 23.5691C118.608 23.3464 118.756 23.1417 118.939 22.9765C119.122 22.8148 119.337 22.6999 119.573 22.6353C119.823 22.5634 120.091 22.5419 120.348 22.5419H122.251C122.452 22.5419 122.66 22.567 122.846 22.6389C123.023 22.6999 123.185 22.8005 123.308 22.9406C123.431 23.0699 123.516 23.2279 123.576 23.4039C123.639 23.5907 123.66 23.7918 123.66 23.9893V36.5854C123.66 36.7183 123.625 36.844 123.548 36.9553C123.46 37.0775 123.329 37.1565 123.188 37.2068C123.033 37.257 122.875 37.2858 122.72 37.3073C122.494 37.3361 122.258 37.3432 122.029 37.3432C121.804 37.3432 121.571 37.3361 121.345 37.3073C121.19 37.2858 121.032 37.257 120.877 37.2068C120.739 37.1565 120.609 37.0775 120.524 36.9625C120.443 36.8548 120.401 36.7255 120.401 36.589V26.7442L120.394 26.7406ZM129.492 25.3973V28.2491H133.368C133.498 28.2491 133.621 28.2886 133.72 28.3676C133.822 28.443 133.893 28.5508 133.945 28.6693C134.002 28.7986 134.03 28.9495 134.048 29.0895C134.072 29.2727 134.076 29.4595 134.076 29.6427C134.076 29.8294 134.072 30.0234 134.048 30.2065C134.03 30.3466 134.002 30.4903 133.945 30.6196C133.889 30.7453 133.812 30.8602 133.702 30.9249C133.611 30.9931 133.491 31.029 133.368 31.029H129.492V34.416H134.182C134.312 34.416 134.435 34.4555 134.534 34.5345C134.64 34.6136 134.71 34.7249 134.763 34.8506C134.819 34.9799 134.847 35.1308 134.865 35.2708C134.89 35.4576 134.893 35.6516 134.893 35.8419C134.893 36.0323 134.89 36.2262 134.865 36.413C134.847 36.5531 134.819 36.7039 134.763 36.8332C134.71 36.9589 134.64 37.0703 134.534 37.1493C134.435 37.2283 134.312 37.2678 134.182 37.2678H127.226C126.934 37.2678 126.666 37.178 126.444 36.9841C126.183 36.7542 126.102 36.4058 126.102 36.0646V23.7415C126.102 23.4003 126.183 23.0555 126.444 22.822C126.666 22.6281 126.934 22.5383 127.226 22.5383H134.15C134.273 22.5383 134.389 22.5778 134.495 22.6532C134.601 22.7358 134.671 22.8508 134.721 22.9729C134.77 23.113 134.802 23.253 134.819 23.3931C134.844 23.5835 134.847 23.781 134.847 23.975C134.847 24.1617 134.844 24.3521 134.819 24.5353C134.802 24.6753 134.773 24.8262 134.717 24.9555C134.671 25.0704 134.604 25.1782 134.506 25.2644C134.4 25.3506 134.277 25.3901 134.15 25.3901H129.495L129.492 25.3973ZM144.636 30.4472C144.671 30.4723 144.703 30.4975 144.734 30.5226C144.946 30.6914 145.132 30.8926 145.298 31.1081C145.481 31.3451 145.64 31.5965 145.781 31.8623C145.943 32.164 146.084 32.4765 146.211 32.7926L147.384 35.5869C147.465 35.7952 147.557 36.0215 147.606 36.2298C147.641 36.3483 147.673 36.4812 147.673 36.6105C147.673 36.7291 147.648 36.8476 147.595 36.9517C147.518 37.099 147.38 37.178 147.225 37.2319C147.049 37.2858 146.863 37.3073 146.686 37.3217C146.401 37.3432 146.109 37.3432 145.82 37.3432C145.573 37.3432 145.323 37.3397 145.08 37.3217C144.914 37.3073 144.731 37.2822 144.572 37.2211C144.435 37.1673 144.308 37.0882 144.216 36.9589C144.156 36.8656 144.111 36.7686 144.079 36.6716L142.832 33.5181C142.701 33.2056 142.56 32.8931 142.405 32.5878C142.289 32.3616 142.148 32.1425 141.975 31.9593C141.831 31.8049 141.658 31.6899 141.465 31.6073C141.25 31.5175 141.01 31.4888 140.781 31.4888H140.193V36.5926C140.193 36.7362 140.143 36.8727 140.055 36.9769C139.964 37.0918 139.833 37.1637 139.692 37.2139C139.534 37.2642 139.368 37.293 139.21 37.3109C138.973 37.3397 138.73 37.3468 138.494 37.3468C138.258 37.3468 138.015 37.3397 137.779 37.3109C137.617 37.293 137.451 37.2642 137.293 37.2139C137.152 37.1637 137.014 37.0882 136.926 36.9661C136.845 36.8584 136.803 36.7291 136.803 36.5926V23.7559C136.803 23.4147 136.884 23.0699 137.145 22.8364C137.367 22.6424 137.635 22.5527 137.927 22.5527H141.517C141.824 22.5527 142.13 22.5562 142.434 22.5742C142.652 22.5886 142.87 22.6065 143.092 22.6281C143.639 22.7107 144.174 22.8472 144.674 23.0663C145.132 23.2674 145.552 23.5368 145.904 23.8959C146.249 24.2479 146.507 24.6574 146.683 25.1207C146.877 25.6307 146.947 26.1767 146.947 26.719C146.947 27.1823 146.894 27.6529 146.757 28.0982C146.63 28.5113 146.443 28.892 146.186 29.2332C145.932 29.5744 145.622 29.8617 145.27 30.0952C145.066 30.2317 144.851 30.3502 144.625 30.4544L144.636 30.4472ZM152.571 36.5854C152.571 36.7291 152.525 36.862 152.433 36.9733C152.338 37.0882 152.208 37.1565 152.07 37.2068C151.912 37.257 151.746 37.2858 151.588 37.3037C151.351 37.3325 151.105 37.3397 150.865 37.3397C150.629 37.3397 150.386 37.3325 150.15 37.3037C149.988 37.2858 149.819 37.257 149.66 37.2068C149.523 37.1601 149.392 37.0882 149.297 36.9733C149.206 36.8584 149.16 36.7255 149.16 36.5854V23.2315C149.16 23.0878 149.206 22.9585 149.297 22.8436C149.396 22.7286 149.53 22.6568 149.667 22.6101C149.822 22.5598 149.991 22.5311 150.153 22.5131C150.386 22.4844 150.629 22.4772 150.865 22.4772C151.105 22.4772 151.351 22.4844 151.588 22.5131C151.746 22.5347 151.922 22.5598 152.074 22.6137C152.208 22.6604 152.334 22.7322 152.433 22.8436C152.525 22.9585 152.571 23.0914 152.571 23.2315V36.5854ZM167.112 29.7001C167.112 30.8495 166.989 32.0455 166.598 33.1302C166.273 34.0317 165.787 34.847 165.093 35.5007C164.409 36.14 163.599 36.5782 162.711 36.8476C161.668 37.1673 160.537 37.2714 159.448 37.2714H156.14C155.847 37.2714 155.576 37.1852 155.354 36.9877C155.093 36.7578 155.012 36.4094 155.012 36.0682V23.7451C155.012 23.4039 155.093 23.0591 155.354 22.8256C155.576 22.6281 155.847 22.5419 156.14 22.5419H159.695C160.773 22.5419 161.908 22.6496 162.933 23.0016C163.786 23.2925 164.568 23.7379 165.22 24.3772C165.865 25.013 166.33 25.7816 166.636 26.6364C166.989 27.6133 167.116 28.6621 167.116 29.7001H167.112ZM172.253 36.5854C172.253 36.7291 172.207 36.862 172.115 36.9733C172.02 37.0882 171.89 37.1565 171.752 37.2068C171.594 37.257 171.428 37.2858 171.27 37.3037C171.034 37.3325 170.787 37.3397 170.547 37.3397C170.311 37.3397 170.068 37.3325 169.832 37.3037C169.67 37.2858 169.501 37.257 169.342 37.2068C169.205 37.1601 169.075 37.0882 168.979 36.9733C168.888 36.8584 168.842 36.7255 168.842 36.5854V23.2315C168.842 23.0878 168.888 22.9585 168.979 22.8436C169.078 22.7286 169.212 22.6568 169.349 22.6101C169.504 22.5598 169.674 22.5311 169.836 22.5131C170.068 22.4844 170.311 22.4772 170.547 22.4772C170.787 22.4772 171.034 22.4844 171.27 22.5131C171.428 22.5347 171.604 22.5598 171.756 22.6137C171.89 22.6604 172.017 22.7322 172.115 22.8436C172.207 22.9585 172.253 23.0914 172.253 23.2315V36.5854ZM182.397 34.0533H177.591L176.784 36.6069C176.752 36.7255 176.703 36.8476 176.632 36.9446C176.551 37.0739 176.421 37.1601 176.273 37.2175C176.114 37.2822 175.921 37.3073 175.752 37.3181C175.498 37.3397 175.237 37.3397 174.983 37.3397C174.719 37.3397 174.441 37.3361 174.177 37.3037C173.969 37.2786 173.75 37.2139 173.606 37.0451C173.461 36.8763 173.43 36.6644 173.461 36.4489C173.493 36.2298 173.563 35.9964 173.634 35.7844L177.904 23.2423C177.95 23.1058 178.014 22.9693 178.098 22.8615C178.197 22.7215 178.348 22.6353 178.514 22.5814C178.701 22.5203 178.916 22.4988 179.109 22.488C179.405 22.4736 179.705 22.4736 180.001 22.4736C180.339 22.4736 180.681 22.4736 181.019 22.488C181.231 22.4988 181.467 22.5167 181.671 22.5778C181.84 22.6281 182.002 22.7107 182.122 22.8615C182.217 22.9944 182.281 23.1381 182.323 23.2782L186.607 35.806C186.678 36.0215 186.748 36.2586 186.78 36.4812C186.812 36.7003 186.773 36.9194 186.607 37.0846C186.445 37.2355 186.22 37.2894 186.012 37.3073C185.734 37.3325 185.441 37.3361 185.163 37.3361C184.874 37.3361 184.581 37.3361 184.296 37.3217C184.12 37.3109 183.926 37.293 183.76 37.2427C183.616 37.1996 183.482 37.1242 183.39 37.002C183.316 36.9086 183.267 36.7901 183.235 36.6788L182.393 34.0497L182.397 34.0533ZM191.089 27.5415C191.089 27.5451 191.089 27.5523 191.089 27.5559C191.103 28.0946 191.11 28.637 191.11 29.1757V36.5746C191.11 36.7075 191.075 36.8332 190.998 36.9446C190.913 37.0631 190.793 37.1385 190.67 37.1924C190.526 37.2535 190.356 37.2858 190.205 37.3073C189.986 37.3361 189.757 37.3432 189.535 37.3432C189.317 37.3432 189.091 37.3361 188.873 37.3073C188.718 37.2858 188.552 37.257 188.415 37.196C188.288 37.1457 188.161 37.0595 188.084 36.9302C188.02 36.8224 187.985 36.7039 187.985 36.5782V23.8744C187.985 23.4937 188.091 23.1309 188.383 22.8759C188.644 22.6496 188.958 22.5455 189.296 22.5455H190.807C191.058 22.5455 191.322 22.5634 191.568 22.6245C191.783 22.682 191.984 22.7753 192.164 22.9082C192.354 23.0483 192.516 23.2387 192.647 23.4362C192.805 23.6733 192.939 23.9319 193.059 24.1833L195.754 29.3517C195.909 29.6606 196.064 29.9695 196.219 30.2784C196.375 30.5801 196.522 30.8854 196.667 31.1943C196.741 31.3523 196.815 31.5139 196.892 31.672C196.892 31.6145 196.889 31.557 196.889 31.4996C196.878 30.968 196.875 30.4364 196.875 29.9048V23.271C196.875 23.1345 196.917 23.0052 196.998 22.8975C197.079 22.7861 197.203 22.7035 197.329 22.6496C197.481 22.5814 197.65 22.5527 197.812 22.5347C198.031 22.5096 198.256 22.506 198.478 22.506C198.693 22.506 198.911 22.5096 199.126 22.5347C199.285 22.5527 199.458 22.585 199.602 22.6568C199.722 22.7179 199.838 22.8041 199.909 22.9226C199.976 23.0303 200.007 23.1489 200.007 23.2746V35.9784C200.007 36.1724 199.976 36.3627 199.898 36.5495C199.824 36.7183 199.722 36.862 199.591 36.9805C199.461 37.099 199.31 37.1816 199.14 37.2319C198.982 37.2822 198.82 37.3037 198.654 37.3037H197.453C197.21 37.3037 196.963 37.2822 196.727 37.2175C196.498 37.1493 196.293 37.0344 196.114 36.8763C195.913 36.7039 195.751 36.4848 195.61 36.2621C195.427 35.9676 195.265 35.6551 195.113 35.3499L191.674 28.7411C191.473 28.3461 191.283 27.9474 191.1 27.5487L191.089 27.5415ZM140.193 25.329V28.7375H141.338C141.658 28.7375 141.99 28.7016 142.3 28.6011C142.536 28.522 142.761 28.4107 142.951 28.2455C143.117 28.1018 143.24 27.9258 143.321 27.7211C143.413 27.4948 143.448 27.2506 143.448 27.0064C143.448 26.6508 143.381 26.2916 143.188 25.9935C142.99 25.6918 142.67 25.5302 142.335 25.4368C142.19 25.3973 142.039 25.3757 141.891 25.3578C141.655 25.329 141.405 25.3254 141.169 25.3254H140.196L140.193 25.329ZM158.395 25.3973V34.3981H159.568C160.178 34.3981 160.84 34.3334 161.415 34.1107C161.883 33.9311 162.292 33.6546 162.623 33.2703C162.975 32.8644 163.204 32.3687 163.352 31.8515C163.543 31.1943 163.603 30.4831 163.603 29.8007C163.603 29.1973 163.539 28.5939 163.381 28.012C163.247 27.5056 163.025 27.0387 162.697 26.6328C162.373 26.2305 161.968 25.936 161.503 25.7277C160.904 25.4619 160.171 25.3973 159.522 25.3973H158.391H158.395ZM179.962 26.464L178.426 31.2445H181.512L179.962 26.464Z" fill="#0E5E93"/>
</g>
<defs>
<radialGradient id="paint0_radial_2054_481" cx="0" cy="0" r="1" gradientTransform="matrix(1.62981 -0.823355 0.664766 2.20837 22.0555 41.2666)" gradientUnits="userSpaceOnUse">
<stop stop-color="#80CCF5"/>
<stop offset="0.521569" stop-color="#0475B1"/>
<stop offset="1" stop-color="#0E5186"/>
</radialGradient>
<radialGradient id="paint1_radial_2054_481" cx="0" cy="0" r="1" gradientTransform="matrix(33.6361 -4.78417 -6.39452 33.0573 15.3067 21.2404)" gradientUnits="userSpaceOnUse">
<stop stop-color="white"/>
<stop offset="0.0392157" stop-color="#E8F7FF"/>
<stop offset="0.188235" stop-color="#0AA6FA"/>
<stop offset="0.321569" stop-color="#0A8ACE"/>
<stop offset="0.6" stop-color="#0B618F"/>
<stop offset="1" stop-color="#0E5186"/>
</radialGradient>
<radialGradient id="paint2_radial_2054_481" cx="0" cy="0" r="1" gradientTransform="matrix(34.2928 14.608 -19.6714 47.9752 8.67894 20.938)" gradientUnits="userSpaceOnUse">
<stop stop-color="#00D100"/>
<stop offset="0.560784" stop-color="#2FFA32"/>
<stop offset="1" stop-color="#00B509"/>
</radialGradient>
<clipPath id="clip0_2054_481">
<rect width="200" height="60" fill="white"/>
</clipPath>
</defs>
</svg>
