<?xml version="1.0" encoding="UTF-8"?>
<!DOCTYPE svg PUBLIC "-//W3C//DTD SVG 1.1//EN" "http://www.w3.org/Graphics/SVG/1.1/DTD/svg11.dtd">
<!-- Creator: CorelDRAW (OEM Version) -->
<svg xmlns="http://www.w3.org/2000/svg" xml:space="preserve" width="1.33375in" height="1.64743in" version="1.1" style="shape-rendering:geometricPrecision; text-rendering:geometricPrecision; image-rendering:optimizeQuality; fill-rule:evenodd; clip-rule:evenodd"
viewBox="0 0 117.57 145.23"
 xmlns:xlink="http://www.w3.org/1999/xlink"
 xmlns:xodm="http://www.corel.com/coreldraw/odm/2003">
 <defs>
  <style type="text/css">
   <![CDATA[
    .fil1 {fill:#373435}
    .fil0 {fill:#373435}
   ]]>
  </style>
 </defs>
 <g id="Layer_x0020_1">
  <metadata id="CorelCorpID_0Corel-Layer"/>
  <g id="_2165644565808">
   <path class="fil0" d="M13.84 59.26c-3.34,6.25 -14.45,17.23 -13.82,22.62 0.45,3.86 12.06,2.96 12.43,6.83 0,3.58 -8.11,8.26 0,10.75 -6.11,3.91 0.67,4.86 0.92,8.32 0.24,3.39 -0.94,6.35 1.13,9.22 6.76,9.39 21.26,0.11 28.14,5.44 4.79,3.72 -5.03,20.29 3.1,22.47l54.02 0.32c8.91,0 -3.01,-16.46 -0.62,-36.06 2.04,-16.67 12.1,-22.18 16.53,-42.43 1.24,-4.48 1.9,-9.2 1.9,-14.07 0,-29.09 -23.58,-52.67 -52.66,-52.67 -27.91,0 -50.75,21.72 -52.54,49.18 -0.23,3.54 2.55,4.87 2.55,7.05 0,0.72 -0.41,1.76 -1.09,3.03zm-7.54 21.32c1.09,0.24 2.2,0.52 2.75,0.67 3.66,0.98 7.57,2.7 7.98,7.02l0.02 0.22 0 0.22c0,2.21 -1.01,4.05 -2.2,5.83 -0.12,0.18 -0.3,0.42 -0.49,0.7l2.02 3.58 -0.49 3.91c1.16,1.36 1.94,2.9 2.08,4.72 0.13,1.79 -0.1,3.41 -0.11,5.16 -0,0.61 0.01,1.2 0.38,1.7 4.6,6.39 18.64,-2.17 27.23,4.5 4.24,3.29 3.26,9.24 2.44,13.83 -0.23,1.28 -1.17,5.96 -0.87,7.69l51.41 0.3c-0.36,-2.81 -1.83,-8.33 -2.17,-9.83 -1.66,-7.34 -2.62,-14.65 -1.7,-22.18 1.03,-8.41 3.91,-14.34 7.91,-21.55 4.01,-7.23 6.9,-13.11 8.69,-21.31l0.03 -0.12 0.03 -0.12c1.16,-4.18 1.73,-8.5 1.73,-12.85 0,-26.55 -21.52,-48.07 -48.06,-48.07 -25.29,0 -46.3,19.64 -47.95,44.88 -0.08,1.25 2.56,3.43 2.56,6.75 0,1.83 -0.78,3.61 -1.63,5.2 -2.15,4.02 -5.68,8.09 -8.44,11.78 -1.44,1.93 -5.71,6.82 -3.15,7.38z"/>
   <g>
    <path class="fil1" d="M60.74 74.27l2.23 -0.04c0.33,-0.01 0.63,0.1 0.89,0.31l4.22 3.51 6.29 -0.11c0.31,-0.49 0.84,-0.8 1.43,-0.81 0.95,-0.02 1.73,0.74 1.75,1.69 0.01,0.95 -0.75,1.73 -1.7,1.75 -0.59,0.01 -1.14,-0.28 -1.46,-0.76l-6.85 0.12 -4.47 -3.68c-0.13,-0.1 -0.26,-0.15 -0.43,-0.15l-1.89 0.03c-0.31,0.49 -0.84,0.8 -1.43,0.81 -0.95,0.02 -1.73,-0.74 -1.75,-1.69 -0.01,-0.95 0.75,-1.73 1.7,-1.75 0.59,-0.01 1.14,0.28 1.46,0.76zm-24.94 -47.53c-0.02,-0.12 -0.02,-0.24 -0.02,-0.37 -0.01,-0.8 0.88,-1.74 1.7,-1.75 0.95,-0.02 1.73,0.74 1.75,1.69 0.01,0.82 -0.9,1.74 -1.7,1.75 -0.15,0 -0.28,0.01 -0.41,-0.02l-2.98 2.95c-0.11,0.11 -0.13,0.26 -0.13,0.41l0.09 7.13c0.01,0.5 -0.39,0.91 -0.89,0.92l-0.06 0c-0.5,0.01 -0.91,-0.39 -0.92,-0.89l-0.1 -7.48c-0,-0.34 0.09,-0.66 0.33,-0.91l3.33 -3.44zm3.65 10.13c0.36,1.08 -0.44,2.25 -1.61,2.27 -0.95,0.02 -1.73,-0.74 -1.74,-1.69 -0.01,-1.07 0.94,-1.88 1.97,-1.73l2.52 -3.02c0.11,-0.13 0.16,-0.26 0.15,-0.43l-0.14 -11.24c-0,-0.34 0.1,-0.65 0.33,-0.9l1.65 -1.79c-0.31,-1.06 0.48,-2.18 1.63,-2.2 0.95,-0.02 1.73,0.74 1.74,1.69 0.01,1.11 -1.01,1.93 -2.07,1.72l-1.27 1.38c-0.11,0.12 -0.14,0.26 -0.14,0.42l0.14 11.24c0,0.33 -0.1,0.63 -0.32,0.89l-2.84 3.4zm9.26 -1.08c0.36,1.08 -0.44,2.24 -1.61,2.27 -0.95,0.02 -1.73,-0.74 -1.74,-1.69 -0.01,-1.07 0.94,-1.88 1.97,-1.73l2.52 -3.02c0.11,-0.13 0.16,-0.26 0.15,-0.43l-0.17 -13.29c-0.01,-0.7 0.26,-1.32 0.78,-1.79l4.35 -3.92c0.25,-0.22 0.55,-0.34 0.88,-0.35l20.53 -0.37c2.06,-0.04 3.76,1.61 3.79,3.67l0.09 6.96c0.01,0.87 -0.29,1.77 -0.85,2.44 -0.01,0.01 -0.02,0.03 -0.02,0.02l-0.01 0.01 -2.25 2.69c-0.51,0.61 -0.7,1.37 -0.7,2.15l0.02 1.76c0.03,2.06 -1.62,3.77 -3.69,3.8l-4.63 0.08c-0.32,0.55 -0.9,0.9 -1.54,0.91 -1,0.02 -1.83,-0.78 -1.84,-1.78 -0.01,-1 0.79,-1.83 1.79,-1.85 0.64,-0.01 1.24,0.32 1.57,0.85l4.29 -0.08c1.21,-0.02 2.19,-1.01 2.18,-2.23l-0.02 -2c-0.01,-0.83 0.28,-1.65 0.79,-2.31l2.18 -2.61c0.56,-0.63 0.87,-1.3 0.85,-2.15l-0.08 -6.3c-0.01,-1.17 -0.7,-2.17 -1.95,-2.15l-10.02 0.17 -10.11 0.18c-0.17,0 -0.3,0.06 -0.43,0.17l-3.53 3.14c-0.38,0.33 -0.57,0.76 -0.56,1.27l0.17 13.23c0,0.33 -0.1,0.63 -0.32,0.89l-2.84 3.4zm-0.76 9.88c0.31,-0.49 0.84,-0.8 1.43,-0.81 0.95,-0.02 1.73,0.74 1.75,1.69 0.01,0.95 -0.75,1.73 -1.7,1.75 -0.59,0.01 -1.13,-0.28 -1.46,-0.76l-5.1 0.09c-0.33,0.01 -0.63,-0.1 -0.89,-0.31l-4.03 -3.36c-0.13,-0.11 -0.26,-0.15 -0.43,-0.15l-6.37 0.12c-1.35,0.02 -1.66,0.13 -1.64,1.58l0.11 9.03c0.01,0.5 -0.39,0.91 -0.89,0.92l-0.06 0c-0.5,0.01 -0.91,-0.39 -0.92,-0.89l-0.13 -10.09c-0.02,-1.3 1.03,-2.37 2.33,-2.4l7.88 -0.14c0.33,-0.01 0.63,0.1 0.89,0.31l4.03 3.36c0.13,0.11 0.26,0.15 0.43,0.15l4.75 -0.09zm-11.69 15.16l-3 -2.5c-0.13,-0.11 -0.26,-0.15 -0.43,-0.15l-4.11 0.07c-0.5,0.01 -0.92,-0.39 -0.92,-0.89l-0 -0.06c-0,-0.5 0.39,-0.91 0.89,-0.92l4.46 -0.08c0.33,-0.01 0.63,0.1 0.89,0.31l3.38 2.82c1.08,-0.36 2.24,0.42 2.26,1.6 0.01,0.95 -0.75,1.73 -1.7,1.75 -1.07,0.02 -1.88,-0.94 -1.73,-1.96zm10.64 19.31c0.16,-0.05 0.32,-0.07 0.49,-0.07 1.01,-0.02 1.84,0.79 1.86,1.8 0.01,1.01 -0.8,1.85 -1.81,1.86 -1.01,0.02 -1.84,-0.79 -1.86,-1.8 -0,-0.16 0.02,-0.32 0.06,-0.48l-4.33 -4.18c-0.37,-0.35 -0.56,-0.8 -0.56,-1.31l-0.02 -1.91 -1.73 0.04c-0.51,0.01 -0.96,-0.16 -1.32,-0.52l-5 -4.83c-0.37,-0.35 -0.56,-0.8 -0.56,-1.31l-0.05 -4.14c-0.49,-0.31 -0.8,-0.84 -0.81,-1.43 -0.01,-0.95 0.75,-1.73 1.7,-1.75 0.95,-0.02 1.73,0.74 1.75,1.69 0.01,0.59 -0.29,1.14 -0.78,1.46l0.03 3.7c0,0.32 0.12,0.59 0.35,0.82l4.28 4.13c0.23,0.22 0.5,0.33 0.83,0.32l4.37 -0.11c0.31,-0.5 0.85,-0.81 1.44,-0.82 0.95,-0.02 1.73,0.74 1.74,1.69 0.01,0.95 -0.75,1.73 -1.7,1.75 -0.59,0.01 -1.13,-0.28 -1.45,-0.76l-1.23 0.03 0.01 1.48c0,0.32 0.12,0.59 0.35,0.82l3.97 3.83zm-2.89 -21.4c-0.52,-0.3 -0.85,-0.85 -0.86,-1.47 -0.01,-0.95 0.75,-1.73 1.7,-1.75 0.95,-0.02 1.73,0.74 1.74,1.69 0.01,0.61 -0.31,1.18 -0.82,1.49l0.09 7.51c0.02,1.46 0.22,2.2 1.82,2.17 0.61,-0.01 1.24,-0.21 1.47,-0.83 0.15,-0.39 0.16,-1 0.15,-1.41l-0.06 -4.63c-0.02,-1.3 1.03,-2.38 2.33,-2.4l13.77 -0.25c0.32,-0.55 0.9,-0.9 1.54,-0.91 1,-0.02 1.83,0.78 1.84,1.78 0.01,1 -0.79,1.83 -1.79,1.84 -0.64,0.01 -1.24,-0.32 -1.57,-0.85l-12.71 0.23c-1.43,0.03 -1.65,0.32 -1.64,1.69l0.05 3.69c0.02,1.35 -0.17,2.72 -1.46,3.45 -1.07,0.61 -2.98,0.64 -4.04,0.01 -1.25,-0.75 -1.44,-1.98 -1.46,-3.33l-0.1 -7.74zm40.88 4.32c-0.36,-1.08 0.44,-2.24 1.61,-2.27 0.95,-0.02 1.73,0.74 1.74,1.69 0.01,1.07 -0.94,1.88 -1.97,1.73l-2.52 3.02c-0.11,0.13 -0.15,0.26 -0.15,0.43l0.17 13.29c0.01,0.7 -0.26,1.32 -0.78,1.79l-4.35 3.92c-0.25,0.22 -0.55,0.34 -0.88,0.35l-20.53 0.37c-2.06,0.04 -3.76,-1.61 -3.79,-3.67l-0.09 -6.96c-0.01,-0.87 0.29,-1.77 0.85,-2.43 0.01,-0.01 0.02,-0.02 0.03,-0.03 0.01,-0.01 0.02,-0.02 0.02,-0.03l2.23 -2.67c0.51,-0.61 0.7,-1.37 0.7,-2.15l-0.02 -1.76c-0.03,-2.06 1.63,-3.76 3.69,-3.8l4.55 -0.08c0.32,-0.55 0.9,-0.9 1.54,-0.91 1,-0.02 1.83,0.78 1.84,1.78 0.01,1 -0.79,1.83 -1.79,1.84 -0.64,0.01 -1.23,-0.32 -1.57,-0.85l-4.21 0.08c-1.21,0.02 -2.2,1.01 -2.18,2.23l0.03 2c0,0.84 -0.28,1.64 -0.79,2.31l-2.18 2.61c-0.56,0.63 -0.87,1.3 -0.85,2.15l0.08 6.3c0.01,1.17 0.7,2.17 1.95,2.15l9.97 -0.16 10.16 -0.18c0.17,-0 0.3,-0.06 0.43,-0.17l3.53 -3.14c0.38,-0.33 0.57,-0.76 0.56,-1.27l-0.17 -13.23c-0,-0.33 0.1,-0.63 0.32,-0.89l2.84 -3.4zm12.91 9.05c0.02,0.12 0.02,0.24 0.02,0.37 0.01,0.8 -0.88,1.74 -1.7,1.75 -0.95,0.02 -1.73,-0.74 -1.74,-1.69 -0.01,-0.82 0.9,-1.74 1.7,-1.75 0.15,-0 0.28,-0.01 0.41,0.02l2.98 -2.95c0.11,-0.11 0.13,-0.26 0.13,-0.41l-0.1 -7.65c-0.01,-0.5 0.39,-0.91 0.89,-0.92l0.06 -0c0.5,-0.01 0.91,0.39 0.92,0.89l0.1 8c0,0.34 -0.09,0.66 -0.33,0.91l-3.33 3.44zm-3.65 -10.14c-0.36,-1.08 0.44,-2.24 1.61,-2.27 0.95,-0.02 1.73,0.74 1.75,1.69 0.01,1.07 -0.94,1.88 -1.97,1.73l-2.52 3.02c-0.11,0.13 -0.16,0.26 -0.15,0.43l0.14 11.24c0,0.34 -0.1,0.65 -0.33,0.9l-1.65 1.79c0.31,1.06 -0.48,2.18 -1.63,2.2 -0.95,0.02 -1.73,-0.74 -1.74,-1.69 -0.01,-1.11 1.02,-1.93 2.07,-1.72l1.27 -1.38c0.11,-0.12 0.14,-0.26 0.14,-0.42l-0.14 -11.24c-0,-0.33 0.1,-0.63 0.32,-0.89l2.84 -3.4zm-28.18 -10.35l-1.9 0.03c-0.17,0 -0.3,0.05 -0.42,0.17l-3.94 3.5c-0.25,0.22 -0.54,0.34 -0.88,0.34l-9.71 0.18c-0.33,0.01 -0.63,-0.1 -0.89,-0.31l-4.03 -3.36c-0.13,-0.11 -0.26,-0.15 -0.43,-0.15l-1.89 0.03c-0.31,0.49 -0.84,0.8 -1.43,0.81 -0.95,0.02 -1.73,-0.74 -1.75,-1.69 -0.01,-0.95 0.75,-1.73 1.7,-1.75 0.59,-0.01 1.14,0.28 1.46,0.76l2.23 -0.04c0.33,-0.01 0.63,0.1 0.89,0.31l4.03 3.36c0.13,0.11 0.26,0.15 0.43,0.15l9.01 -0.16c0.17,-0 0.3,-0.06 0.43,-0.17l3.94 -3.5c0.25,-0.22 0.54,-0.34 0.88,-0.34l2.25 -0.04 -0.06 -4.82c-0,-0.35 -0.14,-0.64 -0.39,-0.88l-4.02 -3.64c-1.06,-0.96 -1.42,-0.89 -2.34,0.12l-2.49 2.74c-0.91,1 -1.98,1.88 -3.41,1.54 -1.2,-0.29 -2.61,-1.56 -2.94,-2.76 -0.39,-1.4 0.3,-2.44 1.21,-3.44l5.21 -5.75c-0.18,-0.57 -0.04,-1.21 0.37,-1.66 0.64,-0.7 1.73,-0.76 2.43,-0.12 0.7,0.64 0.75,1.73 0.11,2.43 -0.41,0.45 -1.03,0.65 -1.62,0.53l-5.06 5.58c-0.33,0.36 -0.92,1.07 -0.91,1.6 0.01,0.7 0.96,1.58 1.62,1.73 0.77,0.17 1.37,-0.51 1.84,-1.02l3.12 -3.44c0.87,-0.96 2.37,-1.04 3.33,-0.17l4.99 4.52 0.03 0.02c0.43,0.37 0.67,0.86 0.68,1.43l0.04 2.92 1.86 -0.03c0.17,-0 0.3,-0.06 0.43,-0.17l3.94 -3.5c0.25,-0.22 0.54,-0.34 0.88,-0.34l9.71 -0.18c0.33,-0.01 0.63,0.1 0.89,0.31l4.03 3.36c0.13,0.11 0.26,0.15 0.43,0.15l1.89 -0.03c0.31,-0.49 0.84,-0.8 1.44,-0.81 0.95,-0.02 1.73,0.74 1.74,1.69 0.01,0.95 -0.75,1.73 -1.7,1.75 -0.59,0.01 -1.13,-0.28 -1.46,-0.76l-2.24 0.04c-0.33,0.01 -0.63,-0.1 -0.89,-0.31l-4.03 -3.36c-0.13,-0.11 -0.26,-0.15 -0.43,-0.15l-9.01 0.16c-0.17,0 -0.3,0.06 -0.43,0.17l-3.94 3.5c-0.25,0.22 -0.54,0.34 -0.88,0.34l-2.21 0.04 0.06 4.86c0,0.35 0.14,0.64 0.39,0.88l3.97 3.6c1.06,0.96 1.42,0.89 2.34,-0.12l2.49 -2.74c0.9,-1 1.98,-1.88 3.41,-1.54 1.2,0.29 2.61,1.56 2.94,2.76 0.39,1.4 -0.31,2.44 -1.21,3.44l-5.21 5.75c0.18,0.57 0.04,1.21 -0.37,1.66 -0.64,0.7 -1.73,0.76 -2.43,0.12 -0.7,-0.64 -0.75,-1.73 -0.11,-2.43 0.41,-0.45 1.03,-0.65 1.62,-0.53l5.06 -5.58c0.33,-0.36 0.92,-1.07 0.91,-1.6 -0.01,-0.7 -0.96,-1.58 -1.62,-1.73 -0.77,-0.17 -1.37,0.51 -1.84,1.02l-3.12 3.44c-0.87,0.96 -2.37,1.05 -3.33,0.17l-5 -4.53c-0.41,-0.37 -0.64,-0.85 -0.64,-1.4l-0.04 -2.96zm19.68 1.55c-0.31,0.49 -0.85,0.8 -1.44,0.81 -0.95,0.02 -1.73,-0.74 -1.74,-1.69 -0.01,-0.95 0.75,-1.73 1.7,-1.75 0.59,-0.01 1.14,0.28 1.46,0.76l5.1 -0.09c0.33,-0.01 0.63,0.1 0.89,0.31l4.03 3.36c0.13,0.11 0.26,0.15 0.43,0.15l6.37 -0.12c1.35,-0.02 1.66,-0.13 1.64,-1.58l-0.11 -9.03c-0.01,-0.5 0.39,-0.91 0.89,-0.92l0.06 -0c0.5,-0.01 0.91,0.39 0.92,0.89l0.13 10.09c0.02,1.3 -1.03,2.37 -2.33,2.4l-7.89 0.14c-0.33,0.01 -0.63,-0.1 -0.89,-0.31l-4.03 -3.36c-0.13,-0.11 -0.26,-0.15 -0.43,-0.15l-4.75 0.09zm11.69 -15.16l3 2.5c0.13,0.11 0.26,0.15 0.43,0.15l4.11 -0.07c0.5,-0.01 0.91,0.39 0.92,0.89l0 0.06c0.01,0.5 -0.39,0.91 -0.89,0.92l-4.46 0.08c-0.33,0.01 -0.63,-0.1 -0.89,-0.31l-3.38 -2.82c-1.08,0.36 -2.25,-0.42 -2.26,-1.6 -0.01,-0.95 0.75,-1.73 1.7,-1.75 1.07,-0.02 1.88,0.94 1.73,1.96zm-10.79 -19.46c-0.16,0.05 -0.32,0.07 -0.49,0.07 -1.01,0.02 -1.85,-0.79 -1.86,-1.8 -0.01,-1.01 0.8,-1.85 1.81,-1.86 1.01,-0.02 1.84,0.79 1.86,1.8 0,0.16 -0.02,0.33 -0.06,0.48l4.48 4.33c0.37,0.35 0.56,0.8 0.56,1.31l0.02 1.91 1.73 -0.04c0.51,-0.01 0.96,0.17 1.32,0.52l5 4.83c0.37,0.35 0.56,0.8 0.56,1.31l0.05 4.14c0.49,0.31 0.8,0.84 0.81,1.43 0.01,0.95 -0.75,1.73 -1.7,1.75 -0.95,0.02 -1.73,-0.74 -1.74,-1.69 -0.01,-0.6 0.29,-1.14 0.78,-1.47l-0.03 -3.7c-0,-0.32 -0.12,-0.59 -0.35,-0.82l-4.28 -4.13c-0.23,-0.22 -0.5,-0.33 -0.83,-0.32l-4.37 0.11c-0.31,0.5 -0.85,0.81 -1.44,0.83 -0.95,0.02 -1.73,-0.74 -1.74,-1.69 -0.01,-0.95 0.75,-1.73 1.7,-1.75 0.59,-0.01 1.13,0.28 1.45,0.76l1.23 -0.03 -0.01 -1.48c-0,-0.32 -0.12,-0.59 -0.35,-0.82l-4.12 -3.98zm3.04 21.55c0.52,0.3 0.85,0.85 0.86,1.47 0.01,0.95 -0.75,1.73 -1.7,1.75 -0.95,0.02 -1.73,-0.74 -1.75,-1.69 -0.01,-0.61 0.31,-1.18 0.82,-1.49l-0.09 -7.51c-0.02,-1.46 -0.22,-2.2 -1.82,-2.17 -0.61,0.01 -1.24,0.21 -1.47,0.83 -0.15,0.39 -0.16,1 -0.15,1.41l0.06 4.63c0.02,1.3 -1.03,2.38 -2.33,2.4l-13.85 0.25c-0.32,0.55 -0.9,0.9 -1.54,0.91 -1,0.02 -1.83,-0.78 -1.84,-1.78 -0.01,-1 0.79,-1.83 1.79,-1.85 0.64,-0.01 1.23,0.32 1.57,0.85l12.79 -0.23c1.43,-0.03 1.65,-0.32 1.64,-1.69l-0.05 -3.69c-0.02,-1.35 0.17,-2.72 1.46,-3.45 1.07,-0.61 2.98,-0.64 4.04,-0.01 1.25,0.75 1.44,1.98 1.46,3.33l0.1 7.74zm-15.98 -20.35l-1.89 0.03c-0.17,0 -0.3,0.06 -0.42,0.17l-4.37 3.84 -6.85 0.12c-0.31,0.49 -0.85,0.8 -1.44,0.81 -0.95,0.02 -1.73,-0.74 -1.74,-1.69 -0.01,-0.95 0.75,-1.73 1.7,-1.75 0.59,-0.01 1.14,0.28 1.46,0.76l6.29 -0.11 4.12 -3.67c0.25,-0.22 0.54,-0.34 0.88,-0.34l2.24 -0.04c0.31,-0.49 0.84,-0.8 1.43,-0.81 0.95,-0.02 1.73,0.74 1.75,1.69 0.01,0.95 -0.75,1.73 -1.7,1.75 -0.59,0.01 -1.14,-0.28 -1.46,-0.76z"/>
    <path class="fil1" d="M60.64 74.44l2.33 -0.04c0.29,-0.01 0.55,0.09 0.77,0.27l4.27 3.56 6.45 -0.12c0.26,-0.49 0.77,-0.8 1.34,-0.81 0.85,-0.01 1.56,0.66 1.57,1.52 0.01,0.85 -0.67,1.56 -1.52,1.57 -0.56,0.01 -1.08,-0.28 -1.36,-0.76l-6.88 0.12 -4.42 -3.64c-0.16,-0.13 -0.33,-0.19 -0.54,-0.19l-1.99 0.04c-0.26,0.49 -0.77,0.8 -1.34,0.81 -0.85,0.02 -1.56,-0.66 -1.57,-1.52 -0.01,-0.85 0.67,-1.56 1.52,-1.57 0.56,-0.01 1.08,0.28 1.36,0.76zm-24.63 -47.68c-0.05,-0.14 -0.05,-0.15 -0.05,-0.4 -0.01,-0.7 0.81,-1.56 1.52,-1.57 0.85,-0.02 1.56,0.66 1.57,1.52 0.01,0.72 -0.83,1.56 -1.53,1.57 -0.28,0.01 -0.28,0.01 -0.44,-0.05l-3.06 3.03c-0.15,0.14 -0.19,0.33 -0.18,0.53l0.09 7.13c0.01,0.4 -0.32,0.73 -0.72,0.74l-0.06 0c-0.4,0.01 -0.73,-0.31 -0.74,-0.72l-0.1 -7.48c-0,-0.29 0.08,-0.57 0.28,-0.78l3.41 -3.52zm3.24 10.07c0.4,0.99 -0.33,2.11 -1.42,2.13 -0.85,0.02 -1.55,-0.67 -1.57,-1.52 -0.01,-0.99 0.91,-1.74 1.86,-1.54l2.59 -3.09c0.13,-0.16 0.2,-0.34 0.19,-0.54l-0.14 -11.24c-0,-0.29 0.08,-0.56 0.28,-0.78l1.72 -1.86c-0.35,-0.98 0.37,-2.05 1.44,-2.07 0.85,-0.02 1.56,0.66 1.57,1.52 0.01,1.03 -0.97,1.78 -1.95,1.52l-1.34 1.45c-0.14,0.15 -0.19,0.33 -0.19,0.54l0.14 11.24c0,0.29 -0.09,0.55 -0.28,0.77l-2.91 3.48zm9.26 -1.08c0.4,0.99 -0.33,2.1 -1.42,2.13 -0.85,0.02 -1.56,-0.67 -1.57,-1.52 -0.01,-0.99 0.91,-1.74 1.86,-1.54l2.59 -3.09c0.13,-0.16 0.2,-0.34 0.19,-0.54l-0.17 -13.29c-0.01,-0.65 0.24,-1.22 0.73,-1.66l4.35 -3.92c0.22,-0.2 0.47,-0.3 0.77,-0.3l20.53 -0.37c1.97,-0.04 3.58,1.53 3.61,3.5l0.09 6.96c0.01,0.83 -0.28,1.68 -0.81,2.32 -0.01,0.01 -0.02,0.03 -0.03,0.04l-2.24 2.68c-0.54,0.64 -0.75,1.44 -0.74,2.26l0.02 1.76c0.02,1.97 -1.55,3.59 -3.52,3.62l-4.73 0.09c-0.27,0.54 -0.83,0.89 -1.44,0.91 -0.91,0.02 -1.65,-0.7 -1.66,-1.61 -0.01,-0.9 0.71,-1.65 1.62,-1.67 0.61,-0.01 1.18,0.32 1.46,0.85l4.4 -0.08c1.31,-0.02 2.37,-1.1 2.35,-2.41l-0.02 -2c-0.01,-0.79 0.27,-1.57 0.75,-2.2l2.18 -2.61c0.59,-0.66 0.91,-1.38 0.9,-2.27l-0.08 -6.3c-0.02,-1.27 -0.78,-2.35 -2.13,-2.33l-10.02 0.17 -10.11 0.18c-0.21,0 -0.38,0.07 -0.54,0.21l-3.53 3.14c-0.41,0.37 -0.63,0.84 -0.62,1.4l0.17 13.23c0,0.29 -0.09,0.55 -0.28,0.77l-2.91 3.48zm-0.46 10.09c0.27,-0.49 0.77,-0.8 1.34,-0.81 0.85,-0.02 1.56,0.66 1.57,1.52 0.01,0.85 -0.67,1.56 -1.53,1.57 -0.56,0.01 -1.08,-0.28 -1.36,-0.76l-5.2 0.09c-0.29,0.01 -0.55,-0.09 -0.77,-0.27l-4.03 -3.36c-0.16,-0.13 -0.34,-0.19 -0.54,-0.19l-6.37 0.12c-1.45,0.03 -1.83,0.2 -1.81,1.76l0.11 9.03c0,0.4 -0.32,0.73 -0.72,0.74l-0.06 0c-0.4,0.01 -0.73,-0.31 -0.74,-0.72l-0.13 -10.09c-0.02,-1.2 0.95,-2.2 2.16,-2.22l7.88 -0.14c0.29,-0.01 0.55,0.09 0.77,0.27l4.03 3.36c0.16,0.13 0.34,0.19 0.54,0.19l4.85 -0.09zm-11.6 14.92l-3.08 -2.57c-0.16,-0.13 -0.34,-0.19 -0.54,-0.19l-4.11 0.07c-0.4,0.01 -0.74,-0.32 -0.74,-0.72l-0 -0.06c-0,-0.4 0.32,-0.73 0.72,-0.74l4.46 -0.08c0.29,-0.01 0.55,0.09 0.77,0.27l3.46 2.89c0.99,-0.4 2.1,0.31 2.12,1.41 0.01,0.85 -0.67,1.56 -1.52,1.57 -0.99,0.02 -1.73,-0.9 -1.53,-1.85zm10.4 19.58c0.17,-0.06 0.35,-0.1 0.54,-0.1 0.92,-0.02 1.67,0.71 1.68,1.63 0.01,0.91 -0.72,1.67 -1.63,1.69 -0.91,0.02 -1.67,-0.71 -1.68,-1.63 -0,-0.18 0.02,-0.36 0.08,-0.53l-4.4 -4.25c-0.33,-0.32 -0.5,-0.72 -0.51,-1.18l-0.02 -2.09 -1.91 0.04c-0.46,0.01 -0.87,-0.15 -1.2,-0.47l-5 -4.83c-0.33,-0.32 -0.5,-0.72 -0.51,-1.18l-0.05 -4.24c-0.49,-0.26 -0.8,-0.77 -0.8,-1.33 -0.01,-0.85 0.67,-1.56 1.52,-1.57 0.85,-0.02 1.56,0.66 1.57,1.52 0.01,0.57 -0.3,1.09 -0.78,1.36l0.03 3.8c0,0.37 0.14,0.68 0.4,0.94l4.28 4.13c0.27,0.26 0.58,0.38 0.95,0.37l4.47 -0.11c0.26,-0.49 0.78,-0.81 1.34,-0.82 0.85,-0.02 1.56,0.66 1.57,1.52 0.01,0.85 -0.67,1.56 -1.53,1.57 -0.56,0.01 -1.08,-0.28 -1.36,-0.76l-1.5 0.03 0.01 1.65c0,0.37 0.14,0.69 0.4,0.95l4.04 3.9zm-2.67 -21.71c-0.52,-0.25 -0.85,-0.78 -0.86,-1.36 -0.01,-0.85 0.67,-1.56 1.53,-1.57 0.85,-0.02 1.55,0.66 1.57,1.52 0.01,0.59 -0.31,1.12 -0.82,1.39l0.1 7.61c0.02,1.56 0.29,2.38 2,2.34 0.68,-0.01 1.37,-0.26 1.63,-0.94 0.16,-0.41 0.17,-1.03 0.16,-1.47l-0.06 -4.63c-0.02,-1.2 0.95,-2.2 2.15,-2.22l13.88 -0.25c0.27,-0.54 0.83,-0.89 1.44,-0.91 0.9,-0.02 1.65,0.7 1.66,1.61 0.01,0.9 -0.71,1.65 -1.62,1.67 -0.61,0.01 -1.18,-0.32 -1.46,-0.85l-12.82 0.23c-1.53,0.03 -1.83,0.39 -1.81,1.86l0.05 3.69c0.02,1.28 -0.14,2.6 -1.37,3.29 -1.01,0.57 -2.85,0.61 -3.86,0.01 -1.19,-0.71 -1.36,-1.9 -1.37,-3.18l-0.1 -7.84zm40.91 4.46c-0.4,-0.99 0.33,-2.1 1.42,-2.12 0.85,-0.02 1.56,0.66 1.57,1.52 0.01,0.99 -0.91,1.74 -1.86,1.54l-2.59 3.09c-0.13,0.16 -0.2,0.34 -0.19,0.54l0.17 13.29c0.01,0.65 -0.24,1.22 -0.73,1.66l-4.35 3.92c-0.22,0.2 -0.47,0.3 -0.77,0.3l-20.53 0.37c-1.97,0.04 -3.58,-1.53 -3.61,-3.5l-0.09 -6.96c-0.01,-0.83 0.27,-1.68 0.81,-2.32 0.01,-0.01 0.02,-0.02 0.03,-0.03 0.01,-0.02 0.01,-0.02 0.02,-0.02l2.23 -2.67c0.54,-0.64 0.75,-1.44 0.74,-2.26l-0.02 -1.76c-0.03,-1.97 1.55,-3.59 3.52,-3.62l4.66 -0.08c0.27,-0.54 0.83,-0.9 1.44,-0.91 0.9,-0.02 1.65,0.7 1.66,1.61 0.01,0.9 -0.71,1.65 -1.62,1.67 -0.61,0.01 -1.18,-0.32 -1.46,-0.85l-4.32 0.08c-1.3,0.02 -2.37,1.09 -2.35,2.41l0.03 2c0,0.8 -0.27,1.57 -0.75,2.2l-2.18 2.61c-0.59,0.66 -0.91,1.38 -0.9,2.27l0.08 6.3c0.02,1.27 0.78,2.35 2.13,2.33l9.97 -0.16 10.16 -0.18c0.21,-0 0.38,-0.07 0.54,-0.21l3.53 -3.14c0.41,-0.37 0.63,-0.85 0.62,-1.4l-0.17 -13.23c-0,-0.29 0.09,-0.55 0.28,-0.77l2.91 -3.48zm12.5 8.99c0.05,0.14 0.05,0.14 0.05,0.4 0.01,0.7 -0.8,1.56 -1.53,1.57 -0.85,0.02 -1.56,-0.66 -1.57,-1.52 -0.01,-0.72 0.82,-1.56 1.53,-1.57 0.28,-0 0.28,-0.01 0.44,0.05l3.06 -3.03c0.15,-0.14 0.19,-0.33 0.18,-0.53l-0.1 -7.65c-0.01,-0.4 0.32,-0.74 0.72,-0.74l0.06 -0c0.4,-0.01 0.73,0.31 0.74,0.72l0.1 8c0,0.29 -0.08,0.57 -0.28,0.78l-3.41 3.52zm-3.24 -10.07c-0.4,-0.99 0.33,-2.11 1.42,-2.13 0.85,-0.02 1.56,0.66 1.57,1.52 0.01,0.99 -0.91,1.74 -1.86,1.54l-2.59 3.09c-0.13,0.16 -0.2,0.34 -0.19,0.54l0.14 11.24c0,0.29 -0.08,0.56 -0.28,0.78l-1.72 1.86c0.35,0.98 -0.37,2.05 -1.44,2.07 -0.85,0.02 -1.56,-0.66 -1.57,-1.52 -0.01,-1.03 0.97,-1.78 1.95,-1.52l1.34 -1.45c0.14,-0.15 0.19,-0.33 0.19,-0.54l-0.14 -11.24c-0,-0.29 0.09,-0.55 0.28,-0.77l2.91 -3.48zm-28.2 -10.56l-2.08 0.04c-0.21,0 -0.38,0.07 -0.54,0.21l-3.94 3.5c-0.22,0.19 -0.47,0.29 -0.76,0.3l-9.71 0.18c-0.29,0.01 -0.55,-0.09 -0.77,-0.27l-4.03 -3.36c-0.16,-0.13 -0.34,-0.19 -0.54,-0.19l-1.99 0.04c-0.27,0.49 -0.77,0.8 -1.34,0.81 -0.85,0.02 -1.56,-0.66 -1.57,-1.52 -0.01,-0.85 0.67,-1.56 1.53,-1.57 0.56,-0.01 1.08,0.28 1.36,0.76l2.33 -0.04c0.29,-0.01 0.55,0.08 0.77,0.27l4.03 3.36c0.16,0.13 0.34,0.19 0.54,0.19l9.01 -0.16c0.21,-0 0.38,-0.07 0.54,-0.21l3.94 -3.5c0.22,-0.19 0.47,-0.29 0.77,-0.3l2.43 -0.04 -0.07 -4.99c-0.01,-0.4 -0.16,-0.74 -0.45,-1l-4.02 -3.64c-1.14,-1.03 -1.6,-0.95 -2.59,0.13l-2.49 2.74c-0.86,0.94 -1.88,1.81 -3.24,1.48 -1.13,-0.27 -2.5,-1.5 -2.81,-2.63 -0.38,-1.34 0.31,-2.32 1.17,-3.27l5.28 -5.83c-0.2,-0.54 -0.09,-1.15 0.3,-1.59 0.57,-0.63 1.55,-0.69 2.18,-0.11 0.63,0.57 0.67,1.55 0.1,2.18 -0.39,0.43 -0.99,0.61 -1.55,0.46l-5.13 5.65c-0.37,0.41 -0.97,1.13 -0.96,1.72 0.01,0.79 1.02,1.73 1.75,1.9 0.85,0.19 1.49,-0.51 2,-1.08l3.12 -3.44c0.81,-0.89 2.19,-0.97 3.08,-0.16l4.99 4.52 0.03 0.02c0.39,0.34 0.61,0.78 0.62,1.3l0.04 3.09 2.03 -0.04c0.21,-0 0.38,-0.07 0.54,-0.21l3.94 -3.5c0.22,-0.19 0.47,-0.29 0.77,-0.3l9.71 -0.18c0.29,-0.01 0.55,0.09 0.77,0.27l4.03 3.36c0.16,0.13 0.34,0.19 0.54,0.19l1.99 -0.04c0.27,-0.49 0.77,-0.8 1.34,-0.81 0.85,-0.02 1.56,0.66 1.57,1.52 0.01,0.85 -0.67,1.56 -1.53,1.57 -0.56,0.01 -1.08,-0.28 -1.36,-0.76l-2.33 0.04c-0.29,0.01 -0.55,-0.09 -0.77,-0.27l-4.03 -3.36c-0.16,-0.13 -0.34,-0.19 -0.54,-0.19l-9.01 0.16c-0.21,0 -0.38,0.07 -0.54,0.21l-3.94 3.5c-0.22,0.19 -0.47,0.29 -0.77,0.3l-2.38 0.04 0.07 5.03c0.01,0.4 0.16,0.74 0.45,1l3.97 3.6c1.14,1.03 1.6,0.95 2.59,-0.13l2.49 -2.74c0.86,-0.95 1.88,-1.81 3.24,-1.48 1.13,0.27 2.5,1.5 2.81,2.63 0.38,1.34 -0.31,2.32 -1.18,3.27l-5.28 5.83c0.2,0.54 0.09,1.15 -0.3,1.59 -0.57,0.63 -1.55,0.69 -2.18,0.11 -0.63,-0.57 -0.67,-1.55 -0.1,-2.18 0.39,-0.43 0.99,-0.61 1.55,-0.46l5.13 -5.65c0.37,-0.4 0.97,-1.13 0.96,-1.72 -0.01,-0.79 -1.02,-1.73 -1.75,-1.9 -0.85,-0.19 -1.49,0.5 -2,1.07l-3.12 3.44c-0.81,0.89 -2.19,0.97 -3.08,0.16l-5 -4.53c-0.38,-0.34 -0.58,-0.77 -0.59,-1.28l-0.04 -3.13zm19.4 1.56c-0.27,0.49 -0.77,0.8 -1.34,0.81 -0.85,0.01 -1.55,-0.66 -1.57,-1.52 -0.01,-0.85 0.67,-1.56 1.52,-1.57 0.56,-0.01 1.08,0.28 1.36,0.76l5.2 -0.1c0.29,-0.01 0.55,0.09 0.77,0.27l4.03 3.36c0.16,0.13 0.34,0.19 0.54,0.19l6.37 -0.12c1.45,-0.03 1.83,-0.2 1.81,-1.76l-0.11 -9.03c-0,-0.4 0.32,-0.73 0.72,-0.74l0.06 -0c0.4,-0.01 0.73,0.31 0.74,0.72l0.13 10.09c0.02,1.2 -0.95,2.2 -2.15,2.22l-7.89 0.14c-0.29,0.01 -0.55,-0.09 -0.77,-0.27l-4.03 -3.36c-0.16,-0.13 -0.34,-0.19 -0.54,-0.19l-4.85 0.09zm11.6 -14.92l3.08 2.57c0.16,0.13 0.34,0.19 0.54,0.19l4.11 -0.07c0.4,-0.01 0.73,0.32 0.74,0.72l0 0.06c0,0.4 -0.32,0.73 -0.72,0.74l-4.46 0.08c-0.29,0.01 -0.55,-0.09 -0.77,-0.27l-3.46 -2.89c-0.99,0.4 -2.11,-0.31 -2.12,-1.41 -0.01,-0.85 0.67,-1.56 1.53,-1.57 0.99,-0.02 1.73,0.9 1.53,1.85zm-10.56 -19.72c-0.17,0.06 -0.35,0.1 -0.54,0.1 -0.92,0.02 -1.67,-0.71 -1.68,-1.63 -0.01,-0.91 0.72,-1.67 1.64,-1.69 0.92,-0.02 1.67,0.71 1.68,1.63 0,0.18 -0.02,0.36 -0.08,0.53l4.56 4.4c0.33,0.32 0.5,0.72 0.51,1.18l0.02 2.09 1.91 -0.04c0.46,-0.01 0.87,0.15 1.2,0.47l5 4.83c0.33,0.32 0.5,0.72 0.51,1.18l0.05 4.24c0.49,0.26 0.8,0.77 0.81,1.33 0.01,0.85 -0.67,1.56 -1.53,1.57 -0.85,0.01 -1.56,-0.66 -1.57,-1.52 -0.01,-0.57 0.29,-1.09 0.78,-1.37l-0.03 -3.8c-0,-0.37 -0.14,-0.68 -0.4,-0.94l-4.28 -4.13c-0.26,-0.26 -0.58,-0.38 -0.95,-0.37l-4.47 0.11c-0.26,0.49 -0.77,0.81 -1.34,0.82 -0.85,0.02 -1.56,-0.66 -1.57,-1.52 -0.01,-0.85 0.67,-1.56 1.53,-1.57 0.56,-0.01 1.08,0.28 1.36,0.76l1.5 -0.03 -0.01 -1.65c-0,-0.37 -0.14,-0.69 -0.4,-0.95l-4.2 -4.05zm2.82 21.85c0.52,0.25 0.85,0.78 0.86,1.36 0.01,0.85 -0.67,1.56 -1.53,1.57 -0.85,0.02 -1.56,-0.67 -1.57,-1.52 -0.01,-0.59 0.32,-1.12 0.82,-1.39l-0.1 -7.61c-0.02,-1.56 -0.29,-2.37 -2,-2.34 -0.68,0.01 -1.37,0.26 -1.63,0.94 -0.16,0.41 -0.17,1.03 -0.16,1.47l0.06 4.63c0.02,1.2 -0.95,2.2 -2.15,2.22l-13.96 0.25c-0.27,0.54 -0.83,0.89 -1.44,0.91 -0.9,0.02 -1.65,-0.7 -1.66,-1.61 -0.01,-0.9 0.71,-1.65 1.62,-1.67 0.61,-0.01 1.18,0.32 1.46,0.85l12.9 -0.24c1.53,-0.03 1.83,-0.39 1.81,-1.87l-0.05 -3.69c-0.02,-1.28 0.14,-2.6 1.37,-3.29 1.02,-0.57 2.86,-0.61 3.86,-0.01 1.19,0.71 1.36,1.9 1.37,3.18l0.1 7.84zm-15.71 -20.63l-1.99 0.04c-0.21,0 -0.38,0.07 -0.54,0.21l-4.32 3.8 -6.88 0.12c-0.27,0.49 -0.77,0.8 -1.34,0.81 -0.85,0.02 -1.56,-0.66 -1.57,-1.52 -0.01,-0.85 0.67,-1.56 1.53,-1.57 0.56,-0.01 1.08,0.28 1.36,0.76l6.45 -0.12 4.17 -3.71c0.22,-0.19 0.47,-0.29 0.77,-0.3l2.34 -0.04c0.27,-0.49 0.77,-0.8 1.34,-0.81 0.85,-0.02 1.56,0.66 1.57,1.52 0.01,0.85 -0.67,1.56 -1.53,1.57 -0.56,0.01 -1.08,-0.28 -1.36,-0.76z"/>
   </g>
  </g>
 </g>
</svg>
