<svg width="64" height="64" viewBox="0 0 64 64" fill="none" xmlns="http://www.w3.org/2000/svg">
<g clip-path="url(#clip0_2_369)">
<path d="M12.1656 13.0797C10.6314 13.0797 9.3877 14.3234 9.3877 15.8576C9.3885 16.2956 9.49287 16.7271 9.69217 17.117L15.0278 26.2982L18.8371 25.8434L20.1451 23.7198L14.4415 14.2639C13.9215 13.5215 13.072 13.0795 12.1656 13.0797Z" fill="url(#paint0_linear_2_369)"/>
<mask id="mask0_2_369" style="mask-type:luminance" maskUnits="userSpaceOnUse" x="9" y="13" width="12" height="14">
<path d="M12.1656 13.0797C10.6314 13.0797 9.3877 14.3234 9.3877 15.8576C9.38836 16.2955 9.49287 16.7271 9.69217 17.117L15.0278 26.2982L18.8371 25.8434L20.1451 23.7198L14.4415 14.2639C13.9215 13.5215 13.072 13.0795 12.1656 13.0797Z" fill="white"/>
</mask>
<g mask="url(#mask0_2_369)">
<g filter="url(#filter0_f_2_369)">
<path d="M9.38771 15.083C10.974 13.9273 12.4729 13.592 13.9595 14.5232L19.1837 24.3289L21.3812 23.0021L17.6496 13.4245L13.1717 11.0948L9.19141 13.2586L9.38771 15.083Z" fill="url(#paint1_linear_2_369)"/>
</g>
</g>
<mask id="mask1_2_369" style="mask-type:luminance" maskUnits="userSpaceOnUse" x="9" y="13" width="12" height="14">
<path d="M12.1656 13.0797C10.6314 13.0797 9.3877 14.3234 9.3877 15.8576C9.38836 16.2955 9.49287 16.7271 9.69217 17.117L15.0278 26.2982L18.8371 25.8434L20.1451 23.7198L14.4415 14.2639C13.9215 13.5215 13.072 13.0795 12.1656 13.0797Z" fill="white"/>
</mask>
<g mask="url(#mask1_2_369)">
<g filter="url(#filter1_f_2_369)">
<path d="M9.38771 15.083C10.974 13.9273 12.4729 13.592 13.9595 14.5232L19.1837 24.3289L21.3812 23.0021L17.6496 13.4245L13.1717 11.0948L9.19141 13.2586L9.38771 15.083Z" fill="url(#paint2_linear_2_369)"/>
</g>
</g>
<path d="M12.1656 13.0797C10.6314 13.0797 9.3877 14.3234 9.3877 15.8576C9.3885 16.2956 9.49287 16.7271 9.69217 17.117L15.0278 26.2982L18.8371 25.8434L20.1451 23.7198L14.4415 14.2639C13.9215 13.5215 13.072 13.0795 12.1656 13.0797Z" fill="url(#paint3_linear_2_369)"/>
<mask id="mask2_2_369" style="mask-type:luminance" maskUnits="userSpaceOnUse" x="9" y="13" width="12" height="14">
<path d="M12.1656 13.0797C10.6314 13.0797 9.3877 14.3234 9.3877 15.8576C9.38836 16.2955 9.49287 16.7271 9.69217 17.117L15.0278 26.2982L18.8371 25.8434L20.1451 23.7198L14.4415 14.2639C13.9215 13.5215 13.072 13.0795 12.1656 13.0797Z" fill="white"/>
</mask>
<g mask="url(#mask2_2_369)">
<g filter="url(#filter2_f_2_369)">
<path d="M9.38771 15.083C10.974 13.9273 12.4729 13.592 13.9595 14.5232L19.1837 24.3289L21.3812 23.0021L17.6496 13.4245L13.1717 11.0948L9.19141 13.2586L9.38771 15.083Z" fill="url(#paint4_linear_2_369)"/>
</g>
</g>
<mask id="mask3_2_369" style="mask-type:luminance" maskUnits="userSpaceOnUse" x="9" y="13" width="12" height="14">
<path d="M12.1656 13.0797C10.6314 13.0797 9.3877 14.3234 9.3877 15.8576C9.38836 16.2955 9.49287 16.7271 9.69217 17.117L15.0278 26.2982L18.8371 25.8434L20.1451 23.7198L14.4415 14.2639C13.9215 13.5215 13.072 13.0795 12.1656 13.0797Z" fill="white"/>
</mask>
<g mask="url(#mask3_2_369)">
<g filter="url(#filter3_f_2_369)">
<path d="M9.38771 15.083C10.974 13.9273 12.4729 13.592 13.9595 14.5232L19.1837 24.3289L21.3812 23.0021L17.6496 13.4245L13.1717 11.0948L9.19141 13.2586L9.38771 15.083Z" fill="url(#paint5_linear_2_369)"/>
</g>
</g>
<mask id="mask4_2_369" style="mask-type:luminance" maskUnits="userSpaceOnUse" x="9" y="13" width="12" height="14">
<path d="M12.1656 13.0797C10.6314 13.0797 9.3877 14.3234 9.3877 15.8576C9.3885 16.2956 9.49287 16.7271 9.69217 17.117L15.0278 26.2982L18.8371 25.8434L20.1451 23.7198L14.4415 14.2639C13.9215 13.5215 13.072 13.0795 12.1656 13.0797Z" fill="white"/>
<mask id="mask5_2_369" style="mask-type:luminance" maskUnits="userSpaceOnUse" x="9" y="13" width="12" height="14">
<path d="M12.1656 13.0797C10.6314 13.0797 9.3877 14.3234 9.3877 15.8576C9.38836 16.2955 9.49287 16.7271 9.69217 17.117L15.0278 26.2982L18.8371 25.8434L20.1451 23.7198L14.4415 14.2639C13.9215 13.5215 13.072 13.0795 12.1656 13.0797Z" fill="white"/>
</mask>
<g mask="url(#mask5_2_369)">
<path d="M9.38771 15.083C10.974 13.9273 12.4729 13.592 13.9595 14.5232L19.1837 24.3289L21.3812 23.0021L17.6496 13.4245L13.1717 11.0948L9.19141 13.2586L9.38771 15.083Z" fill="white"/>
</g>
<mask id="mask6_2_369" style="mask-type:luminance" maskUnits="userSpaceOnUse" x="9" y="13" width="12" height="14">
<path d="M12.1656 13.0797C10.6314 13.0797 9.3877 14.3234 9.3877 15.8576C9.38836 16.2955 9.49287 16.7271 9.69217 17.117L15.0278 26.2982L18.8371 25.8434L20.1451 23.7198L14.4415 14.2639C13.9215 13.5215 13.072 13.0795 12.1656 13.0797Z" fill="white"/>
</mask>
<g mask="url(#mask6_2_369)">
<path d="M9.38771 15.083C10.974 13.9273 12.4729 13.592 13.9595 14.5232L19.1837 24.3289L21.3812 23.0021L17.6496 13.4245L13.1717 11.0948L9.19141 13.2586L9.38771 15.083Z" fill="white"/>
</g>
<path d="M12.1656 13.0797C10.6314 13.0797 9.3877 14.3234 9.3877 15.8576C9.3885 16.2956 9.49287 16.7271 9.69217 17.117L15.0278 26.2982L18.8371 25.8434L20.1451 23.7198L14.4415 14.2639C13.9215 13.5215 13.072 13.0795 12.1656 13.0797Z" fill="white"/>
<mask id="mask7_2_369" style="mask-type:luminance" maskUnits="userSpaceOnUse" x="9" y="13" width="12" height="14">
<path d="M12.1656 13.0797C10.6314 13.0797 9.3877 14.3234 9.3877 15.8576C9.38836 16.2955 9.49287 16.7271 9.69217 17.117L15.0278 26.2982L18.8371 25.8434L20.1451 23.7198L14.4415 14.2639C13.9215 13.5215 13.072 13.0795 12.1656 13.0797Z" fill="white"/>
</mask>
<g mask="url(#mask7_2_369)">
<path d="M9.38771 15.083C10.974 13.9273 12.4729 13.592 13.9595 14.5232L19.1837 24.3289L21.3812 23.0021L17.6496 13.4245L13.1717 11.0948L9.19141 13.2586L9.38771 15.083Z" fill="white"/>
</g>
<mask id="mask8_2_369" style="mask-type:luminance" maskUnits="userSpaceOnUse" x="9" y="13" width="12" height="14">
<path d="M12.1656 13.0797C10.6314 13.0797 9.3877 14.3234 9.3877 15.8576C9.38836 16.2955 9.49287 16.7271 9.69217 17.117L15.0278 26.2982L18.8371 25.8434L20.1451 23.7198L14.4415 14.2639C13.9215 13.5215 13.072 13.0795 12.1656 13.0797Z" fill="white"/>
</mask>
<g mask="url(#mask8_2_369)">
<path d="M9.38771 15.083C10.974 13.9273 12.4729 13.592 13.9595 14.5232L19.1837 24.3289L21.3812 23.0021L17.6496 13.4245L13.1717 11.0948L9.19141 13.2586L9.38771 15.083Z" fill="white"/>
</g>
</mask>
<g mask="url(#mask4_2_369)">
<g filter="url(#filter4_f_2_369)">
<path d="M19.8051 23.1561L15.0278 26.2982L19.775 27.3677C20.2717 25.8666 21.9317 24.1328 19.8051 23.1561Z" fill="url(#paint6_linear_2_369)"/>
</g>
</g>
<path d="M51.8698 13.0797C53.404 13.0797 54.6478 14.3234 54.6478 15.8576C54.647 16.2956 54.5426 16.7271 54.3433 17.117L49.0076 26.2982L45.1984 25.8434L43.8904 23.7198L49.594 14.2639C50.1139 13.5215 50.9634 13.0795 51.8698 13.0797Z" fill="url(#paint7_linear_2_369)"/>
<mask id="mask9_2_369" style="mask-type:luminance" maskUnits="userSpaceOnUse" x="43" y="13" width="12" height="14">
<path d="M51.8698 13.0797C53.404 13.0797 54.6477 14.3234 54.6477 15.8576C54.647 16.2955 54.5425 16.7271 54.3432 17.117L49.0076 26.2982L45.1983 25.8434L43.8903 23.7198L49.5939 14.2639C50.1139 13.5215 50.9634 13.0795 51.8698 13.0797Z" fill="white"/>
</mask>
<g mask="url(#mask9_2_369)">
<g filter="url(#filter5_f_2_369)">
<path d="M54.6477 15.083C53.0614 13.9273 51.5625 13.592 50.0759 14.5232L44.8517 24.3289L42.6543 23.0021L46.3858 13.4245L50.8637 11.0948L54.844 13.2586L54.6477 15.083Z" fill="url(#paint8_linear_2_369)"/>
</g>
</g>
<mask id="mask10_2_369" style="mask-type:luminance" maskUnits="userSpaceOnUse" x="43" y="13" width="12" height="14">
<path d="M51.8698 13.0797C53.404 13.0797 54.6477 14.3234 54.6477 15.8576C54.647 16.2955 54.5425 16.7271 54.3432 17.117L49.0076 26.2982L45.1983 25.8434L43.8903 23.7198L49.5939 14.2639C50.1139 13.5215 50.9634 13.0795 51.8698 13.0797Z" fill="white"/>
</mask>
<g mask="url(#mask10_2_369)">
<g filter="url(#filter6_f_2_369)">
<path d="M54.6477 15.083C53.0614 13.9273 51.5625 13.592 50.0759 14.5232L44.8517 24.3289L42.6543 23.0021L46.3858 13.4245L50.8637 11.0948L54.844 13.2586L54.6477 15.083Z" fill="url(#paint9_linear_2_369)"/>
</g>
</g>
<path d="M51.8698 13.0797C53.404 13.0797 54.6478 14.3234 54.6478 15.8576C54.647 16.2956 54.5426 16.7271 54.3433 17.117L49.0076 26.2982L45.1984 25.8434L43.8904 23.7198L49.594 14.2639C50.1139 13.5215 50.9634 13.0795 51.8698 13.0797Z" fill="url(#paint10_linear_2_369)"/>
<mask id="mask11_2_369" style="mask-type:luminance" maskUnits="userSpaceOnUse" x="43" y="13" width="12" height="14">
<path d="M51.8698 13.0797C53.404 13.0797 54.6477 14.3234 54.6477 15.8576C54.647 16.2955 54.5425 16.7271 54.3432 17.117L49.0076 26.2982L45.1983 25.8434L43.8903 23.7198L49.5939 14.2639C50.1139 13.5215 50.9634 13.0795 51.8698 13.0797Z" fill="white"/>
</mask>
<g mask="url(#mask11_2_369)">
<g filter="url(#filter7_f_2_369)">
<path d="M54.6477 15.083C53.0614 13.9273 51.5625 13.592 50.0759 14.5232L44.8517 24.3289L42.6543 23.0021L46.3858 13.4245L50.8637 11.0948L54.844 13.2586L54.6477 15.083Z" fill="url(#paint11_linear_2_369)"/>
</g>
</g>
<mask id="mask12_2_369" style="mask-type:luminance" maskUnits="userSpaceOnUse" x="43" y="13" width="12" height="14">
<path d="M51.8698 13.0797C53.404 13.0797 54.6477 14.3234 54.6477 15.8576C54.647 16.2955 54.5425 16.7271 54.3432 17.117L49.0076 26.2982L45.1983 25.8434L43.8903 23.7198L49.5939 14.2639C50.1139 13.5215 50.9634 13.0795 51.8698 13.0797Z" fill="white"/>
</mask>
<g mask="url(#mask12_2_369)">
<g filter="url(#filter8_f_2_369)">
<path d="M54.6477 15.083C53.0614 13.9273 51.5625 13.592 50.0759 14.5232L44.8517 24.3289L42.6543 23.0021L46.3858 13.4245L50.8637 11.0948L54.844 13.2586L54.6477 15.083Z" fill="url(#paint12_linear_2_369)"/>
</g>
</g>
<mask id="mask13_2_369" style="mask-type:luminance" maskUnits="userSpaceOnUse" x="43" y="13" width="12" height="14">
<path d="M51.87 13.0797C53.4042 13.0797 54.6479 14.3234 54.6479 15.8576C54.6471 16.2956 54.5428 16.7271 54.3435 17.117L49.0079 26.2982L45.1986 25.8434L43.8906 23.7198L49.5942 14.2639C50.1141 13.5215 50.9636 13.0795 51.87 13.0797Z" fill="white"/>
<mask id="mask14_2_369" style="mask-type:luminance" maskUnits="userSpaceOnUse" x="43" y="13" width="12" height="14">
<path d="M51.87 13.0797C53.4042 13.0797 54.6479 14.3234 54.6479 15.8576C54.6473 16.2955 54.5428 16.7271 54.3435 17.117L49.0079 26.2982L45.1986 25.8434L43.8906 23.7198L49.5942 14.2639C50.1141 13.5215 50.9636 13.0795 51.87 13.0797Z" fill="white"/>
</mask>
<g mask="url(#mask14_2_369)">
<path d="M54.6479 15.083C53.0616 13.9273 51.5628 13.592 50.0762 14.5232L44.852 24.3289L42.6545 23.0021L46.3861 13.4245L50.8639 11.0948L54.8442 13.2586L54.6479 15.083Z" fill="white"/>
</g>
<mask id="mask15_2_369" style="mask-type:luminance" maskUnits="userSpaceOnUse" x="43" y="13" width="12" height="14">
<path d="M51.87 13.0797C53.4042 13.0797 54.6479 14.3234 54.6479 15.8576C54.6473 16.2955 54.5428 16.7271 54.3435 17.117L49.0079 26.2982L45.1986 25.8434L43.8906 23.7198L49.5942 14.2639C50.1141 13.5215 50.9636 13.0795 51.87 13.0797Z" fill="white"/>
</mask>
<g mask="url(#mask15_2_369)">
<path d="M54.6479 15.083C53.0616 13.9273 51.5628 13.592 50.0762 14.5232L44.852 24.3289L42.6545 23.0021L46.3861 13.4245L50.8639 11.0948L54.8442 13.2586L54.6479 15.083Z" fill="white"/>
</g>
<path d="M51.87 13.0797C53.4042 13.0797 54.6479 14.3234 54.6479 15.8576C54.6471 16.2956 54.5428 16.7271 54.3435 17.117L49.0079 26.2982L45.1986 25.8434L43.8906 23.7198L49.5942 14.2639C50.1141 13.5215 50.9636 13.0795 51.87 13.0797Z" fill="white"/>
<mask id="mask16_2_369" style="mask-type:luminance" maskUnits="userSpaceOnUse" x="43" y="13" width="12" height="14">
<path d="M51.87 13.0797C53.4042 13.0797 54.6479 14.3234 54.6479 15.8576C54.6473 16.2955 54.5428 16.7271 54.3435 17.117L49.0079 26.2982L45.1986 25.8434L43.8906 23.7198L49.5942 14.2639C50.1141 13.5215 50.9636 13.0795 51.87 13.0797Z" fill="white"/>
</mask>
<g mask="url(#mask16_2_369)">
<path d="M54.6479 15.083C53.0616 13.9273 51.5628 13.592 50.0762 14.5232L44.852 24.3289L42.6545 23.0021L46.3861 13.4245L50.8639 11.0948L54.8442 13.2586L54.6479 15.083Z" fill="white"/>
</g>
<mask id="mask17_2_369" style="mask-type:luminance" maskUnits="userSpaceOnUse" x="43" y="13" width="12" height="14">
<path d="M51.87 13.0797C53.4042 13.0797 54.6479 14.3234 54.6479 15.8576C54.6473 16.2955 54.5428 16.7271 54.3435 17.117L49.0079 26.2982L45.1986 25.8434L43.8906 23.7198L49.5942 14.2639C50.1141 13.5215 50.9636 13.0795 51.87 13.0797Z" fill="white"/>
</mask>
<g mask="url(#mask17_2_369)">
<path d="M54.6479 15.083C53.0616 13.9273 51.5628 13.592 50.0762 14.5232L44.852 24.3289L42.6545 23.0021L46.3861 13.4245L50.8639 11.0948L54.8442 13.2586L54.6479 15.083Z" fill="white"/>
</g>
</mask>
<g mask="url(#mask13_2_369)">
<g filter="url(#filter9_f_2_369)">
<path d="M44.2305 23.1561L49.0078 26.2982L44.2606 27.3677C43.7639 25.8666 42.1039 24.1328 44.2305 23.1561Z" fill="url(#paint13_linear_2_369)"/>
</g>
</g>
<path d="M31.9955 21.4504C24.0436 21.456 16.3751 24.4042 10.4675 29.7271C4.55991 35.05 0.831281 42.3709 0 50.2793H64.0124C63.1807 42.3673 59.449 35.0434 53.5369 29.72C47.6248 24.3966 39.9511 21.4507 31.9955 21.4504Z" fill="url(#paint14_radial_2_369)"/>
<g filter="url(#filter10_f_2_369)">
<path d="M47.5946 42.2268C45.79 42.2268 44.0417 40.6341 43.6897 38.6694C43.3377 36.7048 44.5153 35.1121 46.32 35.1121C48.1247 35.1121 49.873 36.7048 50.225 38.6694C50.5769 40.6341 49.3993 42.2268 47.5946 42.2268Z" fill="url(#paint15_linear_2_369)"/>
</g>
<path d="M47.5564 42.0509C45.8603 42.0509 44.2173 40.5541 43.8865 38.7076C43.5557 36.8612 44.6624 35.3644 46.3585 35.3644C48.0545 35.3644 49.6976 36.8612 50.0284 38.7076C50.3592 40.5541 49.2524 42.0509 47.5564 42.0509Z" fill="url(#paint16_linear_2_369)"/>
<mask id="mask18_2_369" style="mask-type:luminance" maskUnits="userSpaceOnUse" x="0" y="21" width="65" height="30">
<path d="M31.9955 21.4504C24.0436 21.456 16.3751 24.4042 10.4675 29.7271C4.55991 35.05 0.831281 42.3709 0 50.2793H64.0124C63.1807 42.3673 59.449 35.0434 53.5369 29.72C47.6248 24.3966 39.9511 21.4507 31.9955 21.4504Z" fill="white"/>
</mask>
<g mask="url(#mask18_2_369)">
<g filter="url(#filter11_f_2_369)">
<path d="M5.09521 35.9914H14.5252C17.5535 32.5391 22.5971 31.9969 29.8307 31.9969C41.6204 31.9969 45.4457 30.2629 48.7531 35.9914H58.6963C56.5755 28.0766 43.9835 22.3004 31.9955 22.3004C19.1456 22.4899 6.94701 29.0804 5.09521 35.9914Z" fill="url(#paint17_linear_2_369)"/>
</g>
</g>
<path d="M16.5127 42.0509C18.2087 42.0509 19.8982 40.5541 20.2863 38.7076C20.6743 36.8612 19.614 35.3644 17.9179 35.3644C16.2219 35.3644 14.5324 36.8612 14.1443 38.7076C13.7563 40.5541 14.8166 42.0509 16.5127 42.0509Z" fill="url(#paint18_radial_2_369)"/>
<mask id="mask19_2_369" style="mask-type:luminance" maskUnits="userSpaceOnUse" x="0" y="21" width="65" height="30">
<path d="M31.9955 21.4504C24.0436 21.456 16.3751 24.4042 10.4675 29.7271C4.55992 35.05 0.831281 42.3709 0 50.2793H64.0124C63.1807 42.3673 59.449 35.0434 53.5369 29.72C47.6248 24.3966 39.9511 21.4507 31.9955 21.4504Z" fill="white"/>
</mask>
<g mask="url(#mask19_2_369)">
<g filter="url(#filter12_f_2_369)">
<path d="M12.7507 31.5499H19.488C21.6516 29.0834 26.5971 29.1657 30.9147 29.1657C37.9517 29.1657 41.5793 27.4571 43.9422 31.5499H51.0462C49.531 25.8952 40.5275 22.3004 32.0397 22.3004C22.9418 22.4345 14.0738 26.6123 12.7507 31.5499Z" fill="#A7D5AA"/>
</g>
</g>
<path d="M47.5564 42.0509C45.8603 42.0509 44.2173 40.5541 43.8865 38.7076C43.5557 36.8612 44.6624 35.3644 46.3585 35.3644C48.0545 35.3644 49.6976 36.8612 50.0284 38.7076C50.3592 40.5541 49.2524 42.0509 47.5564 42.0509Z" fill="url(#paint19_linear_2_369)"/>
<mask id="mask20_2_369" style="mask-type:luminance" maskUnits="userSpaceOnUse" x="43" y="35" width="8" height="8">
<path d="M47.5564 42.0509C45.8603 42.0509 44.2173 40.5541 43.8865 38.7076C43.5557 36.8612 44.6624 35.3644 46.3585 35.3644C48.0545 35.3644 49.6976 36.8612 50.0284 38.7076C50.3592 40.5541 49.2524 42.0509 47.5564 42.0509Z" fill="white"/>
</mask>
<g mask="url(#mask20_2_369)">
<g filter="url(#filter13_f_2_369)">
<path d="M48.8035 41.7385C49.3067 41.2149 49.9931 39.9281 49.8252 39.6373C50.4393 36.764 48.1625 35.6554 46.3586 35.3644L50.7571 35.1121C50.7571 35.1121 51.7331 38.0787 51.7936 38.2839C52.2184 39.7246 50.6019 41.2566 48.8035 41.7385Z" fill="#083E15"/>
</g>
</g>
<g filter="url(#filter14_f_2_369)">
<path d="M47.1187 36.2901C46.3953 35.9876 45.5698 35.8939 44.6509 35.9914C45.5473 35.6722 46.3183 35.3647 47.1187 36.2901Z" fill="#445747"/>
</g>
<mask id="mask21_2_369" style="mask-type:luminance" maskUnits="userSpaceOnUse" x="43" y="35" width="8" height="8">
<path d="M47.5564 42.0509C45.8603 42.0509 44.2173 40.5541 43.8865 38.7076C43.5557 36.8612 44.6624 35.3644 46.3585 35.3644C48.0545 35.3644 49.6976 36.8612 50.0284 38.7076C50.3592 40.5541 49.2524 42.0509 47.5564 42.0509Z" fill="white"/>
</mask>
<g mask="url(#mask21_2_369)">
<g filter="url(#filter15_f_2_369)">
<path d="M45.3413 35.5673C46.7318 34.9986 47.7527 35.8602 48.8385 36.4703L48.6112 34.9669L45.2632 35.1121L45.3413 35.5673Z" fill="#375F40"/>
</g>
</g>
<g filter="url(#filter16_f_2_369)">
<path d="M47.5116 36.2405C47.4929 36.24 47.4742 36.2417 47.4559 36.2455C47.3906 36.2588 47.3333 36.2974 47.2966 36.353C47.2195 36.4681 47.2502 36.6238 47.3653 36.7009C47.7836 36.9805 48.0244 37.2748 48.2224 37.5502C48.3035 37.6623 48.46 37.6876 48.5722 37.6067C48.6835 37.5265 48.7098 37.3718 48.6311 37.2594C48.4182 36.9632 48.1256 36.606 47.6445 36.2844C47.6052 36.2577 47.559 36.2421 47.5116 36.2405ZM16.5041 36.3137C16.4568 36.3147 16.4107 36.3291 16.3713 36.3552C15.8901 36.6767 15.5975 37.0333 15.3846 37.3295C15.3032 37.4418 15.3286 37.5989 15.441 37.68C15.5533 37.7613 15.7104 37.736 15.7915 37.6236C15.9895 37.3481 16.2322 37.0532 16.6505 36.7736C16.7652 36.6965 16.7959 36.5413 16.7192 36.4264C16.6825 36.3707 16.6252 36.3321 16.5599 36.3188C16.5416 36.315 16.5228 36.3137 16.5041 36.3137ZM18.8838 39.6591C18.9309 39.6119 18.7533 39.6857 18.7063 39.7329C18.4929 39.9461 18.2813 40.0747 18.0448 40.2156C17.9261 40.286 17.8867 40.4393 17.9567 40.5583C18.0273 40.6786 18.1824 40.7182 18.302 40.6464C18.5395 40.5049 18.8007 40.3482 19.0613 40.088C19.1595 39.9901 19.1595 39.8309 19.0613 39.7329C19.0143 39.6857 18.8367 39.7062 18.8838 39.6591ZM45.1995 39.6478C45.1329 39.6478 45.069 39.6744 45.022 39.7216C44.9238 39.8195 44.9238 39.9787 45.022 40.0767C45.2825 40.3369 45.5456 40.4935 45.7832 40.6351C45.9021 40.705 46.0554 40.6657 46.1259 40.547C46.1958 40.428 46.1565 40.2747 46.0378 40.2043C45.8013 40.0634 45.5904 39.9348 45.377 39.7216C45.3299 39.6744 45.2662 39.6478 45.1995 39.6478Z" fill="#AFB4AD"/>
</g>
<g filter="url(#filter17_f_2_369)">
<path d="M47.5116 36.2405C47.4929 36.24 47.4742 36.2417 47.4559 36.2455C47.3906 36.2588 47.3333 36.2974 47.2966 36.353C47.2195 36.4681 47.2502 36.6238 47.3653 36.7009C47.7836 36.9805 48.0244 37.2748 48.2224 37.5502C48.3035 37.6623 48.46 37.6876 48.5722 37.6067C48.6835 37.5265 48.7098 37.3718 48.6311 37.2594C48.4182 36.9632 48.1256 36.606 47.6445 36.2844C47.6052 36.2577 47.559 36.2421 47.5116 36.2405ZM16.5041 36.3137C16.4568 36.3147 16.4107 36.3291 16.3713 36.3552C15.8901 36.6767 15.5975 37.0333 15.3846 37.3295C15.3032 37.4418 15.3286 37.5989 15.441 37.68C15.5533 37.7613 15.7104 37.736 15.7915 37.6236C15.9895 37.3481 16.2322 37.0532 16.6505 36.7736C16.7652 36.6965 16.7959 36.5413 16.7192 36.4264C16.6825 36.3707 16.6252 36.3321 16.5599 36.3188C16.5416 36.315 16.5228 36.3137 16.5041 36.3137ZM18.8838 39.6591C18.9309 39.6119 18.7533 39.6857 18.7063 39.7329C18.4929 39.9461 18.2813 40.0747 18.0448 40.2156C17.9261 40.286 17.8867 40.4393 17.9567 40.5583C18.0273 40.6786 18.1824 40.7182 18.302 40.6464C18.5395 40.5049 18.8007 40.3482 19.0613 40.088C19.1595 39.9901 19.1595 39.8309 19.0613 39.7329C19.0143 39.6857 18.8367 39.7062 18.8838 39.6591ZM45.1995 39.6478C45.1329 39.6478 45.069 39.6744 45.022 39.7216C44.9238 39.8195 44.9238 39.9787 45.022 40.0767C45.2825 40.3369 45.5456 40.4935 45.7832 40.6351C45.9021 40.705 46.0554 40.6657 46.1259 40.547C46.1958 40.428 46.1565 40.2747 46.0378 40.2043C45.8013 40.0634 45.5904 39.9348 45.377 39.7216C45.3299 39.6744 45.2662 39.6478 45.1995 39.6478Z" fill="#AFB4AD"/>
</g>
<mask id="mask22_2_369" style="mask-type:luminance" maskUnits="userSpaceOnUse" x="0" y="21" width="65" height="30">
<path d="M31.9955 21.4504C24.0436 21.456 16.3751 24.4042 10.4675 29.7271C4.55991 35.05 0.831281 42.3709 0 50.2793H64.0124C63.1807 42.3673 59.449 35.0434 53.5369 29.72C47.6248 24.3966 39.9511 21.4507 31.9955 21.4504Z" fill="white"/>
</mask>
<g mask="url(#mask22_2_369)">
<g filter="url(#filter18_f_2_369)">
<path d="M20.1453 23.7198C16.361 25.8265 11.5384 28.5726 8.0062 33.0056L7.75488 28.3059L20.1453 23.7198Z" fill="url(#paint20_linear_2_369)"/>
</g>
</g>
<mask id="mask23_2_369" style="mask-type:luminance" maskUnits="userSpaceOnUse" x="0" y="21" width="65" height="30">
<path d="M31.9955 21.4504C24.0436 21.456 16.3751 24.4042 10.4675 29.7271C4.55991 35.05 0.831281 42.3709 0 50.2793H64.0124C63.1807 42.3673 59.449 35.0434 53.5369 29.72C47.6248 24.3966 39.9511 21.4507 31.9955 21.4504Z" fill="white"/>
</mask>
<g mask="url(#mask23_2_369)">
<g filter="url(#filter19_f_2_369)">
<path d="M20.1453 23.7198C16.361 25.8265 11.5384 28.5726 8.0062 33.0056L7.75488 28.3059L20.1453 23.7198Z" fill="url(#paint21_linear_2_369)"/>
</g>
</g>
<mask id="mask24_2_369" style="mask-type:luminance" maskUnits="userSpaceOnUse" x="0" y="21" width="65" height="30">
<path d="M31.9955 21.4504C24.0436 21.456 16.3751 24.4042 10.4675 29.7271C4.55991 35.05 0.831281 42.3709 0 50.2793H64.0124C63.1807 42.3673 59.449 35.0434 53.5369 29.72C47.6248 24.3966 39.9511 21.4507 31.9955 21.4504Z" fill="white"/>
</mask>
<g mask="url(#mask24_2_369)">
<g filter="url(#filter20_f_2_369)">
<path d="M20.1453 23.7198C16.361 25.8265 11.5384 28.5726 8.0062 33.0056L7.75488 28.3059L20.1453 23.7198Z" fill="url(#paint22_linear_2_369)"/>
</g>
</g>
<mask id="mask25_2_369" style="mask-type:luminance" maskUnits="userSpaceOnUse" x="0" y="21" width="65" height="30">
<path d="M31.9955 21.4504C24.0436 21.456 16.3751 24.4042 10.4675 29.7271C4.55991 35.05 0.831281 42.3709 0 50.2793H64.0124C63.1807 42.3673 59.449 35.0434 53.5369 29.72C47.6248 24.3966 39.9511 21.4507 31.9955 21.4504Z" fill="white"/>
</mask>
<g mask="url(#mask25_2_369)">
<g filter="url(#filter21_f_2_369)">
<path d="M20.1453 23.7198C16.361 25.8265 11.5384 28.5726 8.0062 33.0056L7.75488 28.3059L20.1453 23.7198Z" fill="url(#paint23_linear_2_369)"/>
</g>
</g>
<mask id="mask26_2_369" style="mask-type:luminance" maskUnits="userSpaceOnUse" x="0" y="21" width="65" height="30">
<path d="M32.0407 21.4504C39.9926 21.456 47.6611 24.4042 53.5686 29.7271C59.4762 35.05 63.2049 42.3709 64.0361 50.2793H0.0237656C0.855434 42.3673 4.58713 35.0434 10.4992 29.72C16.4113 24.3966 24.0851 21.4507 32.0407 21.4504Z" fill="white"/>
</mask>
<g mask="url(#mask26_2_369)">
<g filter="url(#filter22_f_2_369)">
<path d="M43.8908 23.7198C47.6751 25.8265 52.4977 28.5726 56.0299 33.0056L56.2812 28.3059L43.8908 23.7198Z" fill="url(#paint24_linear_2_369)"/>
</g>
</g>
<mask id="mask27_2_369" style="mask-type:luminance" maskUnits="userSpaceOnUse" x="0" y="21" width="65" height="30">
<path d="M32.0407 21.4504C39.9926 21.456 47.6611 24.4042 53.5686 29.7271C59.4762 35.05 63.2049 42.3709 64.0361 50.2793H0.0237656C0.855434 42.3673 4.58713 35.0434 10.4992 29.72C16.4113 24.3966 24.0851 21.4507 32.0407 21.4504Z" fill="white"/>
</mask>
<g mask="url(#mask27_2_369)">
<g filter="url(#filter23_f_2_369)">
<path d="M43.8908 23.7198C47.6751 25.8265 52.4977 28.5726 56.0299 33.0056L56.2812 28.3059L43.8908 23.7198Z" fill="url(#paint25_linear_2_369)"/>
</g>
</g>
</g>
<defs>
<filter id="filter0_f_2_369" x="3.48743" y="5.39085" width="23.5976" height="24.642" filterUnits="userSpaceOnUse" color-interpolation-filters="sRGB">
<feFlood flood-opacity="0" result="BackgroundImageFix"/>
<feBlend mode="normal" in="SourceGraphic" in2="BackgroundImageFix" result="shape"/>
<feGaussianBlur stdDeviation="2.85199" result="effect1_foregroundBlur_2_369"/>
</filter>
<filter id="filter1_f_2_369" x="7.47427" y="9.37769" width="15.624" height="16.6683" filterUnits="userSpaceOnUse" color-interpolation-filters="sRGB">
<feFlood flood-opacity="0" result="BackgroundImageFix"/>
<feBlend mode="normal" in="SourceGraphic" in2="BackgroundImageFix" result="shape"/>
<feGaussianBlur stdDeviation="0.858567" result="effect1_foregroundBlur_2_369"/>
</filter>
<filter id="filter2_f_2_369" x="3.48743" y="5.39085" width="23.5976" height="24.642" filterUnits="userSpaceOnUse" color-interpolation-filters="sRGB">
<feFlood flood-opacity="0" result="BackgroundImageFix"/>
<feBlend mode="normal" in="SourceGraphic" in2="BackgroundImageFix" result="shape"/>
<feGaussianBlur stdDeviation="2.85199" result="effect1_foregroundBlur_2_369"/>
</filter>
<filter id="filter3_f_2_369" x="7.47427" y="9.37769" width="15.624" height="16.6683" filterUnits="userSpaceOnUse" color-interpolation-filters="sRGB">
<feFlood flood-opacity="0" result="BackgroundImageFix"/>
<feBlend mode="normal" in="SourceGraphic" in2="BackgroundImageFix" result="shape"/>
<feGaussianBlur stdDeviation="0.858567" result="effect1_foregroundBlur_2_369"/>
</filter>
<filter id="filter4_f_2_369" x="11.1095" y="19.2377" width="13.6702" height="12.0484" filterUnits="userSpaceOnUse" color-interpolation-filters="sRGB">
<feFlood flood-opacity="0" result="BackgroundImageFix"/>
<feBlend mode="normal" in="SourceGraphic" in2="BackgroundImageFix" result="shape"/>
<feGaussianBlur stdDeviation="1.95918" result="effect1_foregroundBlur_2_369"/>
</filter>
<filter id="filter5_f_2_369" x="36.9503" y="5.39085" width="23.5976" height="24.642" filterUnits="userSpaceOnUse" color-interpolation-filters="sRGB">
<feFlood flood-opacity="0" result="BackgroundImageFix"/>
<feBlend mode="normal" in="SourceGraphic" in2="BackgroundImageFix" result="shape"/>
<feGaussianBlur stdDeviation="2.85199" result="effect1_foregroundBlur_2_369"/>
</filter>
<filter id="filter6_f_2_369" x="40.9372" y="9.37769" width="15.624" height="16.6683" filterUnits="userSpaceOnUse" color-interpolation-filters="sRGB">
<feFlood flood-opacity="0" result="BackgroundImageFix"/>
<feBlend mode="normal" in="SourceGraphic" in2="BackgroundImageFix" result="shape"/>
<feGaussianBlur stdDeviation="0.858567" result="effect1_foregroundBlur_2_369"/>
</filter>
<filter id="filter7_f_2_369" x="36.9503" y="5.39085" width="23.5976" height="24.642" filterUnits="userSpaceOnUse" color-interpolation-filters="sRGB">
<feFlood flood-opacity="0" result="BackgroundImageFix"/>
<feBlend mode="normal" in="SourceGraphic" in2="BackgroundImageFix" result="shape"/>
<feGaussianBlur stdDeviation="2.85199" result="effect1_foregroundBlur_2_369"/>
</filter>
<filter id="filter8_f_2_369" x="40.9372" y="9.37769" width="15.624" height="16.6683" filterUnits="userSpaceOnUse" color-interpolation-filters="sRGB">
<feFlood flood-opacity="0" result="BackgroundImageFix"/>
<feBlend mode="normal" in="SourceGraphic" in2="BackgroundImageFix" result="shape"/>
<feGaussianBlur stdDeviation="0.858567" result="effect1_foregroundBlur_2_369"/>
</filter>
<filter id="filter9_f_2_369" x="37.892" y="17.8738" width="16.3981" height="14.7763" filterUnits="userSpaceOnUse" color-interpolation-filters="sRGB">
<feFlood flood-opacity="0" result="BackgroundImageFix"/>
<feBlend mode="normal" in="SourceGraphic" in2="BackgroundImageFix" result="shape"/>
<feGaussianBlur stdDeviation="2.64116" result="effect1_foregroundBlur_2_369"/>
</filter>
<filter id="filter10_f_2_369" x="40.7824" y="32.267" width="12.3498" height="12.8049" filterUnits="userSpaceOnUse" color-interpolation-filters="sRGB">
<feFlood flood-opacity="0" result="BackgroundImageFix"/>
<feBlend mode="normal" in="SourceGraphic" in2="BackgroundImageFix" result="shape"/>
<feGaussianBlur stdDeviation="1.42253" result="effect1_foregroundBlur_2_369"/>
</filter>
<filter id="filter11_f_2_369" x="-24.4837" y="-7.2786" width="112.759" height="72.8489" filterUnits="userSpaceOnUse" color-interpolation-filters="sRGB">
<feFlood flood-opacity="0" result="BackgroundImageFix"/>
<feBlend mode="normal" in="SourceGraphic" in2="BackgroundImageFix" result="shape"/>
<feGaussianBlur stdDeviation="14.7895" result="effect1_foregroundBlur_2_369"/>
</filter>
<filter id="filter12_f_2_369" x="-2.27561" y="7.27402" width="68.3481" height="39.3022" filterUnits="userSpaceOnUse" color-interpolation-filters="sRGB">
<feFlood flood-opacity="0" result="BackgroundImageFix"/>
<feBlend mode="normal" in="SourceGraphic" in2="BackgroundImageFix" result="shape"/>
<feGaussianBlur stdDeviation="7.51317" result="effect1_foregroundBlur_2_369"/>
</filter>
<filter id="filter13_f_2_369" x="45.4857" y="34.2391" width="7.24936" height="8.37236" filterUnits="userSpaceOnUse" color-interpolation-filters="sRGB">
<feFlood flood-opacity="0" result="BackgroundImageFix"/>
<feBlend mode="normal" in="SourceGraphic" in2="BackgroundImageFix" result="shape"/>
<feGaussianBlur stdDeviation="0.436485" result="effect1_foregroundBlur_2_369"/>
</filter>
<filter id="filter14_f_2_369" x="43.7831" y="34.8062" width="4.20329" height="2.35164" filterUnits="userSpaceOnUse" color-interpolation-filters="sRGB">
<feFlood flood-opacity="0" result="BackgroundImageFix"/>
<feBlend mode="normal" in="SourceGraphic" in2="BackgroundImageFix" result="shape"/>
<feGaussianBlur stdDeviation="0.433879" result="effect1_foregroundBlur_2_369"/>
</filter>
<filter id="filter15_f_2_369" x="43.5883" y="33.2921" width="6.92514" height="4.85308" filterUnits="userSpaceOnUse" color-interpolation-filters="sRGB">
<feFlood flood-opacity="0" result="BackgroundImageFix"/>
<feBlend mode="normal" in="SourceGraphic" in2="BackgroundImageFix" result="shape"/>
<feGaussianBlur stdDeviation="0.837426" result="effect1_foregroundBlur_2_369"/>
</filter>
<filter id="filter16_f_2_369" x="12.6179" y="33.5213" width="38.7777" height="9.87991" filterUnits="userSpaceOnUse" color-interpolation-filters="sRGB">
<feFlood flood-opacity="0" result="BackgroundImageFix"/>
<feBlend mode="normal" in="SourceGraphic" in2="BackgroundImageFix" result="shape"/>
<feGaussianBlur stdDeviation="1.35953" result="effect1_foregroundBlur_2_369"/>
</filter>
<filter id="filter17_f_2_369" x="14.5695" y="35.473" width="34.8744" height="5.97659" filterUnits="userSpaceOnUse" color-interpolation-filters="sRGB">
<feFlood flood-opacity="0" result="BackgroundImageFix"/>
<feBlend mode="normal" in="SourceGraphic" in2="BackgroundImageFix" result="shape"/>
<feGaussianBlur stdDeviation="0.383694" result="effect1_foregroundBlur_2_369"/>
</filter>
<filter id="filter18_f_2_369" x="5.55505" y="21.52" width="16.7901" height="13.6855" filterUnits="userSpaceOnUse" color-interpolation-filters="sRGB">
<feFlood flood-opacity="0" result="BackgroundImageFix"/>
<feBlend mode="normal" in="SourceGraphic" in2="BackgroundImageFix" result="shape"/>
<feGaussianBlur stdDeviation="1.09992" result="effect1_foregroundBlur_2_369"/>
</filter>
<filter id="filter19_f_2_369" x="7.60254" y="23.5675" width="12.6951" height="9.59049" filterUnits="userSpaceOnUse" color-interpolation-filters="sRGB">
<feFlood flood-opacity="0" result="BackgroundImageFix"/>
<feBlend mode="normal" in="SourceGraphic" in2="BackgroundImageFix" result="shape"/>
<feGaussianBlur stdDeviation="0.0761716" result="effect1_foregroundBlur_2_369"/>
</filter>
<filter id="filter20_f_2_369" x="5.55505" y="21.52" width="16.7901" height="13.6855" filterUnits="userSpaceOnUse" color-interpolation-filters="sRGB">
<feFlood flood-opacity="0" result="BackgroundImageFix"/>
<feBlend mode="normal" in="SourceGraphic" in2="BackgroundImageFix" result="shape"/>
<feGaussianBlur stdDeviation="1.09992" result="effect1_foregroundBlur_2_369"/>
</filter>
<filter id="filter21_f_2_369" x="7.60254" y="23.5675" width="12.6951" height="9.59049" filterUnits="userSpaceOnUse" color-interpolation-filters="sRGB">
<feFlood flood-opacity="0" result="BackgroundImageFix"/>
<feBlend mode="normal" in="SourceGraphic" in2="BackgroundImageFix" result="shape"/>
<feGaussianBlur stdDeviation="0.0761716" result="effect1_foregroundBlur_2_369"/>
</filter>
<filter id="filter22_f_2_369" x="41.691" y="21.52" width="16.7901" height="13.6855" filterUnits="userSpaceOnUse" color-interpolation-filters="sRGB">
<feFlood flood-opacity="0" result="BackgroundImageFix"/>
<feBlend mode="normal" in="SourceGraphic" in2="BackgroundImageFix" result="shape"/>
<feGaussianBlur stdDeviation="1.09992" result="effect1_foregroundBlur_2_369"/>
</filter>
<filter id="filter23_f_2_369" x="43.7385" y="23.5675" width="12.6951" height="9.59049" filterUnits="userSpaceOnUse" color-interpolation-filters="sRGB">
<feFlood flood-opacity="0" result="BackgroundImageFix"/>
<feBlend mode="normal" in="SourceGraphic" in2="BackgroundImageFix" result="shape"/>
<feGaussianBlur stdDeviation="0.0761716" result="effect1_foregroundBlur_2_369"/>
</filter>
<linearGradient id="paint0_linear_2_369" x1="12.36" y1="21.7076" x2="17.2933" y2="18.9919" gradientUnits="userSpaceOnUse">
<stop offset="0.0777778" stop-color="#3B9261"/>
<stop offset="0.25" stop-color="#229A4E"/>
<stop offset="0.5" stop-color="#44A560"/>
<stop offset="0.75" stop-color="#42A95F"/>
<stop offset="1" stop-color="#44AC66"/>
</linearGradient>
<linearGradient id="paint1_linear_2_369" x1="15.8081" y1="16.5295" x2="10.6348" y2="13.5392" gradientUnits="userSpaceOnUse">
<stop stop-color="#7CBC95" stop-opacity="0.365385"/>
<stop offset="1" stop-color="#B6D2BB" stop-opacity="0.649038"/>
</linearGradient>
<linearGradient id="paint2_linear_2_369" x1="15.8081" y1="16.5295" x2="10.6348" y2="13.5392" gradientUnits="userSpaceOnUse">
<stop stop-color="#7CBC95" stop-opacity="0.365385"/>
<stop offset="1" stop-color="#B6D2BB" stop-opacity="0.649038"/>
</linearGradient>
<linearGradient id="paint3_linear_2_369" x1="12.36" y1="21.7076" x2="17.2933" y2="18.9919" gradientUnits="userSpaceOnUse">
<stop offset="0.0777778" stop-color="#3B9261"/>
<stop offset="0.25" stop-color="#229A4E"/>
<stop offset="0.5" stop-color="#44A560"/>
<stop offset="0.75" stop-color="#42A95F"/>
<stop offset="1" stop-color="#44AC66"/>
</linearGradient>
<linearGradient id="paint4_linear_2_369" x1="15.8081" y1="16.5295" x2="10.6348" y2="13.5392" gradientUnits="userSpaceOnUse">
<stop stop-color="#7CBC95" stop-opacity="0.365385"/>
<stop offset="1" stop-color="#B6D2BB" stop-opacity="0.649038"/>
</linearGradient>
<linearGradient id="paint5_linear_2_369" x1="15.8081" y1="16.5295" x2="10.6348" y2="13.5392" gradientUnits="userSpaceOnUse">
<stop stop-color="#7CBC95" stop-opacity="0.365385"/>
<stop offset="1" stop-color="#B6D2BB" stop-opacity="0.649038"/>
</linearGradient>
<linearGradient id="paint6_linear_2_369" x1="17.5268" y1="23.7198" x2="19.2117" y2="26.2982" gradientUnits="userSpaceOnUse">
<stop stop-color="#4BB064"/>
<stop offset="0.270833" stop-color="#90CA9E"/>
<stop offset="1" stop-color="#90CA9E" stop-opacity="0"/>
</linearGradient>
<linearGradient id="paint7_linear_2_369" x1="51.6755" y1="21.7076" x2="46.7422" y2="18.9919" gradientUnits="userSpaceOnUse">
<stop offset="0.0777778" stop-color="#3B9261"/>
<stop offset="0.25" stop-color="#229A4E"/>
<stop offset="0.5" stop-color="#44A560"/>
<stop offset="0.75" stop-color="#42A95F"/>
<stop offset="1" stop-color="#44AC66"/>
</linearGradient>
<linearGradient id="paint8_linear_2_369" x1="48.2273" y1="16.5295" x2="53.4006" y2="13.5392" gradientUnits="userSpaceOnUse">
<stop stop-color="#7CBC95" stop-opacity="0.365385"/>
<stop offset="1" stop-color="#B6D2BB" stop-opacity="0.649038"/>
</linearGradient>
<linearGradient id="paint9_linear_2_369" x1="48.2273" y1="16.5295" x2="53.4006" y2="13.5392" gradientUnits="userSpaceOnUse">
<stop stop-color="#7CBC95" stop-opacity="0.365385"/>
<stop offset="1" stop-color="#B6D2BB" stop-opacity="0.649038"/>
</linearGradient>
<linearGradient id="paint10_linear_2_369" x1="51.6755" y1="21.7076" x2="46.7422" y2="18.9919" gradientUnits="userSpaceOnUse">
<stop stop-color="#4F9765"/>
<stop offset="0.125" stop-color="#449A5F"/>
<stop offset="0.25" stop-color="#229A4E"/>
<stop offset="0.5" stop-color="#44A560"/>
<stop offset="0.75" stop-color="#42A95F"/>
<stop offset="1" stop-color="#44AC66"/>
</linearGradient>
<linearGradient id="paint11_linear_2_369" x1="48.2273" y1="16.5295" x2="53.4006" y2="13.5392" gradientUnits="userSpaceOnUse">
<stop stop-color="#7CBC95" stop-opacity="0.365385"/>
<stop offset="1" stop-color="#B6D2BB" stop-opacity="0.649038"/>
</linearGradient>
<linearGradient id="paint12_linear_2_369" x1="48.2273" y1="16.5295" x2="53.4006" y2="13.5392" gradientUnits="userSpaceOnUse">
<stop stop-color="#7CBC95" stop-opacity="0.365385"/>
<stop offset="1" stop-color="#B6D2BB" stop-opacity="0.649038"/>
</linearGradient>
<linearGradient id="paint13_linear_2_369" x1="46.6192" y1="24.7271" x2="45.1985" y2="25.8434" gradientUnits="userSpaceOnUse">
<stop offset="0.155556" stop-color="#41AD59"/>
<stop offset="0.433333" stop-color="#89CB95"/>
<stop offset="1" stop-color="#82CC8C"/>
</linearGradient>
<radialGradient id="paint14_radial_2_369" cx="0" cy="0" r="1" gradientUnits="userSpaceOnUse" gradientTransform="translate(32.0062 50.2793) scale(33.4129 28.8289)">
<stop stop-color="#51AA63"/>
<stop offset="0.2875" stop-color="#44AA59"/>
<stop offset="0.763889" stop-color="#4DAF60"/>
<stop offset="0.845833" stop-color="#61A76A"/>
<stop offset="1" stop-color="#7FA186"/>
</radialGradient>
<linearGradient id="paint15_linear_2_369" x1="46.9573" y1="42.2268" x2="48.1221" y2="35.3081" gradientUnits="userSpaceOnUse">
<stop offset="0.116667" stop-color="#409462"/>
<stop offset="1" stop-color="#83B785"/>
</linearGradient>
<linearGradient id="paint16_linear_2_369" x1="48.4553" y1="37.195" x2="45.0349" y2="40.2255" gradientUnits="userSpaceOnUse">
<stop stop-color="#0E2010"/>
<stop offset="0.409028" stop-color="#050208"/>
<stop offset="0.76" stop-color="#0C090E"/>
<stop offset="1" stop-color="#001406"/>
</linearGradient>
<linearGradient id="paint17_linear_2_369" x1="31.9955" y1="22.3004" x2="31.9955" y2="35.3644" gradientUnits="userSpaceOnUse">
<stop stop-color="#A7D4AA"/>
<stop offset="0.526389" stop-color="#9ACFA1"/>
<stop offset="1" stop-color="#89C98F"/>
</linearGradient>
<radialGradient id="paint18_radial_2_369" cx="0" cy="0" r="1" gradientTransform="matrix(3.07098 0 -0.70261 3.34328 17.2153 38.7076)" gradientUnits="userSpaceOnUse">
<stop stop-color="#010001"/>
<stop offset="0.5" stop-color="#010203"/>
<stop offset="1" stop-color="#001000"/>
</radialGradient>
<linearGradient id="paint19_linear_2_369" x1="48.4553" y1="37.195" x2="45.0349" y2="40.2255" gradientUnits="userSpaceOnUse">
<stop stop-color="#0E2010"/>
<stop offset="0.409028" stop-color="#050208"/>
<stop offset="0.76" stop-color="#0C090E"/>
<stop offset="1" stop-color="#001406"/>
</linearGradient>
<linearGradient id="paint20_linear_2_369" x1="9.38955" y1="31.3018" x2="20.1453" y2="23.7198" gradientUnits="userSpaceOnUse">
<stop stop-color="#85AC8C"/>
<stop offset="1" stop-color="#6EC57E"/>
</linearGradient>
<linearGradient id="paint21_linear_2_369" x1="9.38955" y1="31.3018" x2="20.1453" y2="23.7198" gradientUnits="userSpaceOnUse">
<stop stop-color="#85AC8C"/>
<stop offset="1" stop-color="#6EC57E"/>
</linearGradient>
<linearGradient id="paint22_linear_2_369" x1="9.38955" y1="31.3018" x2="20.1453" y2="23.7198" gradientUnits="userSpaceOnUse">
<stop stop-color="#85AC8C"/>
<stop offset="1" stop-color="#6EC57E"/>
</linearGradient>
<linearGradient id="paint23_linear_2_369" x1="9.38955" y1="31.3018" x2="20.1453" y2="23.7198" gradientUnits="userSpaceOnUse">
<stop stop-color="#85AC8C"/>
<stop offset="1" stop-color="#6EC57E"/>
</linearGradient>
<linearGradient id="paint24_linear_2_369" x1="54.6466" y1="31.3018" x2="43.8908" y2="23.7198" gradientUnits="userSpaceOnUse">
<stop stop-color="#85AC8C"/>
<stop offset="1" stop-color="#6EC57E"/>
</linearGradient>
<linearGradient id="paint25_linear_2_369" x1="54.6466" y1="31.3018" x2="43.8908" y2="23.7198" gradientUnits="userSpaceOnUse">
<stop stop-color="#85AC8C"/>
<stop offset="1" stop-color="#6EC57E"/>
</linearGradient>
<clipPath id="clip0_2_369">
<rect width="64" height="37.9469" fill="white" transform="translate(0 13.0265)"/>
</clipPath>
</defs>
</svg>
