<?xml version="1.0" encoding="UTF-8"?>
<!DOCTYPE svg PUBLIC "-//W3C//DTD SVG 1.1//EN" "http://www.w3.org/Graphics/SVG/1.1/DTD/svg11.dtd">
<!-- Creator: CorelDRAW (OEM Version) -->
<svg xmlns="http://www.w3.org/2000/svg" xml:space="preserve" width="1.3209in" height="0.848504in" version="1.1" style="shape-rendering:geometricPrecision; text-rendering:geometricPrecision; image-rendering:optimizeQuality; fill-rule:evenodd; clip-rule:evenodd"
viewBox="0 0 166.2 106.76"
 xmlns:xlink="http://www.w3.org/1999/xlink"
 xmlns:xodm="http://www.corel.com/coreldraw/odm/2003">
 <defs>
  <style type="text/css">
   <![CDATA[
    .fil0 {fill:#373435}
   ]]>
  </style>
 </defs>
 <g id="Layer_x0020_1">
  <metadata id="CorelCorpID_0Corel-Layer"/>
  <path class="fil0" d="M15.64 87.42c-9.15,-4.23 -16.55,-14.92 -15.55,-25.19l2.21 -22.61c0.77,-7.86 6.57,-15.77 13.23,-19.86 2.88,-11.53 13.32,-19.76 25.26,-19.76l84.63 0c11.93,0 22.38,8.23 25.26,19.76 6.65,4.09 12.46,11.99 13.23,19.86l2.21 22.61c1,10.27 -6.4,20.97 -15.55,25.19 -3.03,11.33 -13.37,19.34 -25.15,19.34l-84.63 0c-11.77,0 -22.12,-8.01 -25.15,-19.34zm128.12 2.03c-1.26,0.19 -2.54,0.29 -3.81,0.3l-25.41 0.16c-6.58,0.04 -17.1,-1.95 -20.64,-8.14l-3.17 -5.55c-1.42,-2.49 -3.94,-3.78 -6.76,-3.78 -0.58,0 -1.15,0 -1.73,0 -2.82,0 -5.34,1.29 -6.76,3.78l-3.17 5.55c-3.54,6.2 -14.06,8.19 -20.64,8.14l-25.41 -0.16c-1.28,-0.01 -2.55,-0.11 -3.81,-0.3 3.36,7.02 10.48,11.6 18.34,11.6l84.63 0c7.86,0 14.99,-4.58 18.34,-11.6zm-135.78 -49.28l-2.21 22.61c-0.47,4.82 1.91,10.17 4.95,13.8 1.39,1.66 3.01,3.12 4.83,4.29 1.48,0.96 3.08,1.71 4.77,2.24 1.94,0.61 3.95,0.91 5.98,0.93l25.41 0.16c4.19,0.03 13.38,-1.28 15.65,-5.27l3.17 -5.55c2.43,-4.26 6.83,-6.66 11.71,-6.66 0.58,0 1.15,0 1.73,0 4.88,0 9.27,2.39 11.71,6.66l3.17 5.55c2.28,3.99 11.47,5.3 15.65,5.27l25.41 -0.16c2.03,-0.01 4.04,-0.32 5.98,-0.93 1.68,-0.53 3.28,-1.29 4.77,-2.24 1.82,-1.17 3.44,-2.63 4.83,-4.29 3.04,-3.64 5.42,-8.99 4.95,-13.8l-2.21 -22.61c-0.44,-4.48 -3.18,-8.98 -6.29,-12.14 -0.43,-0.43 -0.87,-0.85 -1.33,-1.25 -1.43,-1.24 -3.05,-2.37 -4.77,-3.17 -1.36,-0.63 -2.86,-1.08 -4.37,-1.07l-57.49 0.14 -0.87 -0 -0.87 0 -57.49 -0.14c-1.51,-0 -3.01,0.45 -4.37,1.07 -1.72,0.79 -3.35,1.93 -4.77,3.16 -0.46,0.4 -0.9,0.81 -1.33,1.25 -3.11,3.16 -5.85,7.66 -6.29,12.14zm14.61 -23.15c0.72,-0.11 1.44,-0.17 2.17,-0.17l57.48 0.14 0.87 -0 0.87 0 57.48 -0.14c0.73,-0 1.45,0.06 2.17,0.17 -3.42,-6.87 -10.45,-11.32 -18.21,-11.32l-84.63 0c-7.75,0 -14.79,4.45 -18.21,11.32z"/>
 </g>
</svg>
