<svg width="64" height="64" viewBox="0 0 64 64" fill="none" xmlns="http://www.w3.org/2000/svg">
<g clip-path="url(#clip0_2_531)">
<path d="M18.0358 26.7646C18.0358 27.5522 18.121 28.1907 18.27 28.659C18.4402 29.1273 18.6531 29.6382 18.9511 30.1916C19.0575 30.3619 19.1001 30.5322 19.1001 30.6812C19.1001 30.894 18.9724 31.1069 18.6957 31.3197L17.3547 32.2137C17.1631 32.3415 16.9715 32.4053 16.8012 32.4053C16.5884 32.4053 16.3755 32.2989 16.1627 32.1073C15.8647 31.788 15.6092 31.4475 15.3964 31.1069C15.1835 30.745 14.9707 30.3406 14.7365 29.851C13.0762 31.8093 10.9902 32.7885 8.47853 32.7885C6.69053 32.7885 5.26438 32.2776 4.22138 31.2559C3.17838 30.2342 2.64624 28.8719 2.64624 27.169C2.64624 25.3597 3.28481 23.891 4.58324 22.7842C5.88167 21.6773 7.60581 21.1239 9.79824 21.1239C10.522 21.1239 11.267 21.1877 12.0545 21.2942C12.8421 21.4006 13.651 21.5709 14.5024 21.7625V20.2086C14.5024 18.5909 14.1618 17.4627 13.502 16.8029C12.8208 16.143 11.6714 15.8237 10.0324 15.8237C9.28739 15.8237 8.5211 15.9089 7.73353 16.1005C6.94596 16.292 6.17967 16.5262 5.43467 16.8242C5.0941 16.9732 4.83867 17.0583 4.68967 17.1009C4.54067 17.1435 4.43424 17.1647 4.3491 17.1647C4.0511 17.1647 3.9021 16.9519 3.9021 16.5049V15.4619C3.9021 15.1213 3.94467 14.8659 4.0511 14.7169C4.15753 14.5679 4.3491 14.4189 4.6471 14.2699C5.3921 13.8867 6.2861 13.5674 7.3291 13.312C8.3721 13.0353 9.47896 12.9076 10.6497 12.9076C13.1827 12.9076 15.0345 13.4823 16.2265 14.6317C17.3972 15.7812 17.9932 17.5266 17.9932 19.868V26.7646H18.0358ZM9.39381 30C10.0962 30 10.82 29.8723 11.5862 29.6169C12.3525 29.3615 13.0337 28.8932 13.6084 28.2546C13.949 27.8502 14.2044 27.4032 14.3321 26.8923C14.4598 26.3815 14.545 25.7642 14.545 25.0405V24.1465C13.9277 23.9975 13.2678 23.8697 12.5867 23.7846C11.9055 23.6995 11.2457 23.6569 10.5858 23.6569C9.15967 23.6569 8.11667 23.9336 7.41424 24.5083C6.71181 25.083 6.37124 25.8919 6.37124 26.9562C6.37124 27.9566 6.62667 28.7016 7.15881 29.2125C7.66967 29.7446 8.41467 30 9.39381 30ZM26.4863 32.2989C26.1031 32.2989 25.8477 32.235 25.6774 32.086C25.5071 31.9583 25.3581 31.6603 25.2304 31.2559L20.2282 14.802C20.1005 14.3763 20.0367 14.0996 20.0367 13.9506C20.0367 13.61 20.207 13.4184 20.5475 13.4184H22.6335C23.038 13.4184 23.3147 13.4823 23.4637 13.6313C23.634 13.759 23.7617 14.057 23.8894 14.4615L27.4654 28.5526L30.786 14.4615C30.8924 14.0357 31.0201 13.759 31.1904 13.6313C31.3607 13.5036 31.6587 13.4184 32.0418 13.4184H33.7447C34.1491 13.4184 34.4258 13.4823 34.5961 13.6313C34.7664 13.759 34.9154 14.057 35.0005 14.4615L38.3637 28.7229L42.0461 14.4615C42.1738 14.0357 42.3228 13.759 42.4718 13.6313C42.6421 13.5036 42.9188 13.4184 43.302 13.4184H45.2815C45.6221 13.4184 45.8137 13.5887 45.8137 13.9506C45.8137 14.057 45.7924 14.1635 45.7711 14.2912C45.7498 14.4189 45.7073 14.5892 45.6221 14.8233L40.4923 31.2772C40.3645 31.7029 40.2155 31.9796 40.0453 32.1073C39.875 32.235 39.5983 32.3202 39.2364 32.3202H37.4058C37.0014 32.3202 36.7247 32.2563 36.5544 32.1073C36.3841 31.9583 36.2351 31.6816 36.15 31.2559L32.8507 17.5266L29.5727 31.2346C29.4663 31.6603 29.3385 31.937 29.1683 32.086C28.998 32.235 28.7 32.2989 28.3168 32.2989H26.4863ZM53.8384 32.8736C52.7316 32.8736 51.6247 32.7459 50.5604 32.4905C49.4961 32.235 48.666 31.9583 48.1125 31.639C47.772 31.4475 47.5378 31.2346 47.4527 31.043C47.3675 30.8515 47.325 30.6386 47.325 30.447V29.3615C47.325 28.9145 47.4953 28.7016 47.8145 28.7016C47.9423 28.7016 48.07 28.7229 48.1977 28.7655C48.3254 28.808 48.517 28.8932 48.7298 28.9783C49.4535 29.2976 50.2411 29.553 51.0713 29.7233C51.9227 29.8936 52.7528 29.9787 53.6043 29.9787C54.9453 29.9787 55.9883 29.7446 56.712 29.2763C57.4357 28.808 57.8188 28.1269 57.8188 27.2542C57.8188 26.6582 57.6273 26.1686 57.2441 25.7642C56.861 25.3597 56.1373 24.9979 55.0943 24.6573L52.0078 23.6995C50.454 23.2099 49.3045 22.4862 48.6021 21.5283C47.8997 20.5917 47.5378 19.5487 47.5378 18.4419C47.5378 17.5479 47.7294 16.7603 48.1125 16.0792C48.4957 15.398 49.0065 14.802 49.6451 14.3337C50.2837 13.8442 51.0074 13.4823 51.8588 13.2269C52.7103 12.9714 53.6043 12.865 54.5408 12.865C55.0091 12.865 55.4987 12.8863 55.967 12.9502C56.4566 13.014 56.9036 13.0992 57.3506 13.1843C57.7763 13.2907 58.1807 13.3972 58.5638 13.5249C58.947 13.6526 59.245 13.7803 59.4578 13.908C59.7558 14.0783 59.9687 14.2486 60.0964 14.4402C60.2241 14.6105 60.288 14.8446 60.288 15.1426V16.143C60.288 16.59 60.1177 16.8242 59.7984 16.8242C59.6281 16.8242 59.3514 16.739 58.9895 16.5687C57.7763 16.0153 56.414 15.7386 54.9027 15.7386C53.6894 15.7386 52.7315 15.9302 52.0717 16.3346C51.4118 16.739 51.0713 17.3563 51.0713 18.229C51.0713 18.825 51.2841 19.3359 51.7098 19.7403C52.1356 20.1447 52.9231 20.5492 54.0513 20.911L57.0738 21.8689C58.6064 22.3585 59.7133 23.0396 60.3731 23.9123C61.033 24.785 61.3523 25.7855 61.3523 26.8923C61.3523 27.8076 61.1607 28.6377 60.7988 29.3615C60.4157 30.0852 59.9048 30.7237 59.245 31.2346C58.5851 31.7667 57.7976 32.1499 56.8823 32.4266C55.9244 32.7246 54.924 32.8736 53.8384 32.8736Z" fill="#252F3E"/>
<path fill-rule="evenodd" clip-rule="evenodd" d="M57.8614 43.2185C50.8584 48.3909 40.6838 51.1368 31.9354 51.1368C19.6748 51.1368 8.62753 46.6029 0.283529 39.0678C-0.376328 38.4718 0.219672 37.6629 1.00724 38.1312C10.0324 43.3675 21.1648 46.5391 32.6804 46.5391C40.4497 46.5391 48.9853 44.9214 56.8397 41.6008C58.0104 41.0687 59.0108 42.3671 57.8614 43.2185Z" fill="#FF9900"/>
<path fill-rule="evenodd" clip-rule="evenodd" d="M60.7777 39.898C59.8837 38.7485 54.8603 39.3445 52.5827 39.6212C51.9015 39.7064 51.7951 39.1104 52.4124 38.6634C56.4141 35.8537 62.9914 36.6625 63.7577 37.5991C64.524 38.557 63.5448 45.1342 59.7985 48.2845C59.2238 48.7741 58.6704 48.5187 58.9258 47.8801C59.7773 45.7728 61.6717 41.0261 60.7777 39.898Z" fill="#FF9900"/>
</g>
<defs>
<clipPath id="clip0_2_531">
<rect width="64" height="38.27" fill="white" transform="translate(0 12.865)"/>
</clipPath>
</defs>
</svg>
