<svg width="64" height="64" viewBox="0 0 64 64" fill="none" xmlns="http://www.w3.org/2000/svg">
<g clip-path="url(#clip0_2_540)">
<path d="M21.2472 1.7074H40.1067L20.5287 60.2297C20.3274 60.8311 19.9443 61.3536 19.4333 61.7238C18.9223 62.094 18.3091 62.2932 17.68 62.2933H3.0026C2.52594 62.2934 2.05612 62.1789 1.632 61.9595C1.20788 61.74 0.841656 61.4218 0.563625 61.0312C0.285595 60.6405 0.103749 60.1888 0.033131 59.7132C-0.0374869 59.2376 0.00515358 58.7519 0.157524 58.2962L18.3977 3.77099C18.5989 3.16938 18.982 2.64659 19.4932 2.27625C20.0044 1.90592 20.6178 1.70743 21.2472 1.7074Z" fill="url(#paint0_linear_2_540)"/>
<path d="M48.926 40.96H18.8853C18.606 40.9597 18.3331 41.0439 18.1021 41.2016C17.8712 41.3593 17.6928 41.5832 17.5904 41.8441C17.4879 42.1051 17.4661 42.391 17.5277 42.6646C17.5893 42.9382 17.7315 43.1868 17.9358 43.378L37.2393 61.4742C37.8013 62.0007 38.5413 62.2935 39.3099 62.2933H56.3201L48.926 40.96Z" fill="#0078D4"/>
<path d="M21.388 1.70669C20.7475 1.70422 20.1229 1.90706 19.6056 2.28555C19.0883 2.66405 18.7053 3.19838 18.5126 3.8105L0.177342 58.2465C0.0136127 58.7038 -0.0377897 59.1939 0.0274831 59.6753C0.0927559 60.1568 0.272784 60.6154 0.552337 61.0123C0.83189 61.4093 1.20274 61.733 1.63353 61.9559C2.06431 62.1789 2.54235 62.2946 3.02721 62.2933H18.1859C18.7505 62.1922 19.2782 61.9428 19.715 61.5705C20.1519 61.1982 20.4824 60.7163 20.6726 60.1742L24.329 49.376L37.3897 61.583C37.937 62.0367 38.6236 62.2875 39.3338 62.2933H56.32L48.8701 40.96L27.1526 40.9651L40.4445 1.70669H21.388Z" fill="url(#paint1_linear_2_540)"/>
<path d="M45.6111 3.76734C45.4104 3.1667 45.028 2.64477 44.5178 2.27509C44.0077 1.9054 43.3955 1.70659 42.7675 1.70667H21.76C22.388 1.7067 23.0001 1.90555 23.5102 2.27522C24.0203 2.64489 24.4027 3.16676 24.6036 3.76734L42.8349 58.2948C42.9873 58.7505 43.03 59.2363 42.9594 59.712C42.8889 60.1877 42.7072 60.6397 42.4293 61.0304C42.1515 61.4212 41.7854 61.7395 41.3614 61.9591C40.9375 62.1787 40.4678 62.2933 39.9913 62.2933H60.9995C61.476 62.2932 61.9456 62.1785 62.3694 61.9589C62.7933 61.7392 63.1593 61.4209 63.4371 61.0301C63.7149 60.6394 63.8965 60.1875 63.967 59.7118C64.0375 59.2362 63.9948 58.7504 63.8424 58.2948L45.6111 3.76734Z" fill="url(#paint2_linear_2_540)"/>
</g>
<defs>
<linearGradient id="paint0_linear_2_540" x1="28.1208" y1="6.19703" x2="8.22216" y2="64.4657" gradientUnits="userSpaceOnUse">
<stop stop-color="#114A8B"/>
<stop offset="1" stop-color="#0669BC"/>
</linearGradient>
<linearGradient id="paint1_linear_2_540" x1="34.4684" y1="33.4012" x2="29.905" y2="34.941" gradientUnits="userSpaceOnUse">
<stop stop-opacity="0.3"/>
<stop offset="0.071" stop-opacity="0.2"/>
<stop offset="0.321" stop-opacity="0.1"/>
<stop offset="0.623" stop-opacity="0.05"/>
<stop offset="1" stop-opacity="0"/>
</linearGradient>
<linearGradient id="paint2_linear_2_540" x1="32.0303" y1="4.49369" x2="53.8738" y2="62.1463" gradientUnits="userSpaceOnUse">
<stop stop-color="#3CCBF4"/>
<stop offset="1" stop-color="#2892DF"/>
</linearGradient>
<clipPath id="clip0_2_540">
<rect width="64" height="64" fill="white"/>
</clipPath>
</defs>
</svg>
