<?xml version="1.0" encoding="UTF-8"?>
<!DOCTYPE svg PUBLIC "-//W3C//DTD SVG 1.1//EN" "http://www.w3.org/Graphics/SVG/1.1/DTD/svg11.dtd">
<!-- Creator: CorelDRAW (OEM Version) -->
<svg xmlns="http://www.w3.org/2000/svg" xml:space="preserve" width="0.5in" height="0.5in" version="1.1" style="shape-rendering:geometricPrecision; text-rendering:geometricPrecision; image-rendering:optimizeQuality; fill-rule:evenodd; clip-rule:evenodd"
viewBox="0 0 8.52 8.52"
 xmlns:xlink="http://www.w3.org/1999/xlink"
 xmlns:xodm="http://www.corel.com/coreldraw/odm/2003">
 <defs>
  <style type="text/css">
   <![CDATA[
    .fil0 {fill:#00C4DE}
   ]]>
  </style>
 </defs>
 <g id="Layer_x0020_1">
  <metadata id="CorelCorpID_0Corel-Layer"/>
  <path class="fil0" d="M7.8 4.33l-0.73 0.53 0 -0.58 0.73 -0.53 0.72 0.54 -0 0.58 -0.72 -0.54zm-3.61 3.47l-0.53 -0.73 0.58 0 0.53 0.73 -0.54 0.72 -0.58 -0 0.54 -0.72zm-3.47 -3.61l0.73 -0.53 -0 0.58 -0.73 0.53 -0.72 -0.54 0 -0.58 0.72 0.54zm3.61 -3.47l0.53 0.73 -0.58 -0 -0.53 -0.73 0.54 -0.72 0.58 0 -0.54 0.72zm-3.22 2.76c0.12,-0.48 0.35,-0.92 0.66,-1.3l-0.38 -0.06 -0.05 -0.37c-0.38,0.45 -0.66,0.97 -0.81,1.54l-0.01 0.02 0.21 0.31 0.36 -0.11 0.01 -0.03zm1.07 -1.71c0.34,-0.28 0.73,-0.49 1.15,-0.62l0.11 -0.03 -0.31 -0.21 0.11 -0.36 -0.1 0.03c-0.15,0.04 -0.29,0.1 -0.43,0.16 -0.35,0.15 -0.67,0.36 -0.96,0.6l0.05 0.37 0.37 0.06zm-0.41 4.57c-0.28,-0.34 -0.49,-0.73 -0.62,-1.15l-0.03 -0.11 -0.21 0.31 -0.36 -0.11 0.03 0.1c0.04,0.15 0.1,0.29 0.16,0.43 0.15,0.35 0.36,0.67 0.6,0.96l0.37 -0.05 0.06 -0.37zm1.71 1.07c-0.48,-0.12 -0.92,-0.35 -1.3,-0.66l-0.06 0.38 -0.37 0.05c0.45,0.38 0.97,0.66 1.54,0.81l0.02 0.01 0.31 -0.21 -0.11 -0.36 -0.03 -0.01zm2.86 -0.66c-0.34,0.28 -0.73,0.49 -1.15,0.62l-0.11 0.03 0.31 0.21 -0.11 0.36 0.1 -0.03c0.15,-0.04 0.29,-0.1 0.43,-0.16 0.35,-0.15 0.67,-0.36 0.96,-0.6l-0.05 -0.37 -0.37 -0.06zm1.44 -1.86l-0.36 0.11 -0.01 0.03c-0.12,0.48 -0.35,0.92 -0.66,1.3l0.38 0.06 0.05 0.37c0.38,-0.45 0.66,-0.97 0.81,-1.54l0.01 -0.02 -0.21 -0.31zm-0.97 -3.09l-0.06 0.37c0.28,0.34 0.49,0.73 0.62,1.15l0.03 0.11 0.21 -0.31 0.36 0.11 -0.03 -0.1c-0.04,-0.15 -0.1,-0.29 -0.16,-0.43 -0.15,-0.35 -0.36,-0.67 -0.6,-0.96l-0.37 0.05zm-0.47 -0.04l0.06 -0.38 0.37 -0.05c-0.45,-0.38 -0.97,-0.66 -1.54,-0.81l-0.02 -0.01 -0.31 0.21 0.11 0.36 0.03 0.01c0.48,0.12 0.92,0.35 1.3,0.66z"/>
 </g>
</svg>
