<?xml version="1.0" encoding="UTF-8"?>
<!DOCTYPE svg PUBLIC "-//W3C//DTD SVG 1.1//EN" "http://www.w3.org/Graphics/SVG/1.1/DTD/svg11.dtd">
<!-- Creator: CorelDRAW (OEM Version) -->
<svg xmlns="http://www.w3.org/2000/svg" xml:space="preserve" width="0.5in" height="0.5in" version="1.1" style="shape-rendering:geometricPrecision; text-rendering:geometricPrecision; image-rendering:optimizeQuality; fill-rule:evenodd; clip-rule:evenodd"
viewBox="0 0 8.52 8.52"
 xmlns:xlink="http://www.w3.org/1999/xlink"
 xmlns:xodm="http://www.corel.com/coreldraw/odm/2003">
 <defs>
  <style type="text/css">
   <![CDATA[
    .fil0 {fill:#373435}
   ]]>
  </style>
 </defs>
 <g id="Layer_x0020_1">
  <metadata id="CorelCorpID_0Corel-Layer"/>
  <path class="fil0" d="M5.39 7.61l-0.31 -0.21 0.11 -0.03c0.46,-0.14 0.88,-0.38 1.24,-0.7l0.02 -0.02 0.36 0.06 0.05 0.38 -0.02 0.02c-0.31,0.28 -0.66,0.51 -1.04,0.67 -0.14,0.06 -0.28,0.11 -0.43,0.16l-0.1 0.03 0.11 -0.36zm-3.37 -0.59l0.06 -0.36 0.08 0.06c0.38,0.33 0.84,0.56 1.33,0.68l0.03 0.01 0.11 0.36 -0.31 0.21 -0.02 -0.01c-0.58,-0.15 -1.11,-0.43 -1.56,-0.83l-0.09 -0.08 0.38 -0.05zm-1.11 -1.64l0.21 -0.31 0.03 0.11c0.14,0.46 0.38,0.88 0.7,1.24l0.02 0.02 -0.06 0.36 -0.38 0.05 -0.02 -0.02c-0.28,-0.31 -0.51,-0.66 -0.67,-1.04 -0.06,-0.14 -0.11,-0.28 -0.16,-0.43l-0.03 -0.1 0.36 0.11zm2.22 -4.48l0.31 0.21 -0.11 0.03c-0.46,0.14 -0.88,0.38 -1.24,0.7l-0.02 0.02 -0.36 -0.06 -0.05 -0.38 0.02 -0.02c0.31,-0.28 0.66,-0.51 1.04,-0.67 0.14,-0.06 0.28,-0.11 0.43,-0.16l0.1 -0.03 -0.11 0.36zm-1.64 1.11l0.36 0.06 -0.06 0.08c-0.33,0.38 -0.56,0.84 -0.68,1.33l-0.01 0.03 -0.36 0.11 -0.21 -0.31 0.01 -0.02c0.15,-0.58 0.43,-1.11 0.83,-1.56l0.08 -0.09 0.05 0.38zm6.12 1.11l-0.21 0.31 -0.03 -0.11c-0.14,-0.46 -0.38,-0.88 -0.7,-1.24l-0.02 -0.02 0.06 -0.36 0.38 -0.05 0.02 0.02c0.28,0.31 0.51,0.66 0.67,1.04 0.06,0.14 0.11,0.28 0.16,0.43l0.03 0.1 -0.36 -0.11zm-1.11 -1.64l-0.06 0.36 -0.08 -0.06c-0.38,-0.33 -0.84,-0.56 -1.33,-0.68l-0.03 -0.01 -0.11 -0.36 0.31 -0.21 0.02 0.01c0.58,0.15 1.11,0.43 1.56,0.83l0.09 0.08 -0.38 0.05zm-2.17 -0.77l0.53 0.73 -0.58 -0 -0.53 -0.73 0.54 -0.72 0.58 0 -0.54 0.72zm-3.61 3.47l0.73 -0.53 -0 0.58 -0.73 0.53 -0.72 -0.54 0 -0.58 0.72 0.54zm3.47 3.61l-0.53 -0.73 0.58 0 0.53 0.73 -0.54 0.72 -0.58 -0 0.54 -0.72zm3.61 -3.47l-0.73 0.53 0 -0.58 0.73 -0.53 0.72 0.54 -0 0.58 -0.72 -0.54zm-0.77 2.17l-0.36 -0.06 0.06 -0.08c0.33,-0.38 0.56,-0.84 0.68,-1.33l0.01 -0.03 0.36 -0.11 0.21 0.31 -0.01 0.02c-0.15,0.58 -0.43,1.11 -0.83,1.56l-0.08 0.09 -0.05 -0.38z"/>
 </g>
</svg>
