<?xml version="1.0" encoding="UTF-8"?>
<!DOCTYPE svg PUBLIC "-//W3C//DTD SVG 1.1//EN" "http://www.w3.org/Graphics/SVG/1.1/DTD/svg11.dtd">
<!-- Creator: CorelDRAW (OEM Version) -->
<svg xmlns="http://www.w3.org/2000/svg" xml:space="preserve" width="1.61636in" height="1.6675in" version="1.1" style="shape-rendering:geometricPrecision; text-rendering:geometricPrecision; image-rendering:optimizeQuality; fill-rule:evenodd; clip-rule:evenodd"
viewBox="0 0 140.73 145.19"
 xmlns:xlink="http://www.w3.org/1999/xlink"
 xmlns:xodm="http://www.corel.com/coreldraw/odm/2003">
 <defs>
  <style type="text/css">
   <![CDATA[
    .fil0 {fill:#373435}
   ]]>
  </style>
 </defs>
 <g id="Layer_x0020_1">
  <metadata id="CorelCorpID_0Corel-Layer"/>
  <path class="fil0" d="M71.59 3.8l-21.46 8.1 21.38 8.37 21.46 -8.1 -21.38 -8.37zm10.95 87.58l-0.06 12.2 -10.82 -4.86 -0 -22.84 14.06 -5.32c1.93,-0.67 2.52,-1.28 2.53,-4.24l0.07 -13.14 8.1 -3.06c2.47,-0.93 4.06,-3.39 4.07,-6.29 0.05,-9.36 0.09,-18.71 0.14,-28.07 0.01,-2.9 -1.55,-5.38 -4.01,-6.34 -7.69,-3.01 -15.37,-6.02 -23.06,-9.03 -1.32,-0.52 -2.59,-0.53 -3.92,-0.02 -7.71,2.92 -15.43,5.83 -23.15,8.74 -2.47,0.93 -4.06,3.39 -4.07,6.29 -0.05,9.36 -0.09,18.71 -0.14,28.07 -0.01,2.9 1.55,5.38 4.01,6.34 7.69,3.01 15.37,6.01 23.06,9.02 1.32,0.52 2.59,0.52 3.92,0.03l11.49 -4.32 -0.06 11.58 -34.6 12.98c-2.1,0.74 -2.83,1.07 -2.84,4.14l-0.05 9.36c-5.31,-2.08 -10.63,-4.16 -15.94,-6.24 -1.32,-0.52 -2.59,-0.53 -3.92,-0.02 -7.71,2.92 -15.43,5.83 -23.15,8.74 -2.47,0.93 -4.06,3.39 -4.07,6.29 -0.05,9.36 -0.09,18.71 -0.14,28.07 -0.01,2.9 1.55,5.38 4.01,6.34 7.69,3.01 15.37,6.02 23.06,9.02 1.32,0.52 2.59,0.52 3.92,0.02 7.71,-2.92 15.43,-5.83 23.15,-8.74 2.47,-0.93 4.06,-3.39 4.07,-6.29 0.05,-9.36 0.09,-18.71 0.14,-28.07 0.01,-2.9 -1.56,-5.36 -4.01,-6.34l-3.15 -1.26 0.05 -10.47 16.68 -6.46 0.01 21.35c-0.01,2.96 0.57,3.57 2.49,4.27l12.04 5.54 -0.06 12.58c-0.01,2.9 1.55,5.38 4.01,6.34 7.69,3.01 15.38,6.03 23.07,9.03 1.32,0.51 2.58,0.52 3.9,0.02 7.72,-2.91 15.44,-5.82 23.16,-8.74 2.47,-0.93 4.06,-3.39 4.07,-6.29 0.05,-9.36 0.09,-18.71 0.14,-28.07 0.01,-2.9 -1.55,-5.38 -4.01,-6.34 -7.69,-3 -15.37,-6.01 -23.05,-9.03 -1.32,-0.52 -2.59,-0.53 -3.92,-0.03l-24.4 9.22c-1.7,0.64 -2.8,2.34 -2.81,4.34zm-53.24 -1.63l-21.46 8.1 21.38 8.37 21.46 -8.1 -21.38 -8.37zm25.51 10.97l-23.84 9 -0.16 31 23.84 -9c0.05,-10.33 0.1,-20.66 0.16,-30.99zm-51.13 -0.32c-0.05,10.33 -0.1,20.66 -0.16,30.99l23.75 9.29 0.16 -31 -23.75 -9.29zm93.42 -85.64l-23.84 9 -0.16 31 23.84 -9c0.05,-10.33 0.1,-20.66 0.16,-30.99zm-51.13 -0.32c-0.05,10.33 -0.1,20.66 -0.16,30.99l23.75 9.3 0.16 -31 -23.75 -9.29zm44.25 74.9l21.46 -8.1 21.38 8.37 -21.46 8.1 -21.38 -8.37zm23.13 11.87l23.84 -9c-0.05,10.33 -0.1,20.66 -0.16,30.99l-23.84 9 0.16 -30.99zm-27.29 -9.32l23.75 9.29 -0.16 30.99 -23.75 -9.29c0.05,-10.33 0.1,-20.66 0.16,-30.99z"/>
 </g>
</svg>
