<?xml version="1.0" encoding="UTF-8"?>
<!DOCTYPE svg PUBLIC "-//W3C//DTD SVG 1.1//EN" "http://www.w3.org/Graphics/SVG/1.1/DTD/svg11.dtd">
<!-- Creator: CorelDRAW (OEM Version) -->
<svg xmlns="http://www.w3.org/2000/svg" xml:space="preserve" width="1.52467in" height="1.53243in" version="1.1" style="shape-rendering:geometricPrecision; text-rendering:geometricPrecision; image-rendering:optimizeQuality; fill-rule:evenodd; clip-rule:evenodd"
viewBox="0 0 87.38 87.83"
 xmlns:xlink="http://www.w3.org/1999/xlink"
 xmlns:xodm="http://www.corel.com/coreldraw/odm/2003">
 <defs>
  <style type="text/css">
   <![CDATA[
    .str0 {stroke:#373435;stroke-width:0.4;stroke-miterlimit:2.61313}
    .fil0 {fill:#373435}
   ]]>
  </style>
 </defs>
 <g id="Layer_x0020_1">
  <metadata id="CorelCorpID_0Corel-Layer"/>
  <path class="fil0 str0" d="M40.66 52.2l0.05 -0 27.43 0 0.05 -0 1.13 0c3.36,0 6.56,-1.26 9.04,-3.53l0.06 -0.05 0.06 -0.05c3.88,-3.13 6.13,-7.81 6.13,-12.8 0,-9.08 -7.36,-16.44 -16.44,-16.44 -0.67,0 -1.35,0.04 -2.02,0.12l-1.93 0.24 -0.75 -1.79c-3.86,-9.15 -12.82,-15.12 -22.78,-15.12 -12.06,0 -22.4,8.74 -24.37,20.63l-0.31 1.84 -1.85 0.28c-6.55,0.99 -11.4,6.64 -11.4,13.26 0,7.41 6,13.41 13.41,13.41 0.18,0 0.37,-0 0.55,-0.01l0.1 -0 0.1 0c0.18,0.01 0.36,0.01 0.54,0.01l23.18 0zm0.51 29.18c0,2.08 1.68,3.76 3.76,3.76 2.08,0 3.76,-1.68 3.76,-3.76 0,-2.08 -1.68,-3.76 -3.76,-3.76 -2.08,0 -3.76,1.68 -3.76,3.76zm2.47 -26.61l0 20.5c-2.83,0.59 -4.96,2.89 -4.96,6.12 0,3.23 2.8,6.25 6.25,6.25 3.45,0 6.25,-3.02 6.25,-6.25 0,-3.23 -2.13,-5.52 -4.96,-6.12l0 -20.5 10.89 0 0 12.98c0,0.71 0.58,1.29 1.29,1.29l8.12 0c0.59,2.83 2.89,4.96 6.12,4.96 3.23,0 6.25,-2.8 6.25,-6.25 0,-3.45 -3.02,-6.25 -6.25,-6.25 -3.23,0 -5.52,2.13 -6.12,4.96l-6.83 0 0 -11.69 8.48 0 0.01 0 0.01 -0 1.13 0c4.14,0 7.93,-1.6 10.78,-4.21 4.32,-3.48 7.08,-8.82 7.08,-14.8 0,-10.5 -8.51,-19.01 -19.01,-19.01 -0.79,0 -1.57,0.05 -2.33,0.14 -4.13,-9.81 -13.84,-16.7 -25.15,-16.7 -13.53,0 -24.76,9.85 -26.91,22.78 -7.69,1.16 -13.59,7.79 -13.59,15.81 0,8.83 7.16,15.99 15.99,15.99 0.22,0 0.43,-0.01 0.65,-0.01 0.21,0.01 0.43,0.01 0.65,0.01l12.4 0 0 16.76 -6.83 0c-0.59,-2.83 -2.89,-4.96 -6.12,-4.96 -3.23,0 -6.25,2.8 -6.25,6.25 0,3.45 3.02,6.25 6.25,6.25 3.23,0 5.52,-2.13 6.12,-4.96l8.12 0c0.71,0 1.29,-0.58 1.29,-1.29l0 -18.05 8.23 0 0.01 0 0.02 -0 2.93 0zm-26.71 14.29c-2.08,0 -3.76,1.68 -3.76,3.76 0,2.08 1.68,3.76 3.76,3.76 2.08,0 3.76,-1.68 3.76,-3.76 0,-2.08 -1.68,-3.76 -3.76,-3.76zm55.69 -5.07c2.08,0 3.76,1.68 3.76,3.76 0,2.08 -1.68,3.76 -3.76,3.76 -2.08,0 -3.76,-1.68 -3.76,-3.76 0,-2.08 1.68,-3.76 3.76,-3.76z"/>
 </g>
</svg>
