<?xml version="1.0" encoding="UTF-8"?>
<!DOCTYPE svg PUBLIC "-//W3C//DTD SVG 1.1//EN" "http://www.w3.org/Graphics/SVG/1.1/DTD/svg11.dtd">
<!-- Creator: CorelDRAW (OEM Version) -->
<svg xmlns="http://www.w3.org/2000/svg" xml:space="preserve" width="1.46451in" height="1.33117in" version="1.1" style="shape-rendering:geometricPrecision; text-rendering:geometricPrecision; image-rendering:optimizeQuality; fill-rule:evenodd; clip-rule:evenodd"
viewBox="0 0 607.75 552.41"
 xmlns:xlink="http://www.w3.org/1999/xlink"
 xmlns:xodm="http://www.corel.com/coreldraw/odm/2003">
 <defs>
  <style type="text/css">
   <![CDATA[
    .fil0 {fill:#373435}
   ]]>
  </style>
 </defs>
 <g id="Layer_x0020_1">
  <metadata id="CorelCorpID_0Corel-Layer"/>
  <path class="fil0" d="M108.84 316.68l234.7 0c1.02,-5.52 2.47,-10.97 4.33,-16.3l-15.73 0 0 -113.01c0,-6.62 -5.41,-12.03 -12.03,-12.03l-32.47 0c-6.61,0 -12.03,5.41 -12.03,12.03l0 113.01 -51.72 0 0 -85.84c0,-6.62 -5.41,-12.03 -12.03,-12.03l-32.47 0c-6.61,0 -12.02,5.41 -12.02,12.03l0 85.84 -58.52 0c-4.49,0 -8.15,3.66 -8.15,8.15 0,4.48 3.66,8.15 8.15,8.15zm207 -16.3l-23.94 0 0 -108.74 23.94 0 0 108.74zm-108.25 0l-23.94 0 0 -81.57 23.94 0 0 81.57zm176.26 -140.18l0 90.01c0.64,-0.5 1.28,-0.99 1.93,-1.48 4.62,-3.46 9.43,-6.49 14.37,-9.11l0 -75.14 23.93 0 0 65.86c5.38,-1.38 10.83,-2.35 16.3,-2.9l0 -67.24c0,-6.62 -5.41,-12.03 -12.03,-12.03l-32.47 0c-6.62,0 -12.03,5.41 -12.03,12.03zm-9.97 254.22l-352.85 0 0 -359.19c0,-18.78 10.62,-34.14 29.4,-34.14l506.89 0c18.77,0 28.84,15.37 28.84,34.14l0 359.19 -29 0c1.42,1.32 2.73,2.77 3.93,4.37l26.71 35.74c12.1,-9.23 19.95,-23.79 19.95,-40.11l0 -363.98c0,-27.74 -22.69,-50.43 -50.43,-50.43l-506.89 0c-27.74,0 -50.43,22.69 -50.43,50.43l0 363.98c0,27.74 22.7,50.43 50.43,50.43l189.7 0 -25.12 69.1 -33 0c-4.48,0 -8.73,5.84 -8.73,10.32 0,4.48 3.67,8.15 8.15,8.15l243.72 0c4.48,0 8.15,-3.67 8.15,-8.15 0,-4.49 -3.08,-10.32 -7.57,-10.32l-33.5 0 -25.11 -69.1 131.91 0c-5.16,-7.02 -7.08,-15.45 -6.04,-23.49l-1.66 -2.22c-40.3,15.68 -86.66,6.09 -117.46,-24.72zm-114.92 50.43l89.83 0 25.12 69.1 -140.06 0 25.12 -69.1zm332.37 69.08l9.69 -7.25c4.45,-3.32 5.36,-9.66 2.05,-14.11l-60 -80.3c-3.32,-4.44 -9.66,-5.36 -14.11,-2.04l0.69 -0.51 -20.44 -27.37c33.94,-29.76 39.79,-81.11 12.31,-117.89 -28.87,-38.64 -83.61,-46.56 -122.25,-17.69 -38.64,28.87 -46.56,83.61 -17.69,122.25 27.48,36.78 78.38,45.73 116.54,21.61l20.45 27.37 0.69 -0.52c-4.45,3.32 -5.36,9.67 -2.05,14.11l60 80.3c3.32,4.45 9.67,5.36 14.12,2.04zm-139.91 -266.52c38.12,0 69.03,30.9 69.03,69.03 0,38.12 -30.91,69.03 -69.03,69.03 -38.12,0 -69.03,-30.9 -69.03,-69.03 0,-38.12 30.91,-69.03 69.03,-69.03z"/>
 </g>
</svg>
