<?xml version="1.0" encoding="UTF-8"?>
<!DOCTYPE svg PUBLIC "-//W3C//DTD SVG 1.1//EN" "http://www.w3.org/Graphics/SVG/1.1/DTD/svg11.dtd">
<!-- Creator: CorelDRAW (OEM Version) -->
<svg xmlns="http://www.w3.org/2000/svg" xml:space="preserve" width="0.5in" height="0.499996in" version="1.1" style="shape-rendering:geometricPrecision; text-rendering:geometricPrecision; image-rendering:optimizeQuality; fill-rule:evenodd; clip-rule:evenodd"
viewBox="0 0 10.74 10.74"
 xmlns:xlink="http://www.w3.org/1999/xlink"
 xmlns:xodm="http://www.corel.com/coreldraw/odm/2003">
 <defs>
  <style type="text/css">
   <![CDATA[
    .fil0 {fill:#00C4DE}
   ]]>
  </style>
 </defs>
 <g id="Layer_x0020_1">
  <metadata id="CorelCorpID_0Corel-Layer"/>
  <path class="fil0" d="M1.78 1.78c1.23,-1.23 3.23,-1.23 4.46,0 1.23,1.23 1.23,3.23 0,4.46 -1.23,1.23 -3.23,1.23 -4.46,0 -1.23,-1.23 -1.23,-3.23 0,-4.46zm5.41 4.66l3.4 3.4c0.21,0.21 0.21,0.55 -0,0.75 -0.21,0.21 -0.55,0.21 -0.75,0l-3.4 -3.4c-1.57,1.2 -3.83,1.09 -5.26,-0.35 -1.56,-1.56 -1.56,-4.1 0,-5.66 1.56,-1.56 4.1,-1.56 5.66,0 1.44,1.44 1.55,3.69 0.35,5.26z"/>
 </g>
</svg>
