<?xml version="1.0" encoding="UTF-8"?>
<!DOCTYPE svg PUBLIC "-//W3C//DTD SVG 1.1//EN" "http://www.w3.org/Graphics/SVG/1.1/DTD/svg11.dtd">
<!-- Creator: CorelDRAW (OEM Version) -->
<svg xmlns="http://www.w3.org/2000/svg" xml:space="preserve" width="0.826795in" height="0.65476in" version="1.1" style="shape-rendering:geometricPrecision; text-rendering:geometricPrecision; image-rendering:optimizeQuality; fill-rule:evenodd; clip-rule:evenodd"
viewBox="0 0 44.12 34.94"
 xmlns:xlink="http://www.w3.org/1999/xlink"
 xmlns:xodm="http://www.corel.com/coreldraw/odm/2003">
 <defs>
  <style type="text/css">
   <![CDATA[
    .fil0 {fill:#2560FF}
   ]]>
  </style>
 </defs>
 <g id="Layer_x0020_1">
  <metadata id="CorelCorpID_0Corel-Layer"/>
  <path class="fil0" d="M33.08 17.14c-4.62,1.37 -5.65,1.09 -10.59,1.09l-22.48 -0.04c0.19,19.96 21.79,19.83 29.79,11.31 2.34,-2.5 3.76,-3.98 5.45,-7.44 0.49,-1.01 0.65,-2.32 1.66,-2.89 4.06,-0.03 6.13,-1.35 7.22,-4.5 -2.5,-1.05 -3.36,-1.27 -6.66,-0.88 -0.41,-2.9 -1.98,-4.7 -3.94,-5.65 -1.92,3.48 -2.29,5.05 -0.45,9zm-32.93 -0.3l4.77 0 -0.02 -4.8 -4.69 0 -0.06 4.8zm12.34 0l4.76 0 -0.01 -4.8 -4.69 0 -0.06 4.8zm-6.19 0l4.77 -0.01 -0.01 -4.75 -4.71 -0.04 -0.04 4.81zm12.34 -0.04l4.77 0.04 -0.01 -4.81 -4.71 0.01 -0.04 4.75zm6.15 0.04l4.81 -0.04 -0.01 -4.67 -4.74 -0.11 -0.06 4.81zm-6.13 -12.11l4.71 0.04 0.05 -1.17 -0.01 -3.6 -4.76 0.01 0.01 4.71zm-6.17 6.07l4.77 0 -0.02 -4.76 -4.69 0 -0.06 4.76zm6.15 -0.04l4.77 0.04 -0.01 -4.77 -4.71 0.01 -0.04 4.71zm-12.34 0.04l4.77 -0.01 -0.01 -4.71 -4.71 -0.04 -0.04 4.77z"/>
 </g>
</svg>
