<?xml version="1.0" encoding="UTF-8"?>
<!DOCTYPE svg PUBLIC "-//W3C//DTD SVG 1.1//EN" "http://www.w3.org/Graphics/SVG/1.1/DTD/svg11.dtd">
<!-- Creator: CorelDRAW (OEM Version) -->
<svg xmlns="http://www.w3.org/2000/svg" xml:space="preserve" width="1.16263in" height="0.884646in" version="1.1" style="shape-rendering:geometricPrecision; text-rendering:geometricPrecision; image-rendering:optimizeQuality; fill-rule:evenodd; clip-rule:evenodd"
viewBox="0 0 142.39 108.34"
 xmlns:xlink="http://www.w3.org/1999/xlink"
 xmlns:xodm="http://www.corel.com/coreldraw/odm/2003">
 <defs>
  <style type="text/css">
   <![CDATA[
    .fil0 {fill:#373435}
   ]]>
  </style>
 </defs>
 <g id="Layer_x0020_1">
  <metadata id="CorelCorpID_0Corel-Layer"/>
  <path class="fil0" d="M71.19 68.73l0 0c0.9,0 1.63,0.73 1.63,1.63l0 2.37c0,0.9 -0.73,1.63 -1.63,1.63l-0 0c-0.9,0 -1.63,-0.73 -1.63,-1.63l0 -2.37c0,-0.9 0.73,-1.63 1.63,-1.63zm0 8.33l0 0c0.9,0 1.63,0.73 1.63,1.63l0 2.37c0,0.9 -0.73,1.63 -1.63,1.63l-0 0c-0.9,0 -1.63,-0.73 -1.63,-1.63l0 -2.37c0,-0.9 0.73,-1.63 1.63,-1.63zm0 -51.42l0 0c0.9,0 1.63,0.73 1.63,1.63l0 2.37c0,0.9 -0.73,1.63 -1.63,1.63l-0 0c-0.9,0 -1.63,-0.73 -1.63,-1.63l0 -2.37c0,-0.9 0.73,-1.63 1.63,-1.63zm0 8.33l0 0c0.9,0 1.63,0.73 1.63,1.63l0 2.37c0,0.9 -0.73,1.63 -1.63,1.63l-0 0c-0.9,0 -1.63,-0.73 -1.63,-1.63l0 -2.37c0,-0.9 0.73,-1.63 1.63,-1.63zm-21.13 56.28l42.25 0c3.85,0 7,3.15 7,7l0 0c0,3.85 -3.15,7 -7,7l-42.25 0c-3.85,0 -7,-3.15 -7,-7l0 -0c0,-3.85 3.15,-7 7,-7zm0 -43.09l42.25 0c3.85,0 7,3.15 7,7l0 0c0,3.85 -3.15,7 -7,7l-42.25 0c-3.85,0 -7,-3.15 -7,-7l0 -0c0,-3.85 3.15,-7 7,-7zm0 -43.09l42.25 0c3.85,0 7,3.15 7,7l0 0c0,3.85 -3.15,7 -7,7l-42.25 0c-3.85,0 -7,-3.15 -7,-7l0 -0c0,-3.85 3.15,-7 7,-7zm0 82.1l42.25 0c6.1,0 11.08,4.99 11.08,11.08l0 0c0,6.1 -4.99,11.08 -11.08,11.08l-42.25 0c-6.1,0 -11.08,-4.99 -11.08,-11.08l0 -0c0,-6.1 4.99,-11.08 11.08,-11.08zm0 -43.09l42.25 0c6.1,0 11.08,4.99 11.08,11.08l0 0c0,6.1 -4.99,11.08 -11.08,11.08l-42.25 0c-6.1,0 -11.08,-4.99 -11.08,-11.08l0 -0c0,-6.1 4.99,-11.08 11.08,-11.08zm0 -43.09l42.25 0c6.1,0 11.08,4.99 11.08,11.08l0 0c0,6.1 -4.99,11.08 -11.08,11.08l-42.25 0c-6.1,0 -11.08,-4.99 -11.08,-11.08l0 -0c0,-6.1 4.99,-11.08 11.08,-11.08zm62.03 51.95l2.3 -3.17 -4.18 0.03 -3.8 5.23 3.88 5.16 4.18 -0.03 -2.36 -3.14 6.9 0c12.85,0 23.36,-10.51 23.36,-23.36 0,-12.85 -10.51,-23.36 -23.36,-23.36l-10.97 0c-0.9,0 -1.63,0.73 -1.63,1.63l0 0.82c0,0.9 0.73,1.63 1.63,1.63l10.97 0c10.61,0 19.28,8.68 19.28,19.28 0,10.61 -8.68,19.28 -19.28,19.28l-6.93 0zm-81.8 43.12l-2.3 -3.17 4.18 0.03 3.8 5.23 -3.88 5.16 -4.18 -0.03 2.36 -3.14 -6.9 0c-12.85,0 -23.36,-10.51 -23.36,-23.36 0,-12.85 10.51,-23.36 23.36,-23.36l10.97 0c0.9,0 1.63,0.73 1.63,1.63l0 0.82c0,0.9 -0.73,1.63 -1.63,1.63l-10.97 0c-10.61,0 -19.28,8.68 -19.28,19.28 0,10.61 8.68,19.28 19.28,19.28l6.93 0z"/>
 </g>
</svg>
