<?xml version="1.0" encoding="UTF-8"?>
<!DOCTYPE svg PUBLIC "-//W3C//DTD SVG 1.1//EN" "http://www.w3.org/Graphics/SVG/1.1/DTD/svg11.dtd">
<!-- Creator: CorelDRAW (OEM Version) -->
<svg xmlns="http://www.w3.org/2000/svg" xml:space="preserve" width="12.9193in" height="12.9193in" version="1.1" style="shape-rendering:geometricPrecision; text-rendering:geometricPrecision; image-rendering:optimizeQuality; fill-rule:evenodd; clip-rule:evenodd"
viewBox="0 0 1332.78 1332.78"
 xmlns:xlink="http://www.w3.org/1999/xlink"
 xmlns:xodm="http://www.corel.com/coreldraw/odm/2003">
 <defs>
  <style type="text/css">
   <![CDATA[
    .fil0 {fill:#065661}
   ]]>
  </style>
 </defs>
 <g id="Layer_x0020_1">
  <metadata id="CorelCorpID_0Corel-Layer"/>
  <path class="fil0" d="M869.56 454.13l269.49 0 0 -252.15 5.5 0 0 252.15 0 5.5 -5.5 0 -263.9 0c-1.84,-1.86 -3.7,-3.69 -5.59,-5.5zm90.63 209.51l372.6 0 0 5.5 -372.6 0c0.01,-0.92 0.03,-1.83 0.03,-2.75 0,-0.92 -0.03,-1.83 -0.03,-2.75zm-81.53 205.92l-0 269.49 252.15 0 0 5.5 -252.15 0 -5.5 0 0 -5.5 -0 -263.9c1.86,-1.84 3.69,-3.7 5.5,-5.59zm-209.51 90.63l0 372.6 -5.5 0 0 -372.6c0.92,0.01 1.83,0.03 2.75,0.03 0.92,0 1.83,-0.03 2.75,-0.03zm-205.92 -81.53l-269.49 -0 0 252.15 -5.5 0 0 -252.15 0 -5.5 5.5 0 263.9 -0c1.84,1.86 3.7,3.69 5.59,5.5zm-90.63 -209.51l-372.6 0 0 -5.5 372.6 0c-0.01,0.92 -0.03,1.83 -0.03,2.75 0,0.92 0.03,1.83 0.03,2.75zm81.53 -205.92l0 -269.49 -252.15 0 0 -5.5 252.15 0 5.5 0 0 5.5 0 263.9c-1.86,1.84 -3.69,3.7 -5.5,5.59zm209.51 -90.63l0 -372.6 5.5 0 0 372.6c-0.92,-0.01 -1.83,-0.03 -2.75,-0.03 -0.92,0 -1.83,0.03 -2.75,0.03z"/>
 </g>
</svg>
