<?xml version="1.0" encoding="UTF-8"?>
<!DOCTYPE svg PUBLIC "-//W3C//DTD SVG 1.1//EN" "http://www.w3.org/Graphics/SVG/1.1/DTD/svg11.dtd">
<!-- Creator: CorelDRAW (OEM Version) -->
<svg xmlns="http://www.w3.org/2000/svg" xml:space="preserve" width="0.635598in" height="0.795051in" version="1.1" style="shape-rendering:geometricPrecision; text-rendering:geometricPrecision; image-rendering:optimizeQuality; fill-rule:evenodd; clip-rule:evenodd"
viewBox="0 0 17.03 21.31"
 xmlns:xlink="http://www.w3.org/1999/xlink"
 xmlns:xodm="http://www.corel.com/coreldraw/odm/2003">
 <defs>
  <style type="text/css">
   <![CDATA[
    .fil3 {fill:#020016}
    .fil0 {fill:#373435}
    .fil1 {fill:url(#id0)}
    .fil2 {fill:url(#id1)}
    .fil4 {fill:url(#id2)}
   ]]>
  </style>
  <radialGradient id="id0" gradientUnits="userSpaceOnUse" gradientTransform="matrix(0.916824 -0.490511 0.373942 1.31559 -5 -1)" cx="8.05" cy="14.61" r="0.46" fx="8.05" fy="14.61">
   <stop offset="0" style="stop-opacity:1; stop-color:#80CCF5"/>
   <stop offset="0.521569" style="stop-opacity:1; stop-color:#0475B1"/>
   <stop offset="1" style="stop-opacity:1; stop-color:#0E5186"/>
  </radialGradient>
  <radialGradient id="id1" gradientUnits="userSpaceOnUse" gradientTransform="matrix(1.46825 -0.2071 -0.279128 1.431 0 -2)" cx="5.52" cy="7.68" r="8.1" fx="5.52" fy="7.68">
   <stop offset="0" style="stop-opacity:1; stop-color:white"/>
   <stop offset="0.0392157" style="stop-opacity:1; stop-color:#E8F7FF"/>
   <stop offset="0.188235" style="stop-opacity:1; stop-color:#0AA6FA"/>
   <stop offset="0.321569" style="stop-opacity:1; stop-color:#0A8ACE"/>
   <stop offset="0.6" style="stop-opacity:1; stop-color:#0B618F"/>
   <stop offset="1" style="stop-opacity:1; stop-color:#0E5186"/>
  </radialGradient>
  <radialGradient id="id2" gradientUnits="userSpaceOnUse" gradientTransform="matrix(1.24135 0.533594 -0.71208 1.75242 4 -7)" cx="3.81" cy="7.24" r="9.37" fx="3.81" fy="7.24">
   <stop offset="0" style="stop-opacity:1; stop-color:#00D100"/>
   <stop offset="0.560784" style="stop-opacity:1; stop-color:#2FFA32"/>
   <stop offset="1" style="stop-opacity:1; stop-color:#00B509"/>
  </radialGradient>
 </defs>
 <g id="Layer_x0020_1">
  <metadata id="CorelCorpID_0Corel-Layer"/>
  <path class="fil0" d="M8.83 18.44c-0.23,-0.21 -1.02,0.14 -1.31,0.06 -0.3,-0.08 -0.79,-0.14 -1.04,-0.36 -0.04,-0.03 -0.01,-0.12 -0.08,-0.13 -0.01,-0 -1.15,0.07 -0.64,0.25 0.09,0.03 1.1,0.12 0.92,0.28 -0.04,0.03 -0.13,0.13 -0.11,0.19 0.15,0.04 0.09,0.06 0.33,0.05 0.13,-0.01 0.57,0.14 1.17,0.17 0.69,0.03 1.12,-0.01 1.7,-0.12 0,0 0.86,-0.11 0.52,-0.25 -0.36,-0.15 -1.1,0.16 -1.44,-0.15l-0 -0z"/>
  <path class="fil1" d="M8.13 15.09c-0.52,0.5 -0.92,0.31 -0.47,0.74 0.16,0.15 0.1,0.39 0.52,0.23 0.16,-0.06 0.28,0.01 0.47,-0.9 0.07,-0.34 -0.04,-0.46 0.15,-0.67 0,-0 -0.03,-0.6 -0.14,-0.47 -0.26,0.32 -0.26,0.81 -0.53,1.07l-0 -0z"/>
  <path class="fil2" d="M7.74 11.29c0.11,-0.09 0.89,-0.97 0.92,-1.03 0.01,-0.02 0.03,-0.04 0.04,-0.06 -0.09,-0 -0.2,-0 -0.35,0.01 -0.3,0.02 -0.32,-0.11 -0.07,-0.22 -0.04,0 -0.09,0 -0.14,0.01 -0.45,0.03 -0.25,-0.27 0.5,-0.36 0.73,-0.08 0.51,-1.6 1.39,-1.72 0.11,-0.01 0.23,0.05 0.35,0.16 0.44,0.09 1.04,1.24 1.36,1.6 0.06,0.07 0.23,0.73 0.5,1.1 0.14,0.02 0.3,-0.07 0.47,-0.33 0.2,-0.3 -0.49,-0.49 -0.31,-0.82 0.23,-0.44 -0.02,-0.43 0.5,-0.98 0.06,-0.07 0.16,-0.86 0.83,-0.36 0.12,0.01 0.28,0.08 0.48,0.26 0.24,0.22 0.69,1.06 0.69,1.48 0,0.37 -1.17,0.64 -0.02,1.03 0.16,0.05 0.21,0.15 0.22,0.25 0.01,0.07 -0.01,0.15 -0.01,0.23 0.15,-0.69 1.64,0.24 1.45,-0.69 -0.03,-0.15 -0.46,-0.55 -0.26,-0.88 0.01,-0.01 0.02,-0.03 0.03,-0.04 -0.28,-0.27 -0.33,0.13 -0.5,0.28 -0.05,0.04 -0.13,-0.26 -0.19,-0.53 -0.08,0.08 -0.13,0.23 -0.22,0.31 -0.08,0.08 -0.26,-0.87 -0.26,-0.88 -0.01,-0.28 0.25,-0.71 0.16,-1.02 -0.16,-0.55 -0.01,-1.44 -0.14,-1.8l-0.49 -1.3 -0.81 -0.93c-0.26,-0.24 -0.54,-0.46 -0.83,-0.66l-1.53 -0.84c-0.48,-0.2 -0.97,-0.35 -1.49,-0.46 -0.25,0.11 -0.57,0.24 -0.6,0.24 -0.08,0 -0.88,-0.38 -0.65,-0.1 0.78,0.92 -0.9,1.07 -0.76,0.41 0.05,-0.23 -0.04,-0.5 -0.17,-0.7 -0.45,0.04 -0.89,0.11 -1.32,0.21 -0.72,0.62 -1.39,1.37 -2.01,2.21 0.13,0.11 -1.1,0.57 -1.2,0.72 -0.46,0.67 -0.69,0.29 -1.12,1.06 -0.16,0.29 -0.78,0.59 -0.8,0.76 -0.02,0.2 -0.66,0.85 -1.02,1.09 -0.09,0.7 0.36,2.56 1.23,3.07 -0.01,0.24 0.03,0.59 0.12,0.81 -0.19,-0.51 -0.11,-1.57 0.25,-0.54 0.3,0.87 0.72,1.03 0.87,1.38 0.13,0.32 1.11,1.55 0.75,1.56 -0.26,0 -0.09,0.63 0.18,1.06 0.11,0.18 0.52,0.67 0.55,0.75 0.02,0.09 -0.04,0.1 -0.15,0.06 0.32,0.1 1.19,0.15 1.88,-0.08l-0.01 -0.02c-0,-0.08 0.08,-0.3 0.06,-0.56 -0.03,-0.39 0.02,-0.22 0.06,-0.46 0.02,-0.15 0.29,-0.48 0.41,-0.6 0.3,-0.28 0.22,-0.49 0.56,-0.64 -0.05,-0.03 -0.12,-0.15 -0.17,-0.3 -0,-0 -0.01,-0 -0.01,-0.01 -0.15,-0.09 -0.44,-0.88 -0.04,-1.2 0.06,-0.05 0.44,-0.66 0.85,-1.01l0 -0zm-2.98 -5.11c-0.49,-0.61 -0.23,-0.75 -0.02,-0.7 0.42,0.12 0.49,0.36 1.05,0.55 1.24,0.41 1.01,0.83 0.58,0.92 -1.28,0.28 -0.02,0.68 -0.9,0.94 -0.84,0.25 -0.38,-1.29 -0.72,-1.72l0 -0z"/>
  <path class="fil3" d="M9.45 10.27c0.13,-0.05 0.21,0.03 0.29,-0.08 0.05,-0.07 0.26,-0.04 0.3,0.04 0.01,0.02 0.38,0.12 0.23,0.22 -0.03,0.02 -0.23,0.04 -0.31,0.07 -0.03,0.02 -0.27,0.05 -0.32,0.01 -0.07,-0.05 -0.33,-0.14 -0.2,-0.26zm7.07 0.58c0.19,0.93 -1.29,-0 -1.45,0.69 -0.02,0.19 -0.03,0.38 0.23,0.48 0.43,0.16 0.32,0.21 0.66,0.23 0.39,0.02 0.56,-0.21 0.56,-0.16 0.06,0.59 -0.77,3.48 -2.86,5.11 2.36,-1.73 3.28,-4.35 3.35,-6.47 0,-0.09 0.01,-0.18 0.01,-0.28 0,-0.34 -0.02,-0.67 -0.06,-1 -0.12,-0.03 -0.2,-0.06 -0.18,-0.21 0.05,-0.71 -0.41,-0.62 -0.3,-0.42 0.07,0.14 0.29,1.57 -0.2,1.11 -0.26,0.34 0.2,0.77 0.23,0.92l-0 -0zm-1.88 -5.86l0.49 1.3c0.14,0.36 -0.02,1.25 0.14,1.8 0.09,0.31 -0.17,0.73 -0.16,1.02 0,0.01 0.18,0.96 0.26,0.88 0.09,-0.08 0.14,-0.23 0.22,-0.31 -0.05,-0.2 -0.08,-0.38 -0.08,-0.38 -0.01,-0.29 0.26,-0.73 0.17,-1.04 -0.16,-0.57 -0.01,-1.48 -0.15,-1.85l-0.51 -1.33 -0.83 -0.96c-0.27,-0.24 -0.55,-0.47 -0.85,-0.67l-1.57 -0.86c-0.55,-0.23 -1.12,-0.4 -1.72,-0.51 -0.02,0.01 -0.05,0.02 -0.08,0.03 0.52,0.11 1.02,0.26 1.49,0.46l1.53 0.84c0.29,0.2 0.57,0.42 0.83,0.66l0.81 0.93 -0 0zm-1.94 5.46c-0.17,0.26 -0.33,0.35 -0.47,0.33 0.21,0.28 0.48,0.39 0.81,-0.1 0.21,-0.31 -0.5,-0.5 -0.32,-0.84 0.24,-0.45 -0.02,-0.45 0.51,-1.01 0.05,-0.05 0.13,-0.57 0.49,-0.54 -0.67,-0.5 -0.77,0.29 -0.83,0.36 -0.51,0.55 -0.26,0.55 -0.5,0.98 -0.17,0.33 0.51,0.52 0.31,0.82l-0 -0zm-3.72 -0.53c0.75,-0.08 0.4,-1.73 1.3,-1.85 0.03,-0 0.05,-0 0.08,0 -0.12,-0.11 -0.24,-0.18 -0.35,-0.16 -0.88,0.11 -0.66,1.63 -1.39,1.72 -0.75,0.08 -0.95,0.38 -0.5,0.36 0.05,-0 0.1,-0.01 0.14,-0.01 0.13,-0.06 0.44,-0.03 0.71,-0.06l0 0zm-0.94 1.69c0.12,-0.1 0.91,-1.07 0.95,-1.14 0.08,-0.13 0.13,-0.27 -0.29,-0.29 -0.01,0.02 -0.03,0.04 -0.04,0.06 -0.04,0.06 -0.81,0.94 -0.92,1.03 -0.41,0.35 -0.79,0.96 -0.85,1.01 -0.41,0.32 -0.11,1.11 0.04,1.2 0,0 0.01,0 0.01,0.01 -0.1,-0.29 -0.04,-0.62 0.23,-0.83 0.06,-0.05 0.46,-0.71 0.88,-1.06l-0 0zm-4.67 4.1c-0.6,-0.59 -0.87,-1.62 -1.17,-2.41 -0.12,-0.32 -0.39,-1.15 -0.49,-1.36 -0.1,-0.22 -0.15,-0.61 -0.14,-0.86 -0.87,-0.5 -1.31,-2.37 -1.23,-3.07 -0.23,0.77 -0.35,1.58 -0.35,2.43 0,0.55 0.05,1.08 0.15,1.6 0,0 0.22,0.73 0.46,1.02 0.38,0.45 0.73,2.05 1.74,2.28 0.24,0.06 0.3,0.7 0.95,0.97 0.42,0.18 0.42,0.58 1.12,0.56 0.13,-0.01 0.61,0.15 0.97,-0.01 0.45,-0.19 1.19,-0.05 1.27,-0.96l0 0c0,-0.03 0,-0.05 0.01,-0.08 0.02,-0.58 0.2,-1 0.63,-1.27 0.12,-0.08 0.39,-0.39 -0.19,-0.74 -0.34,0.15 -0.26,0.36 -0.56,0.64 -0.12,0.11 -0.38,0.45 -0.41,0.6 -0.04,0.25 -0.09,0.08 -0.06,0.46 0.02,0.26 -0.07,0.47 -0.06,0.56l0.01 0.02c-0.69,0.23 -1.57,0.18 -1.88,0.08 -0.23,-0.07 -0.65,-0.35 -0.77,-0.46l-0 -0zm-2.59 -9.1c0.12,-0.13 0.33,-0.13 0.4,-0.32 0.11,-0.29 0.43,-0.3 0.4,-0.87 0,-0.01 0.01,-0.05 0.02,-0.1 -0.33,0.39 -0.61,0.81 -0.82,1.28zm3.7 -2.23c0.61,-0.84 1.29,-1.59 2.01,-2.21 -1.42,0.35 -2.7,1.05 -3.74,2.01 -0.16,0.15 -0.34,0.43 -0.34,0.56 0,0.35 0.13,0.15 0.15,0.12 0.16,-0.2 1.74,-0.6 1.93,-0.47l0 0zm3.57 -2.02c0.23,-0.23 0.46,-0.48 -0.18,-0.64 -0.64,0.41 -1.27,0.94 -1.86,1.57 -0,0.01 0.76,-0.32 0.93,-0.37 0.65,-0.18 0.9,-0.35 1.11,-0.56l0 0zm5.48 12.45c-0.38,0.12 -0.51,1.21 -0.23,1.1 0.25,-0.1 0.53,-0.52 0.54,-0.87 0,-0.16 -0.21,-0.26 -0.31,-0.22l0 -0zm-9.02 -9.02c0.15,-0.28 0.6,0.09 0.94,0.28 0.26,0.15 1.16,0.32 1.27,0.59 -0.01,-0.24 -0.37,-0.45 -0.92,-0.63 -0.56,-0.18 -0.63,-0.43 -1.05,-0.55 -0.07,-0.02 -0.36,-0.06 -0.23,0.31l-0 0z"/>
  <path class="fil3" d="M8.15 15.23c-0.39,0.41 -0.67,0.25 -0.36,0.6 0.11,0.12 0.05,0.32 0.37,0.19 0.12,-0.05 0.2,0.01 0.36,-0.73 0.06,-0.28 -0.01,-0.37 0.13,-0.54 0,-0 -0,-0.49 -0.08,-0.38 -0.2,0.26 -0.21,0.66 -0.42,0.87l0 0z"/>
  <path class="fil3" d="M2.19 10.89c0.18,-0.85 0.56,-1.64 0.86,-2.4 0.15,-0.22 0.46,-0.51 0.65,-0.7 0.72,-0.76 0.57,-1.34 0.68,-1.92 0.36,-0.59 1.08,-1.62 1.87,-2.68 0,0 -0.18,0.07 -0.23,0.09 -0.69,0.73 -1.34,1.6 -1.96,2.59 -0.11,0.58 0.09,0.94 -0.63,1.7 -0.19,0.2 -0.49,0.44 -0.64,0.66 -0.29,0.75 -0.54,1.55 -0.72,2.4 -0.05,0.24 -0.1,0.49 -0.14,0.72 0.03,0.09 0.07,0.18 0.09,0.24 0.07,-0.28 0.11,-0.44 0.17,-0.71l0 -0z"/>
  <path class="fil4" d="M6.91 20.75c-2.83,0 -6.2,-3.86 -4.85,-10.11 0.18,-0.85 0.43,-1.65 0.72,-2.4 0.15,-0.22 0.45,-0.46 0.64,-0.66 0.72,-0.76 0.51,-1.13 0.63,-1.7 2.04,-3.29 4.51,-5.22 7.21,-5.22 2.7,0 4.29,1.91 4.89,4.78 0,0.02 0.01,0.04 0.01,0.06 0.08,0.34 0.53,1.97 0.68,2.42 0.15,-4.56 -1.68,-7.92 -5.44,-7.92 -2.64,0 -5.73,2.2 -7.79,5.64 -0.21,0.35 -0.35,0.58 -0.66,0.94 -0.33,0.38 -0.36,1.05 -0.55,1.53 -0.31,0.79 -0.56,1.62 -0.74,2.48 -1.19,5.5 0.99,9.75 4.07,10.54 3.51,0.9 6.52,-2.09 7.94,-3.96 -0.26,0.17 -0.73,0.32 -1.02,0.5 -0.08,0.09 -0.16,0.17 -0.24,0.25 -1.6,1.66 -2.66,2.82 -5.48,2.82l-0 0z"/>
 </g>
</svg>
