<?xml version="1.0" encoding="UTF-8"?>
<!DOCTYPE svg PUBLIC "-//W3C//DTD SVG 1.1//EN" "http://www.w3.org/Graphics/SVG/1.1/DTD/svg11.dtd">
<!-- Creator: CorelDRAW (OEM Version) -->
<svg xmlns="http://www.w3.org/2000/svg" xml:space="preserve" width="0.5in" height="0.500004in" version="1.1" style="shape-rendering:geometricPrecision; text-rendering:geometricPrecision; image-rendering:optimizeQuality; fill-rule:evenodd; clip-rule:evenodd"
viewBox="0 0 41.45 41.45"
 xmlns:xlink="http://www.w3.org/1999/xlink"
 xmlns:xodm="http://www.corel.com/coreldraw/odm/2003">
 <defs>
  <style type="text/css">
   <![CDATA[
    .fil0 {fill:#FEFEFE}
   ]]>
  </style>
 </defs>
 <g id="Layer_x0020_1">
  <metadata id="CorelCorpID_0Corel-Layer"/>
  <path class="fil0" d="M41.45 20.73c0,11.45 -9.28,20.73 -20.73,20.73 -11.45,0 -20.73,-9.28 -20.73,-20.73 0,-11.45 9.28,-20.73 20.73,-20.73 11.45,0 20.73,9.28 20.73,20.73zm-24.61 15.64l5.65 0 0 -13.04 4.18 0 0.84 -5.27 -5.01 0 0 -3.98c0,-1.48 1.41,-2.31 2.76,-2.31l2.44 0 0 -4.37 -4.37 -0.19c-4.18,-0.26 -6.49,3.02 -6.49,6.94l0 3.92 -4.75 0 0 5.27 4.75 0 0 13.04z"/>
 </g>
</svg>
