<svg width="52" height="64" viewBox="0 0 52 64" fill="none" xmlns="http://www.w3.org/2000/svg">
<g clip-path="url(#clip0_2_349)">
<path d="M31.9249 0.0218182L51.7236 0L18.5067 33.2L9.8497 41.8085L0 31.9467L31.9249 0.0218182ZM31.7406 29.6655C31.9976 29.3261 32.4703 29.4933 32.8291 29.4497L51.7067 29.4545L34.5018 46.6424L24.6012 36.8024L31.7406 29.6655Z" fill="#44D1FD"/>
<path d="M14.7322 46.6594L24.6013 36.8024L34.5019 46.6424L34.5431 46.6861L24.6037 56.5333L14.7322 46.6594Z" fill="#1FBCFD"/>
<path d="M24.6038 56.5333L34.5432 46.6861L51.7141 63.8739C45.2462 63.8885 38.7807 63.8691 32.3153 63.8836C31.9468 63.966 31.7189 63.6291 31.4838 63.4206L24.6038 56.5333Z" fill="#08589C"/>
</g>
<defs>
<clipPath id="clip0_2_349">
<rect width="51.6364" height="64" fill="white"/>
</clipPath>
</defs>
</svg>
