<?xml version="1.0" encoding="UTF-8"?>
<!DOCTYPE svg PUBLIC "-//W3C//DTD SVG 1.1//EN" "http://www.w3.org/Graphics/SVG/1.1/DTD/svg11.dtd">
<!-- Creator: CorelDRAW (OEM Version) -->
<svg xmlns="http://www.w3.org/2000/svg" xml:space="preserve" width="2.77928in" height="0.795047in" version="1.1" style="shape-rendering:geometricPrecision; text-rendering:geometricPrecision; image-rendering:optimizeQuality; fill-rule:evenodd; clip-rule:evenodd"
viewBox="0 0 118.41 33.87"
 xmlns:xlink="http://www.w3.org/1999/xlink"
 xmlns:xodm="http://www.corel.com/coreldraw/odm/2003">
 <defs>
  <style type="text/css">
   <![CDATA[
    .fil4 {fill:#2A3038}
    .fil6 {fill:#017F01}
    .fil3 {fill:#020016}
    .fil7 {fill:#0E5E93}
    .fil0 {fill:white}
    .fil8 {fill:#8D9DA6;fill-rule:nonzero}
    .fil1 {fill:url(#id0)}
    .fil2 {fill:url(#id1)}
    .fil5 {fill:url(#id2)}
   ]]>
  </style>
  <radialGradient id="id0" gradientUnits="userSpaceOnUse" gradientTransform="matrix(0.916819 -0.490509 0.37394 1.31559 -8 -1)" cx="12.8" cy="23.26" r="0.74" fx="12.8" fy="23.26">
   <stop offset="0" style="stop-opacity:1; stop-color:#80CCF5"/>
   <stop offset="0.521569" style="stop-opacity:1; stop-color:#0475B1"/>
   <stop offset="1" style="stop-opacity:1; stop-color:#0E5186"/>
  </radialGradient>
  <radialGradient id="id1" gradientUnits="userSpaceOnUse" gradientTransform="matrix(1.46836 -0.207115 -0.279149 1.43111 -1 -3)" cx="8.8" cy="11.93" r="12.88" fx="8.8" fy="11.93">
   <stop offset="0" style="stop-opacity:1; stop-color:white"/>
   <stop offset="0.0392157" style="stop-opacity:1; stop-color:#E8F7FF"/>
   <stop offset="0.188235" style="stop-opacity:1; stop-color:#0AA6FA"/>
   <stop offset="0.321569" style="stop-opacity:1; stop-color:#0A8ACE"/>
   <stop offset="0.6" style="stop-opacity:1; stop-color:#0B618F"/>
   <stop offset="1" style="stop-opacity:1; stop-color:#0E5186"/>
  </radialGradient>
  <radialGradient id="id2" gradientUnits="userSpaceOnUse" gradientTransform="matrix(1.24135 0.533594 -0.712082 1.75242 7 -12)" cx="6.01" cy="11.52" r="14.9" fx="6.01" fy="11.52">
   <stop offset="0" style="stop-opacity:1; stop-color:#00D100"/>
   <stop offset="0.560784" style="stop-opacity:1; stop-color:#2FFA32"/>
   <stop offset="1" style="stop-opacity:1; stop-color:#00B509"/>
  </radialGradient>
 </defs>
 <g id="Layer_x0020_1">
  <metadata id="CorelCorpID_0Corel-Layer"/>
  <g id="_2796948323712">
   <path class="fil0" d="M13.55 3.01c7.48,0 13.55,6.09 13.55,13.6 0,7.51 -6.07,13.6 -13.55,13.6 -7.48,0 -13.55,-6.09 -13.55,-13.6 0,-7.51 6.07,-13.6 13.55,-13.6z"/>
   <path class="fil1" d="M12.95 23.95c-0.83,0.79 -1.46,0.49 -0.75,1.17 0.25,0.24 0.15,0.62 0.83,0.37 0.26,-0.1 0.44,0.02 0.74,-1.43 0.11,-0.55 -0.06,-0.73 0.24,-1.07 0,-0.01 -0.05,-0.96 -0.23,-0.75 -0.41,0.51 -0.41,1.29 -0.84,1.7l-0 -0z"/>
   <path class="fil2" d="M12.32 17.9c0.18,-0.15 1.41,-1.54 1.47,-1.64 0.02,-0.03 0.04,-0.07 0.06,-0.1 -0.14,-0.01 -0.32,-0 -0.55,0.01 -0.48,0.03 -0.5,-0.17 -0.12,-0.35 -0.07,0 -0.15,0.01 -0.23,0.01 -0.71,0.04 -0.39,-0.43 0.8,-0.57 1.16,-0.13 0.8,-2.55 2.2,-2.73 0.17,-0.02 0.36,0.08 0.56,0.26 0.7,0.14 1.65,1.97 2.17,2.55 0.09,0.11 0.36,1.17 0.8,1.75 0.22,0.03 0.47,-0.12 0.75,-0.53 0.32,-0.48 -0.77,-0.78 -0.5,-1.3 0.37,-0.69 -0.03,-0.69 0.79,-1.57 0.1,-0.11 0.26,-1.37 1.32,-0.57 0.19,0.02 0.44,0.13 0.76,0.41 0.39,0.34 1.09,1.68 1.09,2.36 0,0.59 -1.86,1.02 -0.03,1.63 0.25,0.08 0.33,0.23 0.34,0.4 0.01,0.11 -0.01,0.24 -0.02,0.36 0.24,-1.1 2.61,0.39 2.3,-1.09 -0.05,-0.24 -0.72,-0.87 -0.41,-1.4 0.01,-0.02 0.03,-0.04 0.04,-0.07 -0.45,-0.43 -0.53,0.2 -0.79,0.44 -0.08,0.07 -0.21,-0.41 -0.3,-0.84 -0.12,0.12 -0.21,0.36 -0.35,0.49 -0.13,0.12 -0.42,-1.39 -0.42,-1.4 -0.01,-0.45 0.4,-1.13 0.26,-1.62 -0.25,-0.88 -0.01,-2.3 -0.23,-2.87l-0.78 -2.06 -1.28 -1.48c-0.42,-0.38 -0.86,-0.72 -1.32,-1.04l-2.43 -1.33c-0.76,-0.32 -1.55,-0.56 -2.37,-0.73 -0.4,0.18 -0.9,0.39 -0.96,0.39 -0.12,0 -1.41,-0.6 -1.03,-0.16 1.24,1.47 -1.43,1.71 -1.21,0.65 0.07,-0.36 -0.06,-0.79 -0.27,-1.11 -0.72,0.06 -1.44,0.18 -2.12,0.34 -1.12,0.96 -2.24,2.15 -3.23,3.48 0.2,0.17 -1.68,0.94 -1.84,1.17 -0.73,1.06 -1.09,0.46 -1.79,1.69 -0.26,0.46 -1.25,0.93 -1.27,1.21 -0.02,0.32 -1.05,1.35 -1.62,1.74 -0.14,1.11 0.57,4.08 1.95,4.88 -0.02,0.38 0.05,0.94 0.19,1.29 -0.31,-0.81 -0.17,-2.49 0.39,-0.86 0.48,1.38 1.15,1.64 1.38,2.2 0.2,0.5 1.77,2.47 1.2,2.48 -0.41,0 -0.15,1 0.28,1.69 0.17,0.28 0.83,1.06 0.87,1.19 0.04,0.14 -0.07,0.15 -0.24,0.1 0.5,0.17 1.89,0.24 2.99,-0.13l-0.01 -0.04c-0,-0.13 0.13,-0.47 0.1,-0.88 -0.04,-0.62 0.03,-0.34 0.1,-0.74 0.04,-0.24 0.45,-0.77 0.65,-0.95 0.47,-0.45 0.34,-0.78 0.89,-1.02 -0.08,-0.05 -0.19,-0.24 -0.28,-0.48 -0.01,-0 -0.01,-0.01 -0.02,-0.01 -0.23,-0.14 -0.71,-1.4 -0.06,-1.91 0.09,-0.07 0.7,-1.06 1.36,-1.6l0 -0zm-4.73 -8.12c-0.78,-0.98 -0.36,-1.2 -0.02,-1.11 0.67,0.18 0.78,0.57 1.67,0.87 1.97,0.65 1.6,1.32 0.93,1.47 -2.03,0.45 -0.03,1.08 -1.43,1.5 -1.33,0.4 -0.6,-2.06 -1.14,-2.73l0 -0z"/>
   <path class="fil3" d="M12.98 24.18c-0.62,0.64 -1.06,0.4 -0.58,0.95 0.17,0.19 0.09,0.51 0.58,0.3 0.19,-0.08 0.32,0.02 0.58,-1.16 0.1,-0.44 -0.02,-0.59 0.21,-0.87 0,-0 -0,-0.78 -0.13,-0.61 -0.31,0.41 -0.34,1.05 -0.66,1.38l0 0z"/>
   <path class="fil4" d="M14.06 29.28c-0.36,-0.33 -1.62,0.22 -2.09,0.1 -0.47,-0.12 -1.26,-0.22 -1.66,-0.58 -0.06,-0.05 -0.01,-0.19 -0.13,-0.2 -0.02,-0 -1.84,0.11 -1.02,0.4 0.14,0.05 1.76,0.18 1.47,0.44 -0.06,0.05 -0.21,0.2 -0.18,0.3 0.25,0.06 0.14,0.1 0.52,0.08 0.2,-0.01 0.91,0.22 1.86,0.27 1.1,0.05 1.78,-0.02 2.7,-0.18 0,0 1.37,-0.17 0.83,-0.39 -0.57,-0.23 -1.75,0.26 -2.3,-0.23l-0 -0zm7.48 -5.78c-0.6,0.19 -0.81,1.93 -0.36,1.74 0.4,-0.17 0.84,-0.82 0.85,-1.39 0,-0.26 -0.33,-0.41 -0.49,-0.35l0 -0zm4.76 -6.3c0.3,1.48 -2.06,-0.01 -2.3,1.09 -0.04,0.3 -0.05,0.6 0.36,0.76 0.69,0.26 0.51,0.33 1.05,0.36 0.62,0.03 0.89,-0.33 0.9,-0.26 0.09,0.93 -1.16,5.64 -4.49,8.23 3.64,-2.81 5.19,-6.97 5.27,-10.38 0,-0.15 0.01,-0.29 0.01,-0.44 0,-0.54 -0.03,-1.07 -0.09,-1.59 -0.2,-0.05 -0.31,-0.09 -0.29,-0.33 0.08,-1.13 -0.65,-0.99 -0.48,-0.66 0.12,0.21 0.46,2.49 -0.31,1.76 -0.42,0.54 0.31,1.22 0.36,1.47l-0 -0zm-2.98 -9.32l0.78 2.06c0.22,0.57 -0.03,1.99 0.23,2.87 0.14,0.49 -0.27,1.17 -0.26,1.62 0,0.01 0.29,1.52 0.42,1.4 0.14,-0.13 0.23,-0.37 0.35,-0.49 -0.07,-0.31 -0.13,-0.6 -0.13,-0.6 -0.01,-0.46 0.41,-1.16 0.27,-1.66 -0.26,-0.9 -0.01,-2.36 -0.23,-2.94l-0.8 -2.12 -1.32 -1.52c-0.43,-0.39 -0.88,-0.74 -1.36,-1.07l-2.49 -1.36c-0.87,-0.36 -1.79,-0.64 -2.74,-0.81 -0.04,0.02 -0.08,0.03 -0.12,0.05 0.82,0.17 1.61,0.42 2.37,0.73l2.43 1.33c0.46,0.32 0.9,0.67 1.32,1.04l1.28 1.48 -0 0.01zm-3.08 8.68c-0.28,0.41 -0.53,0.55 -0.75,0.53 0.33,0.45 0.76,0.61 1.29,-0.17 0.33,-0.49 -0.79,-0.8 -0.51,-1.33 0.38,-0.71 -0.03,-0.71 0.81,-1.61 0.08,-0.09 0.2,-0.91 0.78,-0.86 -1.06,-0.8 -1.22,0.46 -1.32,0.57 -0.82,0.88 -0.42,0.87 -0.79,1.57 -0.28,0.52 0.82,0.82 0.5,1.3l-0 -0zm-5.18 -0.28c0.2,-0.08 0.33,0.04 0.46,-0.12 0.09,-0.11 0.41,-0.07 0.48,0.06 0.02,0.04 0.61,0.18 0.36,0.34 -0.04,0.03 -0.37,0.06 -0.49,0.12 -0.05,0.03 -0.42,0.07 -0.5,0.02 -0.1,-0.07 -0.53,-0.21 -0.31,-0.41zm-0.74 -0.56c1.19,-0.13 0.64,-2.75 2.07,-2.94 0.04,-0.01 0.09,-0 0.13,0.01 -0.2,-0.18 -0.39,-0.28 -0.56,-0.26 -1.4,0.18 -1.05,2.6 -2.2,2.73 -1.19,0.13 -1.51,0.61 -0.8,0.57 0.08,-0 0.16,-0.01 0.23,-0.01 0.2,-0.09 0.7,-0.05 1.12,-0.1l0 0zm-1.49 2.69c0.18,-0.15 1.45,-1.7 1.5,-1.8 0.12,-0.21 0.2,-0.43 -0.46,-0.45 -0.02,0.03 -0.04,0.07 -0.06,0.1 -0.06,0.1 -1.29,1.49 -1.47,1.64 -0.66,0.55 -1.26,1.53 -1.36,1.6 -0.64,0.5 -0.17,1.77 0.06,1.91 0.01,0 0.01,0.01 0.02,0.01 -0.16,-0.46 -0.06,-0.98 0.37,-1.32 0.1,-0.07 0.73,-1.12 1.41,-1.68l-0 0zm-5.61 -9.25c0.25,-0.44 0.95,0.14 1.49,0.45 0.42,0.24 1.85,0.5 2.02,0.93 -0.02,-0.38 -0.58,-0.71 -1.47,-1 -0.89,-0.29 -1,-0.68 -1.67,-0.87 -0.1,-0.03 -0.58,-0.1 -0.36,0.49l-0 0zm-1.82 15.76c-0.96,-0.94 -1.38,-2.58 -1.86,-3.82 -0.19,-0.5 -0.62,-1.84 -0.77,-2.16 -0.16,-0.34 -0.24,-0.96 -0.22,-1.37 -1.39,-0.8 -2.09,-3.77 -1.95,-4.88 -0.36,1.22 -0.56,2.52 -0.56,3.86 0,0.87 0.08,1.72 0.24,2.54 0,0 0.34,1.16 0.73,1.62 0.6,0.72 1.16,3.25 2.76,3.62 0.39,0.09 0.48,1.11 1.5,1.54 0.68,0.28 0.66,0.92 1.78,0.88 0.21,-0.01 0.96,0.23 1.55,-0.01 0.72,-0.3 1.89,-0.07 2.03,-1.53l0 0c0,-0.04 0.01,-0.09 0.01,-0.13 0.04,-0.91 0.31,-1.59 1.01,-2.02 0.19,-0.12 0.62,-0.63 -0.3,-1.17 -0.54,0.24 -0.42,0.58 -0.89,1.02 -0.19,0.18 -0.61,0.71 -0.65,0.95 -0.06,0.4 -0.14,0.12 -0.1,0.74 0.03,0.41 -0.11,0.75 -0.1,0.88l0.01 0.04c-1.1,0.36 -2.49,0.29 -2.99,0.13 -0.36,-0.12 -1.03,-0.55 -1.22,-0.74l-0 -0zm-3.92 -14.47c0.19,-0.2 0.52,-0.21 0.63,-0.5 0.17,-0.46 0.64,-0.48 0.6,-1.38 0,-0.02 0.02,-0.08 0.03,-0.15 -0.5,0.65 -0.9,1.37 -1.27,2.04l-0 0zm5.62 -3.57c0.99,-1.33 2.09,-2.5 3.23,-3.48 -2.25,0.55 -4.27,1.67 -5.92,3.19 -0.25,0.24 -0.55,0.68 -0.55,0.88 0,0.56 0.2,0.23 0.24,0.18 0.24,-0.3 2.52,-0.89 3,-0.77l0 -0zm-3.88 11.37c0.11,-0.45 0.14,-0.59 0.24,-1.02 0.29,-1.35 0.89,-2.61 1.36,-3.81 0.24,-0.35 0.73,-0.8 1.03,-1.12 1.14,-1.21 0.9,-2.13 1.09,-3.05 0.07,-0.11 0.14,-0.23 0.23,-0.36 0.05,-0.07 0.1,-0.15 0.14,-0.22 0,-0 0,-0 0,-0 0.61,-0.93 1.53,-2.24 2.52,-3.58 0.38,-0.16 0.99,-0.41 1.17,-0.46 0.99,-0.28 1.39,-0.53 1.73,-0.85 0.02,-0.01 0.03,-0.03 0.05,-0.05 0.24,-0.24 0.48,-0.5 0.31,-0.72 -0.35,0.01 -0.7,0.04 -1.05,0.08 -0.04,0 -0.08,0.01 -0.13,0.01 -0,0 -0.01,0 -0.01,0.01 -0.79,0.57 -1.55,1.24 -2.29,2.01l-0.09 0.09c-0,0 -0,0 -0.01,0.01 -1.09,1.16 -2.14,2.54 -3.12,4.12 -0.03,0.15 -0.05,0.29 -0.06,0.42 -0.01,0.24 -0,0.53 -0.09,0.87 -0.09,0.4 -0.3,0.83 -0.85,1.41 0,0 -0,0 -0,0 -0.3,0.32 -0.77,0.7 -1.01,1.05 -0.47,1.2 -0.86,2.47 -1.15,3.82 -0.07,0.31 -0.13,0.62 -0.18,0.93 0.02,0.05 0.04,0.1 0.06,0.16 0.03,0.09 0.06,0.17 0.09,0.25l0 0z"/>
   <path class="fil5" d="M10.95 33c-4.5,0 -9.86,-6.13 -7.71,-16.08 0.29,-1.35 0.68,-2.63 1.15,-3.82 0.24,-0.35 0.71,-0.73 1.01,-1.05 1.14,-1.21 0.82,-1.79 1,-2.71 3.24,-5.22 7.17,-8.31 11.46,-8.31 4.29,0 6.82,3.04 7.77,7.61 0.01,0.03 0.01,0.06 0.02,0.1 0.13,0.55 0.84,3.14 1.08,3.85 0.24,-7.24 -2.67,-12.59 -8.64,-12.59 -4.2,0 -9.11,3.5 -12.39,8.97 -0.33,0.55 -0.56,0.91 -1.05,1.5 -0.52,0.61 -0.57,1.67 -0.87,2.44 -0.49,1.25 -0.89,2.57 -1.18,3.94 -1.89,8.75 1.57,15.5 6.46,16.76 5.58,1.44 10.37,-3.32 12.62,-6.29 -0.42,0.27 -1.17,0.5 -1.62,0.8 -0.12,0.14 -0.25,0.27 -0.38,0.4 -2.54,2.65 -4.22,4.48 -8.72,4.48l-0 0z"/>
  </g>
  <g id="_2796948324384">
   <path class="fil6" d="M38.77 14.39l0 6.27c0,0.08 -0.03,0.15 -0.08,0.22 -0.05,0.06 -0.13,0.1 -0.21,0.13 -0.09,0.03 -0.19,0.04 -0.28,0.05 -0.14,0.02 -0.28,0.02 -0.41,0.02 -0.14,0 -0.28,-0 -0.41,-0.02 -0.09,-0.01 -0.19,-0.03 -0.28,-0.05 -0.08,-0.03 -0.15,-0.07 -0.21,-0.13 -0.05,-0.06 -0.08,-0.14 -0.08,-0.22l0 -6.27 -1.83 0c-0.08,0 -0.15,-0.03 -0.21,-0.08 -0.05,-0.05 -0.09,-0.11 -0.12,-0.18 -0.03,-0.08 -0.05,-0.16 -0.06,-0.24 -0.01,-0.11 -0.02,-0.22 -0.02,-0.33 0,-0.11 0,-0.22 0.02,-0.33 0.01,-0.08 0.03,-0.17 0.06,-0.25 0.03,-0.07 0.07,-0.13 0.12,-0.18 0.06,-0.05 0.14,-0.07 0.21,-0.07l5.62 0c0.07,0 0.14,0.02 0.2,0.07 0.06,0.05 0.11,0.11 0.13,0.18 0.03,0.08 0.05,0.17 0.06,0.25 0.01,0.11 0.02,0.22 0.02,0.33 0,0.11 -0,0.22 -0.02,0.33 -0.01,0.08 -0.03,0.17 -0.06,0.25 -0.03,0.07 -0.07,0.14 -0.13,0.18 -0.05,0.05 -0.13,0.07 -0.2,0.07l-1.83 0 -0 0zm7.35 2.8c0.02,0.01 0.04,0.03 0.06,0.04 0.12,0.1 0.23,0.21 0.32,0.33 0.11,0.13 0.2,0.28 0.28,0.43 0.09,0.17 0.17,0.35 0.25,0.53l0.68 1.58c0.05,0.12 0.1,0.25 0.13,0.36 0.02,0.07 0.04,0.14 0.04,0.21 0,0.07 -0.01,0.13 -0.04,0.19 -0.04,0.08 -0.12,0.13 -0.21,0.16 -0.1,0.03 -0.21,0.04 -0.31,0.05 -0.16,0.01 -0.33,0.01 -0.5,0.01 -0.14,0 -0.29,-0 -0.43,-0.01 -0.1,-0.01 -0.2,-0.02 -0.29,-0.06 -0.08,-0.03 -0.15,-0.07 -0.2,-0.15 -0.03,-0.05 -0.06,-0.11 -0.08,-0.16l-0.72 -1.78c-0.07,-0.18 -0.16,-0.35 -0.25,-0.53 -0.07,-0.13 -0.15,-0.25 -0.25,-0.35 -0.08,-0.09 -0.18,-0.15 -0.29,-0.2 -0.12,-0.05 -0.26,-0.07 -0.39,-0.07l-0.34 0 0 2.88c0,0.08 -0.03,0.16 -0.08,0.22 -0.05,0.06 -0.13,0.11 -0.21,0.13 -0.09,0.03 -0.19,0.04 -0.28,0.05 -0.14,0.02 -0.28,0.02 -0.41,0.02 -0.14,0 -0.28,-0 -0.41,-0.02 -0.09,-0.01 -0.19,-0.03 -0.28,-0.05 -0.08,-0.03 -0.16,-0.07 -0.21,-0.14 -0.05,-0.06 -0.07,-0.13 -0.07,-0.21l0 -7.25c0,-0.19 0.05,-0.39 0.2,-0.52 0.13,-0.11 0.28,-0.16 0.45,-0.16l2.07 0c0.18,0 0.35,0 0.53,0.01 0.13,0.01 0.25,0.02 0.38,0.03 0.31,0.05 0.62,0.12 0.91,0.25 0.26,0.11 0.5,0.27 0.71,0.47 0.2,0.2 0.35,0.43 0.45,0.69 0.11,0.29 0.15,0.6 0.15,0.9 0,0.26 -0.03,0.53 -0.11,0.78 -0.07,0.23 -0.18,0.45 -0.33,0.64 -0.15,0.19 -0.32,0.35 -0.53,0.49 -0.12,0.08 -0.24,0.14 -0.37,0.2l0.01 -0zm9.44 0.71c0,0.46 -0.06,0.93 -0.23,1.37 -0.15,0.4 -0.37,0.75 -0.68,1.04 -0.31,0.3 -0.69,0.51 -1.1,0.65 -0.47,0.16 -0.98,0.22 -1.47,0.22 -0.47,0 -0.95,-0.05 -1.4,-0.19 -0.4,-0.13 -0.77,-0.32 -1.08,-0.61 -0.31,-0.28 -0.53,-0.63 -0.67,-1.02 -0.17,-0.44 -0.23,-0.92 -0.23,-1.39l0 -4.85c0,-0.08 0.02,-0.15 0.07,-0.21 0.05,-0.07 0.13,-0.11 0.21,-0.14 0.09,-0.03 0.19,-0.04 0.28,-0.05 0.14,-0.02 0.28,-0.02 0.41,-0.02 0.13,0 0.27,0 0.41,0.02 0.09,0.01 0.19,0.03 0.28,0.06 0.08,0.03 0.15,0.07 0.21,0.13 0.05,0.06 0.08,0.14 0.08,0.22l0 4.71c0,0.26 0.03,0.53 0.11,0.77 0.06,0.19 0.16,0.37 0.3,0.51 0.13,0.14 0.28,0.24 0.46,0.3 0.2,0.07 0.41,0.1 0.62,0.1 0.21,0 0.43,-0.03 0.62,-0.11 0.17,-0.07 0.32,-0.16 0.45,-0.3 0.13,-0.14 0.23,-0.31 0.29,-0.5 0.08,-0.22 0.11,-0.46 0.11,-0.7l0 -4.81c0,-0.08 0.02,-0.15 0.07,-0.21 0.05,-0.07 0.13,-0.11 0.21,-0.14 0.09,-0.03 0.19,-0.04 0.29,-0.06 0.14,-0.02 0.28,-0.02 0.41,-0.02 0.13,0 0.27,0 0.41,0.02 0.09,0.01 0.19,0.03 0.28,0.06 0.08,0.03 0.16,0.07 0.21,0.14 0.05,0.06 0.07,0.13 0.07,0.21l0 4.79 -0 -0zm3.36 -3.56l0 1.61 2.23 0c0.07,0 0.15,0.02 0.2,0.07 0.06,0.04 0.1,0.1 0.13,0.17 0.03,0.07 0.05,0.16 0.06,0.24 0.01,0.1 0.02,0.21 0.02,0.31 0,0.11 -0,0.21 -0.02,0.32 -0.01,0.08 -0.03,0.16 -0.06,0.23 -0.03,0.07 -0.08,0.14 -0.14,0.17 -0.05,0.04 -0.12,0.06 -0.19,0.06l-2.23 0 0 1.91 2.7 0c0.07,0 0.15,0.02 0.2,0.07 0.06,0.04 0.1,0.11 0.13,0.18 0.03,0.07 0.05,0.16 0.06,0.24 0.01,0.11 0.02,0.21 0.02,0.32 0,0.11 -0,0.22 -0.02,0.32 -0.01,0.08 -0.03,0.16 -0.06,0.24 -0.03,0.07 -0.07,0.13 -0.13,0.18 -0.06,0.04 -0.13,0.07 -0.2,0.07l-4 0c-0.17,0 -0.32,-0.05 -0.45,-0.16 -0.15,-0.13 -0.2,-0.33 -0.2,-0.52l0 -6.96c0,-0.19 0.05,-0.39 0.2,-0.52 0.13,-0.11 0.28,-0.16 0.45,-0.16l3.98 0c0.07,0 0.14,0.02 0.2,0.06 0.06,0.05 0.1,0.11 0.13,0.18 0.03,0.08 0.05,0.16 0.06,0.24 0.01,0.11 0.02,0.22 0.02,0.33 0,0.11 -0,0.21 -0.02,0.32 -0.01,0.08 -0.03,0.16 -0.06,0.24 -0.03,0.06 -0.06,0.13 -0.12,0.17 -0.06,0.05 -0.13,0.07 -0.2,0.07l-2.68 0 -0 0zm-15.35 -0.04l0 1.92 0.66 0c0.18,0 0.38,-0.02 0.55,-0.08 0.14,-0.04 0.27,-0.11 0.38,-0.2 0.1,-0.08 0.17,-0.18 0.21,-0.3 0.05,-0.13 0.07,-0.27 0.07,-0.4 0,-0.2 -0.04,-0.4 -0.15,-0.57 -0.11,-0.17 -0.3,-0.26 -0.49,-0.31 -0.08,-0.02 -0.17,-0.03 -0.26,-0.04 -0.14,-0.02 -0.28,-0.02 -0.42,-0.02l-0.56 0 -0 0z"/>
   <path class="fil7" d="M72.6 15.1l-1.99 5.6c-0.02,0.07 -0.06,0.14 -0.12,0.2 -0.06,0.06 -0.14,0.1 -0.22,0.12 -0.09,0.03 -0.19,0.04 -0.28,0.05 -0.12,0.01 -0.25,0.01 -0.37,0.01 -0.12,0 -0.25,-0 -0.38,-0.02 -0.1,-0.01 -0.19,-0.03 -0.28,-0.06 -0.07,-0.03 -0.14,-0.06 -0.2,-0.11 -0.06,-0.06 -0.1,-0.12 -0.12,-0.19l-1.91 -5.57 0 5.53c0,0.07 -0.02,0.15 -0.06,0.21 -0.05,0.07 -0.13,0.11 -0.21,0.14 -0.09,0.03 -0.18,0.04 -0.27,0.05 -0.13,0.02 -0.26,0.02 -0.39,0.02 -0.13,0 -0.26,-0 -0.39,-0.02 -0.09,-0.01 -0.18,-0.03 -0.27,-0.06 -0.08,-0.03 -0.16,-0.07 -0.21,-0.14 -0.04,-0.06 -0.06,-0.13 -0.06,-0.21l0 -7.11c0,-0.22 0.05,-0.44 0.21,-0.6 0.15,-0.15 0.35,-0.21 0.57,-0.21l1.06 0c0.17,0 0.36,0.01 0.53,0.05 0.15,0.03 0.29,0.09 0.41,0.18 0.12,0.09 0.22,0.21 0.29,0.34 0.08,0.15 0.14,0.31 0.18,0.47l1.58 4.35 1.63 -4.35c0.05,-0.15 0.11,-0.31 0.19,-0.46 0.07,-0.13 0.15,-0.24 0.26,-0.33 0.11,-0.09 0.23,-0.16 0.36,-0.19 0.14,-0.04 0.3,-0.05 0.45,-0.05l1.09 0c0.12,0 0.24,0.01 0.34,0.05 0.1,0.03 0.19,0.09 0.27,0.17 0.07,0.07 0.12,0.16 0.15,0.26 0.04,0.11 0.05,0.22 0.05,0.33l0 7.11c0,0.07 -0.02,0.15 -0.06,0.21 -0.05,0.07 -0.13,0.11 -0.21,0.14 -0.09,0.03 -0.18,0.04 -0.27,0.06 -0.13,0.02 -0.27,0.02 -0.4,0.02 -0.13,0 -0.26,-0 -0.39,-0.02 -0.09,-0.01 -0.18,-0.03 -0.27,-0.06 -0.08,-0.03 -0.15,-0.07 -0.2,-0.14 -0.05,-0.06 -0.07,-0.13 -0.07,-0.21l0 -5.56 -0 -0zm5.24 -0.76l0 1.61 2.23 0c0.07,0 0.15,0.02 0.2,0.07 0.06,0.04 0.1,0.1 0.13,0.17 0.03,0.07 0.05,0.16 0.06,0.24 0.01,0.1 0.02,0.21 0.02,0.31 0,0.11 -0,0.21 -0.02,0.32 -0.01,0.08 -0.03,0.16 -0.06,0.23 -0.03,0.07 -0.08,0.14 -0.14,0.17 -0.05,0.04 -0.12,0.06 -0.19,0.06l-2.23 0 0 1.91 2.7 0c0.07,0 0.15,0.02 0.2,0.07 0.06,0.04 0.1,0.11 0.13,0.18 0.03,0.07 0.05,0.16 0.06,0.24 0.01,0.11 0.02,0.21 0.02,0.32 0,0.11 -0,0.22 -0.02,0.32 -0.01,0.08 -0.03,0.16 -0.06,0.24 -0.03,0.07 -0.07,0.13 -0.13,0.18 -0.06,0.04 -0.13,0.07 -0.2,0.07l-4 0c-0.17,0 -0.32,-0.05 -0.45,-0.16 -0.15,-0.13 -0.2,-0.33 -0.2,-0.52l0 -6.96c0,-0.19 0.05,-0.39 0.2,-0.52 0.13,-0.11 0.28,-0.16 0.45,-0.16l3.98 0c0.07,0 0.14,0.02 0.2,0.06 0.06,0.05 0.1,0.11 0.13,0.18 0.03,0.08 0.05,0.16 0.06,0.24 0.01,0.11 0.02,0.22 0.02,0.33 0,0.11 -0,0.21 -0.02,0.32 -0.01,0.08 -0.03,0.16 -0.06,0.24 -0.03,0.06 -0.06,0.13 -0.12,0.17 -0.06,0.05 -0.13,0.07 -0.2,0.07l-2.68 0 -0 0zm8.72 2.85c0.02,0.01 0.04,0.03 0.06,0.04 0.12,0.1 0.23,0.21 0.32,0.33 0.11,0.13 0.2,0.28 0.28,0.43 0.09,0.17 0.17,0.35 0.25,0.53l0.67 1.58c0.05,0.12 0.1,0.25 0.13,0.36 0.02,0.07 0.04,0.14 0.04,0.21 0,0.07 -0.01,0.13 -0.04,0.19 -0.04,0.08 -0.12,0.13 -0.21,0.16 -0.1,0.03 -0.21,0.04 -0.31,0.05 -0.16,0.01 -0.33,0.01 -0.5,0.01 -0.14,0 -0.29,-0 -0.43,-0.01 -0.1,-0.01 -0.2,-0.02 -0.29,-0.06 -0.08,-0.03 -0.15,-0.07 -0.2,-0.15 -0.03,-0.05 -0.06,-0.11 -0.08,-0.16l-0.72 -1.78c-0.07,-0.18 -0.16,-0.35 -0.25,-0.53 -0.07,-0.13 -0.15,-0.25 -0.25,-0.35 -0.08,-0.09 -0.18,-0.15 -0.29,-0.2 -0.12,-0.05 -0.26,-0.07 -0.39,-0.07l-0.34 0 0 2.88c0,0.08 -0.03,0.16 -0.08,0.22 -0.05,0.06 -0.13,0.11 -0.21,0.13 -0.09,0.03 -0.19,0.04 -0.28,0.05 -0.14,0.02 -0.28,0.02 -0.41,0.02 -0.14,0 -0.28,-0 -0.41,-0.02 -0.09,-0.01 -0.19,-0.03 -0.28,-0.05 -0.08,-0.03 -0.16,-0.07 -0.21,-0.14 -0.05,-0.06 -0.07,-0.13 -0.07,-0.21l0 -7.25c0,-0.19 0.05,-0.39 0.2,-0.52 0.13,-0.11 0.28,-0.16 0.45,-0.16l2.07 0c0.18,0 0.35,0 0.53,0.01 0.13,0.01 0.25,0.02 0.38,0.03 0.31,0.05 0.62,0.12 0.91,0.25 0.26,0.11 0.5,0.27 0.71,0.47 0.2,0.2 0.35,0.43 0.45,0.69 0.11,0.29 0.15,0.6 0.15,0.9 0,0.26 -0.03,0.53 -0.11,0.78 -0.07,0.23 -0.18,0.45 -0.33,0.64 -0.15,0.19 -0.32,0.35 -0.53,0.49 -0.12,0.08 -0.24,0.14 -0.37,0.2l0.01 -0zm4.57 3.47c0,0.08 -0.03,0.16 -0.08,0.22 -0.05,0.06 -0.13,0.1 -0.21,0.13 -0.09,0.03 -0.19,0.04 -0.28,0.05 -0.14,0.02 -0.28,0.02 -0.42,0.02 -0.14,0 -0.28,-0 -0.41,-0.02 -0.09,-0.01 -0.19,-0.03 -0.28,-0.05 -0.08,-0.03 -0.15,-0.07 -0.21,-0.13 -0.05,-0.06 -0.08,-0.14 -0.08,-0.22l0 -7.54c0,-0.08 0.03,-0.15 0.08,-0.22 0.06,-0.06 0.13,-0.11 0.21,-0.13 0.09,-0.03 0.19,-0.04 0.28,-0.05 0.13,-0.02 0.27,-0.02 0.41,-0.02 0.14,0 0.28,0 0.42,0.02 0.09,0.01 0.19,0.03 0.28,0.06 0.08,0.03 0.15,0.07 0.21,0.13 0.05,0.06 0.08,0.14 0.08,0.22l0 7.54zm8.37 -3.89c0,0.65 -0.07,1.32 -0.3,1.94 -0.19,0.51 -0.47,0.97 -0.87,1.34 -0.39,0.36 -0.86,0.61 -1.37,0.76 -0.6,0.18 -1.25,0.24 -1.88,0.24l-1.9 0c-0.17,0 -0.32,-0.05 -0.45,-0.16 -0.15,-0.13 -0.2,-0.33 -0.2,-0.52l0 -6.96c0,-0.19 0.05,-0.39 0.2,-0.52 0.13,-0.11 0.28,-0.16 0.45,-0.16l2.05 0c0.62,0 1.27,0.06 1.86,0.26 0.49,0.16 0.94,0.42 1.32,0.78 0.37,0.36 0.64,0.79 0.82,1.28 0.2,0.55 0.28,1.14 0.28,1.73l-0 0zm2.96 3.89c0,0.08 -0.03,0.16 -0.08,0.22 -0.05,0.06 -0.13,0.1 -0.21,0.13 -0.09,0.03 -0.19,0.04 -0.28,0.05 -0.14,0.02 -0.28,0.02 -0.42,0.02 -0.14,0 -0.28,-0 -0.41,-0.02 -0.09,-0.01 -0.19,-0.03 -0.28,-0.05 -0.08,-0.03 -0.15,-0.07 -0.21,-0.13 -0.05,-0.06 -0.08,-0.14 -0.08,-0.22l0 -7.54c0,-0.08 0.03,-0.15 0.08,-0.22 0.06,-0.06 0.13,-0.11 0.21,-0.13 0.09,-0.03 0.19,-0.04 0.28,-0.05 0.13,-0.02 0.27,-0.02 0.41,-0.02 0.14,0 0.28,0 0.42,0.02 0.09,0.01 0.19,0.03 0.28,0.06 0.08,0.03 0.15,0.07 0.21,0.13 0.05,0.06 0.08,0.14 0.08,0.22l0 7.54zm5.84 -1.43l-2.77 0 -0.46 1.44c-0.02,0.07 -0.05,0.14 -0.09,0.19 -0.05,0.07 -0.12,0.12 -0.21,0.15 -0.09,0.04 -0.2,0.05 -0.3,0.06 -0.15,0.01 -0.3,0.01 -0.44,0.01 -0.15,0 -0.31,-0 -0.46,-0.02 -0.12,-0.01 -0.25,-0.05 -0.33,-0.15 -0.08,-0.1 -0.1,-0.21 -0.08,-0.34 0.02,-0.12 0.06,-0.26 0.1,-0.38l2.46 -7.08c0.03,-0.08 0.06,-0.15 0.11,-0.21 0.06,-0.08 0.14,-0.13 0.24,-0.16 0.11,-0.03 0.23,-0.05 0.34,-0.05 0.17,-0.01 0.34,-0.01 0.51,-0.01 0.19,0 0.39,0 0.59,0.01 0.12,0.01 0.26,0.02 0.38,0.05 0.1,0.03 0.19,0.07 0.26,0.16 0.05,0.07 0.09,0.16 0.12,0.24l2.47 7.07c0.04,0.12 0.08,0.26 0.1,0.38 0.02,0.12 -0,0.25 -0.1,0.34 -0.09,0.09 -0.22,0.12 -0.34,0.13 -0.16,0.01 -0.33,0.02 -0.49,0.02 -0.17,0 -0.33,0 -0.5,-0.01 -0.1,-0.01 -0.21,-0.02 -0.31,-0.04 -0.08,-0.02 -0.16,-0.07 -0.21,-0.14 -0.04,-0.05 -0.07,-0.12 -0.09,-0.18l-0.48 -1.48 0 0zm5 -3.68c0,0 0,0.01 0,0.01 0.01,0.3 0.01,0.61 0.01,0.91l0 4.18c0,0.07 -0.02,0.15 -0.06,0.21 -0.05,0.07 -0.12,0.11 -0.19,0.14 -0.08,0.03 -0.18,0.05 -0.27,0.06 -0.13,0.02 -0.26,0.02 -0.39,0.02 -0.13,0 -0.26,-0 -0.38,-0.02 -0.09,-0.01 -0.18,-0.03 -0.26,-0.06 -0.07,-0.03 -0.15,-0.08 -0.19,-0.15 -0.04,-0.06 -0.06,-0.13 -0.06,-0.2l0 -7.17c0,-0.21 0.06,-0.42 0.23,-0.56 0.15,-0.13 0.33,-0.19 0.53,-0.19l0.87 0c0.14,0 0.3,0.01 0.44,0.04 0.12,0.03 0.24,0.09 0.34,0.16 0.11,0.08 0.2,0.19 0.28,0.3 0.09,0.13 0.17,0.28 0.24,0.42l1.55 2.92c0.09,0.17 0.18,0.35 0.27,0.52 0.09,0.17 0.17,0.34 0.26,0.52 0.04,0.09 0.09,0.18 0.13,0.27 0,-0.03 -0,-0.06 -0,-0.1 -0.01,-0.3 -0.01,-0.6 -0.01,-0.9l0 -3.75c0,-0.08 0.02,-0.15 0.07,-0.21 0.05,-0.06 0.12,-0.11 0.19,-0.14 0.09,-0.04 0.18,-0.05 0.28,-0.06 0.13,-0.01 0.26,-0.02 0.38,-0.02 0.12,0 0.25,0 0.37,0.02 0.09,0.01 0.19,0.03 0.27,0.07 0.07,0.03 0.14,0.08 0.18,0.15 0.04,0.06 0.06,0.13 0.06,0.2l0 7.17c0,0.11 -0.02,0.22 -0.06,0.32 -0.04,0.1 -0.1,0.18 -0.18,0.24 -0.07,0.07 -0.16,0.11 -0.26,0.14 -0.09,0.03 -0.18,0.04 -0.28,0.04l-0.69 0c-0.14,0 -0.28,-0.01 -0.42,-0.05 -0.13,-0.04 -0.25,-0.1 -0.35,-0.19 -0.12,-0.1 -0.21,-0.22 -0.29,-0.35 -0.11,-0.17 -0.2,-0.34 -0.29,-0.51l-1.98 -3.73c-0.12,-0.22 -0.23,-0.45 -0.33,-0.67l-0.01 -0zm-29.29 -1.25l0 1.92 0.66 0c0.18,0 0.38,-0.02 0.55,-0.08 0.14,-0.04 0.27,-0.11 0.38,-0.2 0.1,-0.08 0.17,-0.18 0.21,-0.3 0.05,-0.13 0.07,-0.27 0.07,-0.4 0,-0.2 -0.04,-0.4 -0.15,-0.57 -0.11,-0.17 -0.3,-0.26 -0.49,-0.31 -0.08,-0.02 -0.17,-0.03 -0.26,-0.04 -0.14,-0.02 -0.28,-0.02 -0.42,-0.02l-0.56 0 -0 0zm10.48 0.04l0 5.08 0.68 0c0.35,0 0.73,-0.04 1.06,-0.16 0.27,-0.1 0.5,-0.26 0.7,-0.47 0.2,-0.23 0.33,-0.51 0.42,-0.8 0.11,-0.37 0.14,-0.77 0.14,-1.16 0,-0.34 -0.04,-0.68 -0.13,-1.01 -0.08,-0.29 -0.2,-0.55 -0.39,-0.78 -0.19,-0.23 -0.42,-0.39 -0.69,-0.51 -0.34,-0.15 -0.77,-0.19 -1.14,-0.19l-0.65 0 0 0zm12.41 0.6l-0.88 2.7 1.78 0 -0.89 -2.7z"/>
  </g>
 </g>
 <g id="Layer_x0020_1_0">
  <metadata id="CorelCorpID_1Corel-Layer"/>
  <path class="fil8" d="M35.15 28.97l1.36 0c1.26,0 2.07,-0.83 2.07,-2.07 0,-1.25 -0.82,-2.07 -2.07,-2.07l-1.36 0 0 4.14zm0.54 -0.5l0 -3.14 0.82 0c0.91,0 1.5,0.61 1.5,1.57 0,0.96 -0.58,1.57 -1.5,1.57l-0.82 0zm4.89 0.57c0.61,0 1.09,-0.33 1.28,-0.74l-0.43 -0.22c-0.17,0.29 -0.44,0.49 -0.84,0.49 -0.51,0 -0.93,-0.36 -0.96,-0.94l2.29 0c0.02,-0.09 0.03,-0.19 0.03,-0.28 0,-0.74 -0.52,-1.44 -1.41,-1.44 -0.83,0 -1.46,0.66 -1.46,1.56 0,0.9 0.64,1.57 1.5,1.57zm-0.04 -2.67c0.46,0 0.83,0.33 0.84,0.81l-1.75 0c0.07,-0.51 0.45,-0.81 0.9,-0.81zm2.86 2.6l0.49 0 1.18 -3 -0.58 0 -0.84 2.27 -0.84 -2.27 -0.58 0 1.17 3zm3.45 0.07c0.61,0 1.09,-0.33 1.28,-0.74l-0.43 -0.22c-0.17,0.29 -0.44,0.49 -0.84,0.49 -0.51,0 -0.93,-0.36 -0.96,-0.94l2.29 0c0.02,-0.09 0.03,-0.19 0.03,-0.28 0,-0.74 -0.52,-1.44 -1.41,-1.44 -0.83,0 -1.46,0.66 -1.46,1.56 0,0.9 0.64,1.57 1.5,1.57zm-0.04 -2.67c0.46,0 0.83,0.33 0.84,0.81l-1.75 0c0.07,-0.51 0.45,-0.81 0.9,-0.81zm2.08 2.6l0.52 0 0 -4.21 -0.52 0 0 4.21zm2.74 0.07c0.84,0 1.54,-0.65 1.54,-1.57 0,-0.9 -0.67,-1.56 -1.54,-1.56 -0.88,0 -1.55,0.67 -1.55,1.56 0,0.91 0.68,1.57 1.55,1.57zm0 -0.5c-0.57,0 -1,-0.46 -1,-1.07 0,-0.61 0.43,-1.06 1,-1.06 0.56,0 0.99,0.46 0.99,1.06 0,0.61 -0.43,1.07 -0.99,1.07zm2.21 1.55l0.52 0 0 -1.53c0.23,0.31 0.61,0.48 1.03,0.48 0.86,0 1.49,-0.67 1.49,-1.56 0,-0.89 -0.63,-1.57 -1.48,-1.57 -0.45,0 -0.82,0.18 -1.05,0.49l0 -0.42 -0.51 0 0 4.11zm1.51 -1.55c-0.56,0 -0.99,-0.46 -0.99,-1.06 0,-0.61 0.43,-1.07 0.99,-1.07 0.56,0 0.98,0.46 0.98,1.07 0,0.61 -0.41,1.06 -0.98,1.06zm4.39 0.47c0.08,0 0.22,-0.01 0.31,-0.03l0 -0.46c-0.07,0.01 -0.15,0.02 -0.21,0.02 -0.37,0 -0.5,-0.19 -0.5,-0.5l0 -1.56 0.67 0 0 -0.49 -0.67 0 0 -0.69 -0.52 0 0 0.24c0,0.27 -0.17,0.44 -0.43,0.44l-0.11 0 0 0.49 0.54 0 0 1.58c0,0.61 0.33,0.96 0.91,0.96zm0.98 -0.03l0.52 0 0 -1.77c0,-0.49 0.31,-0.79 0.73,-0.79 0.42,0 0.72,0.29 0.72,0.79l0 1.77 0.52 0 0 -1.94c0,-0.64 -0.48,-1.12 -1.12,-1.12 -0.36,0 -0.67,0.15 -0.84,0.42l0 -1.56 -0.52 0 0 4.21zm4.6 0.07c0.61,0 1.09,-0.33 1.28,-0.74l-0.43 -0.22c-0.17,0.29 -0.44,0.49 -0.84,0.49 -0.51,0 -0.93,-0.36 -0.96,-0.94l2.29 0c0.02,-0.09 0.03,-0.19 0.03,-0.28 0,-0.74 -0.52,-1.44 -1.41,-1.44 -0.83,0 -1.46,0.66 -1.46,1.56 0,0.9 0.64,1.57 1.5,1.57zm-0.04 -2.67c0.46,0 0.83,0.33 0.84,0.81l-1.75 0c0.07,-0.51 0.45,-0.81 0.9,-0.81zm3.36 2.6l0.52 0 0 -2.5 0.71 0 0 -0.49 -0.71 0 0 -0.21c0,-0.38 0.24,-0.53 0.58,-0.53 0.04,0 0.14,0.01 0.2,0.02l0 -0.46c-0.07,-0.02 -0.18,-0.03 -0.26,-0.03 -0.58,0 -1.05,0.36 -1.05,1l0 0.21 -0.57 0 0 0.49 0.57 0 0 2.5zm2.95 0.07c0.37,0 0.68,-0.16 0.86,-0.43l0 0.37 0.51 0 0 -3 -0.52 0 0 1.77c0,0.49 -0.3,0.79 -0.72,0.79 -0.43,0 -0.72,-0.29 -0.72,-0.74l0 -1.82 -0.52 0 0 1.87c0,0.71 0.47,1.19 1.12,1.19zm3.38 -0.03c0.08,0 0.22,-0.01 0.31,-0.03l0 -0.46c-0.07,0.01 -0.15,0.02 -0.21,0.02 -0.37,0 -0.5,-0.19 -0.5,-0.5l0 -1.56 0.67 0 0 -0.49 -0.67 0 0 -0.69 -0.52 0 0 0.24c0,0.27 -0.17,0.44 -0.43,0.44l-0.11 0 0 0.49 0.54 0 0 1.58c0,0.61 0.33,0.96 0.91,0.96zm2.05 0.03c0.37,0 0.68,-0.16 0.86,-0.43l0 0.37 0.51 0 0 -3 -0.52 0 0 1.77c0,0.49 -0.3,0.79 -0.72,0.79 -0.43,0 -0.72,-0.29 -0.72,-0.74l0 -1.82 -0.52 0 0 1.87c0,0.71 0.47,1.19 1.12,1.19zm2.16 -0.07l0.52 0 0 -1.78c0,-0.48 0.28,-0.76 0.71,-0.76l0.26 0 0 -0.49 -0.18 0c-0.37,0 -0.64,0.13 -0.79,0.39l0 -0.36 -0.51 0 0 3zm3.32 0.07c0.61,0 1.09,-0.33 1.28,-0.74l-0.43 -0.22c-0.17,0.29 -0.44,0.49 -0.84,0.49 -0.51,0 -0.93,-0.36 -0.96,-0.94l2.29 0c0.02,-0.09 0.03,-0.19 0.03,-0.28 0,-0.74 -0.52,-1.44 -1.41,-1.44 -0.83,0 -1.46,0.66 -1.46,1.56 0,0.9 0.64,1.57 1.5,1.57zm-0.04 -2.67c0.46,0 0.83,0.33 0.84,0.81l-1.75 0c0.07,-0.51 0.45,-0.81 0.9,-0.81zm3.73 2.6l0.49 0 0.71 -2.26 0.71 2.26 0.49 0 1.03 -3 -0.57 0 -0.72 2.2 -0.7 -2.2 -0.49 0 -0.7 2.2 -0.72 -2.2 -0.57 0 1.03 3zm3.9 -3.47l0.52 0 0 -0.67 -0.52 0 0 0.67zm0 3.47l0.52 0 0 -3 -0.52 0 0 3zm2.53 0.03c0.08,0 0.22,-0.01 0.31,-0.03l0 -0.46c-0.07,0.01 -0.15,0.02 -0.21,0.02 -0.37,0 -0.5,-0.19 -0.5,-0.5l0 -1.56 0.67 0 0 -0.49 -0.67 0 0 -0.69 -0.52 0 0 0.24c0,0.27 -0.17,0.44 -0.43,0.44l-0.11 0 0 0.49 0.54 0 0 1.58c0,0.61 0.33,0.96 0.91,0.96zm0.98 -0.03l0.52 0 0 -1.77c0,-0.49 0.31,-0.79 0.73,-0.79 0.42,0 0.72,0.29 0.72,0.79l0 1.77 0.52 0 0 -1.94c0,-0.64 -0.48,-1.12 -1.12,-1.12 -0.36,0 -0.67,0.15 -0.84,0.42l0 -1.56 -0.52 0 0 4.21zm5.26 0.07c0.64,0 1.09,-0.36 1.09,-0.87 0,-0.41 -0.29,-0.72 -0.77,-0.86l-0.49 -0.14c-0.18,-0.05 -0.41,-0.14 -0.41,-0.4 0,-0.23 0.19,-0.4 0.49,-0.4 0.33,0 0.62,0.19 0.75,0.51l0.42 -0.19c-0.18,-0.48 -0.63,-0.76 -1.16,-0.76 -0.59,0 -1.04,0.35 -1.04,0.88 0,0.39 0.24,0.69 0.78,0.84l0.45 0.13c0.18,0.05 0.45,0.15 0.45,0.41 0,0.26 -0.24,0.42 -0.57,0.42 -0.36,0 -0.67,-0.22 -0.84,-0.58l-0.41 0.2c0.18,0.51 0.66,0.82 1.26,0.82zm1.77 -0.07l0.52 0 0 -1.77c0,-0.49 0.3,-0.79 0.7,-0.79 0.41,0 0.69,0.29 0.69,0.79l0 1.77 0.52 0 0 -1.77c0,-0.49 0.29,-0.79 0.7,-0.79 0.4,0 0.69,0.29 0.69,0.79l0 1.77 0.52 0 0 -1.94c0,-0.64 -0.5,-1.12 -1.12,-1.12 -0.39,0 -0.74,0.19 -0.94,0.54 -0.18,-0.33 -0.53,-0.54 -0.94,-0.54 -0.36,0 -0.66,0.16 -0.83,0.44l0 -0.37 -0.51 0 0 3zm5.95 0.07c0.44,0 0.8,-0.18 1.01,-0.46l0 0.39 0.51 0 0 -2.03c0,-0.61 -0.48,-1.03 -1.16,-1.03 -0.53,0 -1.04,0.31 -1.21,0.72l0.45 0.23c0.12,-0.28 0.39,-0.48 0.74,-0.48 0.39,0 0.66,0.23 0.66,0.55l0 0.14 -1.02 0.17c-0.68,0.11 -0.98,0.47 -0.98,0.94 0,0.51 0.41,0.85 1,0.85zm-0.46 -0.87c0,-0.26 0.16,-0.44 0.55,-0.51l0.91 -0.15 0 0.19c0,0.51 -0.38,0.9 -0.94,0.9 -0.3,0 -0.52,-0.18 -0.52,-0.43zm2.77 0.8l0.52 0 0 -1.78c0,-0.48 0.28,-0.76 0.71,-0.76l0.26 0 0 -0.49 -0.18 0c-0.37,0 -0.64,0.13 -0.79,0.39l0 -0.36 -0.51 0 0 3zm3.19 0.03c0.08,0 0.22,-0.01 0.31,-0.03l0 -0.46c-0.07,0.01 -0.15,0.02 -0.21,0.02 -0.37,0 -0.5,-0.19 -0.5,-0.5l0 -1.56 0.67 0 0 -0.49 -0.67 0 0 -0.69 -0.52 0 0 0.24c0,0.27 -0.17,0.44 -0.43,0.44l-0.11 0 0 0.49 0.54 0 0 1.58c0,0.61 0.33,0.96 0.91,0.96zm1.61 -0.03l0.58 0 0.34 -0.97 1.77 0 0.34 0.97 0.58 0 -1.48 -4.14 -0.64 0 -1.48 4.14zm1.09 -1.47l0.71 -2.05 0.71 2.05 -1.42 0zm3.04 1.47l0.54 0 0 -4.14 -0.54 0 0 4.14z"/>
 </g>
</svg>
