<svg width="64" height="64" viewBox="0 0 64 64" fill="none" xmlns="http://www.w3.org/2000/svg">
<g clip-path="url(#clip0_2_557)">
<path d="M40.3482 20.8794H42.2876L47.8149 15.3521L48.0864 13.0054C44.92 10.2107 41.0935 8.26925 36.9682 7.36456C32.8429 6.45987 28.555 6.62178 24.5097 7.83499C20.4644 9.0482 16.7951 11.2727 13.8485 14.2982C10.9019 17.3238 8.77524 21.0506 7.66943 25.1266C8.2852 24.8742 8.9673 24.8333 9.60883 25.0103L20.6634 23.1872C20.6634 23.1872 21.2258 22.2563 21.5167 22.3145C23.8853 19.7131 27.1587 18.1155 30.6668 17.8487C34.1748 17.5819 37.6522 18.6661 40.387 20.8794H40.3482Z" fill="#EA4335"/>
<path d="M55.6887 25.1267C54.4182 20.4481 51.8097 16.2422 48.1832 13.0248L40.4256 20.7824C42.0424 22.1035 43.3381 23.7744 44.2149 25.6692C45.0918 27.564 45.5269 29.6331 45.4875 31.7206V33.0976C46.3941 33.0976 47.2919 33.2762 48.1296 33.6231C48.9673 33.9701 49.7284 34.4787 50.3695 35.1198C51.0106 35.7609 51.5192 36.522 51.8661 37.3597C52.2131 38.1973 52.3917 39.0951 52.3917 40.0018C52.3917 40.9085 52.2131 41.8063 51.8661 42.644C51.5192 43.4816 51.0106 44.2427 50.3695 44.8838C49.7284 45.525 48.9673 46.0335 48.1296 46.3805C47.2919 46.7275 46.3941 46.9061 45.4875 46.9061H31.679L30.302 48.3024V56.5836L31.679 57.9606H45.4875C49.3434 57.9906 53.1067 56.7787 56.2205 54.5042C59.3343 52.2296 61.6333 49.0132 62.7774 45.3307C63.9215 41.6483 63.8499 37.6954 62.5733 34.0568C61.2967 30.4181 58.8828 27.287 55.6887 25.1267Z" fill="#4285F4"/>
<path d="M17.8512 57.883H31.6597V46.8285H17.8512C16.8674 46.8282 15.8952 46.6166 15.0003 46.2079L13.0609 46.8091L7.49486 52.3363L7.01001 54.2757C10.1313 56.6327 13.94 57.9 17.8512 57.883Z" fill="#34A853"/>
<path d="M17.8515 22.0238C14.1101 22.0461 10.469 23.2365 7.43695 25.4286C4.40487 27.6207 2.13315 30.7051 0.939096 34.2509C-0.25496 37.7968 -0.311724 41.627 0.776731 45.2067C1.86519 48.7864 4.04451 51.9368 7.0103 54.2177L15.02 46.208C14.0021 45.7482 13.111 45.0482 12.4232 44.1683C11.7353 43.2883 11.2711 42.2546 11.0706 41.1558C10.8701 40.057 10.9391 38.926 11.2718 37.8597C11.6044 36.7935 12.1908 35.8239 12.9806 35.0341C13.7704 34.2443 14.74 33.6579 15.8062 33.3253C16.8725 32.9926 18.0035 32.9236 19.1023 33.1241C20.2011 33.3246 21.2348 33.7888 22.1148 34.4766C22.9947 35.1645 23.6947 36.0556 24.1545 37.0735L32.1642 29.0638C30.4831 26.866 28.3163 25.0869 25.8333 23.8656C23.3504 22.6443 20.6186 22.0139 17.8515 22.0238Z" fill="#FBBC05"/>
</g>
<defs>
<clipPath id="clip0_2_557">
<rect width="64" height="50.4242" fill="white" transform="translate(0 6.78787)"/>
</clipPath>
</defs>
</svg>
