<?xml version="1.0" encoding="UTF-8"?>
<!DOCTYPE svg PUBLIC "-//W3C//DTD SVG 1.1//EN" "http://www.w3.org/Graphics/SVG/1.1/DTD/svg11.dtd">
<!-- Creator: CorelDRAW (OEM Version) -->
<svg xmlns="http://www.w3.org/2000/svg" xml:space="preserve" width="10.5174in" height="1.12105in" version="1.1" style="shape-rendering:geometricPrecision; text-rendering:geometricPrecision; image-rendering:optimizeQuality; fill-rule:evenodd; clip-rule:evenodd"
viewBox="0 0 3896.18 415.29"
 xmlns:xlink="http://www.w3.org/1999/xlink"
 xmlns:xodm="http://www.corel.com/coreldraw/odm/2003">
 <defs>
  <style type="text/css">
   <![CDATA[
    .fil0 {fill:#373435}
   ]]>
  </style>
 </defs>
 <g id="Layer_x0020_1">
  <metadata id="CorelCorpID_0Corel-Layer"/>
  <path class="fil0" d="M3433.82 256.31l-171.1 0 0 -19.12c0,-1.93 -1.09,-3.57 -2.86,-4.33 -1.77,-0.76 -3.71,-0.41 -5.11,0.92l-16.56 15.74 -20.93 19.89c-0.97,0.92 -1.47,2.08 -1.47,3.42 0,1.34 0.5,2.5 1.47,3.42l20.93 19.89 16.56 15.74c1.39,1.33 3.34,1.68 5.11,0.92 1.77,-0.76 2.86,-2.41 2.86,-4.34l0 -19.11 171.1 0c2.59,0 4.72,-2.12 4.72,-4.72l0 -23.59c0,-2.6 -2.12,-4.72 -4.72,-4.72zm-213.3 -130.34l171.1 0 0 -19.12c0,-1.93 1.09,-3.57 2.86,-4.34 1.77,-0.76 3.71,-0.41 5.11,0.92l16.56 15.74 20.93 19.89c0.97,0.92 1.47,2.08 1.47,3.42 0,1.34 -0.5,2.5 -1.47,3.42l-20.93 19.89 -16.56 15.74c-1.39,1.33 -3.34,1.68 -5.11,0.92 -1.77,-0.76 -2.86,-2.41 -2.86,-4.33l0 -19.11 -171.1 0c-2.59,0 -4.72,-2.12 -4.72,-4.72l0 -23.59c0,-2.6 2.12,-4.72 4.72,-4.72zm-678.17 130.34l-171.1 0 0 -19.12c0,-1.93 -1.09,-3.57 -2.86,-4.33 -1.77,-0.76 -3.71,-0.41 -5.11,0.92l-16.56 15.74 -20.93 19.89c-0.97,0.92 -1.47,2.08 -1.47,3.42 0,1.34 0.5,2.5 1.47,3.42l20.93 19.89 16.56 15.74c1.39,1.33 3.34,1.68 5.11,0.92 1.77,-0.76 2.86,-2.41 2.86,-4.34l0 -19.11 171.1 0c2.59,0 4.72,-2.12 4.72,-4.72l0 -23.59c0,-2.6 -2.12,-4.72 -4.72,-4.72zm-213.3 -130.34l171.1 0 0 -19.12c0,-1.93 1.09,-3.57 2.86,-4.34 1.77,-0.76 3.71,-0.41 5.11,0.92l16.56 15.74 20.93 19.89c0.97,0.92 1.47,2.08 1.47,3.42 0,1.34 -0.5,2.5 -1.47,3.42l-20.93 19.89 -16.56 15.74c-1.39,1.33 -3.34,1.68 -5.11,0.92 -1.77,-0.76 -2.86,-2.41 -2.86,-4.33l0 -19.11 -171.1 0c-2.59,0 -4.72,-2.12 -4.72,-4.72l0 -23.59c0,-2.6 2.12,-4.72 4.72,-4.72zm-723.45 130.34l-171.1 0 0 -19.12c0,-1.93 -1.09,-3.57 -2.86,-4.33 -1.77,-0.76 -3.71,-0.41 -5.11,0.92l-16.56 15.74 -20.93 19.89c-0.97,0.92 -1.47,2.08 -1.47,3.42 0,1.34 0.5,2.5 1.47,3.42l20.93 19.89 16.56 15.74c1.39,1.33 3.34,1.68 5.11,0.92 1.77,-0.76 2.86,-2.41 2.86,-4.34l0 -19.11 171.1 0c2.59,0 4.72,-2.12 4.72,-4.72l0 -23.59c0,-2.6 -2.12,-4.72 -4.72,-4.72zm-213.3 -130.34l171.1 0 0 -19.12c0,-1.93 1.09,-3.57 2.86,-4.34 1.77,-0.76 3.71,-0.41 5.11,0.92l16.56 15.74 20.93 19.89c0.97,0.92 1.47,2.08 1.47,3.42 0,1.34 -0.5,2.5 -1.47,3.42l-20.93 19.89 -16.56 15.74c-1.39,1.33 -3.34,1.68 -5.11,0.92 -1.77,-0.76 -2.86,-2.41 -2.86,-4.33l0 -19.11 -171.1 0c-2.59,0 -4.72,-2.12 -4.72,-4.72l0 -23.59c0,-2.6 2.12,-4.72 4.72,-4.72zm-686.78 130.34l-171.1 0 0 -19.12c0,-1.93 -1.09,-3.57 -2.86,-4.33 -1.77,-0.76 -3.71,-0.41 -5.11,0.92l-16.56 15.74 -20.93 19.89c-0.97,0.92 -1.47,2.08 -1.47,3.42 0,1.34 0.5,2.5 1.47,3.42l20.93 19.89 16.56 15.74c1.39,1.33 3.34,1.68 5.11,0.92 1.77,-0.76 2.86,-2.41 2.86,-4.34l0 -19.11 171.1 0c2.59,0 4.72,-2.12 4.72,-4.72l0 -23.59c0,-2.6 -2.12,-4.72 -4.72,-4.72zm-213.3 -130.34l171.1 0 0 -19.12c0,-1.93 1.09,-3.57 2.86,-4.34 1.77,-0.76 3.71,-0.41 5.11,0.92l16.56 15.74 20.93 19.89c0.97,0.92 1.47,2.08 1.47,3.42 0,1.34 -0.5,2.5 -1.47,3.42l-20.93 19.89 -16.56 15.74c-1.39,1.33 -3.34,1.68 -5.11,0.92 -1.77,-0.76 -2.86,-2.41 -2.86,-4.33l0 -19.11 -171.1 0c-2.59,0 -4.72,-2.12 -4.72,-4.72l0 -23.59c0,-2.6 2.12,-4.72 4.72,-4.72zm-188.42 286.99l14.27 -9.4c6.54,-4.3 8.37,-13.17 4.07,-19.71l-77.84 -118.2c-4.3,-6.54 -13.17,-8.36 -19.72,-4.06l1.02 -0.66 -26.52 -40.28c50.33,-39.1 62.87,-110.98 27.23,-165.12 -37.45,-56.88 -113.93,-72.63 -170.81,-35.18 -56.88,37.45 -72.63,113.93 -35.17,170.81 35.64,54.14 106.63,71.01 162.44,40.23l26.53 40.29 1.02 -0.67c-6.54,4.3 -8.37,13.18 -4.07,19.71l77.83 118.2c4.31,6.55 13.18,8.37 19.72,4.06zm-174.85 -387.34c53.73,3.19 94.7,49.34 91.5,103.07 -3.19,53.73 -49.34,94.7 -103.07,91.5 -53.73,-3.2 -94.7,-49.34 -91.5,-103.07 3.19,-53.73 49.34,-94.7 103.07,-91.5zm2712.73 241.35l-34.63 -32 34.55 -31.51c5.31,-4.85 -3.12,-16.5 -9.23,-10.73l-40.06 37.86c-1.21,1.14 -1.83,2.64 -1.83,4.38 -0,1.74 0.62,3.24 1.82,4.38l40.12 38.25c5.8,5.53 15.24,-5.11 9.27,-10.63zm11.13 25.66l44.23 -117.18c0.75,-1.98 2.79,-3.32 5.06,-3.32l1.61 0c1.57,0 2.87,0.6 3.73,1.72 0.86,1.12 1.04,2.45 0.53,3.82l-44.23 117.17c-0.75,1.98 -2.79,3.32 -5.06,3.32l-1.61 0c-1.57,0 -2.87,-0.6 -3.73,-1.72 -0.86,-1.12 -1.04,-2.45 -0.53,-3.82zm68.36 -25.66l34.63 -32 -34.55 -31.51c-5.31,-4.85 3.13,-16.5 9.23,-10.73l40.06 37.87c1.21,1.14 1.83,2.64 1.83,4.38 0,1.74 -0.62,3.24 -1.82,4.38l-40.12 38.25c-5.8,5.53 -15.25,-5.11 -9.27,-10.63zm-125.19 -183.9c3.89,0 7.05,3.15 7.05,7.05 0,3.89 -3.15,7.05 -7.05,7.05 -3.89,0 -7.05,-3.16 -7.05,-7.05 0,-3.89 3.15,-7.05 7.05,-7.05zm-21.4 0c3.89,0 7.05,3.15 7.05,7.05 0,3.89 -3.15,7.05 -7.05,7.05 -3.89,0 -7.05,-3.16 -7.05,-7.05 0,-3.89 3.15,-7.05 7.05,-7.05zm-21.4 0c3.89,0 7.05,3.15 7.05,7.05 0,3.89 -3.15,7.05 -7.05,7.05 -3.89,0 -7.05,-3.16 -7.05,-7.05 0,-3.89 3.16,-7.05 7.05,-7.05zm-9.47 -27.38l275.44 0c18.49,0 33.61,15.13 33.61,33.62l0 236.7c0,18.49 -15.13,33.62 -33.61,33.62l-275.44 0c-18.49,0 -33.61,-15.13 -33.61,-33.62l0 -236.7c0,-18.49 15.13,-33.62 33.61,-33.62zm-18.74 68.99l0 201.32c0,10.3 8.44,18.74 18.74,18.74l275.44 0c10.3,0 18.74,-8.44 18.74,-18.74l0 -201.32 -312.92 0zm312.92 -15.01l0 -20.36c0,-10.3 -8.44,-18.74 -18.74,-18.74l-275.44 0c-10.3,0 -18.74,8.44 -18.74,18.74l0 20.36 312.92 0zm-1872.14 179.06c8.38,0 15.18,6.79 15.18,15.18 0,8.38 -6.79,15.17 -15.18,15.17 -8.38,0 -15.17,-6.79 -15.17,-15.17 0,-8.38 6.8,-15.18 15.17,-15.18zm-224.89 20.46c-8.38,0 -15.17,6.79 -15.17,15.17 0,8.38 6.79,15.18 15.17,15.18 8.38,0 15.18,-6.79 15.18,-15.18 0,-8.38 -6.8,-15.17 -15.18,-15.17zm107.85 -57.7l0 82.77c-11.45,2.39 -20.04,11.65 -20.04,24.7 0,13.05 11.3,25.23 25.23,25.23 13.94,0 25.24,-12.18 25.24,-25.23 0,-13.05 -8.59,-22.31 -20.04,-24.7l0 -82.77 43.99 0 0 52.41c0,2.86 2.33,5.19 5.19,5.19l32.77 0c2.39,11.45 11.65,20.05 24.7,20.05 13.05,0 25.23,-11.3 25.23,-25.24 0,-13.94 -12.19,-25.23 -25.23,-25.23 -13.05,0 -22.31,8.59 -24.7,20.04l-27.58 0 0 -47.22 34.25 0 0.06 0 0.06 0 4.57 0c16.73,0 32.02,-6.45 43.52,-16.99 17.44,-14.07 28.61,-35.62 28.61,-59.77 0,-42.39 -34.36,-76.76 -76.76,-76.76 -3.18,0 -6.32,0.2 -9.41,0.58 -16.7,-39.61 -55.88,-67.42 -101.56,-67.42 -54.65,0 -100,39.79 -108.68,91.98 -31.06,4.67 -54.86,31.47 -54.86,63.83 0,35.65 28.9,64.56 64.55,64.56 0.88,0 1.75,-0.02 2.62,-0.06 0.87,0.04 1.74,0.06 2.61,0.06l50.08 0 0 67.68 -27.58 0c-2.39,-11.45 -11.65,-20.04 -24.7,-20.04 -13.05,0 -25.23,11.3 -25.23,25.23 0,13.94 12.19,25.24 25.23,25.24 13.05,0 22.31,-8.6 24.7,-20.04l32.77 0c2.86,0 5.19,-2.33 5.19,-5.19l0 -72.87 33.22 0 0.06 0 0.06 0 11.84 0zm-9.98 107.47c0,8.38 6.79,15.17 15.17,15.17 8.38,0 15.18,-6.79 15.18,-15.17 0,-8.38 -6.8,-15.18 -15.18,-15.18 -8.38,0 -15.17,6.79 -15.17,15.18zm-95.68 -121.01l209.36 0c12.79,0 24.95,-4.81 34.37,-13.43l0.31 -0.29 0.33 -0.26c14.92,-12.07 23.57,-30.03 23.57,-49.24 0,-34.92 -28.3,-63.22 -63.22,-63.22 -2.59,0 -5.19,0.16 -7.76,0.48l-10.15 1.24 -3.97 -9.42c-15.1,-35.83 -50.19,-59.14 -89.09,-59.14 -47.14,0 -87.58,34.13 -95.32,80.66l-1.61 9.7 -9.73 1.46c-24.91,3.75 -43.34,25.27 -43.34,50.44 0,28.18 22.84,51.01 51.01,51.01 0.7,0 1.39,-0.02 2.09,-0.05l0.54 -0.02 0.54 0.02c0.69,0.03 1.38,0.05 2.06,0.05zm979.01 -30.29c0,41.07 -33.29,74.36 -74.36,74.36 -41.07,0 -74.36,-33.29 -74.36,-74.36 0,-41.07 33.29,-74.36 74.36,-74.36 41.07,0 74.36,33.29 74.36,74.36zm-88.3 56.11l20.29 0 0 -46.8 14.98 0 3 -18.9 -17.98 0 0 -14.29c0,-5.3 5.07,-8.3 9.91,-8.3l8.76 0 0 -15.68 -15.68 -0.69c-14.98,-0.92 -23.28,10.83 -23.28,24.9l0 14.06 -17.06 0 0 18.9 17.06 0 0 46.8zm210.8 -172.84c0,41.07 -33.29,74.36 -74.36,74.36 -41.07,0 -74.36,-33.29 -74.36,-74.36 0,-41.07 33.29,-74.36 74.36,-74.36 41.07,0 74.36,33.29 74.36,74.36zm-96.01 -39.21l43.29 0c9.75,0 17.68,7.93 17.68,17.68l0 43.06c0,9.75 -7.93,17.68 -17.68,17.68l-43.29 0c-9.74,0 -17.68,-7.93 -17.68,-17.68l0 -43.06c0,-9.75 7.93,-17.68 17.68,-17.68l0 0zm21.53 22.21l0.22 0c9.29,0 17,7.71 17,17l0 0c0,9.52 -7.71,17.23 -17,17.23l-0.22 0c-9.29,0 -17,-7.71 -17,-17.23l0 0c0,-9.29 7.71,-17 17,-17l0 0zm0 -8.84l0.22 0c14.05,0 25.84,11.78 25.84,25.84l0 0c0,14.28 -11.79,25.84 -25.84,25.84l-0.22 0c-14.05,0 -25.61,-11.56 -25.61,-25.84l0 0c0,-14.05 11.56,-25.84 25.61,-25.84l0 0zm25.61 -4.99l0 0c2.94,0 5.44,2.49 5.44,5.44l0 0c0,2.95 -2.49,5.44 -5.44,5.44l0 0c-3.17,0 -5.44,-2.49 -5.44,-5.44l0 0c0,-2.95 2.27,-5.44 5.44,-5.44l0 0zm-47.37 -16.55l43.74 0c14.05,0 25.61,11.56 25.61,25.61l0 43.51c0,14.05 -11.56,25.61 -25.61,25.61l-43.74 0c-14.05,0 -25.61,-11.56 -25.61,-25.61l0 -43.51c0,-14.05 11.56,-25.61 25.61,-25.61l0 0zm96.23 280.83c0,41.07 -33.29,74.36 -74.36,74.36 -41.07,0 -74.36,-33.29 -74.36,-74.36 0,-41.07 33.29,-74.36 74.36,-74.36 41.07,0 74.36,33.29 74.36,74.36zm-89.05 -14.93l16.54 0 0 7.86c3.52,-5.17 9.3,-8.48 15.92,-8.48l4.55 0c10.54,0 19.02,8.68 19.02,19.02l0 8.48 0 10.13 0 19.23 -16.54 0 0 -0.2 0 -4.96 0 0 0 -25.22 0 0c-0.21,-6.41 -4.55,-11.37 -10.96,-11.37l0 0c-6.41,0 -11.78,4.96 -11.99,11.37l0 0 0 21.91 0 8.48 -16.54 0 0 -56.23zm-18.4 -28.53c5.58,0 10.13,4.55 10.13,10.13 0,5.58 -4.55,10.13 -10.13,10.13 -5.58,0 -9.92,-4.55 -9.92,-10.13 0,-5.58 4.34,-10.13 9.92,-10.13l0 0zm-8.27 28.53l16.75 0 0 56.23 -16.75 0 0 -56.23zm232.45 -101.81c0,41.07 -33.29,74.36 -74.36,74.36 -41.07,0 -74.36,-33.29 -74.36,-74.36 0,-41.07 33.29,-74.36 74.36,-74.36 41.07,0 74.36,33.29 74.36,74.36zm-83.41 3.49l-30.6 33.78 7.68 0 26.38 -29.11 21.56 29.11 23.69 0 -32.21 -43.5 28.05 -30.96 -7.68 0 -23.82 26.29 -19.53 -26.37 -23.69 0 30.18 40.76zm-19.08 -35.49l47.4 64.01 9.64 0 -47.4 -64.01 -9.64 0zm1791.89 -112.35l6.72 0c2.62,0 4.79,2.14 4.83,4.75l0 0c0.05,2.62 -2.05,4.75 -4.67,4.75l-6.72 0c-2.62,0 -4.79,-2.14 -4.83,-4.75l0 -0c-0.04,-2.61 2.06,-4.75 4.67,-4.75zm-54.6 0l34.88 0c2.62,0 4.85,2.14 4.97,4.75l0 0c0.12,2.62 -1.91,4.75 -4.53,4.75l-34.88 0c-2.62,0 -4.85,-2.14 -4.97,-4.75l-0 -0c-0.12,-2.61 1.92,-4.75 4.53,-4.75zm-107.91 0l90.33 0c2.61,0 4.97,2.14 5.24,4.75l0 0c0.27,2.62 -1.64,4.75 -4.26,4.75l-90.33 0c-2.62,0 -4.97,-2.14 -5.24,-4.75l-0 -0c-0.27,-2.61 1.64,-4.75 4.26,-4.75zm-34.22 7.05l-33.22 0c-11.41,0 -20.01,9.34 -19.11,20.75l21.89 276.98c0.9,11.41 10.97,20.75 22.39,20.75l188.92 0c11.41,0 20.01,-9.34 19.11,-20.75l-0.98 -12.41 22.09 0c11.8,0 21.3,-9.65 21.12,-21.45l-4.39 -286.28c-0.18,-11.8 -9.98,-21.45 -21.77,-21.45l-195.26 0c-11.8,0 -21.3,9.65 -21.12,21.45l0.35 22.42zm-14.66 295.5l-21.89 -276.98c-0.14,-1.8 0.47,-2.72 2.32,-2.72l34.47 0 3.8 248.07c0.18,11.8 9.98,21.45 21.78,21.45l157.22 0 1.16 14.65c0.14,1.8 -0.47,2.72 -2.32,2.72l-188.92 0c-3.62,0 -7.34,-3.64 -7.61,-7.19zm34.42 -323.56c-2.59,0 -4.32,1.84 -4.28,4.4l4.39 286.28c0.06,3.55 3.37,6.89 6.95,6.89l195.26 0c2.59,0 4.32,-1.84 4.28,-4.4l-4.39 -286.28c-0.06,-3.55 -3.37,-6.89 -6.96,-6.89l-195.26 0zm14.84 179.47l167.26 0c2.62,0 5.15,2.14 5.63,4.75l0 0c0.48,2.61 -1.26,4.75 -3.88,4.75l-167.26 0c-2.61,0 -5.14,-2.14 -5.63,-4.75l0 -0c-0.48,-2.62 1.26,-4.75 3.88,-4.75zm63.96 -31.69l103.09 0c2.62,0 5,2.14 5.31,4.75l0 0c0.31,2.61 -1.58,4.75 -4.19,4.75l-103.09 0c-2.62,0 -5,-2.14 -5.31,-4.75l-0 -0c-0.31,-2.61 1.58,-4.75 4.19,-4.75zm-62.86 0l46.15 0c2.61,0 4.87,2.14 5.03,4.75l0 0c0.15,2.61 -1.86,4.75 -4.48,4.75l-46.15 0c-2.62,0 -4.88,-2.14 -5.03,-4.75l0 -0c-0.15,-2.61 1.86,-4.75 4.47,-4.75zm161.02 -31.69l6.72 0c2.61,0 4.79,2.14 4.83,4.75l0 0c0.04,2.61 -2.06,4.75 -4.67,4.75l-6.72 0c-2.61,0 -4.79,-2.14 -4.83,-4.75l0 -0c-0.04,-2.62 2.06,-4.75 4.67,-4.75zm-54.6 0l34.88 0c2.62,0 4.85,2.14 4.97,4.75l0 0c0.12,2.61 -1.91,4.75 -4.53,4.75l-34.88 0c-2.62,0 -4.85,-2.14 -4.97,-4.75l0 -0c-0.12,-2.62 1.92,-4.75 4.53,-4.75zm-107.91 0l90.33 0c2.62,0 4.97,2.14 5.25,4.75l0 0c0.27,2.61 -1.64,4.75 -4.26,4.75l-90.33 0c-2.62,0 -4.97,-2.14 -5.24,-4.75l0 -0c-0.27,-2.62 1.64,-4.75 4.26,-4.75zm0.39 -31.69l167.26 0c2.62,0 5.14,2.14 5.63,4.75l0 0c0.48,2.62 -1.26,4.75 -3.88,4.75l-167.26 0c-2.62,0 -5.15,-2.14 -5.63,-4.75l-0 -0c-0.48,-2.62 1.26,-4.75 3.88,-4.75zm63.96 -31.69l103.09 0c2.62,0 5,2.14 5.31,4.75l0 0c0.31,2.61 -1.58,4.75 -4.19,4.75l-103.09 0c-2.61,0 -5,-2.14 -5.31,-4.75l0 -0c-0.31,-2.61 1.58,-4.75 4.19,-4.75zm-62.86 0l46.15 0c2.61,0 4.87,2.14 5.03,4.75l0 0c0.15,2.61 -1.86,4.75 -4.48,4.75l-46.15 0c-2.62,0 -4.87,-2.14 -5.03,-4.75l0 -0c-0.15,-2.61 1.86,-4.75 4.47,-4.75z"/>
 </g>
</svg>
