<?xml version="1.0" encoding="UTF-8"?>
<!DOCTYPE svg PUBLIC "-//W3C//DTD SVG 1.1//EN" "http://www.w3.org/Graphics/SVG/1.1/DTD/svg11.dtd">
<!-- Creator: CorelDRAW (OEM Version) -->
<svg xmlns="http://www.w3.org/2000/svg" xml:space="preserve" width="0.5in" height="0.422236in" version="1.1" style="shape-rendering:geometricPrecision; text-rendering:geometricPrecision; image-rendering:optimizeQuality; fill-rule:evenodd; clip-rule:evenodd"
viewBox="0 0 10.21 8.62"
 xmlns:xlink="http://www.w3.org/1999/xlink"
 xmlns:xodm="http://www.corel.com/coreldraw/odm/2003">
 <defs>
  <style type="text/css">
   <![CDATA[
    .fil0 {fill:#00C4DE}
   ]]>
  </style>
 </defs>
 <g id="Layer_x0020_1">
  <metadata id="CorelCorpID_0Corel-Layer"/>
  <path class="fil0" d="M0.14 3.89l5.07 0 0 -0.64c0,-0.06 0.03,-0.11 0.08,-0.13 0.05,-0.02 0.11,-0.01 0.15,0.03l0.49 0.47 0.62 0.59c0.03,0.03 0.04,0.06 0.04,0.1 0,0.04 -0.01,0.07 -0.04,0.1l-0.62 0.59 -0.49 0.47c-0.04,0.04 -0.1,0.05 -0.15,0.03 -0.05,-0.02 -0.08,-0.07 -0.08,-0.13l0 -0.64 -5.07 0c-0.08,0 -0.14,-0.06 -0.14,-0.14l0 -0.56c0,-0.08 0.06,-0.14 0.14,-0.14zm9.37 4.03l-8.81 0 0 -1.74c0,-0.15 -0.13,-0.28 -0.28,-0.28l-0.14 0c-0.15,0 -0.28,0.13 -0.28,0.28l0 1.75c0,0.38 0.31,0.69 0.69,0.69l8.83 0c0.38,0 0.69,-0.31 0.69,-0.69l0 -7.24c0,-0.38 -0.31,-0.69 -0.69,-0.69l-8.83 0c-0.38,0 -0.69,0.31 -0.69,0.69l0 1.75c0,0.15 0.13,0.28 0.28,0.28l0.14 0c0.15,0 0.28,-0.13 0.28,-0.28l0 -1.74 8.81 0 0 7.22z"/>
 </g>
</svg>
