<?xml version="1.0" encoding="UTF-8"?>
<!DOCTYPE svg PUBLIC "-//W3C//DTD SVG 1.1//EN" "http://www.w3.org/Graphics/SVG/1.1/DTD/svg11.dtd">
<!-- Creator: CorelDRAW (OEM Version) -->
<svg xmlns="http://www.w3.org/2000/svg" xml:space="preserve" width="0.833331in" height="0.413472in" version="1.1" style="shape-rendering:geometricPrecision; text-rendering:geometricPrecision; image-rendering:optimizeQuality; fill-rule:evenodd; clip-rule:evenodd"
viewBox="0 0 44.8 22.23"
 xmlns:xlink="http://www.w3.org/1999/xlink"
 xmlns:xodm="http://www.corel.com/coreldraw/odm/2003">
 <defs>
  <style type="text/css">
   <![CDATA[
    .fil1 {fill:none}
    .fil0 {fill:#00515C;fill-rule:nonzero}
   ]]>
  </style>
   <clipPath id="id0">
    <path d="M-0 22.23l44.8 0 0 -22.23 -44.8 0 0 22.23z"/>
   </clipPath>
 </defs>
 <g id="Layer_x0020_1">
  <metadata id="CorelCorpID_0Corel-Layer"/>
  <g>
  </g>
  <g style="clip-path:url(#id0)">
   <g id="_2135333143552">
    <path class="fil0" d="M0.21 21.87l3.7 0 0 -15.77 -3.7 0 0 15.77zm1.84 -17.84c1.16,0 2.07,-0.89 2.07,-2.01 0,-1.13 -0.91,-2.02 -2.07,-2.02 -1.15,0 -2.05,0.89 -2.05,2.02 0,1.12 0.91,2.01 2.05,2.01zm14.19 -3.99c-6.26,0 -10.19,4.27 -10.19,11.1 0,6.83 3.93,11.08 10.19,11.08 6.25,0 10.18,-4.26 10.18,-11.08 0,-6.83 -3.93,-11.1 -10.18,-11.1zm0 3.27c3.82,0 6.26,3.04 6.26,7.83 0,4.78 -2.44,7.81 -6.26,7.81 -3.84,0 -6.26,-3.04 -6.26,-7.81 0,-4.79 2.43,-7.83 6.26,-7.83zm11.74 12.51c0.16,3.96 3.41,6.4 8.35,6.4 5.19,0 8.47,-2.56 8.47,-6.64 0,-3.2 -1.84,-5 -6.2,-6l-2.47 -0.57c-2.63,-0.63 -3.72,-1.46 -3.72,-2.89 0,-1.79 1.64,-2.98 4.06,-2.98 2.45,0 4.14,1.21 4.31,3.21l3.66 0c-0.09,-3.78 -3.21,-6.34 -7.95,-6.34 -4.67,0 -7.99,2.57 -7.99,6.38 0,3.07 1.87,4.97 5.83,5.88l2.78 0.65c2.71,0.64 3.81,1.53 3.81,3.08 0,1.79 -1.8,3.07 -4.39,3.07 -2.62,0 -4.6,-1.29 -4.84,-3.27l-3.72 0z"/>
   </g>
  </g>
  <polygon class="fil1" points="-0,22.23 44.8,22.23 44.8,0 -0,0 "/>
 </g>
</svg>
