<?xml version="1.0" encoding="UTF-8"?>
<!DOCTYPE svg PUBLIC "-//W3C//DTD SVG 1.1//EN" "http://www.w3.org/Graphics/SVG/1.1/DTD/svg11.dtd">
<!-- Creator: CorelDRAW (OEM Version) -->
<svg xmlns="http://www.w3.org/2000/svg" xml:space="preserve" width="1.2913in" height="1.39802in" version="1.1" style="shape-rendering:geometricPrecision; text-rendering:geometricPrecision; image-rendering:optimizeQuality; fill-rule:evenodd; clip-rule:evenodd"
viewBox="0 0 74.3 80.44"
 xmlns:xlink="http://www.w3.org/1999/xlink"
 xmlns:xodm="http://www.corel.com/coreldraw/odm/2003">
 <defs>
  <style type="text/css">
   <![CDATA[
    .str0 {stroke:#373435;stroke-width:0.4;stroke-miterlimit:2.61313}
    .fil0 {fill:#373435}
   ]]>
  </style>
 </defs>
 <g id="Layer_x0020_1">
  <metadata id="CorelCorpID_0Corel-Layer"/>
  <path class="fil0 str0" d="M37.15 77.82c10.51,-3.8 19.89,-10.16 26.49,-19.27 4.61,-6.36 8.11,-14.62 8.16,-22.58 0.04,-6.47 0.01,-12.96 0.01,-19.43 -7.34,-0.74 -14.49,-2.47 -21.25,-5.5 -4.85,-2.17 -9.19,-4.88 -13.4,-8.04 -4.21,3.16 -8.55,5.87 -13.4,8.04 -6.76,3.03 -13.91,4.76 -21.25,5.5 -0.01,6.48 -0.03,12.96 0.01,19.43 0.05,7.96 3.55,16.22 8.16,22.58 6.6,9.11 15.98,15.47 26.49,19.27zm-0.13 2.4c-26.26,-9.19 -36.74,-30.24 -36.82,-44.23 -0,-0.5 -0,-18.4 -0,-21.2 0,-0.2 0.15,-0.37 0.35,-0.38 18.21,-1.43 29.01,-8.43 36.36,-14.12 0.14,-0.11 0.33,-0.11 0.47,0 7.35,5.69 18.15,12.69 36.36,14.12 0.2,0.02 0.35,0.18 0.35,0.38 0,2.8 -0,20.7 -0,21.2 -0.08,13.99 -10.56,35.04 -36.82,44.23 -0.09,0.03 -0.17,0.03 -0.25,0zm4.77 -35.49l4.13 8.54c0.19,0.39 0.08,0.82 -0.17,1.17 -0.25,0.35 -0.62,0.54 -1.05,0.54l-15.1 0c-0.43,0 -0.8,-0.19 -1.05,-0.54 -0.25,-0.35 -0.36,-0.78 -0.17,-1.17l4.13 -8.54c-3.29,-1.69 -5.55,-5.12 -5.55,-9.08 0,-5.63 4.56,-10.19 10.19,-10.19 5.63,0 10.19,4.56 10.19,10.19 0,3.96 -2.25,7.39 -5.55,9.08zm-11.29 8.31l13.29 0 -4.02 -8.21c-0.28,-0.58 0.06,-1.28 0.63,-1.57l0.5 -0.26c2.76,-1.41 4.49,-4.24 4.49,-7.35 0,-4.56 -3.69,-8.25 -8.25,-8.25 -4.56,0 -8.25,3.69 -8.25,8.25 0,3.11 1.74,5.93 4.49,7.35l0.5 0.26c0.58,0.3 0.92,0.99 0.63,1.57l-4.02 8.21z"/>
 </g>
</svg>
