<svg width="48" height="64" viewBox="0 0 48 64" fill="none" xmlns="http://www.w3.org/2000/svg">
<g clip-path="url(#clip0_2_270)">
<path d="M15.1931 49.4662C15.1931 49.4662 12.7488 50.8877 16.9327 51.3687C22.0013 51.9469 24.5918 51.864 30.1774 50.8068C30.1774 50.8068 31.6459 51.7276 33.6968 52.5251C21.1753 57.8916 5.35817 52.2143 15.1931 49.4662Z" fill="#5382A1"/>
<path d="M13.663 42.4633C13.663 42.4633 10.9215 44.4926 15.1084 44.9257C20.5229 45.4843 24.7988 45.53 32.1977 44.1052C32.1977 44.1052 33.2211 45.1427 34.8303 45.7101C19.691 50.137 2.82865 46.0592 13.663 42.4633Z" fill="#5382A1"/>
<path d="M26.5618 30.584C29.6471 34.1361 25.7512 37.3326 25.7512 37.3326C25.7512 37.3326 33.5853 33.2884 29.9874 28.2242C26.6271 23.5014 24.0503 21.1549 38.0005 13.0642C38.0005 13.0642 16.1033 18.5331 26.5618 30.584Z" fill="#F8981D"/>
<path d="M43.1225 54.646C43.1225 54.646 44.9313 56.1364 41.1304 57.2894C33.9028 59.4789 11.0485 60.1401 4.69961 57.3767C2.41737 56.3838 6.69723 55.006 8.04351 54.7169C9.44754 54.4124 10.2499 54.4691 10.2499 54.4691C7.71181 52.6811 -6.15528 57.9799 3.2061 59.4974C28.736 63.6376 49.7446 57.633 43.1225 54.646Z" fill="#5382A1"/>
<path d="M16.3683 35.2074C16.3683 35.2074 4.74316 37.9686 12.2516 38.9713C15.4219 39.3957 21.7417 39.2997 27.6286 38.8065C32.4396 38.4006 37.2704 37.5378 37.2704 37.5378C37.2704 37.5378 35.574 38.2643 34.3467 39.1023C22.5415 42.2071 -0.263889 40.7627 6.30149 37.5869C11.8538 34.903 16.3683 35.2074 16.3683 35.2074Z" fill="#5382A1"/>
<path d="M37.2226 46.8642C49.2231 40.6282 43.6746 34.6356 39.8018 35.4429C38.8525 35.6405 38.4293 35.8117 38.4293 35.8117C38.4293 35.8117 38.7817 35.2597 39.4547 35.0207C47.1164 32.3271 53.0087 42.9651 36.9814 47.1784C36.9814 47.1784 37.1671 47.0126 37.2226 46.8642Z" fill="#5382A1"/>
<path d="M29.9873 0C29.9873 0 36.6334 6.64831 23.6838 16.8715C13.2996 25.0723 21.3159 29.7482 23.6795 35.0905C17.6181 29.6216 13.1698 24.8073 16.154 20.3266C20.5342 13.7493 32.6689 10.5604 29.9873 0Z" fill="#F8981D"/>
<path d="M17.5476 63.7621C29.0666 64.4994 46.7553 63.353 47.1742 57.9025C47.1742 57.9025 46.3689 59.9687 37.6544 61.6096C27.8227 63.4598 15.6967 63.2438 8.50464 62.0581C8.50464 62.0581 9.97694 63.2766 17.5476 63.7621Z" fill="#5382A1"/>
</g>
<defs>
<clipPath id="clip0_2_270">
<rect width="47.1696" height="64" fill="white"/>
</clipPath>
</defs>
</svg>
