<?xml version="1.0" encoding="UTF-8"?>
<!DOCTYPE svg PUBLIC "-//W3C//DTD SVG 1.1//EN" "http://www.w3.org/Graphics/SVG/1.1/DTD/svg11.dtd">
<!-- Creator: CorelDRAW (OEM Version) -->
<svg xmlns="http://www.w3.org/2000/svg" xml:space="preserve" width="0.5in" height="0.499996in" version="1.1" style="shape-rendering:geometricPrecision; text-rendering:geometricPrecision; image-rendering:optimizeQuality; fill-rule:evenodd; clip-rule:evenodd"
viewBox="0 0 34.18 34.18"
 xmlns:xlink="http://www.w3.org/1999/xlink"
 xmlns:xodm="http://www.corel.com/coreldraw/odm/2003">
 <defs>
  <style type="text/css">
   <![CDATA[
    .fil0 {fill:#FEFEFE}
   ]]>
  </style>
 </defs>
 <g id="Layer_x0020_1">
  <metadata id="CorelCorpID_0Corel-Layer"/>
  <path class="fil0" d="M34.18 17.09c0,9.44 -7.65,17.09 -17.09,17.09 -9.44,0 -17.09,-7.65 -17.09,-17.09 0,-9.44 7.65,-17.09 17.09,-17.09 9.44,0 17.09,7.65 17.09,17.09zm-26.59 -3.43l3.85 0 0 12.92 -3.85 0 0 -12.92zm1.9 -6.56c1.28,0 2.33,1.05 2.33,2.33 0,1.28 -1.05,2.33 -2.33,2.33 -1.28,0 -2.28,-1.05 -2.28,-2.33 0,-1.28 1,-2.33 2.28,-2.33l0 0zm4.23 6.56l3.8 0 0 1.81c0.81,-1.19 2.14,-1.95 3.66,-1.95l1.05 0c2.42,0 4.37,2 4.37,4.37l0 1.95 0 2.33 0 4.42 -3.8 0 0 -0.05 0 -1.14 0 0 0 -5.8 0 0c-0.05,-1.47 -1.05,-2.61 -2.52,-2.61l0 0c-1.47,0 -2.71,1.14 -2.76,2.61l0 0 0 5.04 0 1.95 -3.8 0 0 -12.92z"/>
 </g>
</svg>
