<?xml version="1.0" encoding="UTF-8"?>
<!DOCTYPE svg PUBLIC "-//W3C//DTD SVG 1.1//EN" "http://www.w3.org/Graphics/SVG/1.1/DTD/svg11.dtd">
<!-- Creator: CorelDRAW (OEM Version) -->
<svg xmlns="http://www.w3.org/2000/svg" xml:space="preserve" width="1.3775in" height="1.8835in" version="1.1" style="shape-rendering:geometricPrecision; text-rendering:geometricPrecision; image-rendering:optimizeQuality; fill-rule:evenodd; clip-rule:evenodd"
viewBox="0 0 83.58 114.28"
 xmlns:xlink="http://www.w3.org/1999/xlink"
 xmlns:xodm="http://www.corel.com/coreldraw/odm/2003">
 <defs>
  <style type="text/css">
   <![CDATA[
    .fil0 {fill:#373435}
   ]]>
  </style>
 </defs>
 <g id="Layer_x0020_1">
  <metadata id="CorelCorpID_0Corel-Layer"/>
  <path class="fil0" d="M26.26 54.89l7.69 0c0.81,0 1.47,0.66 1.47,1.47l0 7.69c0,0.81 -0.66,1.47 -1.47,1.47l-7.69 0c-0.81,0 -1.47,-0.66 -1.47,-1.47l0 -7.69c0,-0.81 0.66,-1.47 1.47,-1.47zm-16.89 0l7.69 0c0.81,0 1.47,0.66 1.47,1.47l0 7.69c0,0.81 -0.66,1.47 -1.47,1.47l-7.69 0c-0.81,0 -1.47,-0.66 -1.47,-1.47l0 -7.69c0,-0.81 0.66,-1.47 1.47,-1.47zm33.77 -17.35l7.69 0c0.81,0 1.47,0.66 1.47,1.47l0 7.69c0,0.81 -0.66,1.47 -1.47,1.47l-7.69 0c-0.81,0 -1.47,-0.66 -1.47,-1.47l0 -7.69c0,-0.81 0.66,-1.47 1.47,-1.47zm-16.89 0l7.69 0c0.81,0 1.47,0.66 1.47,1.47l0 7.69c0,0.81 -0.66,1.47 -1.47,1.47l-7.69 0c-0.81,0 -1.47,-0.66 -1.47,-1.47l0 -7.69c0,-0.81 0.66,-1.47 1.47,-1.47zm-16.89 0l7.69 0c0.81,0 1.47,0.66 1.47,1.47l0 7.69c0,0.81 -0.66,1.47 -1.47,1.47l-7.69 0c-0.81,0 -1.47,-0.66 -1.47,-1.47l0 -7.69c0,-0.81 0.66,-1.47 1.47,-1.47zm33.77 -17.81l7.69 0c0.81,0 1.47,0.66 1.47,1.47l0 7.69c0,0.81 -0.66,1.47 -1.47,1.47l-7.69 0c-0.81,0 -1.47,-0.66 -1.47,-1.47l0 -7.69c0,-0.81 0.66,-1.47 1.47,-1.47zm-16.89 0l7.69 0c0.81,0 1.47,0.66 1.47,1.47l0 7.69c0,0.81 -0.66,1.47 -1.47,1.47l-7.69 0c-0.81,0 -1.47,-0.66 -1.47,-1.47l0 -7.69c0,-0.81 0.66,-1.47 1.47,-1.47zm-16.89 0l7.69 0c0.81,0 1.47,0.66 1.47,1.47l0 7.69c0,0.81 -0.66,1.47 -1.47,1.47l-7.69 0c-0.81,0 -1.47,-0.66 -1.47,-1.47l0 -7.69c0,-0.81 0.66,-1.47 1.47,-1.47zm12.27 -13.84l16.92 0c0.72,0 1.31,0.59 1.31,1.31l0 0c0,0.72 -0.59,1.31 -1.31,1.31l-16.92 0c-0.72,0 -1.31,-0.59 -1.31,-1.31l0 -0c0,-0.72 0.59,-1.31 1.31,-1.31zm-21.65 92.28c0,5.21 4.26,9.47 9.47,9.47l26.76 0 -1.67 -1.67c-0.3,-0.3 -0.56,-0.62 -0.79,-0.95l-24.31 0c-3.77,0 -6.85,-3.08 -6.85,-6.85l0 -88.71c0,-3.77 3.08,-6.85 6.85,-6.85l41.28 0c3.77,0 6.85,3.08 6.85,6.85l0 49.99 2.62 0 0 -49.99c0,-5.21 -4.26,-9.47 -9.47,-9.47l-41.28 0c-5.21,0 -9.47,4.26 -9.47,9.47l0 88.71zm41.59 -4.86l-6.4 0c-0.75,0 -1.36,-0.62 -1.36,-1.36l0 -7.41c0,-0.75 0.62,-1.36 1.36,-1.36l6.4 0c0.64,0 1.18,-0.36 1.42,-0.95 0.24,-0.59 0.12,-1.23 -0.33,-1.68l-4.53 -4.53c-0.53,-0.53 -0.53,-1.4 0,-1.93l5.24 -5.24c0.53,-0.53 1.4,-0.53 1.93,0l4.53 4.53c0.45,0.45 1.09,0.58 1.68,0.33 0.59,-0.24 0.95,-0.79 0.95,-1.42l0 -6.4c0,-0.75 0.62,-1.36 1.36,-1.36l7.41 0c0.75,0 1.36,0.62 1.36,1.36l0 6.4c0,0.64 0.36,1.18 0.95,1.42 0.59,0.24 1.23,0.12 1.68,-0.33l4.53 -4.53c0.53,-0.53 1.4,-0.53 1.93,0l5.24 5.24c0.53,0.53 0.53,1.4 0,1.93l-4.53 4.53c-0.45,0.45 -0.58,1.09 -0.33,1.68 0.24,0.59 0.79,0.95 1.42,0.95l6.4 0c0.75,0 1.36,0.62 1.36,1.36l0 7.41c0,0.75 -0.62,1.36 -1.36,1.36l-6.4 0c-0.64,0 -1.18,0.36 -1.42,0.95 -0.24,0.59 -0.12,1.23 0.33,1.68l4.53 4.53c0.53,0.53 0.53,1.4 0,1.93l-5.24 5.24c-0.53,0.53 -1.4,0.53 -1.93,0l-4.53 -4.53c-0.45,-0.45 -1.09,-0.58 -1.68,-0.33 -0.59,0.24 -0.95,0.79 -0.95,1.42l0 6.4c0,0.75 -0.62,1.36 -1.36,1.36l-7.41 0c-0.75,0 -1.36,-0.62 -1.36,-1.36l0 -6.4c0,-0.64 -0.36,-1.18 -0.95,-1.42 -0.59,-0.24 -1.23,-0.12 -1.68,0.33l-4.53 4.53c-0.53,0.53 -1.4,0.53 -1.93,0l-5.24 -5.24c-0.53,-0.53 -0.53,-1.4 0,-1.93l4.53 -4.53c0.45,-0.45 0.58,-1.09 0.33,-1.68 -0.24,-0.59 -0.79,-0.95 -1.42,-0.95zm19.66 -31.1l-7.41 0c-2.02,0 -3.67,1.65 -3.67,3.67l0 4.55 -3.22 -3.22c-1.43,-1.43 -3.76,-1.43 -5.19,0l-5.24 5.24c-1.43,1.43 -1.43,3.76 0,5.19l3.22 3.22 -4.55 0c-2.02,0 -3.67,1.65 -3.67,3.67l0 7.41c0,2.02 1.65,3.67 3.67,3.67l4.55 0 -3.22 3.22c-1.43,1.43 -1.43,3.76 0,5.19l5.24 5.24c1.43,1.43 3.76,1.43 5.19,0l3.22 -3.22 0 4.55c0,2.02 1.65,3.67 3.67,3.67l7.41 0c2.02,0 3.67,-1.65 3.67,-3.67l0 -4.55 3.22 3.22c1.43,1.43 3.76,1.43 5.19,0l5.24 -5.24c1.43,-1.43 1.43,-3.76 0,-5.19l-3.22 -3.22 4.55 0c2.02,0 3.67,-1.65 3.67,-3.67l0 -7.41c0,-2.02 -1.65,-3.67 -3.67,-3.67l-4.55 0 3.22 -3.22c1.43,-1.43 1.43,-3.76 0,-5.19l-5.24 -5.24c-1.43,-1.43 -3.76,-1.43 -5.19,0l-3.22 3.22 0 -4.55c0,-2.02 -1.65,-3.67 -3.67,-3.67zm-16 26.03c0,6.79 5.5,12.29 12.29,12.29 6.79,0 12.29,-5.5 12.29,-12.29 0,-6.79 -5.5,-12.29 -12.29,-12.29 -6.79,0 -12.29,5.5 -12.29,12.29zm12.29 9.98c-5.51,0 -9.98,-4.47 -9.98,-9.98 0,-5.51 4.47,-9.98 9.98,-9.98 5.51,0 9.98,4.47 9.98,9.98 0,5.51 -4.47,9.98 -9.98,9.98z"/>
 </g>
</svg>
