<?xml version="1.0" encoding="UTF-8"?>
<!DOCTYPE svg PUBLIC "-//W3C//DTD SVG 1.1//EN" "http://www.w3.org/Graphics/SVG/1.1/DTD/svg11.dtd">
<!-- Creator: CorelDRAW (OEM Version) -->
<svg xmlns="http://www.w3.org/2000/svg" xml:space="preserve" width="0.636028in" height="0.795047in" version="1.1" style="shape-rendering:geometricPrecision; text-rendering:geometricPrecision; image-rendering:optimizeQuality; fill-rule:evenodd; clip-rule:evenodd"
viewBox="0 0 6.2 7.75"
 xmlns:xlink="http://www.w3.org/1999/xlink"
 xmlns:xodm="http://www.corel.com/coreldraw/odm/2003">
 <defs>
  <style type="text/css">
   <![CDATA[
    .fil3 {fill:#020016}
    .fil4 {fill:#373435}
    .fil0 {fill:white}
    .fil1 {fill:url(#id0)}
    .fil2 {fill:url(#id1)}
    .fil5 {fill:url(#id2)}
   ]]>
  </style>
  <radialGradient id="id0" gradientUnits="userSpaceOnUse" gradientTransform="matrix(0.916819 -0.490509 0.37394 1.31559 -2 0)" cx="2.93" cy="5.32" r="0.17" fx="2.93" fy="5.32">
   <stop offset="0" style="stop-opacity:1; stop-color:#80CCF5"/>
   <stop offset="0.521569" style="stop-opacity:1; stop-color:#0475B1"/>
   <stop offset="1" style="stop-opacity:1; stop-color:#0E5186"/>
  </radialGradient>
  <radialGradient id="id1" gradientUnits="userSpaceOnUse" gradientTransform="matrix(1.46836 -0.207115 -0.279149 1.43111 0 -1)" cx="2.01" cy="2.73" r="2.95" fx="2.01" fy="2.73">
   <stop offset="0" style="stop-opacity:1; stop-color:white"/>
   <stop offset="0.0392157" style="stop-opacity:1; stop-color:#E8F7FF"/>
   <stop offset="0.188235" style="stop-opacity:1; stop-color:#0AA6FA"/>
   <stop offset="0.321569" style="stop-opacity:1; stop-color:#0A8ACE"/>
   <stop offset="0.6" style="stop-opacity:1; stop-color:#0B618F"/>
   <stop offset="1" style="stop-opacity:1; stop-color:#0E5186"/>
  </radialGradient>
  <radialGradient id="id2" gradientUnits="userSpaceOnUse" gradientTransform="matrix(1.24135 0.533594 -0.712082 1.75242 2 -3)" cx="1.38" cy="2.64" r="3.41" fx="1.38" fy="2.64">
   <stop offset="0" style="stop-opacity:1; stop-color:#00D100"/>
   <stop offset="0.560784" style="stop-opacity:1; stop-color:#2FFA32"/>
   <stop offset="1" style="stop-opacity:1; stop-color:#00B509"/>
  </radialGradient>
 </defs>
 <g id="Layer_x0020_1">
  <metadata id="CorelCorpID_0Corel-Layer"/>
  <g id="_2796948323712">
   <path class="fil0" d="M3.1 0.69c1.71,0 3.1,1.39 3.1,3.11 0,1.72 -1.39,3.11 -3.1,3.11 -1.71,0 -3.1,-1.39 -3.1,-3.11 0,-1.72 1.39,-3.11 3.1,-3.11z"/>
   <path class="fil1" d="M2.96 5.48c-0.19,0.18 -0.33,0.11 -0.17,0.27 0.06,0.05 0.03,0.14 0.19,0.09 0.06,-0.02 0.1,0.01 0.17,-0.33 0.03,-0.13 -0.01,-0.17 0.06,-0.24 0,-0 -0.01,-0.22 -0.05,-0.17 -0.09,0.12 -0.09,0.29 -0.19,0.39l-0 -0z"/>
   <path class="fil2" d="M2.82 4.1c0.04,-0.03 0.32,-0.35 0.34,-0.38 0,-0.01 0.01,-0.02 0.01,-0.02 -0.03,-0 -0.07,-0 -0.13,0 -0.11,0.01 -0.12,-0.04 -0.03,-0.08 -0.02,0 -0.03,0 -0.05,0 -0.16,0.01 -0.09,-0.1 0.18,-0.13 0.26,-0.03 0.18,-0.58 0.5,-0.62 0.04,-0.01 0.08,0.02 0.13,0.06 0.16,0.03 0.38,0.45 0.5,0.58 0.02,0.02 0.08,0.27 0.18,0.4 0.05,0.01 0.11,-0.03 0.17,-0.12 0.07,-0.11 -0.18,-0.18 -0.11,-0.3 0.08,-0.16 -0.01,-0.16 0.18,-0.36 0.02,-0.02 0.06,-0.31 0.3,-0.13 0.04,0 0.1,0.03 0.17,0.09 0.09,0.08 0.25,0.38 0.25,0.54 0,0.14 -0.42,0.23 -0.01,0.37 0.06,0.02 0.08,0.05 0.08,0.09 0,0.03 -0,0.05 -0.01,0.08 0.06,-0.25 0.6,0.09 0.53,-0.25 -0.01,-0.06 -0.17,-0.2 -0.09,-0.32 0,-0.01 0.01,-0.01 0.01,-0.02 -0.1,-0.1 -0.12,0.05 -0.18,0.1 -0.02,0.02 -0.05,-0.09 -0.07,-0.19 -0.03,0.03 -0.05,0.08 -0.08,0.11 -0.03,0.03 -0.1,-0.32 -0.1,-0.32 -0,-0.1 0.09,-0.26 0.06,-0.37 -0.06,-0.2 -0,-0.53 -0.05,-0.66l-0.18 -0.47 -0.29 -0.34c-0.1,-0.09 -0.2,-0.17 -0.3,-0.24l-0.56 -0.3c-0.17,-0.07 -0.35,-0.13 -0.54,-0.17 -0.09,0.04 -0.21,0.09 -0.22,0.09 -0.03,0 -0.32,-0.14 -0.24,-0.04 0.28,0.34 -0.33,0.39 -0.28,0.15 0.02,-0.08 -0.01,-0.18 -0.06,-0.25 -0.16,0.01 -0.33,0.04 -0.49,0.08 -0.26,0.22 -0.51,0.49 -0.74,0.8 0.05,0.04 -0.38,0.21 -0.42,0.27 -0.17,0.24 -0.25,0.1 -0.41,0.39 -0.06,0.11 -0.29,0.21 -0.29,0.28 -0.01,0.07 -0.24,0.31 -0.37,0.4 -0.03,0.25 0.13,0.93 0.45,1.12 -0,0.09 0.01,0.21 0.04,0.3 -0.07,-0.19 -0.04,-0.57 0.09,-0.2 0.11,0.32 0.26,0.37 0.32,0.5 0.05,0.12 0.41,0.57 0.27,0.57 -0.09,0 -0.03,0.23 0.06,0.39 0.04,0.06 0.19,0.24 0.2,0.27 0.01,0.03 -0.02,0.04 -0.05,0.02 0.11,0.04 0.43,0.05 0.68,-0.03l-0 -0.01c-0,-0.03 0.03,-0.11 0.02,-0.2 -0.01,-0.14 0.01,-0.08 0.02,-0.17 0.01,-0.05 0.1,-0.18 0.15,-0.22 0.11,-0.1 0.08,-0.18 0.2,-0.23 -0.02,-0.01 -0.04,-0.05 -0.06,-0.11 -0,-0 -0,-0 -0,-0 -0.05,-0.03 -0.16,-0.32 -0.01,-0.44 0.02,-0.02 0.16,-0.24 0.31,-0.37l0 -0zm-1.08 -1.86c-0.18,-0.22 -0.08,-0.27 -0.01,-0.25 0.15,0.04 0.18,0.13 0.38,0.2 0.45,0.15 0.37,0.3 0.21,0.34 -0.47,0.1 -0.01,0.25 -0.33,0.34 -0.3,0.09 -0.14,-0.47 -0.26,-0.62l0 -0z"/>
   <path class="fil3" d="M2.97 5.53c-0.14,0.15 -0.24,0.09 -0.13,0.22 0.04,0.04 0.02,0.12 0.13,0.07 0.04,-0.02 0.07,0 0.13,-0.27 0.02,-0.1 -0,-0.14 0.05,-0.2 0,-0 -0,-0.18 -0.03,-0.14 -0.07,0.09 -0.08,0.24 -0.15,0.32l0 0z"/>
   <path class="fil4" d="M3.22 6.7c-0.08,-0.08 -0.37,0.05 -0.48,0.02 -0.11,-0.03 -0.29,-0.05 -0.38,-0.13 -0.01,-0.01 -0,-0.04 -0.03,-0.05 -0,-0 -0.42,0.03 -0.23,0.09 0.03,0.01 0.4,0.04 0.34,0.1 -0.01,0.01 -0.05,0.05 -0.04,0.07 0.06,0.01 0.03,0.02 0.12,0.02 0.05,-0 0.21,0.05 0.43,0.06 0.25,0.01 0.41,-0 0.62,-0.04 0,0 0.31,-0.04 0.19,-0.09 -0.13,-0.05 -0.4,0.06 -0.53,-0.05l-0 -0zm1.71 -1.32c-0.14,0.04 -0.19,0.44 -0.08,0.4 0.09,-0.04 0.19,-0.19 0.19,-0.32 0,-0.06 -0.08,-0.09 -0.11,-0.08l0 -0zm1.09 -1.44c0.07,0.34 -0.47,-0 -0.53,0.25 -0.01,0.07 -0.01,0.14 0.08,0.17 0.16,0.06 0.12,0.08 0.24,0.08 0.14,0.01 0.2,-0.08 0.21,-0.06 0.02,0.21 -0.27,1.29 -1.03,1.88 0.83,-0.64 1.19,-1.59 1.21,-2.38 0,-0.03 0,-0.07 0,-0.1 0,-0.12 -0.01,-0.24 -0.02,-0.36 -0.05,-0.01 -0.07,-0.02 -0.07,-0.08 0.02,-0.26 -0.15,-0.23 -0.11,-0.15 0.03,0.05 0.1,0.57 -0.07,0.4 -0.1,0.12 0.07,0.28 0.08,0.34l-0 -0zm-0.68 -2.13l0.18 0.47c0.05,0.13 -0.01,0.46 0.05,0.66 0.03,0.11 -0.06,0.27 -0.06,0.37 0,0 0.07,0.35 0.1,0.32 0.03,-0.03 0.05,-0.08 0.08,-0.11 -0.02,-0.07 -0.03,-0.14 -0.03,-0.14 -0,-0.11 0.09,-0.26 0.06,-0.38 -0.06,-0.21 -0,-0.54 -0.05,-0.67l-0.18 -0.48 -0.3 -0.35c-0.1,-0.09 -0.2,-0.17 -0.31,-0.25l-0.57 -0.31c-0.2,-0.08 -0.41,-0.15 -0.63,-0.19 -0.01,0 -0.02,0.01 -0.03,0.01 0.19,0.04 0.37,0.1 0.54,0.17l0.56 0.3c0.11,0.07 0.21,0.15 0.3,0.24l0.29 0.34 -0 0zm-0.71 1.99c-0.06,0.09 -0.12,0.13 -0.17,0.12 0.08,0.1 0.17,0.14 0.29,-0.04 0.08,-0.11 -0.18,-0.18 -0.12,-0.31 0.09,-0.16 -0.01,-0.16 0.19,-0.37 0.02,-0.02 0.05,-0.21 0.18,-0.2 -0.24,-0.18 -0.28,0.11 -0.3,0.13 -0.19,0.2 -0.1,0.2 -0.18,0.36 -0.06,0.12 0.19,0.19 0.11,0.3l-0 -0zm-1.19 -0.06c0.05,-0.02 0.08,0.01 0.11,-0.03 0.02,-0.03 0.09,-0.02 0.11,0.01 0,0.01 0.14,0.04 0.08,0.08 -0.01,0.01 -0.08,0.01 -0.11,0.03 -0.01,0.01 -0.1,0.02 -0.12,0 -0.02,-0.02 -0.12,-0.05 -0.07,-0.09zm-0.17 -0.13c0.27,-0.03 0.15,-0.63 0.47,-0.67 0.01,-0 0.02,-0 0.03,0 -0.05,-0.04 -0.09,-0.06 -0.13,-0.06 -0.32,0.04 -0.24,0.59 -0.5,0.62 -0.27,0.03 -0.35,0.14 -0.18,0.13 0.02,-0 0.04,-0 0.05,-0 0.05,-0.02 0.16,-0.01 0.26,-0.02l0 0zm-0.34 0.62c0.04,-0.04 0.33,-0.39 0.34,-0.41 0.03,-0.05 0.05,-0.1 -0.11,-0.1 -0.01,0.01 -0.01,0.02 -0.01,0.02 -0.01,0.02 -0.3,0.34 -0.34,0.38 -0.15,0.13 -0.29,0.35 -0.31,0.37 -0.15,0.12 -0.04,0.4 0.01,0.44 0,0 0,0 0,0 -0.04,-0.11 -0.01,-0.23 0.08,-0.3 0.02,-0.02 0.17,-0.26 0.32,-0.39l-0 0zm-1.28 -2.12c0.06,-0.1 0.22,0.03 0.34,0.1 0.1,0.05 0.42,0.12 0.46,0.21 -0,-0.09 -0.13,-0.16 -0.34,-0.23 -0.2,-0.07 -0.23,-0.16 -0.38,-0.2 -0.02,-0.01 -0.13,-0.02 -0.08,0.11l-0 0zm-0.42 3.61c-0.22,-0.22 -0.32,-0.59 -0.43,-0.88 -0.04,-0.12 -0.14,-0.42 -0.18,-0.49 -0.04,-0.08 -0.05,-0.22 -0.05,-0.31 -0.32,-0.18 -0.48,-0.86 -0.45,-1.12 -0.08,0.28 -0.13,0.58 -0.13,0.88 0,0.2 0.02,0.39 0.05,0.58 0,0 0.08,0.27 0.17,0.37 0.14,0.16 0.26,0.74 0.63,0.83 0.09,0.02 0.11,0.25 0.34,0.35 0.15,0.06 0.15,0.21 0.41,0.2 0.05,-0 0.22,0.05 0.35,-0 0.17,-0.07 0.43,-0.02 0.46,-0.35l0 0c0,-0.01 0,-0.02 0,-0.03 0.01,-0.21 0.07,-0.36 0.23,-0.46 0.04,-0.03 0.14,-0.14 -0.07,-0.27 -0.12,0.06 -0.1,0.13 -0.2,0.23 -0.04,0.04 -0.14,0.16 -0.15,0.22 -0.01,0.09 -0.03,0.03 -0.02,0.17 0.01,0.09 -0.02,0.17 -0.02,0.2l0 0.01c-0.25,0.08 -0.57,0.07 -0.68,0.03 -0.08,-0.03 -0.24,-0.13 -0.28,-0.17l-0 -0zm-0.9 -3.31c0.04,-0.05 0.12,-0.05 0.14,-0.12 0.04,-0.11 0.15,-0.11 0.14,-0.32 0,-0 0,-0.02 0.01,-0.03 -0.11,0.15 -0.21,0.31 -0.29,0.47l-0 0zm1.29 -0.82c0.23,-0.3 0.48,-0.57 0.74,-0.8 -0.51,0.13 -0.98,0.38 -1.36,0.73 -0.06,0.05 -0.13,0.16 -0.13,0.2 0,0.13 0.05,0.05 0.05,0.04 0.06,-0.07 0.58,-0.2 0.69,-0.18l0 -0zm-0.89 2.6c0.03,-0.1 0.03,-0.14 0.05,-0.23 0.07,-0.31 0.2,-0.6 0.31,-0.87 0.05,-0.08 0.17,-0.18 0.23,-0.26 0.26,-0.28 0.21,-0.49 0.25,-0.7 0.02,-0.03 0.03,-0.05 0.05,-0.08 0.01,-0.02 0.02,-0.03 0.03,-0.05 0,-0 0,-0 0,-0 0.14,-0.21 0.35,-0.51 0.58,-0.82 0.09,-0.04 0.23,-0.09 0.27,-0.11 0.23,-0.06 0.32,-0.12 0.39,-0.2 0,-0 0.01,-0.01 0.01,-0.01 0.06,-0.06 0.11,-0.11 0.07,-0.17 -0.08,0 -0.16,0.01 -0.24,0.02 -0.01,0 -0.02,0 -0.03,0 -0,0 -0,0 -0,0 -0.18,0.13 -0.35,0.28 -0.52,0.46l-0.02 0.02c-0,0 -0,0 -0,0 -0.25,0.27 -0.49,0.58 -0.71,0.94 -0.01,0.03 -0.01,0.07 -0.01,0.1 -0,0.05 -0,0.12 -0.02,0.2 -0.02,0.09 -0.07,0.19 -0.19,0.32 0,0 -0,0 -0,0 -0.07,0.07 -0.18,0.16 -0.23,0.24 -0.11,0.27 -0.2,0.57 -0.26,0.87 -0.02,0.07 -0.03,0.14 -0.04,0.21 0,0.01 0.01,0.02 0.01,0.04 0.01,0.02 0.01,0.04 0.02,0.06l0 0z"/>
   <path class="fil5" d="M2.51 7.55c-1.03,0 -2.26,-1.4 -1.76,-3.68 0.07,-0.31 0.16,-0.6 0.26,-0.87 0.05,-0.08 0.16,-0.17 0.23,-0.24 0.26,-0.28 0.19,-0.41 0.23,-0.62 0.74,-1.2 1.64,-1.9 2.62,-1.9 0.98,0 1.56,0.7 1.78,1.74 0,0.01 0,0.01 0,0.02 0.03,0.12 0.19,0.72 0.25,0.88 0.05,-1.66 -0.61,-2.88 -1.98,-2.88 -0.96,0 -2.08,0.8 -2.84,2.05 -0.08,0.13 -0.13,0.21 -0.24,0.34 -0.12,0.14 -0.13,0.38 -0.2,0.56 -0.11,0.29 -0.2,0.59 -0.27,0.9 -0.43,2 0.36,3.55 1.48,3.84 1.28,0.33 2.37,-0.76 2.89,-1.44 -0.1,0.06 -0.27,0.12 -0.37,0.18 -0.03,0.03 -0.06,0.06 -0.09,0.09 -0.58,0.61 -0.97,1.03 -2,1.03l-0 0z"/>
  </g>
 </g>
</svg>
