<?xml version="1.0" encoding="UTF-8"?>
<!DOCTYPE svg PUBLIC "-//W3C//DTD SVG 1.1//EN" "http://www.w3.org/Graphics/SVG/1.1/DTD/svg11.dtd">
<!-- Creator: CorelDRAW (OEM Version) -->
<svg xmlns="http://www.w3.org/2000/svg" xml:space="preserve" width="0.757929in" height="0.750972in" version="1.1" style="shape-rendering:geometricPrecision; text-rendering:geometricPrecision; image-rendering:optimizeQuality; fill-rule:evenodd; clip-rule:evenodd"
viewBox="0 0 17.25 17.09"
 xmlns:xlink="http://www.w3.org/1999/xlink"
 xmlns:xodm="http://www.corel.com/coreldraw/odm/2003">
 <defs>
  <style type="text/css">
   <![CDATA[
    .fil0 {fill:#373435}
   ]]>
  </style>
 </defs>
 <g id="Layer_x0020_1">
  <metadata id="CorelCorpID_0Corel-Layer"/>
  <path class="fil0" d="M8.62 3.35c0.61,0 1.1,0.49 1.1,1.1 0,0.61 -0.49,1.1 -1.1,1.1 -0.61,0 -1.1,-0.49 -1.1,-1.1 0,-0.61 0.49,-1.1 1.1,-1.1zm0 -0.89c1.1,0 1.99,0.89 1.99,1.99 0,1.1 -0.89,1.99 -1.99,1.99 -1.1,0 -1.99,-0.89 -1.99,-1.99 0,-1.1 0.89,-1.99 1.99,-1.99zm0 -0.78c1.53,0 2.77,1.24 2.77,2.77 0,1.53 -1.24,2.77 -2.77,2.77 -1.53,0 -2.77,-1.24 -2.77,-2.77 0,-1.53 1.24,-2.77 2.77,-2.77zm-0.19 -1.68l0.39 0c0.25,0 0.46,0.21 0.46,0.46l0 0.29c0,0.11 0.08,0.21 0.19,0.24 0.05,0.01 0.11,0.03 0.16,0.04 0.11,0.03 0.22,-0.01 0.28,-0.11l0.15 -0.25c0.13,-0.22 0.41,-0.3 0.63,-0.17l0.34 0.19c0.22,0.13 0.3,0.41 0.17,0.63l-0.15 0.25c-0.06,0.1 -0.04,0.22 0.04,0.3 0.04,0.04 0.08,0.08 0.11,0.11 0.08,0.08 0.2,0.1 0.3,0.04l0.25 -0.15c0.22,-0.13 0.51,-0.05 0.63,0.17l0.19 0.34c0.13,0.22 0.05,0.51 -0.17,0.63l-0.25 0.15c-0.1,0.06 -0.14,0.17 -0.11,0.28 0.02,0.05 0.03,0.1 0.04,0.16 0.03,0.11 0.12,0.19 0.24,0.19l0.29 0c0.25,0 0.46,0.21 0.46,0.46l0 0.39c0,0.25 -0.21,0.46 -0.46,0.46l-0.29 0c-0.11,0 -0.21,0.08 -0.24,0.19 -0.01,0.05 -0.03,0.11 -0.04,0.16 -0.03,0.11 0.01,0.22 0.11,0.28l0.25 0.15c0.22,0.13 0.3,0.41 0.17,0.63l-0.19 0.34c-0.13,0.22 -0.41,0.3 -0.63,0.17l-0.25 -0.15c-0.1,-0.06 -0.22,-0.04 -0.3,0.04 -0.04,0.04 -0.08,0.08 -0.12,0.12 -0.08,0.08 -0.1,0.2 -0.04,0.3l0.15 0.25c0.13,0.22 0.05,0.51 -0.17,0.63l-0.34 0.19c-0.22,0.13 -0.51,0.05 -0.63,-0.17l-0.15 -0.25c-0.06,-0.1 -0.17,-0.14 -0.28,-0.11 -0.05,0.02 -0.1,0.03 -0.16,0.04 -0.11,0.03 -0.19,0.12 -0.19,0.24l0 0.29c0,0.25 -0.21,0.46 -0.46,0.46l-0.39 0c-0.25,0 -0.46,-0.21 -0.46,-0.46l0 -0.29c0,-0.11 -0.08,-0.21 -0.19,-0.24 -0.05,-0.01 -0.11,-0.03 -0.16,-0.04 -0.11,-0.03 -0.22,0.01 -0.28,0.11l-0.15 0.25c-0.13,0.22 -0.41,0.3 -0.63,0.17l-0.34 -0.19c-0.22,-0.13 -0.3,-0.41 -0.17,-0.63l0.15 -0.25c0.06,-0.1 0.04,-0.22 -0.04,-0.3 -0.04,-0.04 -0.08,-0.08 -0.12,-0.12 -0.08,-0.08 -0.2,-0.1 -0.3,-0.04l-0.25 0.15c-0.22,0.13 -0.51,0.05 -0.63,-0.17l-0.19 -0.34c-0.13,-0.22 -0.05,-0.51 0.17,-0.63l0.25 -0.15c0.1,-0.06 0.14,-0.17 0.11,-0.28 -0.02,-0.05 -0.03,-0.1 -0.04,-0.16 -0.03,-0.11 -0.12,-0.19 -0.24,-0.19l-0.29 0c-0.25,0 -0.46,-0.21 -0.46,-0.46l0 -0.39c0,-0.25 0.21,-0.46 0.46,-0.46l0.29 0c0.11,0 0.21,-0.08 0.24,-0.19 0.01,-0.05 0.03,-0.11 0.04,-0.16 0.03,-0.11 -0.01,-0.22 -0.11,-0.28l-0.25 -0.15c-0.22,-0.13 -0.3,-0.41 -0.17,-0.63l0.19 -0.34c0.13,-0.22 0.41,-0.3 0.63,-0.17l0.25 0.15c0.1,0.06 0.22,0.04 0.3,-0.04 0.04,-0.04 0.08,-0.08 0.12,-0.12 0.08,-0.08 0.1,-0.2 0.04,-0.3l-0.15 -0.25c-0.13,-0.22 -0.05,-0.51 0.17,-0.63l0.34 -0.19c0.22,-0.13 0.51,-0.05 0.63,0.17l0.15 0.25c0.06,0.1 0.17,0.14 0.28,0.11 0.05,-0.02 0.1,-0.03 0.16,-0.04 0.11,-0.03 0.19,-0.12 0.19,-0.24l0 -0.29c0,-0.25 0.21,-0.46 0.46,-0.46zm-5.99 14.42c0.34,0 0.66,0.09 0.92,0.25l1.77 -1.5 -2.73 -2.32c-0.62,0.33 -1.44,0.25 -1.96,-0.22 -0.6,-0.53 -0.57,-1.38 0.05,-1.89 0.63,-0.51 1.62,-0.49 2.22,0.05 0.22,0.19 0.35,0.43 0.41,0.68l2.33 0 0 0.56 -2.35 0c-0.04,0.15 -0.12,0.3 -0.23,0.44l2.72 2.31 1.41 -1.2 0.46 0.39 -1.41 1.2 1.73 1.47c0.16,-0.09 0.34,-0.15 0.53,-0.19l0 -2.5 0.65 0 0 2.5c0.19,0.03 0.37,0.1 0.53,0.19l1.85 -1.57 -1.29 -1.1 0.46 -0.39 1.29 1.1 2.58 -2.2c-0.12,-0.14 -0.2,-0.29 -0.24,-0.45l-2.41 0 0 -0.56 2.39 0c0.05,-0.25 0.19,-0.48 0.41,-0.68 0.6,-0.53 1.59,-0.56 2.22,-0.05 0.63,0.51 0.65,1.35 0.05,1.89 -0.52,0.46 -1.33,0.54 -1.95,0.22l-2.6 2.21 1.8 1.53c0.23,-0.11 0.49,-0.17 0.78,-0.17 0.87,0 1.57,0.6 1.57,1.34 0,0.74 -0.7,1.34 -1.57,1.34 -0.76,0 -1.39,-0.45 -1.54,-1.06l-3.13 0c-0.15,0.6 -0.78,1.06 -1.54,1.06 -0.76,0 -1.39,-0.45 -1.54,-1.06l-3.13 0c-0.15,0.6 -0.78,1.06 -1.54,1.06 -0.87,0 -1.57,-0.6 -1.57,-1.34 0,-0.74 0.7,-1.34 1.57,-1.34zm9.37 -0.96l-1.85 1.57c0.1,0.13 0.18,0.29 0.22,0.45l3.13 0c0.05,-0.19 0.14,-0.36 0.27,-0.51l-1.77 -1.51zm-8.01 1.62c0.08,0.12 0.14,0.25 0.18,0.39l3.13 0c0.04,-0.16 0.11,-0.31 0.22,-0.45l-1.73 -1.47 -1.79 1.52zm-2.75 -5.84c-0.31,0.25 -0.32,0.66 -0.03,0.92 0.29,0.26 0.77,0.27 1.08,0.02 0.31,-0.25 0.32,-0.66 0.03,-0.92 -0.29,-0.26 -0.77,-0.27 -1.08,-0.02zm13.8 5.87c0.42,0 0.76,0.29 0.76,0.65 0,0.36 -0.34,0.65 -0.76,0.65 -0.42,0 -0.76,-0.29 -0.76,-0.65 0,-0.36 0.34,-0.65 0.76,-0.65zm1.36 -5.87c0.31,0.25 0.32,0.66 0.03,0.92 -0.29,0.26 -0.77,0.27 -1.08,0.02 -0.31,-0.25 -0.32,-0.66 -0.03,-0.92 0.29,-0.26 0.77,-0.27 1.08,-0.02zm-7.56 5.87c0.42,0 0.76,0.29 0.76,0.65 0,0.36 -0.34,0.65 -0.76,0.65 -0.42,0 -0.76,-0.29 -0.76,-0.65 0,-0.36 0.34,-0.65 0.76,-0.65zm-6.2 0c0.42,0 0.76,0.29 0.76,0.65 0,0.36 -0.34,0.65 -0.76,0.65 -0.42,0 -0.76,-0.29 -0.76,-0.65 0,-0.36 0.34,-0.65 0.76,-0.65z"/>
 </g>
</svg>
