<?xml version="1.0" encoding="UTF-8"?>
<!DOCTYPE svg PUBLIC "-//W3C//DTD SVG 1.1//EN" "http://www.w3.org/Graphics/SVG/1.1/DTD/svg11.dtd">
<!-- Creator: CorelDRAW (OEM Version) -->
<svg xmlns="http://www.w3.org/2000/svg" xml:space="preserve" width="0.5in" height="0.5in" version="1.1" style="shape-rendering:geometricPrecision; text-rendering:geometricPrecision; image-rendering:optimizeQuality; fill-rule:evenodd; clip-rule:evenodd"
viewBox="0 0 9.28 9.28"
 xmlns:xlink="http://www.w3.org/1999/xlink"
 xmlns:xodm="http://www.corel.com/coreldraw/odm/2003">
 <defs>
  <style type="text/css">
   <![CDATA[
    .fil0 {fill:#00C4DE}
   ]]>
  </style>
 </defs>
 <g id="Layer_x0020_1">
  <metadata id="CorelCorpID_0Corel-Layer"/>
  <path class="fil0" d="M4.64 0c2.56,0 4.64,2.08 4.64,4.64 0,2.56 -2.08,4.64 -4.64,4.64 -2.56,0 -4.64,-2.08 -4.64,-4.64 0,-2.56 2.08,-4.64 4.64,-4.64zm0 0.68c2.19,0 3.96,1.77 3.96,3.96 0,2.19 -1.77,3.96 -3.96,3.96 -2.19,0 -3.96,-1.77 -3.96,-3.96 0,-2.19 1.77,-3.96 3.96,-3.96zm0.12 3.51c0.25,0.07 0.4,0.33 0.33,0.58 -0.07,0.25 -0.33,0.4 -0.58,0.33 -0.25,-0.07 -0.4,-0.33 -0.33,-0.58 0.07,-0.25 0.33,-0.4 0.58,-0.33zm2.08 -1.53l-0.61 1.1 -0.89 1.59 -1.59 0.89 -1.1 0.61c-0.06,0.04 -0.14,0.02 -0.19,-0.03 -0.05,-0.05 -0.06,-0.13 -0.03,-0.19l0.61 -1.1 0.89 -1.59 1.59 -0.89 1.1 -0.61c0.06,-0.04 0.14,-0.02 0.19,0.03 0.05,0.05 0.06,0.13 0.03,0.19z"/>
 </g>
</svg>
