<svg width="105" height="64" viewBox="0 0 105 64" fill="none" xmlns="http://www.w3.org/2000/svg">
<g clip-path="url(#clip0_2_218)">
<path d="M51.6498 64.0002C51.3049 64.0002 50.9624 63.9098 50.66 63.7357L47.5095 61.8704C47.0389 61.6073 47.2685 61.5142 47.4237 61.4606C48.0511 61.2409 48.1785 61.1913 48.8481 60.811C48.9185 60.7708 49.0107 60.785 49.0827 60.8275L51.5031 62.2638C51.5905 62.311 51.7145 62.311 51.7955 62.2638L61.2327 56.8164C61.3201 56.7668 61.3768 56.6652 61.3768 56.5613V45.6714C61.3768 45.5627 61.3201 45.4658 61.2308 45.4115L51.7974 39.9689C51.71 39.9169 51.5943 39.9169 51.5069 39.9689L42.0754 45.4115C41.9839 45.4635 41.9258 45.5651 41.9258 45.669V56.5589C41.9258 56.6629 41.9825 56.7621 42.0723 56.8117L44.6566 58.3046C46.0598 59.0062 46.9173 58.1794 46.9173 57.3479V46.5997C46.9173 46.4462 47.0377 46.3281 47.1913 46.3281H48.3866C48.5354 46.3281 48.6582 46.4462 48.6582 46.5997V57.3527C48.6582 59.2236 47.6377 60.2984 45.8637 60.2984C45.318 60.2984 44.8881 60.2984 43.6881 59.7078L41.2124 58.281C40.6006 57.9267 40.2227 57.2653 40.2227 56.5589V45.669C40.2227 44.9603 40.6006 44.2989 41.2124 43.9493L50.659 38.4996C51.2567 38.1618 52.0504 38.1618 52.6433 38.4996L62.0781 43.9517C62.6876 44.3036 63.0679 44.9627 63.0679 45.6714V56.5613C63.0679 57.2676 62.6876 57.9267 62.0781 58.281L52.6433 63.7307C52.341 63.9055 51.9984 63.9953 51.6488 63.9953" fill="#689F63"/>
<path d="M54.5648 56.4963C50.4356 56.4963 49.5698 54.6009 49.5698 53.0111C49.5698 52.8599 49.6917 52.7394 49.8431 52.7394H51.0621C51.1967 52.7394 51.3101 52.8375 51.3313 52.9704C51.5156 54.2125 52.0636 54.839 54.5605 54.839C56.5495 54.839 57.3952 54.3897 57.3952 53.3349C57.3952 52.7278 57.1543 52.2767 54.0645 51.9743C51.4802 51.7192 49.8833 51.1499 49.8833 49.0829C49.8833 47.1789 51.4896 46.0451 54.1802 46.0451C57.2015 46.0451 58.6992 47.0939 58.8882 49.3475C58.8952 49.4254 58.8669 49.501 58.8149 49.5577C58.763 49.612 58.6897 49.6451 58.6141 49.6451H57.3881C57.2606 49.6451 57.1496 49.5554 57.1236 49.4325C56.8283 48.1262 56.1149 47.7081 54.1755 47.7081C52.0046 47.7081 51.7518 48.464 51.7518 49.0309C51.7518 49.7183 52.0495 49.9191 54.9787 50.3065C57.8795 50.6916 59.2567 51.2349 59.2567 53.2735C59.2567 55.3287 57.5417 56.5074 54.5511 56.5074M66.0458 44.9584H66.3623C66.6221 44.9584 66.6718 44.7765 66.6718 44.6702C66.6718 44.3915 66.4804 44.3915 66.3741 44.3915H66.0481L66.0458 44.9584ZM65.6607 44.0655H66.3623C66.6032 44.0655 67.0757 44.0655 67.0757 44.6041C67.0757 44.9797 66.8347 45.0576 66.6906 45.1049C66.9718 45.1238 66.9907 45.308 67.0284 45.5679C67.0473 45.7309 67.0781 46.012 67.1348 46.1065H66.7025C66.6906 46.012 66.6245 45.4923 66.6245 45.4639C66.5962 45.3482 66.556 45.2915 66.4119 45.2915H66.0552V46.1088H65.6607V44.0655ZM64.8174 45.0813C64.8174 45.9269 65.5001 46.612 66.3387 46.612C67.1844 46.612 67.867 45.9128 67.867 45.0813C67.867 44.2332 67.1749 43.56 66.3363 43.56C65.5095 43.56 64.815 44.2238 64.815 45.0789M68.16 45.086C68.16 46.0876 67.3403 46.9049 66.341 46.9049C65.3489 46.9049 64.5221 46.097 64.5221 45.086C64.5221 44.056 65.3678 43.2671 66.341 43.2671C67.3214 43.2671 68.1576 44.0584 68.1576 45.086" fill="#689F63"/>
<path fill-rule="evenodd" clip-rule="evenodd" d="M22.4262 21.3901C22.4262 20.9554 22.197 20.5562 21.8219 20.34L11.8164 14.5833C11.6475 14.484 11.4583 14.4321 11.2665 14.425H11.163C10.9712 14.4321 10.782 14.484 10.6102 14.5833L0.605206 20.34C0.232445 20.5574 0 20.9566 0 21.3912L0.0219689 36.897C0.0219689 37.112 0.132994 37.3127 0.321974 37.419C0.506229 37.5324 0.737728 37.5324 0.921983 37.419L6.87011 34.0127C7.24571 33.7892 7.47484 33.3943 7.47484 32.9639V25.72C7.47484 25.2878 7.70398 24.8885 8.0784 24.6736L10.6107 23.2151C10.7988 23.1065 11.0052 23.0526 11.2155 23.0526C11.4224 23.0526 11.6336 23.106 11.8164 23.2149L14.3476 24.6729C14.7222 24.8878 14.9523 25.287 14.9523 25.7193V32.9627C14.9523 33.3926 15.1845 33.7895 15.5582 34.0115L21.5025 37.4155C21.6892 37.5265 21.9214 37.5265 22.1073 37.4155C22.2906 37.3092 22.4068 37.1084 22.4068 36.8934L22.4262 21.3901ZM69.6398 29.4633C69.6398 29.5712 69.5824 29.6711 69.4887 29.7245L66.0521 31.7055C65.9588 31.7591 65.8435 31.7591 65.7504 31.7055L62.3134 29.7245C62.2189 29.6709 62.1622 29.571 62.1622 29.4633V25.4956C62.1622 25.3874 62.2189 25.2878 62.311 25.2334L65.7457 23.2491C65.8402 23.1948 65.9559 23.1948 66.0504 23.2491L69.4875 25.2334C69.582 25.2878 69.6387 25.3874 69.6387 25.4956L69.6398 29.4633ZM70.5682 0.0764855C70.3807 -0.0279256 70.1525 -0.0250909 69.9673 0.0828636C69.783 0.191527 69.6691 0.389955 69.6691 0.604919V15.9595C69.6691 16.1107 69.5888 16.2501 69.458 16.3256C69.328 16.4012 69.1662 16.4012 69.0351 16.3256L66.5288 14.8821C66.1555 14.6662 65.6958 14.6662 65.3212 14.8821L55.3124 20.6585C54.9384 20.8734 54.7076 21.2727 54.7076 21.7026V33.2587C54.7076 33.691 54.9384 34.0878 55.3124 34.3051L65.3212 40.0855C65.6949 40.3005 66.1551 40.3005 66.53 40.0855L76.5388 34.3028C76.912 34.0855 77.1435 33.6886 77.1435 33.2563V4.45585C77.1435 4.01742 76.9049 3.61418 76.5222 3.39992L70.5682 0.0764855ZM103.898 25.3912C104.27 25.1753 104.499 24.7766 104.499 24.3466V21.546C104.499 21.1151 104.269 20.7175 103.897 20.5007L93.9518 14.7273C93.5762 14.51 93.1156 14.51 92.74 14.7273L82.7335 20.503C82.3579 20.7204 82.1288 21.1172 82.1288 21.5495V33.1009C82.1288 33.5355 82.3626 33.9371 82.7382 34.1521L92.6809 39.8191C93.0471 40.0293 93.4959 40.0317 93.8668 39.8262L99.881 36.4836C100.07 36.3773 100.19 36.1765 100.19 35.9592C100.19 35.7419 100.075 35.5387 99.8858 35.4324L89.8179 29.6544C89.6289 29.5481 89.5132 29.3473 89.5132 29.1323V25.5086C89.5132 25.2922 89.6265 25.0929 89.8155 24.9851L92.9479 23.178C93.1345 23.0694 93.3636 23.0694 93.5502 23.178L96.6849 24.9851C96.8715 25.0915 96.9873 25.2922 96.9873 25.5072V28.3561C96.9873 28.571 97.103 28.7718 97.2897 28.8805C97.4763 28.9868 97.7078 28.9868 97.8944 28.8781L103.898 25.3912Z" fill="#333333"/>
<path fill-rule="evenodd" clip-rule="evenodd" d="M93.1995 24.8508C93.2704 24.809 93.3592 24.809 93.431 24.8508L95.3515 25.9587C95.4234 26.0003 95.4673 26.0768 95.4673 26.1595V28.3776C95.4673 28.4603 95.4234 28.5368 95.3515 28.5784L93.431 29.6863C93.3592 29.7281 93.2704 29.7281 93.1995 29.6863L91.2802 28.5784C91.207 28.5368 91.1621 28.4603 91.1621 28.3776V26.1595C91.1621 26.0768 91.2046 26.0003 91.2779 25.9587L93.1995 24.8508Z" fill="#689F63"/>
<mask id="mask0_2_218" style="mask-type:luminance" maskUnits="userSpaceOnUse" x="27" y="14" width="23" height="27">
<path d="M37.9671 14.7851L28.015 20.5293C27.6422 20.7443 27.4136 21.1411 27.4136 21.5701V33.0667C27.4136 33.4959 27.6422 33.8925 28.015 34.1075L37.9678 39.8562C38.3399 40.0705 38.7986 40.0705 39.1702 39.8562L49.1214 34.1075C49.4923 33.8925 49.7214 33.4957 49.7214 33.0667V21.5701C49.7214 21.1411 49.4923 20.7443 49.119 20.5293L39.1693 14.7851C38.9827 14.678 38.7748 14.6244 38.5669 14.6244C38.359 14.6244 38.1511 14.678 37.9645 14.7851" fill="white"/>
</mask>
<g mask="url(#mask0_2_218)">
<path d="M59.7785 19.5539L31.7352 5.80804L17.3562 35.141L45.3988 48.8876L59.7785 19.5539Z" fill="url(#paint0_linear_2_218)"/>
</g>
<mask id="mask1_2_218" style="mask-type:luminance" maskUnits="userSpaceOnUse" x="27" y="14" width="23" height="27">
<path d="M27.6602 33.7966C27.7554 33.9201 27.8744 34.0272 28.0145 34.1075L36.5516 39.0387L37.9737 39.856C38.1863 39.9788 38.4287 40.0308 38.6668 40.0131C38.7462 40.0067 38.8255 39.9918 38.903 39.9698L49.3994 20.7506C49.3191 20.6632 49.2251 20.59 49.1197 20.5286L42.6032 16.7655L39.1586 14.7836C39.0608 14.7269 38.9547 14.6868 38.8468 14.6584L27.6602 33.7966Z" fill="white"/>
</mask>
<g mask="url(#mask1_2_218)">
<path d="M15.5352 23.6196L35.3367 50.4199L61.5245 31.0717L41.7218 4.27209L15.5352 23.6196Z" fill="url(#paint1_linear_2_218)"/>
</g>
<mask id="mask2_2_218" style="mask-type:luminance" maskUnits="userSpaceOnUse" x="28" y="14" width="22" height="27">
<path d="M38.448 14.631C38.2809 14.6475 38.1177 14.6995 37.9672 14.785L28.0435 20.5128L38.7444 40.0036C38.8932 39.9824 39.0397 39.9328 39.172 39.8562L49.1241 34.1075C49.4312 33.9294 49.6414 33.6279 49.7052 33.2863L38.7964 14.6506C38.7161 14.6348 38.6358 14.6265 38.5531 14.6265C38.52 14.6265 38.4869 14.6282 38.4539 14.6312" fill="white"/>
</mask>
<g mask="url(#mask2_2_218)">
<path d="M28.0432 14.6265V40.0041H49.701V14.6265H28.0432Z" fill="url(#paint2_linear_2_218)"/>
</g>
</g>
<defs>
<linearGradient id="paint0_linear_2_218" x1="45.7484" y1="12.6594" x2="31.3704" y2="41.9903" gradientUnits="userSpaceOnUse">
<stop offset="0.3" stop-color="#3E863D"/>
<stop offset="0.5" stop-color="#55934F"/>
<stop offset="0.8" stop-color="#5AAD45"/>
</linearGradient>
<linearGradient id="paint1_linear_2_218" x1="25.5546" y1="37.1734" x2="51.7434" y2="17.8229" gradientUnits="userSpaceOnUse">
<stop offset="0.57" stop-color="#3E863D"/>
<stop offset="0.72" stop-color="#619857"/>
<stop offset="1" stop-color="#76AC64"/>
</linearGradient>
<linearGradient id="paint2_linear_2_218" x1="28.0505" y1="27.316" x2="49.7051" y2="27.316" gradientUnits="userSpaceOnUse">
<stop offset="0.16" stop-color="#6BBF47"/>
<stop offset="0.38" stop-color="#79B461"/>
<stop offset="0.47" stop-color="#75AC64"/>
<stop offset="0.7" stop-color="#659E5A"/>
<stop offset="0.9" stop-color="#3E863D"/>
</linearGradient>
<clipPath id="clip0_2_218">
<rect width="104.499" height="64" fill="white"/>
</clipPath>
</defs>
</svg>
