<?xml version="1.0" encoding="UTF-8"?>
<!DOCTYPE svg PUBLIC "-//W3C//DTD SVG 1.1//EN" "http://www.w3.org/Graphics/SVG/1.1/DTD/svg11.dtd">
<!-- Creator: CorelDRAW (OEM Version) -->
<svg xmlns="http://www.w3.org/2000/svg" xml:space="preserve" width="0.815717in" height="0.516512in" version="1.1" style="shape-rendering:geometricPrecision; text-rendering:geometricPrecision; image-rendering:optimizeQuality; fill-rule:evenodd; clip-rule:evenodd"
viewBox="0 0 66.93 42.38"
 xmlns:xlink="http://www.w3.org/1999/xlink"
 xmlns:xodm="http://www.corel.com/coreldraw/odm/2003">
 <defs>
  <style type="text/css">
   <![CDATA[
    .fil0 {fill:#E30613}
   ]]>
  </style>
 </defs>
 <g id="Layer_x0020_1">
  <metadata id="CorelCorpID_0Corel-Layer"/>
  <path class="fil0" d="M8.39 24.18c-1.89,-7.59 3.22,-15.78 11.77,-16.88 2.3,-0.29 16.1,-0.12 19.57,-0.12 2.91,0 6.68,-0.25 9.32,0.51 2.63,0.76 4.76,2.21 6.14,3.66 8.27,8.68 2.62,22.09 -8.27,23.31 -2.31,0.26 -16.1,0.09 -19.6,0.09 -2.98,0 -6.52,0.25 -9.25,-0.52 -4.82,-1.37 -8.48,-5.2 -9.68,-10.05zm11.88 -24.09c-3.89,0.15 -7.3,1.36 -10.1,3.04 -2.8,1.68 -5.02,3.85 -6.72,6.48 -0.86,1.33 -1.64,2.77 -2.22,4.45 -0.82,2.39 -1,4.8 -1.23,5.34l0 3.59c0.31,0.73 0.33,1.97 0.51,2.8 1.18,5.53 4.84,10.65 9.66,13.48 2.89,1.69 6.13,2.88 10.11,3.03 4.34,0.17 8.95,0.02 13.32,0.02 4.29,0 8.9,0.16 13.16,-0.03 6.94,-0.3 13.23,-4.04 16.77,-9.6 0.85,-1.34 1.63,-2.77 2.2,-4.46 0.29,-0.85 0.53,-1.63 0.72,-2.54 0.17,-0.81 0.24,-2.3 0.48,-2.92l0 -3.03c-0.2,-0.54 -0.31,-2.17 -0.46,-2.92 -1.18,-5.73 -4.67,-10.5 -9.54,-13.6 -2.65,-1.69 -6.29,-2.96 -10.16,-3.13 -4.26,-0.19 -8.87,-0.03 -13.17,-0.03 -4.37,0 -8.98,-0.14 -13.32,0.02z"/>
 </g>
</svg>
