<svg width="48" height="64" viewBox="0 0 48 64" fill="none" xmlns="http://www.w3.org/2000/svg">
<g clip-path="url(#clip0_2_283)">
<mask id="mask0_2_283" style="mask-type:luminance" maskUnits="userSpaceOnUse" x="0" y="11" width="48" height="42">
<path d="M0.675049 32C0.675049 43.294 11.1183 52.4498 24.0001 52.4498C36.8819 52.4498 47.3252 43.294 47.3252 32C47.3252 20.7062 36.8819 11.5503 24.0001 11.5503C11.1183 11.5503 0.675049 20.7062 0.675049 32Z" fill="white"/>
</mask>
<g mask="url(#mask0_2_283)">
<path d="M0.675049 32C0.675049 43.294 11.1183 52.4498 24.0001 52.4498C36.8819 52.4498 47.3252 43.294 47.3252 32C47.3252 20.7062 36.8819 11.5503 24.0001 11.5503C11.1183 11.5503 0.675049 20.7062 0.675049 32Z" fill="url(#paint0_radial_2_283)"/>
</g>
<mask id="mask1_2_283" style="mask-type:luminance" maskUnits="userSpaceOnUse" x="-1" y="9" width="50" height="46">
<path d="M-0.296875 9.22165H48.297V54.7784H-0.296875V9.22165Z" fill="white"/>
</mask>
<g mask="url(#mask1_2_283)">
<path d="M24.0001 50.9315C36.3788 50.9315 46.414 42.4555 46.414 32C46.414 21.5446 36.3788 13.0685 24.0001 13.0685C11.6214 13.0685 1.58618 21.5446 1.58618 32C1.58618 42.4555 11.6214 50.9315 24.0001 50.9315Z" fill="#777BB3"/>
</g>
<mask id="mask2_2_283" style="mask-type:luminance" maskUnits="userSpaceOnUse" x="-1" y="9" width="50" height="46">
<path d="M-0.296875 9.22165H48.297V54.7784H-0.296875V9.22165Z" fill="white"/>
</mask>
<g mask="url(#mask2_2_283)">
<path d="M13.3477 34.3472C14.3656 34.3472 15.1254 34.0344 15.6062 33.4177C16.0819 32.8073 16.4104 31.7498 16.5826 30.2747C16.7431 28.8959 16.6819 27.9331 16.4008 27.4136C16.1134 26.8829 15.492 26.6138 14.5539 26.6138H12.9272L12.0255 34.3472H13.3477ZM8.02744 43.8734C7.95193 43.8734 7.88022 43.8171 7.83222 43.7198C7.78413 43.6226 7.76464 43.4947 7.77907 43.3711L10.1689 22.8775C10.1921 22.6793 10.2962 22.5362 10.4174 22.5362H15.5682C17.187 22.5362 18.3918 23.2688 19.1492 24.7138C19.9106 26.1664 20.1457 28.1969 19.848 30.7488C19.7268 31.7884 19.5184 32.754 19.2287 33.6184C18.9385 34.4839 18.5551 35.2846 18.0888 35.9989C17.5307 36.8696 16.8989 37.5009 16.2129 37.8724C15.5377 38.2389 14.6706 38.4248 13.6357 38.4248H11.5501L10.9545 43.532C10.9313 43.7302 10.8272 43.8734 10.7061 43.8734H8.02744Z" fill="black"/>
<path d="M13.1358 27.0356H14.5538C15.686 27.0356 16.0794 27.4497 16.213 27.6964C16.4347 28.1062 16.4765 28.97 16.3341 30.1946C16.1739 31.5655 15.8771 32.5375 15.4518 33.0834C15.0163 33.6421 14.3083 33.9253 13.3476 33.9253H12.3324L13.1358 27.0356ZM15.5681 22.1143H10.4172C10.175 22.1143 9.96666 22.4006 9.92042 22.797L7.53055 43.2906C7.5017 43.5379 7.54067 43.7937 7.63677 43.9882C7.73294 44.1826 7.87619 44.2951 8.02737 44.2951H10.7059C10.9483 44.2951 11.1566 44.0088 11.2028 43.6125L11.7586 38.8466H13.6357C14.6971 38.8466 15.5907 38.6537 16.2914 38.2733C17.0119 37.8831 17.6749 37.2216 18.2616 36.3071C18.7469 35.563 19.1466 34.7278 19.4495 33.8244C19.7524 32.9207 19.9701 31.913 20.0964 30.8292C20.4098 28.143 20.1552 25.992 19.3397 24.4363C18.5322 22.8955 17.2632 22.1143 15.5681 22.1143ZM11.7183 34.769H13.3476C14.4276 34.769 15.232 34.43 15.7605 33.7518C16.2892 33.0735 16.6457 31.9415 16.831 30.3552C17.0082 28.8321 16.9275 27.7573 16.5887 27.1312C16.2496 26.5051 15.5714 26.1919 14.5538 26.1919H12.7185L11.7183 34.769ZM15.5681 22.958C17.1176 22.958 18.248 23.6357 18.9585 24.9913C19.669 26.3469 19.8829 28.239 19.5995 30.6683C19.4828 31.669 19.2855 32.5839 19.0076 33.4128C18.7295 34.2423 18.3663 35.0007 17.9175 35.6884C17.3826 36.5226 16.7884 37.1171 16.1346 37.4712C15.4808 37.8262 14.648 38.0029 13.6357 38.0029H11.3413L10.7059 43.4515H8.02737L10.4172 22.958H15.5681Z" fill="white"/>
<path d="M25.9894 38.4248C25.9138 38.4248 25.8422 38.3686 25.7942 38.2713C25.746 38.1741 25.7266 38.0463 25.741 37.9226L26.7982 28.855C26.8987 27.9926 26.8739 27.3737 26.7284 27.1121C26.6393 26.9523 26.3717 26.6841 25.5804 26.6841H23.6652L22.336 38.0834C22.3129 38.2817 22.2087 38.4248 22.0876 38.4248H19.4301C19.3545 38.4248 19.2829 38.3686 19.2348 38.2713C19.1867 38.1741 19.1672 38.0462 19.1817 37.9226L21.5715 17.4289C21.5946 17.2308 21.6988 17.0877 21.82 17.0877H24.4775C24.553 17.0877 24.6247 17.1439 24.6728 17.2411C24.7208 17.3384 24.7403 17.4662 24.7259 17.5899L24.1492 22.5362H26.2095C27.7791 22.5362 28.8435 22.9974 29.4634 23.9462C30.0953 24.9142 30.2924 26.4618 30.0495 28.5468L28.9375 38.0834C28.9144 38.2817 28.8103 38.4248 28.6891 38.4248H25.9894Z" fill="black"/>
<path d="M24.4776 16.6658H21.8202C21.5778 16.6658 21.3695 16.9521 21.3233 17.3485L18.9334 37.8421C18.9045 38.0894 18.9435 38.3452 19.0397 38.5396C19.1359 38.7341 19.2791 38.8466 19.4303 38.8466H22.0878C22.3301 38.8466 22.5384 38.5603 22.5847 38.1639L23.874 27.1059H25.5806C26.3705 27.1059 26.5363 27.3871 26.543 27.3992C26.5909 27.4851 26.6539 27.883 26.5499 28.7745L25.4927 37.8421C25.4639 38.0894 25.5028 38.3452 25.599 38.5396C25.6952 38.7341 25.8384 38.8466 25.9896 38.8466H28.6893C28.9316 38.8466 29.1399 38.5603 29.1862 38.1639L30.298 28.6273C30.559 26.3886 30.3357 24.7094 29.6348 23.6357C28.966 22.6119 27.8456 22.1143 26.2097 22.1143H24.4563L24.9745 17.6704C25.0033 17.4231 24.9644 17.1672 24.8682 16.9729C24.7721 16.7784 24.6288 16.6658 24.4776 16.6658ZM24.4776 17.5094L23.8423 22.958H26.2097C27.6993 22.958 28.7268 23.3913 29.2923 24.2569C29.8578 25.123 30.0272 26.5264 29.8012 28.4664L28.6893 38.0029H25.9896L27.0468 28.9355C27.1671 27.904 27.1229 27.2004 26.914 26.8252C26.705 26.4501 26.2605 26.2622 25.5806 26.2622H23.4567L22.0878 38.0029H19.4303L21.8202 17.5094H24.4776Z" fill="white"/>
<path d="M34.2544 34.3472C35.2723 34.3472 36.0322 34.0344 36.5129 33.4177C36.9886 32.8074 37.3171 31.7499 37.4894 30.2747C37.6499 28.8959 37.5888 27.9331 37.3076 27.4136C37.0201 26.8829 36.3987 26.6138 35.4606 26.6138H33.834L32.9322 34.3472H34.2544ZM28.9343 43.8734C28.8587 43.8734 28.787 43.8171 28.739 43.7198C28.6909 43.6226 28.6714 43.4947 28.6858 43.3711L31.0757 22.8775C31.0989 22.6793 31.203 22.5362 31.3242 22.5362H36.4749C38.0938 22.5362 39.2986 23.2688 40.056 24.7138C40.8174 26.1663 41.0524 28.1968 40.7548 30.7488C40.6335 31.7884 40.4252 32.754 40.1354 33.6184C39.8453 34.4839 39.4618 35.2846 38.9955 35.9989C38.4374 36.8696 37.8057 37.5009 37.1196 37.8724C36.4444 38.2389 35.5773 38.4248 34.5425 38.4248H32.4567L31.8614 43.532C31.8382 43.7302 31.734 43.8734 31.6128 43.8734H28.9343Z" fill="black"/>
<path d="M34.0427 27.0356H35.4607C36.5929 27.0356 36.9863 27.4497 37.1199 27.6964C37.3417 28.1062 37.3835 28.97 37.2409 30.1945C37.0808 31.5655 36.7839 32.5375 36.3587 33.0834C35.9232 33.6421 35.2152 33.9253 34.2545 33.9253H33.2394L34.0427 27.0356ZM36.475 22.1143H31.3242C31.0819 22.1143 30.8736 22.4006 30.8274 22.797L28.4375 43.2906C28.4087 43.5379 28.4477 43.7937 28.5437 43.9882C28.6399 44.1826 28.7832 44.2951 28.9344 44.2951H31.6129C31.8552 44.2951 32.0636 44.0088 32.1098 43.6125L32.6655 38.8466H34.5426C35.604 38.8466 36.4976 38.6537 37.1983 38.2733C37.9188 37.8831 38.5819 37.2214 39.1687 36.3068C39.6539 35.5628 40.0535 34.7278 40.3564 33.8244C40.6593 32.9207 40.877 31.913 41.0033 30.8292C41.3167 28.1429 41.0621 25.9918 40.2466 24.4362C39.4391 22.8955 38.1701 22.1143 36.475 22.1143ZM32.6253 34.769H34.2545C35.3345 34.769 36.1389 34.43 36.6674 33.7518C37.1962 33.0735 37.5526 31.9415 37.7379 30.3552C37.9152 28.8321 37.8345 27.7573 37.4956 27.1312C37.1565 26.5051 36.4783 26.1919 35.4607 26.1919H33.6254L32.6253 34.769ZM36.475 22.958C38.0245 22.958 39.1549 23.6357 39.8654 24.9913C40.576 26.3469 40.7898 28.239 40.5064 30.6683C40.3897 31.669 40.1924 32.5839 39.9145 33.4128C39.6364 34.2423 39.2732 35.0007 38.8244 35.6884C38.2895 36.5226 37.6953 37.1171 37.0415 37.4712C36.3877 37.8262 35.5549 38.0029 34.5426 38.0029H32.2482L31.6129 43.4515H28.9344L31.3242 22.958H36.475Z" fill="white"/>
</g>
</g>
<defs>
<radialGradient id="paint0_radial_2_283" cx="0" cy="0" r="1" gradientUnits="userSpaceOnUse" gradientTransform="translate(14.6795 18.7398) scale(30.6291 51.0485)">
<stop stop-color="#AEB2D5"/>
<stop offset="0.3" stop-color="#AEB2D5"/>
<stop offset="0.75" stop-color="#484C89"/>
<stop offset="1" stop-color="#484C89"/>
</radialGradient>
<clipPath id="clip0_2_283">
<rect width="48" height="43.1493" fill="white" transform="translate(0 10.4254)"/>
</clipPath>
</defs>
</svg>
