<svg width="54" height="64" viewBox="0 0 54 64" fill="none" xmlns="http://www.w3.org/2000/svg">
<g clip-path="url(#clip0_2_241)">
<path d="M26.0356 0.000435804C23.8626 0.0105326 21.7874 0.195858 19.9615 0.518954C14.5826 1.46924 13.6059 3.45826 13.6059 7.12636V11.9708H26.3171V13.5856H13.6059H8.83557C5.14137 13.5856 1.90662 15.8061 0.894831 20.0301C-0.272253 24.8718 -0.32402 27.8931 0.894831 32.9486C1.79838 36.7117 3.95619 39.393 7.65039 39.393H12.0208V33.5856C12.0208 29.3901 15.6508 25.6893 19.9615 25.6893H32.6578C36.192 25.6893 39.0133 22.7794 39.0133 19.2301V7.12636C39.0133 3.68158 36.1073 1.09387 32.6578 0.518954C30.4742 0.15547 28.2086 -0.00966117 26.0356 0.000435804ZM19.1615 3.89673C20.4745 3.89673 21.5467 4.98646 21.5467 6.32636C21.5467 7.66151 20.4745 8.74118 19.1615 8.74118C17.8438 8.74118 16.7763 7.66151 16.7763 6.32636C16.7763 4.98646 17.8438 3.89673 19.1615 3.89673Z" fill="url(#paint0_linear_2_241)"/>
<path d="M40.5985 13.5856V19.2301C40.5985 23.6061 36.8885 27.2893 32.6578 27.2893H19.9615C16.4838 27.2893 13.606 30.2658 13.606 33.7486V45.8523C13.606 49.2971 16.6014 51.3233 19.9615 52.3116C23.9851 53.4947 27.8436 53.7085 32.6578 52.3116C35.8579 51.385 39.0134 49.5204 39.0134 45.8523V41.0079H26.3171V39.393H39.0134H45.3689C49.0631 39.393 50.4397 36.8163 51.7245 32.9486C53.0516 28.9669 52.9951 25.1379 51.7245 20.0301C50.8115 16.3525 49.0678 13.5856 45.3689 13.5856H40.5985ZM33.4578 44.2375C34.7755 44.2375 35.843 45.3172 35.843 46.6523C35.843 47.9922 34.7755 49.0819 33.4578 49.0819C32.1448 49.0819 31.0726 47.9922 31.0726 46.6523C31.0726 45.3172 32.1448 44.2375 33.4578 44.2375Z" fill="url(#paint1_linear_2_241)"/>
<path opacity="0.44382" d="M26.4612 63.8427C35.8688 63.8427 43.4951 62.3638 43.4951 60.5396C43.4951 58.7154 35.8688 57.2366 26.4612 57.2366C17.0536 57.2366 9.42725 58.7154 9.42725 60.5396C9.42725 62.3638 17.0536 63.8427 26.4612 63.8427Z" fill="url(#paint2_radial_2_241)"/>
</g>
<defs>
<linearGradient id="paint0_linear_2_241" x1="-1.58286e-07" y1="-1.37499e-07" x2="29.3104" y2="24.9765" gradientUnits="userSpaceOnUse">
<stop stop-color="#5A9FD4"/>
<stop offset="1" stop-color="#306998"/>
</linearGradient>
<linearGradient id="paint1_linear_2_241" x1="33.1523" y1="46.245" x2="22.6369" y2="31.5097" gradientUnits="userSpaceOnUse">
<stop stop-color="#FFD43B"/>
<stop offset="1" stop-color="#FFE873"/>
</linearGradient>
<radialGradient id="paint2_radial_2_241" cx="0" cy="0" r="1" gradientUnits="userSpaceOnUse" gradientTransform="translate(26.4612 60.5396) rotate(-90) scale(3.30303 14.5182)">
<stop stop-color="#B8B8B8" stop-opacity="0.498039"/>
<stop offset="1" stop-color="#7F7F7F" stop-opacity="0"/>
</radialGradient>
<clipPath id="clip0_2_241">
<rect width="53.0963" height="64" fill="white"/>
</clipPath>
</defs>
</svg>
