<?xml version="1.0" encoding="UTF-8"?>
<!DOCTYPE svg PUBLIC "-//W3C//DTD SVG 1.1//EN" "http://www.w3.org/Graphics/SVG/1.1/DTD/svg11.dtd">
<!-- Creator: CorelDRAW (OEM Version) -->
<svg xmlns="http://www.w3.org/2000/svg" xml:space="preserve" width="0.5in" height="0.5in" version="1.1" style="shape-rendering:geometricPrecision; text-rendering:geometricPrecision; image-rendering:optimizeQuality; fill-rule:evenodd; clip-rule:evenodd"
viewBox="0 0 9.72 9.72"
 xmlns:xlink="http://www.w3.org/1999/xlink"
 xmlns:xodm="http://www.corel.com/coreldraw/odm/2003">
 <defs>
  <style type="text/css">
   <![CDATA[
    .fil0 {fill:#00C4DE}
   ]]>
  </style>
 </defs>
 <g id="Layer_x0020_1">
  <metadata id="CorelCorpID_0Corel-Layer"/>
  <path class="fil0" d="M8.38 6.9c-0.02,-0.07 -0.05,-0.15 -0.06,-0.2 -0.09,-0.3 -0.14,-0.6 -0.06,-0.91 0.08,-0.32 0.27,-0.55 0.51,-0.77 0.04,-0.03 0.1,-0.09 0.16,-0.15 -0.06,-0.05 -0.12,-0.11 -0.16,-0.14 -0.23,-0.22 -0.42,-0.45 -0.5,-0.76 -0.08,-0.32 -0.04,-0.61 0.05,-0.92 0.01,-0.05 0.04,-0.13 0.06,-0.21 -0.08,-0.02 -0.16,-0.03 -0.21,-0.04 -0.31,-0.07 -0.59,-0.18 -0.81,-0.41 -0.23,-0.23 -0.34,-0.51 -0.42,-0.83 -0.01,-0.05 -0.03,-0.14 -0.05,-0.22 -0.07,0.02 -0.15,0.05 -0.2,0.06 -0.3,0.09 -0.6,0.14 -0.91,0.06 -0.32,-0.08 -0.55,-0.27 -0.77,-0.51 -0.03,-0.04 -0.09,-0.1 -0.15,-0.16 -0.05,0.06 -0.11,0.12 -0.14,0.16 -0.22,0.23 -0.45,0.42 -0.76,0.5 -0.32,0.08 -0.61,0.04 -0.92,-0.05 -0.05,-0.01 -0.13,-0.04 -0.21,-0.06 -0.02,0.08 -0.03,0.16 -0.04,0.21 -0.07,0.31 -0.18,0.59 -0.41,0.81 -0.23,0.23 -0.51,0.34 -0.83,0.42 -0.05,0.01 -0.14,0.03 -0.22,0.05 0.02,0.07 0.05,0.15 0.06,0.2 0.09,0.3 0.14,0.6 0.06,0.91 -0.08,0.32 -0.27,0.55 -0.51,0.77 -0.04,0.03 -0.1,0.09 -0.16,0.15 0.06,0.05 0.12,0.11 0.16,0.14 0.23,0.22 0.42,0.45 0.5,0.76 0.08,0.32 0.04,0.61 -0.05,0.92 -0.01,0.05 -0.04,0.13 -0.06,0.21 0.08,0.02 0.16,0.03 0.21,0.04 0.31,0.07 0.59,0.18 0.81,0.41 0.23,0.23 0.34,0.51 0.42,0.83 0.01,0.05 0.03,0.14 0.05,0.22 0.07,-0.02 0.15,-0.05 0.2,-0.06 0.3,-0.09 0.6,-0.14 0.91,-0.06 0.32,0.08 0.55,0.27 0.77,0.51 0.03,0.04 0.09,0.1 0.15,0.16 0.05,-0.06 0.11,-0.12 0.14,-0.16 0.22,-0.23 0.45,-0.42 0.76,-0.5 0.32,-0.08 0.61,-0.04 0.92,0.05 0.05,0.01 0.13,0.04 0.21,0.06 0.02,-0.08 0.03,-0.16 0.04,-0.21 0.07,-0.31 0.18,-0.59 0.41,-0.81 0.23,-0.23 0.51,-0.34 0.83,-0.42 0.05,-0.01 0.14,-0.03 0.22,-0.05zm-3.52 -6.9c0.45,0 0.68,0.65 1.12,0.77 0.42,0.11 0.93,-0.34 1.31,-0.12 0.39,0.23 0.27,0.9 0.59,1.22 0.31,0.31 0.98,0.17 1.19,0.56 0.22,0.39 -0.22,0.92 -0.1,1.35 0.11,0.42 0.76,0.64 0.76,1.08 -0,0.45 -0.65,0.68 -0.77,1.12 -0.11,0.42 0.34,0.93 0.12,1.31 -0.23,0.39 -0.9,0.27 -1.22,0.59 -0.31,0.31 -0.17,0.98 -0.56,1.19 -0.39,0.22 -0.92,-0.22 -1.35,-0.1 -0.42,0.11 -0.64,0.76 -1.08,0.76 -0.45,-0 -0.68,-0.65 -1.12,-0.77 -0.42,-0.11 -0.93,0.34 -1.31,0.12 -0.39,-0.23 -0.27,-0.9 -0.59,-1.22 -0.31,-0.31 -0.98,-0.17 -1.19,-0.56 -0.22,-0.39 0.22,-0.92 0.1,-1.35 -0.11,-0.42 -0.76,-0.64 -0.76,-1.08 0,-0.45 0.65,-0.68 0.77,-1.12 0.11,-0.42 -0.34,-0.93 -0.12,-1.31 0.23,-0.39 0.9,-0.27 1.22,-0.59 0.31,-0.31 0.17,-0.98 0.56,-1.19 0.39,-0.22 0.92,0.22 1.35,0.1 0.42,-0.11 0.64,-0.76 1.08,-0.76zm-0.01 6.19l2.03 -2.49c0.13,-0.15 0.1,-0.38 -0.05,-0.51 -0.15,-0.13 -0.38,-0.1 -0.51,0.05l-2.03 2.48 -0.95 -0.78c-0.15,-0.13 -0.38,-0.1 -0.51,0.05 -0.13,0.15 -0.1,0.38 0.05,0.51l0.95 0.78 0.28 0.23c0.15,0.13 0.38,0.1 0.51,-0.05l0.23 -0.28z"/>
 </g>
</svg>
