<svg width="64" height="64" viewBox="0 0 64 64" fill="none" xmlns="http://www.w3.org/2000/svg">
<g clip-path="url(#clip0_2149_6282)">
<path d="M32.0001 37.8036C35.2134 37.8036 37.8182 35.1987 37.8182 31.9855C37.8182 28.7722 35.2134 26.1673 32.0001 26.1673C28.7868 26.1673 26.1819 28.7722 26.1819 31.9855C26.1819 35.1987 28.7868 37.8036 32.0001 37.8036Z" fill="#087EA4"/>
<path d="M32.0001 45.0764C48.0666 45.0764 61.091 39.2154 61.091 31.9855C61.091 24.7555 48.0666 18.8945 32.0001 18.8945C15.9336 18.8945 2.90918 24.7555 2.90918 31.9855C2.90918 39.2154 15.9336 45.0764 32.0001 45.0764Z" stroke="#087EA4"/>
<path d="M20.6631 38.5309C28.6963 52.4449 40.2843 60.7939 46.5456 57.1789C52.8069 53.564 51.3704 39.354 43.3372 25.44C35.304 11.526 23.716 3.17703 17.4547 6.79199C11.1934 10.4069 12.6298 24.6169 20.6631 38.5309Z" stroke="#087EA4"/>
<path d="M20.663 25.44C12.6298 39.354 11.1933 53.564 17.4546 57.1789C23.7159 60.7939 35.3039 52.4449 43.3371 38.5309C51.3703 24.6169 52.8068 10.4069 46.5455 6.79199C40.2842 3.17703 28.6962 11.526 20.663 25.44Z" stroke="#087EA4"/>
</g>
<defs>
<clipPath id="clip0_2149_6282">
<rect width="64" height="58.9673" fill="white" transform="translate(0 2.51637)"/>
</clipPath>
</defs>
</svg>
