<svg width="48" height="48" viewBox="0 0 48 48" fill="none" xmlns="http://www.w3.org/2000/svg">
<path fill-rule="evenodd" clip-rule="evenodd" d="M8.8745 16.441C8.65728 16.4879 8.45918 16.599 8.3059 16.7599C8.15262 16.9207 8.05124 17.124 8.01491 17.3432C7.97858 17.5624 8.00899 17.7875 8.10219 17.9893C8.19539 18.191 8.34707 18.36 8.53755 18.4745L18.1686 24.2602L27.3607 17.8242C27.48 17.7408 27.6145 17.6816 27.7566 17.6502C27.8988 17.6187 28.0457 17.6156 28.189 17.6409C28.3324 17.6662 28.4693 17.7195 28.592 17.7977C28.7148 17.876 28.8209 17.9776 28.9044 18.0969C28.9878 18.2162 29.0469 18.3507 29.0784 18.4928C29.1099 18.6349 29.113 18.7818 29.0877 18.9252C29.0624 19.0685 29.0091 19.2055 28.9308 19.3282C28.8526 19.4509 28.7509 19.557 28.6317 19.6405L19.4395 26.0765L21.5824 37.1056C21.6246 37.3241 21.7316 37.5248 21.8894 37.6817C22.0472 37.8385 22.2486 37.9443 22.4674 37.9851C22.6862 38.0259 22.9121 37.9999 23.1159 37.9105C23.3197 37.8211 23.4919 37.6725 23.61 37.4839L39.8293 11.6957C39.9457 11.511 40.0049 11.2961 39.9997 11.0779C39.9944 10.8597 39.9248 10.6479 39.7997 10.469C39.6745 10.2902 39.4993 10.1523 39.2961 10.0727C39.0929 9.993 38.8707 9.97512 38.6573 10.0213L8.8745 16.441Z" fill="#00C4DE"/>
</svg>
