<?xml version="1.0" encoding="UTF-8"?>
<!DOCTYPE svg PUBLIC "-//W3C//DTD SVG 1.1//EN" "http://www.w3.org/Graphics/SVG/1.1/DTD/svg11.dtd">
<!-- Creator: CorelDRAW (OEM Version) -->
<svg xmlns="http://www.w3.org/2000/svg" xml:space="preserve" width="0.5in" height="0.499992in" version="1.1" style="shape-rendering:geometricPrecision; text-rendering:geometricPrecision; image-rendering:optimizeQuality; fill-rule:evenodd; clip-rule:evenodd"
viewBox="0 0 8.15 8.15"
 xmlns:xlink="http://www.w3.org/1999/xlink"
 xmlns:xodm="http://www.corel.com/coreldraw/odm/2003">
 <defs>
  <style type="text/css">
   <![CDATA[
    .fil0 {fill:#00C4DE}
   ]]>
  </style>
 </defs>
 <g id="Layer_x0020_1">
  <metadata id="CorelCorpID_0Corel-Layer"/>
  <path class="fil0" d="M4.92 4.3l0 0.46c0,0.09 0.07,0.17 0.17,0.17l2.9 0c0.09,0 0.17,-0.07 0.17,-0.17l0 -1.36c0,-0.09 -0.07,-0.17 -0.17,-0.17l-2.9 0c-0.09,0 -0.17,0.07 -0.17,0.17l0 0.46 -1.7 0 0 -0.46c0,-0.09 -0.07,-0.17 -0.17,-0.17l-1.23 0 0 -1.54 1.23 0c0.09,0 0.17,-0.07 0.17,-0.17l0 -1.36c0,-0.09 -0.07,-0.17 -0.17,-0.17l-2.9 0c-0.09,0 -0.17,0.07 -0.17,0.17l0 1.36c0,0.09 0.07,0.17 0.17,0.17l1.23 0 0 1.54 -1.23 0c-0.09,0 -0.17,0.07 -0.17,0.17l0 1.36c0,0.09 0.07,0.17 0.17,0.17l1.23 0 0 1.54 -1.23 0c-0.09,0 -0.17,0.07 -0.17,0.17l0 1.36c0,0.09 0.07,0.17 0.17,0.17l2.9 0c0.09,0 0.17,-0.07 0.17,-0.17l0 -1.36c0,-0.09 -0.07,-0.17 -0.17,-0.17l-1.23 0 0 -1.54 1.23 0c0.09,0 0.17,-0.07 0.17,-0.17l0 -0.46 1.7 -0zm-4.43 -3.8l2.24 0 0 0.7 -2.24 0 0 -0.7zm2.24 3.23l0 0.7 -2.24 0 0 -0.7 2.24 0zm-2.24 3.23l2.24 0 0 0.7 -2.24 0 0 -0.7zm7.16 -3.23l0 0.7 -2.24 0 0 -0.7 2.24 0z"/>
 </g>
</svg>
