<svg width="64" height="64" viewBox="0 0 64 64" fill="none" xmlns="http://www.w3.org/2000/svg">
<g clip-path="url(#clip0_2149_6304)">
<path d="M2.4 0H61.6C62.9255 0 64 1.07451 64 2.4V61.6C64 62.9255 62.9255 64 61.6 64H2.4C1.07451 64 0 62.9255 0 61.6V2.4C0 1.07451 1.07451 0 2.4 0Z" fill="white"/>
<path d="M2.4 0H61.6C62.9255 0 64 1.07451 64 2.4V61.6C64 62.9255 62.9255 64 61.6 64H2.4C1.07451 64 0 62.9255 0 61.6V2.4C0 1.07451 1.07451 0 2.4 0ZM35.5766 34.048V28.799H12.7995V34.048H20.9314V57.4193H27.4048V34.048H35.5766ZM38.1575 56.8022C39.2015 57.3344 40.4362 57.7337 41.8617 57.9998C43.2869 58.2658 44.7892 58.399 46.3685 58.399C47.9077 58.399 49.3698 58.2526 50.755 57.9599C52.1403 57.6672 53.3548 57.1847 54.3988 56.5127C55.4427 55.8407 56.269 54.9627 56.878 53.8782C57.487 52.7936 57.7915 51.453 57.7915 49.8562C57.7915 48.6986 57.6175 47.6842 57.2697 46.8126C56.9216 45.9409 56.4197 45.1658 55.7639 44.4871C55.1082 43.8085 54.3217 43.1998 53.405 42.6609C52.4881 42.1221 51.4543 41.613 50.3033 41.134C49.4602 40.7879 48.704 40.4519 48.0347 40.126C47.3657 39.8001 46.7968 39.4673 46.3284 39.1281C45.8599 38.7887 45.4986 38.4295 45.2443 38.0502C44.99 37.6711 44.8628 37.2418 44.8628 36.7628C44.8628 36.3237 44.9767 35.9279 45.2042 35.5754C45.4316 35.2226 45.7529 34.9199 46.1679 34.6671C46.5826 34.4143 47.0912 34.2181 47.6935 34.0783C48.2959 33.9387 48.9649 33.8688 49.7012 33.8688C50.2363 33.8688 50.802 33.9087 51.3974 33.9884C51.9931 34.0684 52.592 34.1915 53.1941 34.3577C53.7964 34.5241 54.382 34.7335 54.9509 34.9866C55.5198 35.2394 56.045 35.5321 56.5268 35.8646V29.8969C55.5498 29.5242 54.4825 29.248 53.3248 29.0686C52.1669 28.8889 50.8386 28.799 49.3398 28.799C47.8139 28.799 46.3685 28.962 45.0033 29.2881C43.6382 29.614 42.4372 30.1231 41.3999 30.815C40.3626 31.507 39.5429 32.3884 38.9406 33.4594C38.3382 34.5307 38.0372 35.8114 38.0372 37.3017C38.0372 39.2047 38.5893 40.8281 39.6935 42.1718C40.7975 43.5158 42.4738 44.6535 44.7225 45.585C45.6057 45.9444 46.4288 46.2969 47.1916 46.643C47.9545 46.9888 48.6137 47.3482 49.169 47.7206C49.7246 48.0933 50.1627 48.499 50.4839 48.9381C50.8052 49.3772 50.9659 49.8762 50.9659 50.4352C50.9659 50.8478 50.8655 51.2303 50.6646 51.5828C50.464 51.9355 50.1595 52.2415 49.7514 52.5009C49.343 52.7604 48.8345 52.9634 48.2255 53.1097C47.6165 53.2561 46.9039 53.3292 46.0874 53.3292C44.6956 53.3292 43.3172 53.0865 41.952 52.6009C40.5868 52.1152 39.3221 51.3866 38.1575 50.4153V56.8022Z" fill="#3178C6"/>
</g>
<defs>
<clipPath id="clip0_2149_6304">
<rect width="64" height="64" fill="white"/>
</clipPath>
</defs>
</svg>
