<?xml version="1.0" encoding="UTF-8"?>
<!DOCTYPE svg PUBLIC "-//W3C//DTD SVG 1.1//EN" "http://www.w3.org/Graphics/SVG/1.1/DTD/svg11.dtd">
<!-- Creator: CorelDRAW (OEM Version) -->
<svg xmlns="http://www.w3.org/2000/svg" xml:space="preserve" width="0.5in" height="0.499996in" version="1.1" style="shape-rendering:geometricPrecision; text-rendering:geometricPrecision; image-rendering:optimizeQuality; fill-rule:evenodd; clip-rule:evenodd"
viewBox="0 0 29.32 29.32"
 xmlns:xlink="http://www.w3.org/1999/xlink"
 xmlns:xodm="http://www.corel.com/coreldraw/odm/2003">
 <defs>
  <style type="text/css">
   <![CDATA[
    .fil0 {fill:#FEFEFE}
   ]]>
  </style>
 </defs>
 <g id="Layer_x0020_1">
  <metadata id="CorelCorpID_0Corel-Layer"/>
  <path class="fil0" d="M29.32 14.66c0,8.1 -6.56,14.66 -14.66,14.66 -8.1,0 -14.66,-6.56 -14.66,-14.66 0,-8.1 6.56,-14.66 14.66,-14.66 8.1,0 14.66,6.56 14.66,14.66zm-16.44 0.69l-6.03 6.66 1.51 0 5.2 -5.74 4.25 5.74 4.67 0 -6.35 -8.57 5.53 -6.1 -1.51 0 -4.7 5.18 -3.85 -5.2 -4.67 0 5.95 8.03zm-3.76 -7l9.34 12.62 1.9 0 -9.34 -12.62 -1.9 0z"/>
 </g>
</svg>
