<?xml version="1.0" encoding="UTF-8"?>
<!DOCTYPE svg PUBLIC "-//W3C//DTD SVG 1.1//EN" "http://www.w3.org/Graphics/SVG/1.1/DTD/svg11.dtd">
<!-- Creator: CorelDRAW (OEM Version) -->
<svg xmlns="http://www.w3.org/2000/svg" xml:space="preserve" width="0.333335in" height="0.5in" version="1.1" style="shape-rendering:geometricPrecision; text-rendering:geometricPrecision; image-rendering:optimizeQuality; fill-rule:evenodd; clip-rule:evenodd"
viewBox="0 0 3.92 5.88"
 xmlns:xlink="http://www.w3.org/1999/xlink"
 xmlns:xodm="http://www.corel.com/coreldraw/odm/2003">
 <defs>
  <style type="text/css">
   <![CDATA[
    .fil0 {fill:#00C4DE}
   ]]>
  </style>
 </defs>
 <g id="Layer_x0020_1">
  <metadata id="CorelCorpID_0Corel-Layer"/>
  <path class="fil0" d="M3.3 3.61l0.53 0c0.05,0 0.09,0.09 0.09,0.21l0 1.86c0,0.12 -0.04,0.21 -0.09,0.21l-0.53 0c-0.05,0 -0.09,-0.09 -0.09,-0.21l0 -1.86c0,-0.12 0.04,-0.21 0.09,-0.21zm-1.08 -3.61l-0.53 0c-0.05,0 -0.09,0.07 -0.09,0.16l0 5.57c0,0.09 0.04,0.16 0.09,0.16l0.53 0c0.05,0 0.09,-0.07 0.09,-0.16l0 -5.57c0,-0.09 -0.04,-0.16 -0.09,-0.16zm-2.13 1.49l0.53 0c0.05,0 0.09,0.08 0.09,0.18l0 4.04c0,0.1 -0.04,0.18 -0.09,0.18l-0.53 0c-0.05,0 -0.09,-0.08 -0.09,-0.18l0 -4.04c0,-0.1 0.04,-0.18 0.09,-0.18z"/>
 </g>
</svg>
