<?xml version="1.0" encoding="UTF-8"?>
<!DOCTYPE svg PUBLIC "-//W3C//DTD SVG 1.1//EN" "http://www.w3.org/Graphics/SVG/1.1/DTD/svg11.dtd">
<!-- Creator: CorelDRAW (OEM Version) -->
<svg xmlns="http://www.w3.org/2000/svg" xml:space="preserve" width="1.53051in" height="1.35748in" version="1.1" style="shape-rendering:geometricPrecision; text-rendering:geometricPrecision; image-rendering:optimizeQuality; fill-rule:evenodd; clip-rule:evenodd"
viewBox="0 0 148.73 131.92"
 xmlns:xlink="http://www.w3.org/1999/xlink"
 xmlns:xodm="http://www.corel.com/coreldraw/odm/2003">
 <defs>
  <style type="text/css">
   <![CDATA[
    .fil0 {fill:#373435}
   ]]>
  </style>
 </defs>
 <g id="Layer_x0020_1">
  <metadata id="CorelCorpID_0Corel-Layer"/>
  <path class="fil0" d="M5.18 28.67l138.37 0 0 88.66c0,5.17 -4.23,9.41 -9.41,9.41l-119.55 0c-5.17,0 -9.41,-4.23 -9.41,-9.41l0 -88.66zm138.37 -5.18l-138.37 0 0 -8.9c0,-5.17 4.23,-9.41 9.41,-9.41l119.55 0c5.17,0 9.41,4.23 9.41,9.41l0 8.9zm-128.96 -23.49l119.55 0c8.02,0 14.59,6.57 14.59,14.59l0 102.74c0,8.02 -6.57,14.59 -14.59,14.59l-119.55 0c-8.02,0 -14.59,-6.57 -14.59,-14.59l0 -102.74c0,-8.02 6.57,-14.59 14.59,-14.59zm4.11 11.28c1.69,0 3.06,1.37 3.06,3.06 0,1.69 -1.37,3.06 -3.06,3.06 -1.69,0 -3.06,-1.37 -3.06,-3.06 0,-1.69 1.37,-3.06 3.06,-3.06zm9.29 0c1.69,0 3.06,1.37 3.06,3.06 0,1.69 -1.37,3.06 -3.06,3.06 -1.69,0 -3.06,-1.37 -3.06,-3.06 0,-1.69 1.37,-3.06 3.06,-3.06zm9.29 0c1.69,0 3.06,1.37 3.06,3.06 0,1.69 -1.37,3.06 -3.06,3.06 -1.69,0 -3.06,-1.37 -3.06,-3.06 0,-1.69 1.37,-3.06 3.06,-3.06zm54.34 80.43l15.03 -13.89 -14.99 -13.68c-2.3,-2.1 1.36,-7.16 4.01,-4.66l17.39 16.44c0.52,0.5 0.8,1.15 0.8,1.9 0,0.75 -0.27,1.4 -0.79,1.9l-17.41 16.6c-2.52,2.4 -6.62,-2.22 -4.02,-4.61zm-29.67 11.14l19.2 -50.86c0.32,-0.86 1.21,-1.44 2.19,-1.44l0.7 0c0.68,0 1.24,0.26 1.62,0.75 0.37,0.49 0.45,1.06 0.23,1.66l-19.2 50.86c-0.32,0.86 -1.21,1.44 -2.19,1.44l-0.7 0c-0.68,0 -1.24,-0.26 -1.62,-0.75 -0.37,-0.49 -0.45,-1.06 -0.23,-1.66zm-4.83 -11.14l-15.03 -13.89 14.99 -13.68c2.3,-2.1 -1.36,-7.16 -4.01,-4.66l-17.39 16.44c-0.52,0.5 -0.8,1.15 -0.8,1.9 -0,0.75 0.27,1.4 0.79,1.9l17.41 16.6c2.52,2.4 6.62,-2.22 4.02,-4.62z"/>
 </g>
</svg>
